0
SECTION
2
HEADER
9
$ACADVER
1
AC1009
9
$INSUNITS
70
4
0
ENDSEC
0
SECTION
2
ENTITIES
0
POLYLINE
8
0
66
1
70
1
0
VERTEX
8
0
10
15.884201
20
-0.832456
30
0
0
VERTEX
8
0
10
15.896496
20
-0.770503
30
0
0
VERTEX
8
0
10
15.943284
20
-0.687435
30
0
0
VERTEX
8
0
10
16.064465
20
-0.581339
30
0
0
VERTEX
8
0
10
16.271094
20
-0.484434
30
0
0
VERTEX
8
0
10
16.654849
20
-0.397932
30
0
0
VERTEX
8
0
10
16.838185
20
-0.325479
30
0
0
VERTEX
8
0
10
16.949297
20
-0.254047
30
0
0
VERTEX
8
0
10
17.020923
20
-0.184638
30
0
0
VERTEX
8
0
10
17.073618
20
-0.099071
30
0
0
VERTEX
8
0
10
17.091638
20
-0.033894
30
0
0
VERTEX
8
0
10
17.091638
20
0.033894
30
0
0
VERTEX
8
0
10
17.058913
20
0.12942
30
0
0
VERTEX
8
0
10
16.998626
20
0.209488
30
0
0
VERTEX
8
0
10
16.922802
20
0.273967
30
0
0
VERTEX
8
0
10
16.717427
20
0.377811
30
0
0
VERTEX
8
0
10
16.333775
20
0.465174
30
0
0
VERTEX
8
0
10
16.120723
20
0.548431
30
0
0
VERTEX
8
0
10
16.011783
20
0.6193
30
0
0
VERTEX
8
0
10
15.943284
20
0.687435
30
0
0
VERTEX
8
0
10
15.896496
20
0.770503
30
0
0
VERTEX
8
0
10
15.884201
20
0.832456
30
0
0
VERTEX
8
0
10
15.889953
20
0.895354
30
0
0
VERTEX
8
0
10
15.927802
20
0.982858
30
0
0
VERTEX
8
0
10
15.988804
20
1.057779
30
0
0
VERTEX
8
0
10
16.089739
20
1.139647
30
0
0
VERTEX
8
0
10
16.292921
20
1.244719
30
0
0
VERTEX
8
0
10
16.66534
20
1.371706
30
0
0
VERTEX
8
0
10
16.779965
20
1.436374
30
0
0
VERTEX
8
0
10
16.883002
20
1.519028
30
0
0
VERTEX
8
0
10
16.94698
20
1.595545
30
0
0
VERTEX
8
0
10
16.990443
20
1.68615
30
0
0
VERTEX
8
0
10
17.000357
20
1.78681
30
0
0
VERTEX
8
0
10
16.969731
20
1.883208
30
0
0
VERTEX
8
0
10
16.85735
20
2.00565
30
0
0
VERTEX
8
0
10
16.681042
20
2.095305
30
0
0
VERTEX
8
0
10
16.489593
20
2.141955
30
0
0
VERTEX
8
0
10
16.131322
20
2.182573
30
0
0
VERTEX
8
0
10
15.915696
20
2.257348
30
0
0
VERTEX
8
0
10
15.784089
20
2.350196
30
0
0
VERTEX
8
0
10
15.728874
20
2.427919
30
0
0
VERTEX
8
0
10
15.710171
20
2.488247
30
0
0
VERTEX
8
0
10
15.709317
20
2.551401
30
0
0
VERTEX
8
0
10
15.737811
20
2.642382
30
0
0
VERTEX
8
0
10
15.790647
20
2.72327
30
0
0
VERTEX
8
0
10
15.882472
20
2.81524
30
0
0
VERTEX
8
0
10
16.073558
20
2.940974
30
0
0
VERTEX
8
0
10
16.430663
20
3.106194
30
0
0
VERTEX
8
0
10
16.609959
20
3.250469
30
0
0
VERTEX
8
0
10
16.701621
20
3.38855
30
0
0
VERTEX
8
0
10
16.72532
20
3.486472
30
0
0
VERTEX
8
0
10
16.720455
20
3.554042
30
0
0
VERTEX
8
0
10
16.697416
20
3.617749
30
0
0
VERTEX
8
0
10
16.635938
20
3.697567
30
0
0
VERTEX
8
0
10
16.465348
20
3.798801
30
0
0
VERTEX
8
0
10
16.240907
20
3.849133
30
0
0
VERTEX
8
0
10
15.880128
20
3.850992
30
0
0
VERTEX
8
0
10
15.685987
20
3.879746
30
0
0
VERTEX
8
0
10
15.562461
20
3.920941
30
0
0
VERTEX
8
0
10
15.477585
20
3.967778
30
0
0
VERTEX
8
0
10
15.407085
20
4.032645
30
0
0
VERTEX
8
0
10
15.3744
20
4.086898
30
0
0
VERTEX
8
0
10
15.35807
20
4.147843
30
0
0
VERTEX
8
0
10
15.365691
20
4.242423
30
0
0
VERTEX
8
0
10
15.437957
20
4.385596
30
0
0
VERTEX
8
0
10
15.624429
20
4.56732
30
0
0
VERTEX
8
0
10
15.96267
20
4.768176
30
0
0
VERTEX
8
0
10
16.137244
20
4.917784
30
0
0
VERTEX
8
0
10
16.215727
20
5.024249
30
0
0
VERTEX
8
0
10
16.255928
20
5.115782
30
0
0
VERTEX
8
0
10
16.269261
20
5.215645
30
0
0
VERTEX
8
0
10
16.25736
20
5.282337
30
0
0
VERTEX
8
0
10
16.227788
20
5.343286
30
0
0
VERTEX
8
0
10
16.158304
20
5.41624
30
0
0
VERTEX
8
0
10
16.009881
20
5.489991
30
0
0
VERTEX
8
0
10
15.782468
20
5.525289
30
0
0
VERTEX
8
0
10
15.390597
20
5.489821
30
0
0
VERTEX
8
0
10
15.162244
20
5.503167
30
0
0
VERTEX
8
0
10
15.036737
20
5.536903
30
0
0
VERTEX
8
0
10
14.950536
20
5.580535
30
0
0
VERTEX
8
0
10
14.880368
20
5.64508
30
0
0
VERTEX
8
0
10
14.84953
20
5.700201
30
0
0
VERTEX
8
0
10
14.835564
20
5.761798
30
0
0
VERTEX
8
0
10
14.84452
20
5.856715
30
0
0
VERTEX
8
0
10
14.912071
20
6.002927
30
0
0
VERTEX
8
0
10
15.061421
20
6.175497
30
0
0
VERTEX
8
0
10
15.351384
20
6.389809
30
0
0
VERTEX
8
0
10
15.493859
20
6.525933
30
0
0
VERTEX
8
0
10
15.601718
20
6.691731
30
0
0
VERTEX
8
0
10
15.637822
20
6.85396
30
0
0
VERTEX
8
0
10
15.616146
20
6.952756
30
0
0
VERTEX
8
0
10
15.55723
20
7.034972
30
0
0
VERTEX
8
0
10
15.474288
20
7.091708
30
0
0
VERTEX
8
0
10
15.380623
20
7.125984
30
0
0
VERTEX
8
0
10
15.250063
20
7.146046
30
0
0
VERTEX
8
0
10
15.11846
20
7.144738
30
0
0
VERTEX
8
0
10
14.732443
20
7.068502
30
0
0
VERTEX
8
0
10
14.503946
20
7.057906
30
0
0
VERTEX
8
0
10
14.3756
20
7.078338
30
0
0
VERTEX
8
0
10
14.28531
20
7.112721
30
0
0
VERTEX
8
0
10
14.20878
20
7.169578
30
0
0
VERTEX
8
0
10
14.17235
20
7.221173
30
0
0
VERTEX
8
0
10
14.152021
20
7.280973
30
0
0
VERTEX
8
0
10
14.151007
20
7.376306
30
0
0
VERTEX
8
0
10
14.176261
20
7.469562
30
0
0
VERTEX
8
0
10
14.235171
20
7.585406
30
0
0
VERTEX
8
0
10
14.378051
20
7.764035
30
0
0
VERTEX
8
0
10
14.666622
20
8.03152
30
0
0
VERTEX
8
0
10
14.79256
20
8.224139
30
0
0
VERTEX
8
0
10
14.825986
20
8.317891
30
0
0
VERTEX
8
0
10
14.838162
20
8.417375
30
0
0
VERTEX
8
0
10
14.81874
20
8.516466
30
0
0
VERTEX
8
0
10
14.784846
20
8.575172
30
0
0
VERTEX
8
0
10
14.736651
20
8.622607
30
0
0
VERTEX
8
0
10
14.648233
20
8.670362
30
0
0
VERTEX
8
0
10
14.551498
20
8.69466
30
0
0
VERTEX
8
0
10
14.419557
20
8.700965
30
0
0
VERTEX
8
0
10
14.224556
20
8.672044
30
0
0
VERTEX
8
0
10
13.848964
20
8.555079
30
0
0
VERTEX
8
0
10
13.589142
20
8.538101
30
0
0
VERTEX
8
0
10
13.434389
20
8.580199
30
0
0
VERTEX
8
0
10
13.359002
20
8.637821
30
0
0
VERTEX
8
0
10
13.324638
20
8.690738
30
0
0
VERTEX
8
0
10
13.306191
20
8.751329
30
0
0
VERTEX
8
0
10
13.305159
20
8.847126
30
0
0
VERTEX
8
0
10
13.327146
20
8.941541
30
0
0
VERTEX
8
0
10
13.379187
20
9.060903
30
0
0
VERTEX
8
0
10
13.487724
20
9.224419
30
0
0
VERTEX
8
0
10
13.727751
20
9.493773
30
0
0
VERTEX
8
0
10
13.840528
20
9.694244
30
0
0
VERTEX
8
0
10
13.879443
20
9.888756
30
0
0
VERTEX
8
0
10
13.861264
20
9.987851
30
0
0
VERTEX
8
0
10
13.829337
20
10.047601
30
0
0
VERTEX
8
0
10
13.782377
20
10.096429
30
0
0
VERTEX
8
0
10
13.69375
20
10.144341
30
0
0
VERTEX
8
0
10
13.496732
20
10.167438
30
0
0
VERTEX
8
0
10
13.271223
20
10.122129
30
0
0
VERTEX
8
0
10
12.94088
20
9.977086
30
0
0
VERTEX
8
0
10
12.751827
20
9.92439
30
0
0
VERTEX
8
0
10
12.622225
20
9.911781
30
0
0
VERTEX
8
0
10
12.525637
20
9.920046
30
0
0
VERTEX
8
0
10
12.434848
20
9.950631
30
0
0
VERTEX
8
0
10
12.382922
20
9.986898
30
0
0
VERTEX
8
0
10
12.343215
20
10.035933
30
0
0
VERTEX
8
0
10
12.311708
20
10.125436
30
0
0
VERTEX
8
0
10
12.319493
20
10.285624
30
0
0
VERTEX
8
0
10
12.415929
20
10.527482
30
0
0
VERTEX
8
0
10
12.643233
20
10.848548
30
0
0
VERTEX
8
0
10
12.730998
20
11.025067
30
0
0
VERTEX
8
0
10
12.765773
20
11.152499
30
0
0
VERTEX
8
0
10
12.772558
20
11.252008
30
0
0
VERTEX
8
0
10
12.754462
20
11.350856
30
0
0
VERTEX
8
0
10
12.724242
20
11.41135
30
0
0
VERTEX
8
0
10
12.678883
20
11.461727
30
0
0
VERTEX
8
0
10
12.590644
20
11.510819
30
0
0
VERTEX
8
0
10
12.492266
20
11.529981
30
0
0
VERTEX
8
0
10
12.392773
20
11.527162
30
0
0
VERTEX
8
0
10
12.170665
20
11.46691
30
0
0
VERTEX
8
0
10
11.827099
20
11.275121
30
0
0
VERTEX
8
0
10
11.61306
20
11.194433
30
0
0
VERTEX
8
0
10
11.484681
20
11.174204
30
0
0
VERTEX
8
0
10
11.388186
20
11.179003
30
0
0
VERTEX
8
0
10
11.297832
20
11.209428
30
0
0
VERTEX
8
0
10
11.24724
20
11.24724
30
0
0
VERTEX
8
0
10
11.209428
20
11.297832
30
0
0
VERTEX
8
0
10
11.179003
20
11.388186
30
0
0
VERTEX
8
0
10
11.174204
20
11.484681
30
0
0
VERTEX
8
0
10
11.194433
20
11.61306
30
0
0
VERTEX
8
0
10
11.275121
20
11.827099
30
0
0
VERTEX
8
0
10
11.46691
20
12.170665
30
0
0
VERTEX
8
0
10
11.508823
20
12.295422
30
0
0
VERTEX
8
0
10
11.530087
20
12.425791
30
0
0
VERTEX
8
0
10
11.526433
20
12.525464
30
0
0
VERTEX
8
0
10
11.498105
20
12.621879
30
0
0
VERTEX
8
0
10
11.438119
20
12.703318
30
0
0
VERTEX
8
0
10
11.350856
20
12.754462
30
0
0
VERTEX
8
0
10
11.18541
20
12.770257
30
0
0
VERTEX
8
0
10
10.994397
20
12.718911
30
0
0
VERTEX
8
0
10
10.820908
20
12.625475
30
0
0
VERTEX
8
0
10
10.527482
20
12.415929
30
0
0
VERTEX
8
0
10
10.317206
20
12.327216
30
0
0
VERTEX
8
0
10
10.157276
20
12.308153
30
0
0
VERTEX
8
0
10
10.064237
20
12.328967
30
0
0
VERTEX
8
0
10
10.00997
20
12.361284
30
0
0
VERTEX
8
0
10
9.967077
20
12.407645
30
0
0
VERTEX
8
0
10
9.927374
20
12.494324
30
0
0
VERTEX
8
0
10
9.912515
20
12.589789
30
0
0
VERTEX
8
0
10
9.919214
20
12.719579
30
0
0
VERTEX
8
0
10
9.977086
20
12.94088
30
0
0
VERTEX
8
0
10
10.131913
20
13.302611
30
0
0
VERTEX
8
0
10
10.168617
20
13.529801
30
0
0
VERTEX
8
0
10
10.144341
20
13.69375
30
0
0
VERTEX
8
0
10
10.096429
20
13.782377
30
0
0
VERTEX
8
0
10
10.047601
20
13.829337
30
0
0
VERTEX
8
0
10
9.987851
20
13.861264
30
0
0
VERTEX
8
0
10
9.888756
20
13.879443
30
0
0
VERTEX
8
0
10
9.78928
20
13.869494
30
0
0
VERTEX
8
0
10
9.663773
20
13.827752
30
0
0
VERTEX
8
0
10
9.467541
20
13.707954
30
0
0
VERTEX
8
0
10
9.171994
20
13.448335
30
0
0
VERTEX
8
0
10
8.941541
20
13.327146
30
0
0
VERTEX
8
0
10
8.783044
20
13.30266
30
0
0
VERTEX
8
0
10
8.690738
20
13.324638
30
0
0
VERTEX
8
0
10
8.637821
20
13.359002
30
0
0
VERTEX
8
0
10
8.596324
20
13.406853
30
0
0
VERTEX
8
0
10
8.556418
20
13.493947
30
0
0
VERTEX
8
0
10
8.538101
20
13.589142
30
0
0
VERTEX
8
0
10
8.537094
20
13.719352
30
0
0
VERTEX
8
0
10
8.56974
20
13.912877
30
0
0
VERTEX
8
0
10
8.679459
20
14.256573
30
0
0
VERTEX
8
0
10
8.700947
20
14.485583
30
0
0
VERTEX
8
0
10
8.657382
20
14.679106
30
0
0
VERTEX
8
0
10
8.600469
20
14.76224
30
0
0
VERTEX
8
0
10
8.547
20
14.803838
30
0
0
VERTEX
8
0
10
8.48424
20
14.829345
30
0
0
VERTEX
8
0
10
8.383788
20
14.837066
30
0
0
VERTEX
8
0
10
8.194409
20
14.778033
30
0
0
VERTEX
8
0
10
8.006825
20
14.644918
30
0
0
VERTEX
8
0
10
7.764035
20
14.378051
30
0
0
VERTEX
8
0
10
7.612761
20
14.253016
30
0
0
VERTEX
8
0
10
7.499492
20
14.188784
30
0
0
VERTEX
8
0
10
7.407893
20
14.157049
30
0
0
VERTEX
8
0
10
7.312513
20
14.148062
30
0
0
VERTEX
8
0
10
7.250325
20
14.160074
30
0
0
VERTEX
8
0
10
7.194106
20
14.188719
30
0
0
VERTEX
8
0
10
7.128919
20
14.257669
30
0
0
VERTEX
8
0
10
7.070877
20
14.407174
30
0
0
VERTEX
8
0
10
7.060603
20
14.667347
30
0
0
VERTEX
8
0
10
7.137666
20
15.053108
30
0
0
VERTEX
8
0
10
7.143298
20
15.282949
30
0
0
VERTEX
8
0
10
7.116694
20
15.412512
30
0
0
VERTEX
8
0
10
7.075572
20
15.503635
30
0
0
VERTEX
8
0
10
7.010281
20
15.580365
30
0
0
VERTEX
8
0
10
6.952756
20
15.616146
30
0
0
VERTEX
8
0
10
6.887674
20
15.634953
30
0
0
VERTEX
8
0
10
6.786965
20
15.632132
30
0
0
VERTEX
8
0
10
6.604794
20
15.553626
30
0
0
VERTEX
8
0
10
6.432152
20
15.401633
30
0
0
VERTEX
8
0
10
6.218587
20
15.11085
30
0
0
VERTEX
8
0
10
6.081211
20
14.970687
30
0
0
VERTEX
8
0
10
5.975277
20
14.894967
30
0
0
VERTEX
8
0
10
5.887497
20
14.853831
30
0
0
VERTEX
8
0
10
5.793579
20
14.834923
30
0
0
VERTEX
8
0
10
5.730476
20
14.840369
30
0
0
VERTEX
8
0
10
5.671571
20
14.86298
30
0
0
VERTEX
8
0
10
5.599534
20
14.924739
30
0
0
VERTEX
8
0
10
5.526182
20
15.067358
30
0
0
VERTEX
8
0
10
5.488769
20
15.325032
30
0
0
VERTEX
8
0
10
5.525087
20
15.716735
30
0
0
VERTEX
8
0
10
5.512834
20
15.913487
30
0
0
VERTEX
8
0
10
5.479234
20
16.041234
30
0
0
VERTEX
8
0
10
5.435355
20
16.130804
30
0
0
VERTEX
8
0
10
5.37026
20
16.207361
30
0
0
VERTEX
8
0
10
5.313842
20
16.24464
30
0
0
VERTEX
8
0
10
5.249371
20
16.265588
30
0
0
VERTEX
8
0
10
5.148408
20
16.263983
30
0
0
VERTEX
8
0
10
5.05363
20
16.231389
30
0
0
VERTEX
8
0
10
4.968876
20
16.179202
30
0
0
VERTEX
8
0
10
4.80665
20
16.015968
30
0
0
VERTEX
8
0
10
4.605008
20
15.67809
30
0
0
VERTEX
8
0
10
4.459988
20
15.501193
30
0
0
VERTEX
8
0
10
4.358923
20
15.419485
30
0
0
VERTEX
8
0
10
4.272956
20
15.375394
30
0
0
VERTEX
8
0
10
4.179495
20
15.356565
30
0
0
VERTEX
8
0
10
4.116776
20
15.364016
30
0
0
VERTEX
8
0
10
4.058734
20
15.388923
30
0
0
VERTEX
8
0
10
3.987208
20
15.45196
30
0
0
VERTEX
8
0
10
3.934804
20
15.533128
30
0
0
VERTEX
8
0
10
3.888134
20
15.654421
30
0
0
VERTEX
8
0
10
3.850992
20
15.880128
30
0
0
VERTEX
8
0
10
3.845303
20
16.27356
30
0
0
VERTEX
8
0
10
3.819222
20
16.402559
30
0
0
VERTEX
8
0
10
3.772453
20
16.526095
30
0
0
VERTEX
8
0
10
3.719452
20
16.610587
30
0
0
VERTEX
8
0
10
3.646711
20
16.67992
30
0
0
VERTEX
8
0
10
3.554042
20
16.720455
30
0
0
VERTEX
8
0
10
3.452898
20
16.721116
30
0
0
VERTEX
8
0
10
3.301721
20
16.652072
30
0
0
VERTEX
8
0
10
3.161972
20
16.512098
30
0
0
VERTEX
8
0
10
3.058444
20
16.344436
30
0
0
VERTEX
8
0
10
2.909102
20
16.016251
30
0
0
VERTEX
8
0
10
2.771355
20
15.834285
30
0
0
VERTEX
8
0
10
2.642382
20
15.737811
30
0
0
VERTEX
8
0
10
2.551401
20
15.709317
30
0
0
VERTEX
8
0
10
2.488247
20
15.710171
30
0
0
VERTEX
8
0
10
2.427919
20
15.728874
30
0
0
VERTEX
8
0
10
2.350196
20
15.784089
30
0
0
VERTEX
8
0
10
2.289595
20
15.859335
30
0
0
VERTEX
8
0
10
2.230501
20
15.975085
30
0
0
VERTEX
8
0
10
2.16997
20
16.195673
30
0
0
VERTEX
8
0
10
2.123188
20
16.586356
30
0
0
VERTEX
8
0
10
2.04138
20
16.80146
30
0
0
VERTEX
8
0
10
1.938382
20
16.931305
30
0
0
VERTEX
8
0
10
1.852576
20
16.984103
30
0
0
VERTEX
8
0
10
1.78681
20
17.000357
30
0
0
VERTEX
8
0
10
1.719101
20
16.998132
30
0
0
VERTEX
8
0
10
1.624193
20
16.964328
30
0
0
VERTEX
8
0
10
1.475198
20
16.833371
30
0
0
VERTEX
8
0
10
1.357974
20
16.635468
30
0
0
VERTEX
8
0
10
1.244719
20
16.292921
30
0
0
VERTEX
8
0
10
1.157379
20
16.117167
30
0
0
VERTEX
8
0
10
1.080028
20
16.012417
30
0
0
VERTEX
8
0
10
1.009256
20
15.946169
30
0
0
VERTEX
8
0
10
0.925778
20
15.899164
30
0
0
VERTEX
8
0
10
0.86408
20
15.884844
30
0
0
VERTEX
8
0
10
0.801072
20
15.888146
30
0
0
VERTEX
8
0
10
0.713476
20
15.924621
30
0
0
VERTEX
8
0
10
0.599642
20
16.037593
30
0
0
VERTEX
8
0
10
0.484434
20
16.271094
30
0
0
VERTEX
8
0
10
0.397932
20
16.654849
30
0
0
VERTEX
8
0
10
0.309592
20
16.86711
30
0
0
VERTEX
8
0
10
0.23259
20
16.974651
30
0
0
VERTEX
8
0
10
0.15796
20
17.04117
30
0
0
VERTEX
8
0
10
0.067105
20
17.08471
30
0
0
VERTEX
8
0
10
0
20
17.094
30
0
0
VERTEX
8
0
10
-0.067105
20
17.08471
30
0
0
VERTEX
8
0
10
-0.15796
20
17.04117
30
0
0
VERTEX
8
0
10
-0.29245
20
16.895356
30
0
0
VERTEX
8
0
10
-0.388345
20
16.686284
30
0
0
VERTEX
8
0
10
-0.465174
20
16.333775
30
0
0
VERTEX
8
0
10
-0.533664
20
16.149855
30
0
0
VERTEX
8
0
10
-0.599642
20
16.037593
30
0
0
VERTEX
8
0
10
-0.663101
20
15.96431
30
0
0
VERTEX
8
0
10
-0.741209
20
15.908837
30
0
0
VERTEX
8
0
10
-0.801072
20
15.888146
30
0
0
VERTEX
8
0
10
-0.86408
20
15.884844
30
0
0
VERTEX
8
0
10
-0.955009
20
15.911963
30
0
0
VERTEX
8
0
10
-1.080028
20
16.012417
30
0
0
VERTEX
8
0
10
-1.219012
20
16.232597
30
0
0
VERTEX
8
0
10
-1.345154
20
16.605207
30
0
0
VERTEX
8
0
10
-1.436374
20
16.779965
30
0
0
VERTEX
8
0
10
-1.519028
20
16.883002
30
0
0
VERTEX
8
0
10
-1.595545
20
16.94698
30
0
0
VERTEX
8
0
10
-1.68615
20
16.990443
30
0
0
VERTEX
8
0
10
-1.752854
20
17.001551
30
0
0
VERTEX
8
0
10
-1.820271
20
16.994466
30
0
0
VERTEX
8
0
10
-1.911853
20
16.951934
30
0
0
VERTEX
8
0
10
-1.98518
20
16.883609
30
0
0
VERTEX
8
0
10
-2.04138
20
16.80146
30
0
0
VERTEX
8
0
10
-2.123188
20
16.586356
30
0
0
VERTEX
8
0
10
-2.16997
20
16.195673
30
0
0
VERTEX
8
0
10
-2.230501
20
15.975085
30
0
0
VERTEX
8
0
10
-2.289595
20
15.859335
30
0
0
VERTEX
8
0
10
-2.350196
20
15.784089
30
0
0
VERTEX
8
0
10
-2.427919
20
15.728874
30
0
0
VERTEX
8
0
10
-2.488247
20
15.710171
30
0
0
VERTEX
8
0
10
-2.551401
20
15.709317
30
0
0
VERTEX
8
0
10
-2.642382
20
15.737811
30
0
0
VERTEX
8
0
10
-2.72327
20
15.790647
30
0
0
VERTEX
8
0
10
-2.81524
20
15.882472
30
0
0
VERTEX
8
0
10
-2.940974
20
16.073558
30
0
0
VERTEX
8
0
10
-3.106194
20
16.430663
30
0
0
VERTEX
8
0
10
-3.182489
20
16.537901
30
0
0
VERTEX
8
0
10
-3.275461
20
16.631733
30
0
0
VERTEX
8
0
10
-3.358246
20
16.687363
30
0
0
VERTEX
8
0
10
-3.452898
20
16.721116
30
0
0
VERTEX
8
0
10
-3.554042
20
16.720455
30
0
0
VERTEX
8
0
10
-3.646711
20
16.67992
30
0
0
VERTEX
8
0
10
-3.756736
20
16.555356
30
0
0
VERTEX
8
0
10
-3.827471
20
16.370642
30
0
0
VERTEX
8
0
10
-3.853853
20
16.175366
30
0
0
VERTEX
8
0
10
-3.856799
20
15.814812
30
0
0
VERTEX
8
0
10
-3.908625
20
15.592551
30
0
0
VERTEX
8
0
10
-3.987208
20
15.45196
30
0
0
VERTEX
8
0
10
-4.058734
20
15.388923
30
0
0
VERTEX
8
0
10
-4.116776
20
15.364016
30
0
0
VERTEX
8
0
10
-4.179495
20
15.356565
30
0
0
VERTEX
8
0
10
-4.272956
20
15.375394
30
0
0
VERTEX
8
0
10
-4.358923
20
15.419485
30
0
0
VERTEX
8
0
10
-4.459988
20
15.501193
30
0
0
VERTEX
8
0
10
-4.605008
20
15.67809
30
0
0
VERTEX
8
0
10
-4.80665
20
16.015968
30
0
0
VERTEX
8
0
10
-4.968876
20
16.179202
30
0
0
VERTEX
8
0
10
-5.115782
20
16.255928
30
0
0
VERTEX
8
0
10
-5.215645
20
16.269261
30
0
0
VERTEX
8
0
10
-5.282337
20
16.25736
30
0
0
VERTEX
8
0
10
-5.343286
20
16.227788
30
0
0
VERTEX
8
0
10
-5.41624
20
16.158304
30
0
0
VERTEX
8
0
10
-5.499089
20
15.978066
30
0
0
VERTEX
8
0
10
-5.525684
20
15.749593
30
0
0
VERTEX
8
0
10
-5.489821
20
15.390597
30
0
0
VERTEX
8
0
10
-5.498124
20
15.194513
30
0
0
VERTEX
8
0
10
-5.526182
20
15.067358
30
0
0
VERTEX
8
0
10
-5.56389
20
14.978052
30
0
0
VERTEX
8
0
10
-5.621033
20
14.901157
30
0
0
VERTEX
8
0
10
-5.671571
20
14.86298
30
0
0
VERTEX
8
0
10
-5.730476
20
14.840369
30
0
0
VERTEX
8
0
10
-5.825335
20
14.838062
30
0
0
VERTEX
8
0
10
-5.975277
20
14.894967
30
0
0
VERTEX
8
0
10
-6.175497
20
15.061421
30
0
0
VERTEX
8
0
10
-6.410608
20
15.376815
30
0
0
VERTEX
8
0
10
-6.577645
20
15.534794
30
0
0
VERTEX
8
0
10
-6.691731
20
15.601718
30
0
0
VERTEX
8
0
10
-6.786965
20
15.632132
30
0
0
VERTEX
8
0
10
-6.887674
20
15.634953
30
0
0
VERTEX
8
0
10
-6.952756
20
15.616146
30
0
0
VERTEX
8
0
10
-7.010281
20
15.580365
30
0
0
VERTEX
8
0
10
-7.075572
20
15.503635
30
0
0
VERTEX
8
0
10
-7.139127
20
15.315726
30
0
0
VERTEX
8
0
10
-7.141694
20
15.085724
30
0
0
VERTEX
8
0
10
-7.068502
20
14.732443
30
0
0
VERTEX
8
0
10
-7.056264
20
14.536566
30
0
0
VERTEX
8
0
10
-7.070877
20
14.407174
30
0
0
VERTEX
8
0
10
-7.099043
20
14.314415
30
0
0
VERTEX
8
0
10
-7.147835
20
14.231969
30
0
0
VERTEX
8
0
10
-7.194106
20
14.188719
30
0
0
VERTEX
8
0
10
-7.250325
20
14.160074
30
0
0
VERTEX
8
0
10
-7.344423
20
14.147864
30
0
0
VERTEX
8
0
10
-7.499492
20
14.188784
30
0
0
VERTEX
8
0
10
-7.716015
20
14.333398
30
0
0
VERTEX
8
0
10
-7.982805
20
14.622488
30
0
0
VERTEX
8
0
10
-8.13722
20
14.745035
30
0
0
VERTEX
8
0
10
-8.254637
20
14.805545
30
0
0
VERTEX
8
0
10
-8.350561
20
14.832871
30
0
0
VERTEX
8
0
10
-8.451011
20
14.835722
30
0
0
VERTEX
8
0
10
-8.516466
20
14.81874
30
0
0
VERTEX
8
0
10
-8.575172
20
14.784846
30
0
0
VERTEX
8
0
10
-8.641538
20
14.708742
30
0
0
VERTEX
8
0
10
-8.680735
20
14.616498
30
0
0
VERTEX
8
0
10
-8.698663
20
14.518593
30
0
0
VERTEX
8
0
10
-8.685907
20
14.288811
30
0
0
VERTEX
8
0
10
-8.56974
20
13.912877
30
0
0
VERTEX
8
0
10
-8.535317
20
13.68674
30
0
0
VERTEX
8
0
10
-8.542222
20
13.556961
30
0
0
VERTEX
8
0
10
-8.566978
20
13.463572
30
0
0
VERTEX
8
0
10
-8.615524
20
13.381518
30
0
0
VERTEX
8
0
10
-8.663028
20
13.339894
30
0
0
VERTEX
8
0
10
-8.720376
20
13.313426
30
0
0
VERTEX
8
0
10
-8.815081
20
13.302452
30
0
0
VERTEX
8
0
10
-8.910466
20
13.317821
30
0
0
VERTEX
8
0
10
-9.031833
20
13.364299
30
0
0
VERTEX
8
0
10
-9.224419
20
13.487724
30
0
0
VERTEX
8
0
10
-9.520602
20
13.746754
30
0
0
VERTEX
8
0
10
-9.633919
20
13.813689
30
0
0
VERTEX
8
0
10
-9.757018
20
13.861594
30
0
0
VERTEX
8
0
10
-9.855273
20
13.878743
30
0
0
VERTEX
8
0
10
-9.95547
20
13.87108
30
0
0
VERTEX
8
0
10
-10.047601
20
13.829337
30
0
0
VERTEX
8
0
10
-10.115771
20
13.754614
30
0
0
VERTEX
8
0
10
-10.165619
20
13.596068
30
0
0
VERTEX
8
0
10
-10.155108
20
13.398553
30
0
0
VERTEX
8
0
10
-10.099784
20
13.209429
30
0
0
VERTEX
8
0
10
-9.955825
20
12.878848
30
0
0
VERTEX
8
0
10
-9.912769
20
12.654723
30
0
0
VERTEX
8
0
10
-9.927374
20
12.494324
30
0
0
VERTEX
8
0
10
-9.967077
20
12.407645
30
0
0
VERTEX
8
0
10
-10.00997
20
12.361284
30
0
0
VERTEX
8
0
10
-10.064237
20
12.328967
30
0
0
VERTEX
8
0
10
-10.157276
20
12.308153
30
0
0
VERTEX
8
0
10
-10.253744
20
12.313467
30
0
0
VERTEX
8
0
10
-10.379305
20
12.347004
30
0
0
VERTEX
8
0
10
-10.583737
20
12.449623
30
0
0
VERTEX
8
0
10
-10.905374
20
12.676274
30
0
0
VERTEX
8
0
10
-11.119968
20
12.759412
30
0
0
VERTEX
8
0
10
-11.285381
20
12.769753
30
0
0
VERTEX
8
0
10
-11.382033
20
12.741316
30
0
0
VERTEX
8
0
10
-11.438119
20
12.703318
30
0
0
VERTEX
8
0
10
-11.481771
20
12.651511
30
0
0
VERTEX
8
0
10
-11.520156
20
12.558362
30
0
0
VERTEX
8
0
10
-11.527162
20
12.392773
30
0
0
VERTEX
8
0
10
-11.46691
20
12.170665
30
0
0
VERTEX
8
0
10
-11.275121
20
11.827099
30
0
0
VERTEX
8
0
10
-11.194433
20
11.61306
30
0
0
VERTEX
8
0
10
-11.174204
20
11.484681
30
0
0
VERTEX
8
0
10
-11.179003
20
11.388186
30
0
0
VERTEX
8
0
10
-11.209428
20
11.297832
30
0
0
VERTEX
8
0
10
-11.24724
20
11.24724
30
0
0
VERTEX
8
0
10
-11.297832
20
11.209428
30
0
0
VERTEX
8
0
10
-11.388186
20
11.179003
30
0
0
VERTEX
8
0
10
-11.549232
20
11.181244
30
0
0
VERTEX
8
0
10
-11.76763
20
11.247492
30
0
0
VERTEX
8
0
10
-12.081351
20
11.425218
30
0
0
VERTEX
8
0
10
-12.263657
20
11.500008
30
0
0
VERTEX
8
0
10
-12.458991
20
11.531107
30
0
0
VERTEX
8
0
10
-12.621879
20
11.498105
30
0
0
VERTEX
8
0
10
-12.703318
20
11.438119
30
0
0
VERTEX
8
0
10
-12.754462
20
11.350856
30
0
0
VERTEX
8
0
10
-12.772558
20
11.252008
30
0
0
VERTEX
8
0
10
-12.765773
20
11.152499
30
0
0
VERTEX
8
0
10
-12.730998
20
11.025067
30
0
0
VERTEX
8
0
10
-12.676274
20
10.905374
30
0
0
VERTEX
8
0
10
-12.449623
20
10.583737
30
0
0
VERTEX
8
0
10
-12.347004
20
10.379305
30
0
0
VERTEX
8
0
10
-12.313467
20
10.253744
30
0
0
VERTEX
8
0
10
-12.308153
20
10.157276
30
0
0
VERTEX
8
0
10
-12.328967
20
10.064237
30
0
0
VERTEX
8
0
10
-12.361284
20
10.00997
30
0
0
VERTEX
8
0
10
-12.407645
20
9.967077
30
0
0
VERTEX
8
0
10
-12.494324
20
9.927374
30
0
0
VERTEX
8
0
10
-12.589789
20
9.912515
30
0
0
VERTEX
8
0
10
-12.719579
20
9.919214
30
0
0
VERTEX
8
0
10
-12.94088
20
9.977086
30
0
0
VERTEX
8
0
10
-13.302611
20
10.131913
30
0
0
VERTEX
8
0
10
-13.529801
20
10.168617
30
0
0
VERTEX
8
0
10
-13.629044
20
10.161021
30
0
0
VERTEX
8
0
10
-13.724879
20
10.13168
30
0
0
VERTEX
8
0
10
-13.807503
20
10.073634
30
0
0
VERTEX
8
0
10
-13.847348
20
10.018792
30
0
0
VERTEX
8
0
10
-13.87108
20
9.95547
30
0
0
VERTEX
8
0
10
-13.878743
20
9.855273
30
0
0
VERTEX
8
0
10
-13.861594
20
9.757018
30
0
0
VERTEX
8
0
10
-13.813689
20
9.633919
30
0
0
VERTEX
8
0
10
-13.707954
20
9.467541
30
0
0
VERTEX
8
0
10
-13.448335
20
9.171994
30
0
0
VERTEX
8
0
10
-13.327146
20
8.941541
30
0
0
VERTEX
8
0
10
-13.30266
20
8.783044
30
0
0
VERTEX
8
0
10
-13.324638
20
8.690738
30
0
0
VERTEX
8
0
10
-13.359002
20
8.637821
30
0
0
VERTEX
8
0
10
-13.406853
20
8.596324
30
0
0
VERTEX
8
0
10
-13.493947
20
8.556418
30
0
0
VERTEX
8
0
10
-13.589142
20
8.538101
30
0
0
VERTEX
8
0
10
-13.719352
20
8.537094
30
0
0
VERTEX
8
0
10
-13.912877
20
8.56974
30
0
0
VERTEX
8
0
10
-14.256573
20
8.679459
30
0
0
VERTEX
8
0
10
-14.485583
20
8.700947
30
0
0
VERTEX
8
0
10
-14.679106
20
8.657382
30
0
0
VERTEX
8
0
10
-14.76224
20
8.600469
30
0
0
VERTEX
8
0
10
-14.803838
20
8.547
30
0
0
VERTEX
8
0
10
-14.829345
20
8.48424
30
0
0
VERTEX
8
0
10
-14.837066
20
8.383788
30
0
0
VERTEX
8
0
10
-14.778033
20
8.194409
30
0
0
VERTEX
8
0
10
-14.644918
20
8.006825
30
0
0
VERTEX
8
0
10
-14.378051
20
7.764035
30
0
0
VERTEX
8
0
10
-14.253016
20
7.612761
30
0
0
VERTEX
8
0
10
-14.188784
20
7.499492
30
0
0
VERTEX
8
0
10
-14.157049
20
7.407893
30
0
0
VERTEX
8
0
10
-14.148062
20
7.312513
30
0
0
VERTEX
8
0
10
-14.160074
20
7.250325
30
0
0
VERTEX
8
0
10
-14.188719
20
7.194106
30
0
0
VERTEX
8
0
10
-14.257669
20
7.128919
30
0
0
VERTEX
8
0
10
-14.407174
20
7.070877
30
0
0
VERTEX
8
0
10
-14.667347
20
7.060603
30
0
0
VERTEX
8
0
10
-15.053108
20
7.137666
30
0
0
VERTEX
8
0
10
-15.282949
20
7.143298
30
0
0
VERTEX
8
0
10
-15.412512
20
7.116694
30
0
0
VERTEX
8
0
10
-15.503635
20
7.075572
30
0
0
VERTEX
8
0
10
-15.580365
20
7.010281
30
0
0
VERTEX
8
0
10
-15.616146
20
6.952756
30
0
0
VERTEX
8
0
10
-15.634953
20
6.887674
30
0
0
VERTEX
8
0
10
-15.632132
20
6.786965
30
0
0
VERTEX
8
0
10
-15.571181
20
6.632843
30
0
0
VERTEX
8
0
10
-15.425799
20
6.454443
30
0
0
VERTEX
8
0
10
-15.11085
20
6.218587
30
0
0
VERTEX
8
0
10
-14.950081
20
6.055872
30
0
0
VERTEX
8
0
10
-14.879384
20
5.94682
30
0
0
VERTEX
8
0
10
-14.84452
20
5.856715
30
0
0
VERTEX
8
0
10
-14.835564
20
5.761798
30
0
0
VERTEX
8
0
10
-14.84953
20
5.700201
30
0
0
VERTEX
8
0
10
-14.880368
20
5.64508
30
0
0
VERTEX
8
0
10
-14.950536
20
5.580535
30
0
0
VERTEX
8
0
10
-15.098571
20
5.517079
30
0
0
VERTEX
8
0
10
-15.325032
20
5.488769
30
0
0
VERTEX
8
0
10
-15.683918
20
5.523528
30
0
0
VERTEX
8
0
10
-15.880883
20
5.517701
30
0
0
VERTEX
8
0
10
-16.071978
20
5.466662
30
0
0
VERTEX
8
0
10
-16.207361
20
5.37026
30
0
0
VERTEX
8
0
10
-16.25736
20
5.282337
30
0
0
VERTEX
8
0
10
-16.26859
20
5.181816
30
0
0
VERTEX
8
0
10
-16.244916
20
5.084154
30
0
0
VERTEX
8
0
10
-16.198244
20
4.996007
30
0
0
VERTEX
8
0
10
-16.114644
20
4.893737
30
0
0
VERTEX
8
0
10
-16.015968
20
4.80665
30
0
0
VERTEX
8
0
10
-15.67809
20
4.605008
30
0
0
VERTEX
8
0
10
-15.501193
20
4.459988
30
0
0
VERTEX
8
0
10
-15.419485
20
4.358923
30
0
0
VERTEX
8
0
10
-15.375394
20
4.272956
30
0
0
VERTEX
8
0
10
-15.356565
20
4.179495
30
0
0
VERTEX
8
0
10
-15.364016
20
4.116776
30
0
0
VERTEX
8
0
10
-15.388923
20
4.058734
30
0
0
VERTEX
8
0
10
-15.45196
20
3.987208
30
0
0
VERTEX
8
0
10
-15.533128
20
3.934804
30
0
0
VERTEX
8
0
10
-15.654421
20
3.888134
30
0
0
VERTEX
8
0
10
-15.880128
20
3.850992
30
0
0
VERTEX
8
0
10
-16.27356
20
3.845303
30
0
0
VERTEX
8
0
10
-16.496038
20
3.786428
30
0
0
VERTEX
8
0
10
-16.58361
20
3.739123
30
0
0
VERTEX
8
0
10
-16.659227
20
3.673339
30
0
0
VERTEX
8
0
10
-16.711098
20
3.586705
30
0
0
VERTEX
8
0
10
-16.725192
20
3.520398
30
0
0
VERTEX
8
0
10
-16.721116
20
3.452898
30
0
0
VERTEX
8
0
10
-16.687363
20
3.358246
30
0
0
VERTEX
8
0
10
-16.631733
20
3.275461
30
0
0
VERTEX
8
0
10
-16.537901
20
3.182489
30
0
0
VERTEX
8
0
10
-16.373635
20
3.073502
30
0
0
VERTEX
8
0
10
-16.016251
20
2.909102
30
0
0
VERTEX
8
0
10
-15.811806
20
2.747865
30
0
0
VERTEX
8
0
10
-15.72497
20
2.613031
30
0
0
VERTEX
8
0
10
-15.707504
20
2.519765
30
0
0
VERTEX
8
0
10
-15.717374
20
2.457447
30
0
0
VERTEX
8
0
10
-15.74421
20
2.400075
30
0
0
VERTEX
8
0
10
-15.807543
20
2.328194
30
0
0
VERTEX
8
0
10
-15.887058
20
2.272742
30
0
0
VERTEX
8
0
10
-16.005601
20
2.21886
30
0
0
VERTEX
8
0
10
-16.195673
20
2.16997
30
0
0
VERTEX
8
0
10
-16.554281
20
2.13041
30
0
0
VERTEX
8
0
10
-16.772232
20
2.056894
30
0
0
VERTEX
8
0
10
-16.931305
20
1.938382
30
0
0
VERTEX
8
0
10
-16.984103
20
1.852576
30
0
0
VERTEX
8
0
10
-17.000357
20
1.78681
30
0
0
VERTEX
8
0
10
-16.998132
20
1.719101
30
0
0
VERTEX
8
0
10
-16.964328
20
1.624193
30
0
0
VERTEX
8
0
10
-16.833371
20
1.475198
30
0
0
VERTEX
8
0
10
-16.635468
20
1.357974
30
0
0
VERTEX
8
0
10
-16.292921
20
1.244719
30
0
0
VERTEX
8
0
10
-16.117167
20
1.157379
30
0
0
VERTEX
8
0
10
-16.012417
20
1.080028
30
0
0
VERTEX
8
0
10
-15.946169
20
1.009256
30
0
0
VERTEX
8
0
10
-15.899164
20
0.925778
30
0
0
VERTEX
8
0
10
-15.884844
20
0.86408
30
0
0
VERTEX
8
0
10
-15.888146
20
0.801072
30
0
0
VERTEX
8
0
10
-15.924621
20
0.713476
30
0
0
VERTEX
8
0
10
-16.037593
20
0.599642
30
0
0
VERTEX
8
0
10
-16.271094
20
0.484434
30
0
0
VERTEX
8
0
10
-16.654849
20
0.397932
30
0
0
VERTEX
8
0
10
-16.86711
20
0.309592
30
0
0
VERTEX
8
0
10
-16.974651
20
0.23259
30
0
0
VERTEX
8
0
10
-17.04117
20
0.15796
30
0
0
VERTEX
8
0
10
-17.08471
20
0.067105
30
0
0
VERTEX
8
0
10
-17.094
20
0
30
0
0
VERTEX
8
0
10
-17.08471
20
-0.067105
30
0
0
VERTEX
8
0
10
-17.04117
20
-0.15796
30
0
0
VERTEX
8
0
10
-16.895356
20
-0.29245
30
0
0
VERTEX
8
0
10
-16.686284
20
-0.388345
30
0
0
VERTEX
8
0
10
-16.333775
20
-0.465174
30
0
0
VERTEX
8
0
10
-16.149855
20
-0.533664
30
0
0
VERTEX
8
0
10
-16.037593
20
-0.599642
30
0
0
VERTEX
8
0
10
-15.96431
20
-0.663101
30
0
0
VERTEX
8
0
10
-15.908837
20
-0.741209
30
0
0
VERTEX
8
0
10
-15.888146
20
-0.801072
30
0
0
VERTEX
8
0
10
-15.884844
20
-0.86408
30
0
0
VERTEX
8
0
10
-15.911963
20
-0.955009
30
0
0
VERTEX
8
0
10
-16.012417
20
-1.080028
30
0
0
VERTEX
8
0
10
-16.232597
20
-1.219012
30
0
0
VERTEX
8
0
10
-16.605207
20
-1.345154
30
0
0
VERTEX
8
0
10
-16.779965
20
-1.436374
30
0
0
VERTEX
8
0
10
-16.883002
20
-1.519028
30
0
0
VERTEX
8
0
10
-16.94698
20
-1.595545
30
0
0
VERTEX
8
0
10
-16.990443
20
-1.68615
30
0
0
VERTEX
8
0
10
-17.001551
20
-1.752854
30
0
0
VERTEX
8
0
10
-16.994466
20
-1.820271
30
0
0
VERTEX
8
0
10
-16.951934
20
-1.911853
30
0
0
VERTEX
8
0
10
-16.883609
20
-1.98518
30
0
0
VERTEX
8
0
10
-16.80146
20
-2.04138
30
0
0
VERTEX
8
0
10
-16.586356
20
-2.123188
30
0
0
VERTEX
8
0
10
-16.195673
20
-2.16997
30
0
0
VERTEX
8
0
10
-15.975085
20
-2.230501
30
0
0
VERTEX
8
0
10
-15.859335
20
-2.289595
30
0
0
VERTEX
8
0
10
-15.784089
20
-2.350196
30
0
0
VERTEX
8
0
10
-15.728874
20
-2.427919
30
0
0
VERTEX
8
0
10
-15.710171
20
-2.488247
30
0
0
VERTEX
8
0
10
-15.709317
20
-2.551401
30
0
0
VERTEX
8
0
10
-15.737811
20
-2.642382
30
0
0
VERTEX
8
0
10
-15.790647
20
-2.72327
30
0
0
VERTEX
8
0
10
-15.882472
20
-2.81524
30
0
0
VERTEX
8
0
10
-16.073558
20
-2.940974
30
0
0
VERTEX
8
0
10
-16.430663
20
-3.106194
30
0
0
VERTEX
8
0
10
-16.537901
20
-3.182489
30
0
0
VERTEX
8
0
10
-16.631733
20
-3.275461
30
0
0
VERTEX
8
0
10
-16.687363
20
-3.358246
30
0
0
VERTEX
8
0
10
-16.721116
20
-3.452898
30
0
0
VERTEX
8
0
10
-16.720455
20
-3.554042
30
0
0
VERTEX
8
0
10
-16.67992
20
-3.646711
30
0
0
VERTEX
8
0
10
-16.555356
20
-3.756736
30
0
0
VERTEX
8
0
10
-16.370642
20
-3.827471
30
0
0
VERTEX
8
0
10
-16.175366
20
-3.853853
30
0
0
VERTEX
8
0
10
-15.814812
20
-3.856799
30
0
0
VERTEX
8
0
10
-15.592551
20
-3.908625
30
0
0
VERTEX
8
0
10
-15.45196
20
-3.987208
30
0
0
VERTEX
8
0
10
-15.388923
20
-4.058734
30
0
0
VERTEX
8
0
10
-15.364016
20
-4.116776
30
0
0
VERTEX
8
0
10
-15.356565
20
-4.179495
30
0
0
VERTEX
8
0
10
-15.375394
20
-4.272956
30
0
0
VERTEX
8
0
10
-15.419485
20
-4.358923
30
0
0
VERTEX
8
0
10
-15.501193
20
-4.459988
30
0
0
VERTEX
8
0
10
-15.67809
20
-4.605008
30
0
0
VERTEX
8
0
10
-16.015968
20
-4.80665
30
0
0
VERTEX
8
0
10
-16.179202
20
-4.968876
30
0
0
VERTEX
8
0
10
-16.255928
20
-5.115782
30
0
0
VERTEX
8
0
10
-16.269261
20
-5.215645
30
0
0
VERTEX
8
0
10
-16.25736
20
-5.282337
30
0
0
VERTEX
8
0
10
-16.227788
20
-5.343286
30
0
0
VERTEX
8
0
10
-16.158304
20
-5.41624
30
0
0
VERTEX
8
0
10
-16.009881
20
-5.489991
30
0
0
VERTEX
8
0
10
-15.782468
20
-5.525289
30
0
0
VERTEX
8
0
10
-15.390597
20
-5.489821
30
0
0
VERTEX
8
0
10
-15.162244
20
-5.503167
30
0
0
VERTEX
8
0
10
-15.036737
20
-5.536903
30
0
0
VERTEX
8
0
10
-14.950536
20
-5.580535
30
0
0
VERTEX
8
0
10
-14.880368
20
-5.64508
30
0
0
VERTEX
8
0
10
-14.84953
20
-5.700201
30
0
0
VERTEX
8
0
10
-14.835564
20
-5.761798
30
0
0
VERTEX
8
0
10
-14.84452
20
-5.856715
30
0
0
VERTEX
8
0
10
-14.912071
20
-6.002927
30
0
0
VERTEX
8
0
10
-15.061421
20
-6.175497
30
0
0
VERTEX
8
0
10
-15.351384
20
-6.389809
30
0
0
VERTEX
8
0
10
-15.493859
20
-6.525933
30
0
0
VERTEX
8
0
10
-15.601718
20
-6.691731
30
0
0
VERTEX
8
0
10
-15.637822
20
-6.85396
30
0
0
VERTEX
8
0
10
-15.616146
20
-6.952756
30
0
0
VERTEX
8
0
10
-15.55723
20
-7.034972
30
0
0
VERTEX
8
0
10
-15.474288
20
-7.091708
30
0
0
VERTEX
8
0
10
-15.380623
20
-7.125984
30
0
0
VERTEX
8
0
10
-15.250063
20
-7.146046
30
0
0
VERTEX
8
0
10
-15.11846
20
-7.144738
30
0
0
VERTEX
8
0
10
-14.732443
20
-7.068502
30
0
0
VERTEX
8
0
10
-14.503946
20
-7.057906
30
0
0
VERTEX
8
0
10
-14.3756
20
-7.078338
30
0
0
VERTEX
8
0
10
-14.28531
20
-7.112721
30
0
0
VERTEX
8
0
10
-14.20878
20
-7.169578
30
0
0
VERTEX
8
0
10
-14.17235
20
-7.221173
30
0
0
VERTEX
8
0
10
-14.152021
20
-7.280973
30
0
0
VERTEX
8
0
10
-14.151007
20
-7.376306
30
0
0
VERTEX
8
0
10
-14.176261
20
-7.469562
30
0
0
VERTEX
8
0
10
-14.235171
20
-7.585406
30
0
0
VERTEX
8
0
10
-14.378051
20
-7.764035
30
0
0
VERTEX
8
0
10
-14.666622
20
-8.03152
30
0
0
VERTEX
8
0
10
-14.79256
20
-8.224139
30
0
0
VERTEX
8
0
10
-14.825986
20
-8.317891
30
0
0
VERTEX
8
0
10
-14.838162
20
-8.417375
30
0
0
VERTEX
8
0
10
-14.81874
20
-8.516466
30
0
0
VERTEX
8
0
10
-14.784846
20
-8.575172
30
0
0
VERTEX
8
0
10
-14.736651
20
-8.622607
30
0
0
VERTEX
8
0
10
-14.648233
20
-8.670362
30
0
0
VERTEX
8
0
10
-14.551498
20
-8.69466
30
0
0
VERTEX
8
0
10
-14.419557
20
-8.700965
30
0
0
VERTEX
8
0
10
-14.224556
20
-8.672044
30
0
0
VERTEX
8
0
10
-13.848964
20
-8.555079
30
0
0
VERTEX
8
0
10
-13.589142
20
-8.538101
30
0
0
VERTEX
8
0
10
-13.434389
20
-8.580199
30
0
0
VERTEX
8
0
10
-13.359002
20
-8.637821
30
0
0
VERTEX
8
0
10
-13.324638
20
-8.690738
30
0
0
VERTEX
8
0
10
-13.306191
20
-8.751329
30
0
0
VERTEX
8
0
10
-13.305159
20
-8.847126
30
0
0
VERTEX
8
0
10
-13.327146
20
-8.941541
30
0
0
VERTEX
8
0
10
-13.379187
20
-9.060903
30
0
0
VERTEX
8
0
10
-13.487724
20
-9.224419
30
0
0
VERTEX
8
0
10
-13.727751
20
-9.493773
30
0
0
VERTEX
8
0
10
-13.840528
20
-9.694244
30
0
0
VERTEX
8
0
10
-13.879443
20
-9.888756
30
0
0
VERTEX
8
0
10
-13.861264
20
-9.987851
30
0
0
VERTEX
8
0
10
-13.829337
20
-10.047601
30
0
0
VERTEX
8
0
10
-13.782377
20
-10.096429
30
0
0
VERTEX
8
0
10
-13.69375
20
-10.144341
30
0
0
VERTEX
8
0
10
-13.496732
20
-10.167438
30
0
0
VERTEX
8
0
10
-13.271223
20
-10.122129
30
0
0
VERTEX
8
0
10
-12.94088
20
-9.977086
30
0
0
VERTEX
8
0
10
-12.751827
20
-9.92439
30
0
0
VERTEX
8
0
10
-12.622225
20
-9.911781
30
0
0
VERTEX
8
0
10
-12.525637
20
-9.920046
30
0
0
VERTEX
8
0
10
-12.434848
20
-9.950631
30
0
0
VERTEX
8
0
10
-12.382922
20
-9.986898
30
0
0
VERTEX
8
0
10
-12.343215
20
-10.035933
30
0
0
VERTEX
8
0
10
-12.311708
20
-10.125436
30
0
0
VERTEX
8
0
10
-12.319493
20
-10.285624
30
0
0
VERTEX
8
0
10
-12.415929
20
-10.527482
30
0
0
VERTEX
8
0
10
-12.643233
20
-10.848548
30
0
0
VERTEX
8
0
10
-12.741863
20
-11.056227
30
0
0
VERTEX
8
0
10
-12.770257
20
-11.18541
30
0
0
VERTEX
8
0
10
-12.769753
20
-11.285381
30
0
0
VERTEX
8
0
10
-12.741316
20
-11.382033
30
0
0
VERTEX
8
0
10
-12.703318
20
-11.438119
30
0
0
VERTEX
8
0
10
-12.651511
20
-11.481771
30
0
0
VERTEX
8
0
10
-12.558362
20
-11.520156
30
0
0
VERTEX
8
0
10
-12.360009
20
-11.522533
30
0
0
VERTEX
8
0
10
-12.140472
20
-11.4539
30
0
0
VERTEX
8
0
10
-11.827099
20
-11.275121
30
0
0
VERTEX
8
0
10
-11.64459
20
-11.202952
30
0
0
VERTEX
8
0
10
-11.517016
20
-11.176865
30
0
0
VERTEX
8
0
10
-11.420093
20
-11.174989
30
0
0
VERTEX
8
0
10
-11.326605
20
-11.195915
30
0
0
VERTEX
8
0
10
-11.271172
20
-11.226557
30
0
0
VERTEX
8
0
10
-11.226557
20
-11.271172
30
0
0
VERTEX
8
0
10
-11.185867
20
-11.356892
30
0
0
VERTEX
8
0
10
-11.176865
20
-11.517016
30
0
0
VERTEX
8
0
10
-11.247492
20
-11.76763
30
0
0
VERTEX
8
0
10
-11.43999
20
-12.110696
30
0
0
VERTEX
8
0
10
-11.508823
20
-12.295422
30
0
0
VERTEX
8
0
10
-11.530087
20
-12.425791
30
0
0
VERTEX
8
0
10
-11.526433
20
-12.525464
30
0
0
VERTEX
8
0
10
-11.498105
20
-12.621879
30
0
0
VERTEX
8
0
10
-11.461727
20
-12.678883
30
0
0
VERTEX
8
0
10
-11.41135
20
-12.724242
30
0
0
VERTEX
8
0
10
-11.318463
20
-12.763842
30
0
0
VERTEX
8
0
10
-11.218621
20
-12.772616
30
0
0
VERTEX
8
0
10
-11.119968
20
-12.759412
30
0
0
VERTEX
8
0
10
-10.905374
20
-12.676274
30
0
0
VERTEX
8
0
10
-10.583737
20
-12.449623
30
0
0
VERTEX
8
0
10
-10.379305
20
-12.347004
30
0
0
VERTEX
8
0
10
-10.253744
20
-12.313467
30
0
0
VERTEX
8
0
10
-10.157276
20
-12.308153
30
0
0
VERTEX
8
0
10
-10.064237
20
-12.328967
30
0
0
VERTEX
8
0
10
-10.00997
20
-12.361284
30
0
0
VERTEX
8
0
10
-9.967077
20
-12.407645
30
0
0
VERTEX
8
0
10
-9.927374
20
-12.494324
30
0
0
VERTEX
8
0
10
-9.912515
20
-12.589789
30
0
0
VERTEX
8
0
10
-9.919214
20
-12.719579
30
0
0
VERTEX
8
0
10
-9.977086
20
-12.94088
30
0
0
VERTEX
8
0
10
-10.131913
20
-13.302611
30
0
0
VERTEX
8
0
10
-10.160555
20
-13.431066
30
0
0
VERTEX
8
0
10
-10.168075
20
-13.562944
30
0
0
VERTEX
8
0
10
-10.154022
20
-13.661689
30
0
0
VERTEX
8
0
10
-10.115771
20
-13.754614
30
0
0
VERTEX
8
0
10
-10.047601
20
-13.829337
30
0
0
VERTEX
8
0
10
-9.95547
20
-13.87108
30
0
0
VERTEX
8
0
10
-9.78928
20
-13.869494
30
0
0
VERTEX
8
0
10
-9.60468
20
-13.798463
30
0
0
VERTEX
8
0
10
-9.441908
20
-13.687404
30
0
0
VERTEX
8
0
10
-9.171994
20
-13.448335
30
0
0
VERTEX
8
0
10
-8.972143
20
-13.338128
30
0
0
VERTEX
8
0
10
-8.815081
20
-13.302452
30
0
0
VERTEX
8
0
10
-8.720376
20
-13.313426
30
0
0
VERTEX
8
0
10
-8.663028
20
-13.339894
30
0
0
VERTEX
8
0
10
-8.615524
20
-13.381518
30
0
0
VERTEX
8
0
10
-8.566978
20
-13.463572
30
0
0
VERTEX
8
0
10
-8.542222
20
-13.556961
30
0
0
VERTEX
8
0
10
-8.535317
20
-13.68674
30
0
0
VERTEX
8
0
10
-8.56974
20
-13.912877
30
0
0
VERTEX
8
0
10
-8.685907
20
-14.288811
30
0
0
VERTEX
8
0
10
-8.698663
20
-14.518593
30
0
0
VERTEX
8
0
10
-8.657382
20
-14.679106
30
0
0
VERTEX
8
0
10
-8.600469
20
-14.76224
30
0
0
VERTEX
8
0
10
-8.547
20
-14.803838
30
0
0
VERTEX
8
0
10
-8.48424
20
-14.829345
30
0
0
VERTEX
8
0
10
-8.383788
20
-14.837066
30
0
0
VERTEX
8
0
10
-8.194409
20
-14.778033
30
0
0
VERTEX
8
0
10
-8.006825
20
-14.644918
30
0
0
VERTEX
8
0
10
-7.764035
20
-14.378051
30
0
0
VERTEX
8
0
10
-7.612761
20
-14.253016
30
0
0
VERTEX
8
0
10
-7.499492
20
-14.188784
30
0
0
VERTEX
8
0
10
-7.407893
20
-14.157049
30
0
0
VERTEX
8
0
10
-7.312513
20
-14.148062
30
0
0
VERTEX
8
0
10
-7.250325
20
-14.160074
30
0
0
VERTEX
8
0
10
-7.194106
20
-14.188719
30
0
0
VERTEX
8
0
10
-7.128919
20
-14.257669
30
0
0
VERTEX
8
0
10
-7.070877
20
-14.407174
30
0
0
VERTEX
8
0
10
-7.060603
20
-14.667347
30
0
0
VERTEX
8
0
10
-7.137666
20
-15.053108
30
0
0
VERTEX
8
0
10
-7.146046
20
-15.250063
30
0
0
VERTEX
8
0
10
-7.125984
20
-15.380623
30
0
0
VERTEX
8
0
10
-7.091708
20
-15.474288
30
0
0
VERTEX
8
0
10
-7.034972
20
-15.55723
30
0
0
VERTEX
8
0
10
-6.98276
20
-15.600202
30
0
0
VERTEX
8
0
10
-6.920832
20
-15.627775
30
0
0
VERTEX
8
0
10
-6.820254
20
-15.636732
30
0
0
VERTEX
8
0
10
-6.722588
20
-15.614224
30
0
0
VERTEX
8
0
10
-6.632843
20
-15.571181
30
0
0
VERTEX
8
0
10
-6.454443
20
-15.425799
30
0
0
VERTEX
8
0
10
-6.218587
20
-15.11085
30
0
0
VERTEX
8
0
10
-6.055872
20
-14.950081
30
0
0
VERTEX
8
0
10
-5.94682
20
-14.879384
30
0
0
VERTEX
8
0
10
-5.856715
20
-14.84452
30
0
0
VERTEX
8
0
10
-5.761798
20
-14.835564
30
0
0
VERTEX
8
0
10
-5.700201
20
-14.84953
30
0
0
VERTEX
8
0
10
-5.64508
20
-14.880368
30
0
0
VERTEX
8
0
10
-5.580535
20
-14.950536
30
0
0
VERTEX
8
0
10
-5.536903
20
-15.036737
30
0
0
VERTEX
8
0
10
-5.503167
20
-15.162244
30
0
0
VERTEX
8
0
10
-5.489821
20
-15.390597
30
0
0
VERTEX
8
0
10
-5.525289
20
-15.782468
30
0
0
VERTEX
8
0
10
-5.512834
20
-15.913487
30
0
0
VERTEX
8
0
10
-5.479234
20
-16.041234
30
0
0
VERTEX
8
0
10
-5.435355
20
-16.130804
30
0
0
VERTEX
8
0
10
-5.37026
20
-16.207361
30
0
0
VERTEX
8
0
10
-5.282337
20
-16.25736
30
0
0
VERTEX
8
0
10
-5.181816
20
-16.26859
30
0
0
VERTEX
8
0
10
-5.024249
20
-16.215727
30
0
0
VERTEX
8
0
10
-4.870634
20
-16.091127
30
0
0
VERTEX
8
0
10
-4.750148
20
-15.935205
30
0
0
VERTEX
8
0
10
-4.56732
20
-15.624429
30
0
0
VERTEX
8
0
10
-4.411307
20
-15.457858
30
0
0
VERTEX
8
0
10
-4.272956
20
-15.375394
30
0
0
VERTEX
8
0
10
-4.179495
20
-15.356565
30
0
0
VERTEX
8
0
10
-4.116776
20
-15.364016
30
0
0
VERTEX
8
0
10
-4.058734
20
-15.388923
30
0
0
VERTEX
8
0
10
-3.987208
20
-15.45196
30
0
0
VERTEX
8
0
10
-3.934804
20
-15.533128
30
0
0
VERTEX
8
0
10
-3.888134
20
-15.654421
30
0
0
VERTEX
8
0
10
-3.850992
20
-15.880128
30
0
0
VERTEX
8
0
10
-3.845303
20
-16.27356
30
0
0
VERTEX
8
0
10
-3.786428
20
-16.496038
30
0
0
VERTEX
8
0
10
-3.697567
20
-16.635938
30
0
0
VERTEX
8
0
10
-3.617749
20
-16.697416
30
0
0
VERTEX
8
0
10
-3.554042
20
-16.720455
30
0
0
VERTEX
8
0
10
-3.486472
20
-16.72532
30
0
0
VERTEX
8
0
10
-3.38855
20
-16.701621
30
0
0
VERTEX
8
0
10
-3.301721
20
-16.652072
30
0
0
VERTEX
8
0
10
-3.204042
20
-16.562891
30
0
0
VERTEX
8
0
10
-3.073502
20
-16.373635
30
0
0
VERTEX
8
0
10
-2.909102
20
-16.016251
30
0
0
VERTEX
8
0
10
-2.747865
20
-15.811806
30
0
0
VERTEX
8
0
10
-2.613031
20
-15.72497
30
0
0
VERTEX
8
0
10
-2.519765
20
-15.707504
30
0
0
VERTEX
8
0
10
-2.457447
20
-15.717374
30
0
0
VERTEX
8
0
10
-2.400075
20
-15.74421
30
0
0
VERTEX
8
0
10
-2.328194
20
-15.807543
30
0
0
VERTEX
8
0
10
-2.272742
20
-15.887058
30
0
0
VERTEX
8
0
10
-2.21886
20
-16.005601
30
0
0
VERTEX
8
0
10
-2.16997
20
-16.195673
30
0
0
VERTEX
8
0
10
-2.13041
20
-16.554281
30
0
0
VERTEX
8
0
10
-2.056894
20
-16.772232
30
0
0
VERTEX
8
0
10
-1.938382
20
-16.931305
30
0
0
VERTEX
8
0
10
-1.852576
20
-16.984103
30
0
0
VERTEX
8
0
10
-1.78681
20
-17.000357
30
0
0
VERTEX
8
0
10
-1.719101
20
-16.998132
30
0
0
VERTEX
8
0
10
-1.624193
20
-16.964328
30
0
0
VERTEX
8
0
10
-1.475198
20
-16.833371
30
0
0
VERTEX
8
0
10
-1.357974
20
-16.635468
30
0
0
VERTEX
8
0
10
-1.244719
20
-16.292921
30
0
0
VERTEX
8
0
10
-1.157379
20
-16.117167
30
0
0
VERTEX
8
0
10
-1.080028
20
-16.012417
30
0
0
VERTEX
8
0
10
-1.009256
20
-15.946169
30
0
0
VERTEX
8
0
10
-0.925778
20
-15.899164
30
0
0
VERTEX
8
0
10
-0.86408
20
-15.884844
30
0
0
VERTEX
8
0
10
-0.801072
20
-15.888146
30
0
0
VERTEX
8
0
10
-0.713476
20
-15.924621
30
0
0
VERTEX
8
0
10
-0.599642
20
-16.037593
30
0
0
VERTEX
8
0
10
-0.484434
20
-16.271094
30
0
0
VERTEX
8
0
10
-0.397932
20
-16.654849
30
0
0
VERTEX
8
0
10
-0.309592
20
-16.86711
30
0
0
VERTEX
8
0
10
-0.23259
20
-16.974651
30
0
0
VERTEX
8
0
10
-0.15796
20
-17.04117
30
0
0
VERTEX
8
0
10
-0.067105
20
-17.08471
30
0
0
VERTEX
8
0
10
0
20
-17.094
30
0
0
VERTEX
8
0
10
0.067105
20
-17.08471
30
0
0
VERTEX
8
0
10
0.15796
20
-17.04117
30
0
0
VERTEX
8
0
10
0.29245
20
-16.895356
30
0
0
VERTEX
8
0
10
0.388345
20
-16.686284
30
0
0
VERTEX
8
0
10
0.465174
20
-16.333775
30
0
0
VERTEX
8
0
10
0.533664
20
-16.149855
30
0
0
VERTEX
8
0
10
0.599642
20
-16.037593
30
0
0
VERTEX
8
0
10
0.663101
20
-15.96431
30
0
0
VERTEX
8
0
10
0.741209
20
-15.908837
30
0
0
VERTEX
8
0
10
0.801072
20
-15.888146
30
0
0
VERTEX
8
0
10
0.86408
20
-15.884844
30
0
0
VERTEX
8
0
10
0.955009
20
-15.911963
30
0
0
VERTEX
8
0
10
1.080028
20
-16.012417
30
0
0
VERTEX
8
0
10
1.219012
20
-16.232597
30
0
0
VERTEX
8
0
10
1.345154
20
-16.605207
30
0
0
VERTEX
8
0
10
1.436374
20
-16.779965
30
0
0
VERTEX
8
0
10
1.519028
20
-16.883002
30
0
0
VERTEX
8
0
10
1.595545
20
-16.94698
30
0
0
VERTEX
8
0
10
1.68615
20
-16.990443
30
0
0
VERTEX
8
0
10
1.752854
20
-17.001551
30
0
0
VERTEX
8
0
10
1.820271
20
-16.994466
30
0
0
VERTEX
8
0
10
1.911853
20
-16.951934
30
0
0
VERTEX
8
0
10
1.98518
20
-16.883609
30
0
0
VERTEX
8
0
10
2.04138
20
-16.80146
30
0
0
VERTEX
8
0
10
2.123188
20
-16.586356
30
0
0
VERTEX
8
0
10
2.16997
20
-16.195673
30
0
0
VERTEX
8
0
10
2.230501
20
-15.975085
30
0
0
VERTEX
8
0
10
2.289595
20
-15.859335
30
0
0
VERTEX
8
0
10
2.350196
20
-15.784089
30
0
0
VERTEX
8
0
10
2.427919
20
-15.728874
30
0
0
VERTEX
8
0
10
2.488247
20
-15.710171
30
0
0
VERTEX
8
0
10
2.551401
20
-15.709317
30
0
0
VERTEX
8
0
10
2.642382
20
-15.737811
30
0
0
VERTEX
8
0
10
2.72327
20
-15.790647
30
0
0
VERTEX
8
0
10
2.81524
20
-15.882472
30
0
0
VERTEX
8
0
10
2.940974
20
-16.073558
30
0
0
VERTEX
8
0
10
3.106194
20
-16.430663
30
0
0
VERTEX
8
0
10
3.182489
20
-16.537901
30
0
0
VERTEX
8
0
10
3.275461
20
-16.631733
30
0
0
VERTEX
8
0
10
3.358246
20
-16.687363
30
0
0
VERTEX
8
0
10
3.452898
20
-16.721116
30
0
0
VERTEX
8
0
10
3.554042
20
-16.720455
30
0
0
VERTEX
8
0
10
3.646711
20
-16.67992
30
0
0
VERTEX
8
0
10
3.756736
20
-16.555356
30
0
0
VERTEX
8
0
10
3.827471
20
-16.370642
30
0
0
VERTEX
8
0
10
3.853853
20
-16.175366
30
0
0
VERTEX
8
0
10
3.856799
20
-15.814812
30
0
0
VERTEX
8
0
10
3.908625
20
-15.592551
30
0
0
VERTEX
8
0
10
3.987208
20
-15.45196
30
0
0
VERTEX
8
0
10
4.058734
20
-15.388923
30
0
0
VERTEX
8
0
10
4.116776
20
-15.364016
30
0
0
VERTEX
8
0
10
4.179495
20
-15.356565
30
0
0
VERTEX
8
0
10
4.272956
20
-15.375394
30
0
0
VERTEX
8
0
10
4.358923
20
-15.419485
30
0
0
VERTEX
8
0
10
4.459988
20
-15.501193
30
0
0
VERTEX
8
0
10
4.605008
20
-15.67809
30
0
0
VERTEX
8
0
10
4.80665
20
-16.015968
30
0
0
VERTEX
8
0
10
4.968876
20
-16.179202
30
0
0
VERTEX
8
0
10
5.115782
20
-16.255928
30
0
0
VERTEX
8
0
10
5.215645
20
-16.269261
30
0
0
VERTEX
8
0
10
5.282337
20
-16.25736
30
0
0
VERTEX
8
0
10
5.343286
20
-16.227788
30
0
0
VERTEX
8
0
10
5.41624
20
-16.158304
30
0
0
VERTEX
8
0
10
5.499089
20
-15.978066
30
0
0
VERTEX
8
0
10
5.525684
20
-15.749593
30
0
0
VERTEX
8
0
10
5.489821
20
-15.390597
30
0
0
VERTEX
8
0
10
5.498124
20
-15.194513
30
0
0
VERTEX
8
0
10
5.526182
20
-15.067358
30
0
0
VERTEX
8
0
10
5.56389
20
-14.978052
30
0
0
VERTEX
8
0
10
5.621033
20
-14.901157
30
0
0
VERTEX
8
0
10
5.671571
20
-14.86298
30
0
0
VERTEX
8
0
10
5.730476
20
-14.840369
30
0
0
VERTEX
8
0
10
5.825335
20
-14.838062
30
0
0
VERTEX
8
0
10
5.975277
20
-14.894967
30
0
0
VERTEX
8
0
10
6.175497
20
-15.061421
30
0
0
VERTEX
8
0
10
6.410608
20
-15.376815
30
0
0
VERTEX
8
0
10
6.577645
20
-15.534794
30
0
0
VERTEX
8
0
10
6.691731
20
-15.601718
30
0
0
VERTEX
8
0
10
6.786965
20
-15.632132
30
0
0
VERTEX
8
0
10
6.887674
20
-15.634953
30
0
0
VERTEX
8
0
10
6.952756
20
-15.616146
30
0
0
VERTEX
8
0
10
7.010281
20
-15.580365
30
0
0
VERTEX
8
0
10
7.075572
20
-15.503635
30
0
0
VERTEX
8
0
10
7.139127
20
-15.315726
30
0
0
VERTEX
8
0
10
7.141694
20
-15.085724
30
0
0
VERTEX
8
0
10
7.068502
20
-14.732443
30
0
0
VERTEX
8
0
10
7.056264
20
-14.536566
30
0
0
VERTEX
8
0
10
7.070877
20
-14.407174
30
0
0
VERTEX
8
0
10
7.099043
20
-14.314415
30
0
0
VERTEX
8
0
10
7.147835
20
-14.231969
30
0
0
VERTEX
8
0
10
7.194106
20
-14.188719
30
0
0
VERTEX
8
0
10
7.250325
20
-14.160074
30
0
0
VERTEX
8
0
10
7.344423
20
-14.147864
30
0
0
VERTEX
8
0
10
7.499492
20
-14.188784
30
0
0
VERTEX
8
0
10
7.716015
20
-14.333398
30
0
0
VERTEX
8
0
10
7.982805
20
-14.622488
30
0
0
VERTEX
8
0
10
8.13722
20
-14.745035
30
0
0
VERTEX
8
0
10
8.254637
20
-14.805545
30
0
0
VERTEX
8
0
10
8.350561
20
-14.832871
30
0
0
VERTEX
8
0
10
8.451011
20
-14.835722
30
0
0
VERTEX
8
0
10
8.516466
20
-14.81874
30
0
0
VERTEX
8
0
10
8.575172
20
-14.784846
30
0
0
VERTEX
8
0
10
8.641538
20
-14.708742
30
0
0
VERTEX
8
0
10
8.680735
20
-14.616498
30
0
0
VERTEX
8
0
10
8.698663
20
-14.518593
30
0
0
VERTEX
8
0
10
8.685907
20
-14.288811
30
0
0
VERTEX
8
0
10
8.56974
20
-13.912877
30
0
0
VERTEX
8
0
10
8.535317
20
-13.68674
30
0
0
VERTEX
8
0
10
8.542222
20
-13.556961
30
0
0
VERTEX
8
0
10
8.566978
20
-13.463572
30
0
0
VERTEX
8
0
10
8.615524
20
-13.381518
30
0
0
VERTEX
8
0
10
8.663028
20
-13.339894
30
0
0
VERTEX
8
0
10
8.720376
20
-13.313426
30
0
0
VERTEX
8
0
10
8.815081
20
-13.302452
30
0
0
VERTEX
8
0
10
8.910466
20
-13.317821
30
0
0
VERTEX
8
0
10
9.031833
20
-13.364299
30
0
0
VERTEX
8
0
10
9.224419
20
-13.487724
30
0
0
VERTEX
8
0
10
9.520602
20
-13.746754
30
0
0
VERTEX
8
0
10
9.633919
20
-13.813689
30
0
0
VERTEX
8
0
10
9.757018
20
-13.861594
30
0
0
VERTEX
8
0
10
9.855273
20
-13.878743
30
0
0
VERTEX
8
0
10
9.95547
20
-13.87108
30
0
0
VERTEX
8
0
10
10.047601
20
-13.829337
30
0
0
VERTEX
8
0
10
10.115771
20
-13.754614
30
0
0
VERTEX
8
0
10
10.165619
20
-13.596068
30
0
0
VERTEX
8
0
10
10.155108
20
-13.398553
30
0
0
VERTEX
8
0
10
10.099784
20
-13.209429
30
0
0
VERTEX
8
0
10
9.955825
20
-12.878848
30
0
0
VERTEX
8
0
10
9.912769
20
-12.654723
30
0
0
VERTEX
8
0
10
9.927374
20
-12.494324
30
0
0
VERTEX
8
0
10
9.967077
20
-12.407645
30
0
0
VERTEX
8
0
10
10.00997
20
-12.361284
30
0
0
VERTEX
8
0
10
10.064237
20
-12.328967
30
0
0
VERTEX
8
0
10
10.157276
20
-12.308153
30
0
0
VERTEX
8
0
10
10.253744
20
-12.313467
30
0
0
VERTEX
8
0
10
10.379305
20
-12.347004
30
0
0
VERTEX
8
0
10
10.583737
20
-12.449623
30
0
0
VERTEX
8
0
10
10.905374
20
-12.676274
30
0
0
VERTEX
8
0
10
11.119968
20
-12.759412
30
0
0
VERTEX
8
0
10
11.285381
20
-12.769753
30
0
0
VERTEX
8
0
10
11.382033
20
-12.741316
30
0
0
VERTEX
8
0
10
11.438119
20
-12.703318
30
0
0
VERTEX
8
0
10
11.481771
20
-12.651511
30
0
0
VERTEX
8
0
10
11.520156
20
-12.558362
30
0
0
VERTEX
8
0
10
11.522533
20
-12.360009
30
0
0
VERTEX
8
0
10
11.4539
20
-12.140472
30
0
0
VERTEX
8
0
10
11.275121
20
-11.827099
30
0
0
VERTEX
8
0
10
11.202952
20
-11.64459
30
0
0
VERTEX
8
0
10
11.176865
20
-11.517016
30
0
0
VERTEX
8
0
10
11.174989
20
-11.420093
30
0
0
VERTEX
8
0
10
11.195915
20
-11.326605
30
0
0
VERTEX
8
0
10
11.226557
20
-11.271172
30
0
0
VERTEX
8
0
10
11.271172
20
-11.226557
30
0
0
VERTEX
8
0
10
11.356892
20
-11.185867
30
0
0
VERTEX
8
0
10
11.517016
20
-11.176865
30
0
0
VERTEX
8
0
10
11.76763
20
-11.247492
30
0
0
VERTEX
8
0
10
12.110696
20
-11.43999
30
0
0
VERTEX
8
0
10
12.327548
20
-11.516371
30
0
0
VERTEX
8
0
10
12.458991
20
-11.531107
30
0
0
VERTEX
8
0
10
12.558362
20
-11.520156
30
0
0
VERTEX
8
0
10
12.651511
20
-11.481771
30
0
0
VERTEX
8
0
10
12.703318
20
-11.438119
30
0
0
VERTEX
8
0
10
12.741316
20
-11.382033
30
0
0
VERTEX
8
0
10
12.769753
20
-11.285381
30
0
0
VERTEX
8
0
10
12.751384
20
-11.087867
30
0
0
VERTEX
8
0
10
12.660179
20
-10.876706
30
0
0
VERTEX
8
0
10
12.449623
20
-10.583737
30
0
0
VERTEX
8
0
10
12.358772
20
-10.409772
30
0
0
VERTEX
8
0
10
12.319493
20
-10.285624
30
0
0
VERTEX
8
0
10
12.307496
20
-10.189428
30
0
0
VERTEX
8
0
10
12.318536
20
-10.094264
30
0
0
VERTEX
8
0
10
12.343215
20
-10.035933
30
0
0
VERTEX
8
0
10
12.382922
20
-9.986898
30
0
0
VERTEX
8
0
10
12.463919
20
-9.937471
30
0
0
VERTEX
8
0
10
12.622225
20
-9.911781
30
0
0
VERTEX
8
0
10
12.878848
20
-9.955825
30
0
0
VERTEX
8
0
10
13.240157
20
-10.111408
30
0
0
VERTEX
8
0
10
13.463805
20
-10.164704
30
0
0
VERTEX
8
0
10
13.596068
20
-10.165619
30
0
0
VERTEX
8
0
10
13.69375
20
-10.144341
30
0
0
VERTEX
8
0
10
13.782377
20
-10.096429
30
0
0
VERTEX
8
0
10
13.829337
20
-10.047601
30
0
0
VERTEX
8
0
10
13.861264
20
-9.987851
30
0
0
VERTEX
8
0
10
13.879443
20
-9.888756
30
0
0
VERTEX
8
0
10
13.840528
20
-9.694244
30
0
0
VERTEX
8
0
10
13.727751
20
-9.493773
30
0
0
VERTEX
8
0
10
13.487724
20
-9.224419
30
0
0
VERTEX
8
0
10
13.379187
20
-9.060903
30
0
0
VERTEX
8
0
10
13.327146
20
-8.941541
30
0
0
VERTEX
8
0
10
13.305159
20
-8.847126
30
0
0
VERTEX
8
0
10
13.306191
20
-8.751329
30
0
0
VERTEX
8
0
10
13.324638
20
-8.690738
30
0
0
VERTEX
8
0
10
13.359002
20
-8.637821
30
0
0
VERTEX
8
0
10
13.434389
20
-8.580199
30
0
0
VERTEX
8
0
10
13.589142
20
-8.538101
30
0
0
VERTEX
8
0
10
13.848964
20
-8.555079
30
0
0
VERTEX
8
0
10
14.224556
20
-8.672044
30
0
0
VERTEX
8
0
10
14.419557
20
-8.700965
30
0
0
VERTEX
8
0
10
14.551498
20
-8.69466
30
0
0
VERTEX
8
0
10
14.648233
20
-8.670362
30
0
0
VERTEX
8
0
10
14.736651
20
-8.622607
30
0
0
VERTEX
8
0
10
14.784846
20
-8.575172
30
0
0
VERTEX
8
0
10
14.81874
20
-8.516466
30
0
0
VERTEX
8
0
10
14.838162
20
-8.417375
30
0
0
VERTEX
8
0
10
14.825986
20
-8.317891
30
0
0
VERTEX
8
0
10
14.79256
20
-8.224139
30
0
0
VERTEX
8
0
10
14.666622
20
-8.03152
30
0
0
VERTEX
8
0
10
14.378051
20
-7.764035
30
0
0
VERTEX
8
0
10
14.235171
20
-7.585406
30
0
0
VERTEX
8
0
10
14.176261
20
-7.469562
30
0
0
VERTEX
8
0
10
14.151007
20
-7.376306
30
0
0
VERTEX
8
0
10
14.152021
20
-7.280973
30
0
0
VERTEX
8
0
10
14.17235
20
-7.221173
30
0
0
VERTEX
8
0
10
14.20878
20
-7.169578
30
0
0
VERTEX
8
0
10
14.28531
20
-7.112721
30
0
0
VERTEX
8
0
10
14.3756
20
-7.078338
30
0
0
VERTEX
8
0
10
14.503946
20
-7.057906
30
0
0
VERTEX
8
0
10
14.732443
20
-7.068502
30
0
0
VERTEX
8
0
10
15.11846
20
-7.144738
30
0
0
VERTEX
8
0
10
15.250063
20
-7.146046
30
0
0
VERTEX
8
0
10
15.380623
20
-7.125984
30
0
0
VERTEX
8
0
10
15.474288
20
-7.091708
30
0
0
VERTEX
8
0
10
15.55723
20
-7.034972
30
0
0
VERTEX
8
0
10
15.616146
20
-6.952756
30
0
0
VERTEX
8
0
10
15.637822
20
-6.85396
30
0
0
VERTEX
8
0
10
15.601718
20
-6.691731
30
0
0
VERTEX
8
0
10
15.493859
20
-6.525933
30
0
0
VERTEX
8
0
10
15.351384
20
-6.389809
30
0
0
VERTEX
8
0
10
15.061421
20
-6.175497
30
0
0
VERTEX
8
0
10
14.912071
20
-6.002927
30
0
0
VERTEX
8
0
10
14.84452
20
-5.856715
30
0
0
VERTEX
8
0
10
14.835564
20
-5.761798
30
0
0
VERTEX
8
0
10
14.84953
20
-5.700201
30
0
0
VERTEX
8
0
10
14.880368
20
-5.64508
30
0
0
VERTEX
8
0
10
14.950536
20
-5.580535
30
0
0
VERTEX
8
0
10
15.036737
20
-5.536903
30
0
0
VERTEX
8
0
10
15.162244
20
-5.503167
30
0
0
VERTEX
8
0
10
15.390597
20
-5.489821
30
0
0
VERTEX
8
0
10
15.782468
20
-5.525289
30
0
0
VERTEX
8
0
10
16.009881
20
-5.489991
30
0
0
VERTEX
8
0
10
16.158304
20
-5.41624
30
0
0
VERTEX
8
0
10
16.227788
20
-5.343286
30
0
0
VERTEX
8
0
10
16.25736
20
-5.282337
30
0
0
VERTEX
8
0
10
16.269261
20
-5.215645
30
0
0
VERTEX
8
0
10
16.255928
20
-5.115782
30
0
0
VERTEX
8
0
10
16.179202
20
-4.968876
30
0
0
VERTEX
8
0
10
16.015968
20
-4.80665
30
0
0
VERTEX
8
0
10
15.67809
20
-4.605008
30
0
0
VERTEX
8
0
10
15.501193
20
-4.459988
30
0
0
VERTEX
8
0
10
15.419485
20
-4.358923
30
0
0
VERTEX
8
0
10
15.375394
20
-4.272956
30
0
0
VERTEX
8
0
10
15.356565
20
-4.179495
30
0
0
VERTEX
8
0
10
15.364016
20
-4.116776
30
0
0
VERTEX
8
0
10
15.388923
20
-4.058734
30
0
0
VERTEX
8
0
10
15.45196
20
-3.987208
30
0
0
VERTEX
8
0
10
15.592551
20
-3.908625
30
0
0
VERTEX
8
0
10
15.814812
20
-3.856799
30
0
0
VERTEX
8
0
10
16.175366
20
-3.853853
30
0
0
VERTEX
8
0
10
16.370642
20
-3.827471
30
0
0
VERTEX
8
0
10
16.555356
20
-3.756736
30
0
0
VERTEX
8
0
10
16.67992
20
-3.646711
30
0
0
VERTEX
8
0
10
16.720455
20
-3.554042
30
0
0
VERTEX
8
0
10
16.721116
20
-3.452898
30
0
0
VERTEX
8
0
10
16.687363
20
-3.358246
30
0
0
VERTEX
8
0
10
16.631733
20
-3.275461
30
0
0
VERTEX
8
0
10
16.537901
20
-3.182489
30
0
0
VERTEX
8
0
10
16.430663
20
-3.106194
30
0
0
VERTEX
8
0
10
16.073558
20
-2.940974
30
0
0
VERTEX
8
0
10
15.882472
20
-2.81524
30
0
0
VERTEX
8
0
10
15.790647
20
-2.72327
30
0
0
VERTEX
8
0
10
15.737811
20
-2.642382
30
0
0
VERTEX
8
0
10
15.709317
20
-2.551401
30
0
0
VERTEX
8
0
10
15.710171
20
-2.488247
30
0
0
VERTEX
8
0
10
15.728874
20
-2.427919
30
0
0
VERTEX
8
0
10
15.784089
20
-2.350196
30
0
0
VERTEX
8
0
10
15.859335
20
-2.289595
30
0
0
VERTEX
8
0
10
15.975085
20
-2.230501
30
0
0
VERTEX
8
0
10
16.195673
20
-2.16997
30
0
0
VERTEX
8
0
10
16.586356
20
-2.123188
30
0
0
VERTEX
8
0
10
16.80146
20
-2.04138
30
0
0
VERTEX
8
0
10
16.883609
20
-1.98518
30
0
0
VERTEX
8
0
10
16.951934
20
-1.911853
30
0
0
VERTEX
8
0
10
16.994466
20
-1.820271
30
0
0
VERTEX
8
0
10
17.001551
20
-1.752854
30
0
0
VERTEX
8
0
10
16.990443
20
-1.68615
30
0
0
VERTEX
8
0
10
16.94698
20
-1.595545
30
0
0
VERTEX
8
0
10
16.883002
20
-1.519028
30
0
0
VERTEX
8
0
10
16.779965
20
-1.436374
30
0
0
VERTEX
8
0
10
16.605207
20
-1.345154
30
0
0
VERTEX
8
0
10
16.232597
20
-1.219012
30
0
0
VERTEX
8
0
10
16.037229
20
-1.10104
30
0
0
VERTEX
8
0
10
15.927802
20
-0.982858
30
0
0
VERTEX
8
0
10
15.889953
20
-0.895354
30
0
0
SEQEND
0
CIRCLE
8
0
10
0
20
0
30
0
40
15.156
0
ENDSEC
0
EOF
