0
SECTION
2
HEADER
9
$ACADVER
1
AC1009
9
$INSUNITS
70
4
0
ENDSEC
0
SECTION
2
ENTITIES
0
POLYLINE
8
0
66
1
70
1
0
VERTEX
8
0
10
-15.706
20
0
30
0
0
VERTEX
8
0
10
-15.693101
20
-0.588435
30
0
0
VERTEX
8
0
10
-15.654437
20
-1.175802
30
0
0
VERTEX
8
0
10
-15.590105
20
-1.761039
30
0
0
VERTEX
8
0
10
-15.500267
20
-2.343091
30
0
0
VERTEX
8
0
10
-15.385147
20
-2.920917
30
0
0
VERTEX
8
0
10
-15.245029
20
-3.493494
30
0
0
VERTEX
8
0
10
-15.080257
20
-4.059818
30
0
0
VERTEX
8
0
10
-14.891229
20
-4.618909
30
0
0
VERTEX
8
0
10
-14.678394
20
-5.169818
30
0
0
VERTEX
8
0
10
-14.442251
20
-5.711621
30
0
0
VERTEX
8
0
10
-14.183342
20
-6.243432
30
0
0
VERTEX
8
0
10
-13.902251
20
-6.764395
30
0
0
VERTEX
8
0
10
-13.599598
20
-7.273692
30
0
0
VERTEX
8
0
10
-13.276035
20
-7.770543
30
0
0
VERTEX
8
0
10
-12.932243
20
-8.254203
30
0
0
VERTEX
8
0
10
-12.568926
20
-8.723969
30
0
0
VERTEX
8
0
10
-12.186811
20
-9.179172
30
0
0
VERTEX
8
0
10
-11.786643
20
-9.619185
30
0
0
VERTEX
8
0
10
-11.369177
20
-10.043413
30
0
0
VERTEX
8
0
10
-10.935186
20
-10.451301
30
0
0
VERTEX
8
0
10
-10.485445
20
-10.84233
30
0
0
VERTEX
8
0
10
-10.020741
20
-11.216012
30
0
0
VERTEX
8
0
10
-9.541863
20
-11.571894
30
0
0
VERTEX
8
0
10
-9.049604
20
-11.909555
30
0
0
VERTEX
8
0
10
-8.544759
20
-12.228604
30
0
0
VERTEX
8
0
10
-8.028122
20
-12.528679
30
0
0
VERTEX
8
0
10
-7.500489
20
-12.809447
30
0
0
VERTEX
8
0
10
-6.962653
20
-13.070603
30
0
0
VERTEX
8
0
10
-6.415409
20
-13.311865
30
0
0
VERTEX
8
0
10
-5.859547
20
-13.532979
30
0
0
VERTEX
8
0
10
-5.295857
20
-13.733716
30
0
0
VERTEX
8
0
10
-4.725128
20
-13.913868
30
0
0
VERTEX
8
0
10
-4.148147
20
-14.073251
30
0
0
VERTEX
8
0
10
-3.565698
20
-14.211706
30
0
0
VERTEX
8
0
10
-2.978565
20
-14.329092
30
0
0
VERTEX
8
0
10
-2.387531
20
-14.425295
30
0
0
VERTEX
8
0
10
-1.793377
20
-14.500217
30
0
0
VERTEX
8
0
10
-1.196884
20
-14.553785
30
0
0
VERTEX
8
0
10
-0.598832
20
-14.585948
30
0
0
VERTEX
8
0
10
0
20
-14.596672
30
0
0
VERTEX
8
0
10
0.598832
20
-14.585948
30
0
0
VERTEX
8
0
10
1.196884
20
-14.553785
30
0
0
VERTEX
8
0
10
1.793377
20
-14.500217
30
0
0
VERTEX
8
0
10
2.387531
20
-14.425295
30
0
0
VERTEX
8
0
10
2.978565
20
-14.329092
30
0
0
VERTEX
8
0
10
3.565698
20
-14.211706
30
0
0
VERTEX
8
0
10
4.148147
20
-14.073251
30
0
0
VERTEX
8
0
10
4.725128
20
-13.913868
30
0
0
VERTEX
8
0
10
5.295857
20
-13.733716
30
0
0
VERTEX
8
0
10
5.859547
20
-13.532979
30
0
0
VERTEX
8
0
10
6.415409
20
-13.311865
30
0
0
VERTEX
8
0
10
6.962653
20
-13.070603
30
0
0
VERTEX
8
0
10
7.500489
20
-12.809447
30
0
0
VERTEX
8
0
10
8.028122
20
-12.528679
30
0
0
VERTEX
8
0
10
8.544759
20
-12.228604
30
0
0
VERTEX
8
0
10
9.049604
20
-11.909555
30
0
0
VERTEX
8
0
10
9.541863
20
-11.571894
30
0
0
VERTEX
8
0
10
10.020741
20
-11.216012
30
0
0
VERTEX
8
0
10
10.485445
20
-10.84233
30
0
0
VERTEX
8
0
10
10.935186
20
-10.451301
30
0
0
VERTEX
8
0
10
11.369177
20
-10.043413
30
0
0
VERTEX
8
0
10
11.786643
20
-9.619185
30
0
0
VERTEX
8
0
10
12.186811
20
-9.179172
30
0
0
VERTEX
8
0
10
12.568926
20
-8.723969
30
0
0
VERTEX
8
0
10
12.932243
20
-8.254203
30
0
0
VERTEX
8
0
10
13.276035
20
-7.770543
30
0
0
VERTEX
8
0
10
13.599598
20
-7.273692
30
0
0
VERTEX
8
0
10
13.902251
20
-6.764395
30
0
0
VERTEX
8
0
10
14.183342
20
-6.243432
30
0
0
VERTEX
8
0
10
14.442251
20
-5.711621
30
0
0
VERTEX
8
0
10
14.678394
20
-5.169818
30
0
0
VERTEX
8
0
10
14.891229
20
-4.618909
30
0
0
VERTEX
8
0
10
15.080257
20
-4.059818
30
0
0
VERTEX
8
0
10
15.245029
20
-3.493494
30
0
0
VERTEX
8
0
10
15.385147
20
-2.920917
30
0
0
VERTEX
8
0
10
15.500267
20
-2.343091
30
0
0
VERTEX
8
0
10
15.590105
20
-1.761039
30
0
0
VERTEX
8
0
10
15.654437
20
-1.175802
30
0
0
VERTEX
8
0
10
15.693101
20
-0.588435
30
0
0
VERTEX
8
0
10
15.706
20
0
30
0
0
VERTEX
8
0
10
15.693101
20
0.588435
30
0
0
VERTEX
8
0
10
15.654437
20
1.175802
30
0
0
VERTEX
8
0
10
15.590105
20
1.761039
30
0
0
VERTEX
8
0
10
15.500267
20
2.343091
30
0
0
VERTEX
8
0
10
15.385147
20
2.920917
30
0
0
VERTEX
8
0
10
15.245029
20
3.493494
30
0
0
VERTEX
8
0
10
15.080257
20
4.059818
30
0
0
VERTEX
8
0
10
14.891229
20
4.618909
30
0
0
VERTEX
8
0
10
14.678394
20
5.169818
30
0
0
VERTEX
8
0
10
14.442251
20
5.711621
30
0
0
VERTEX
8
0
10
14.183342
20
6.243432
30
0
0
VERTEX
8
0
10
13.902251
20
6.764395
30
0
0
VERTEX
8
0
10
13.599598
20
7.273692
30
0
0
VERTEX
8
0
10
13.276035
20
7.770543
30
0
0
VERTEX
8
0
10
12.932243
20
8.254203
30
0
0
VERTEX
8
0
10
12.568926
20
8.723969
30
0
0
VERTEX
8
0
10
12.186811
20
9.179172
30
0
0
VERTEX
8
0
10
11.786643
20
9.619185
30
0
0
VERTEX
8
0
10
11.369177
20
10.043413
30
0
0
VERTEX
8
0
10
10.935186
20
10.451301
30
0
0
VERTEX
8
0
10
10.485445
20
10.84233
30
0
0
VERTEX
8
0
10
10.020741
20
11.216012
30
0
0
VERTEX
8
0
10
9.541863
20
11.571894
30
0
0
VERTEX
8
0
10
9.049604
20
11.909555
30
0
0
VERTEX
8
0
10
8.544759
20
12.228604
30
0
0
VERTEX
8
0
10
8.028122
20
12.528679
30
0
0
VERTEX
8
0
10
7.500489
20
12.809447
30
0
0
VERTEX
8
0
10
6.962653
20
13.070603
30
0
0
VERTEX
8
0
10
6.415409
20
13.311865
30
0
0
VERTEX
8
0
10
5.859547
20
13.532979
30
0
0
VERTEX
8
0
10
5.295857
20
13.733716
30
0
0
VERTEX
8
0
10
4.725128
20
13.913868
30
0
0
VERTEX
8
0
10
4.148147
20
14.073251
30
0
0
VERTEX
8
0
10
3.565698
20
14.211706
30
0
0
VERTEX
8
0
10
2.978565
20
14.329092
30
0
0
VERTEX
8
0
10
2.387531
20
14.425295
30
0
0
VERTEX
8
0
10
1.793377
20
14.500217
30
0
0
VERTEX
8
0
10
1.196884
20
14.553785
30
0
0
VERTEX
8
0
10
0.598832
20
14.585948
30
0
0
VERTEX
8
0
10
0
20
14.596672
30
0
0
VERTEX
8
0
10
-0.598832
20
14.585948
30
0
0
VERTEX
8
0
10
-1.196884
20
14.553785
30
0
0
VERTEX
8
0
10
-1.793377
20
14.500217
30
0
0
VERTEX
8
0
10
-2.387531
20
14.425295
30
0
0
VERTEX
8
0
10
-2.978565
20
14.329092
30
0
0
VERTEX
8
0
10
-3.565698
20
14.211706
30
0
0
VERTEX
8
0
10
-4.148147
20
14.073251
30
0
0
VERTEX
8
0
10
-4.725128
20
13.913868
30
0
0
VERTEX
8
0
10
-5.295857
20
13.733716
30
0
0
VERTEX
8
0
10
-5.859547
20
13.532979
30
0
0
VERTEX
8
0
10
-6.415409
20
13.311865
30
0
0
VERTEX
8
0
10
-6.962653
20
13.070603
30
0
0
VERTEX
8
0
10
-7.500489
20
12.809447
30
0
0
VERTEX
8
0
10
-8.028122
20
12.528679
30
0
0
VERTEX
8
0
10
-8.544759
20
12.228604
30
0
0
VERTEX
8
0
10
-9.049604
20
11.909555
30
0
0
VERTEX
8
0
10
-9.541863
20
11.571894
30
0
0
VERTEX
8
0
10
-10.020741
20
11.216012
30
0
0
VERTEX
8
0
10
-10.485445
20
10.84233
30
0
0
VERTEX
8
0
10
-10.935186
20
10.451301
30
0
0
VERTEX
8
0
10
-11.369177
20
10.043413
30
0
0
VERTEX
8
0
10
-11.786643
20
9.619185
30
0
0
VERTEX
8
0
10
-12.186811
20
9.179172
30
0
0
VERTEX
8
0
10
-12.568926
20
8.723969
30
0
0
VERTEX
8
0
10
-12.932243
20
8.254203
30
0
0
VERTEX
8
0
10
-13.276035
20
7.770543
30
0
0
VERTEX
8
0
10
-13.599598
20
7.273692
30
0
0
VERTEX
8
0
10
-13.902251
20
6.764395
30
0
0
VERTEX
8
0
10
-14.183342
20
6.243432
30
0
0
VERTEX
8
0
10
-14.442251
20
5.711621
30
0
0
VERTEX
8
0
10
-14.678394
20
5.169818
30
0
0
VERTEX
8
0
10
-14.891229
20
4.618909
30
0
0
VERTEX
8
0
10
-15.080257
20
4.059818
30
0
0
VERTEX
8
0
10
-15.245029
20
3.493494
30
0
0
VERTEX
8
0
10
-15.385147
20
2.920917
30
0
0
VERTEX
8
0
10
-15.500267
20
2.343091
30
0
0
VERTEX
8
0
10
-15.590105
20
1.761039
30
0
0
VERTEX
8
0
10
-15.654437
20
1.175802
30
0
0
VERTEX
8
0
10
-15.693101
20
0.588435
30
0
0
SEQEND
0
ENDSEC
0
EOF
