0
SECTION
2
HEADER
9
$ACADVER
1
AC1009
9
$INSUNITS
70
4
0
ENDSEC
0
SECTION
2
ENTITIES
0
POLYLINE
8
0
66
1
70
1
0
VERTEX
8
0
10
16.485309
20
-0.860577
30
0
0
VERTEX
8
0
10
16.494007
20
-0.766342
30
0
0
VERTEX
8
0
10
16.576644
20
-0.709033
30
0
0
VERTEX
8
0
10
17.043768
20
-0.561445
30
0
0
VERTEX
8
0
10
17.240538
20
-0.469103
30
0
0
VERTEX
8
0
10
17.368144
20
-0.387267
30
0
0
VERTEX
8
0
10
17.475306
20
-0.29669
30
0
0
VERTEX
8
0
10
17.550576
20
-0.204618
30
0
0
VERTEX
8
0
10
17.592173
20
-0.125937
30
0
0
VERTEX
8
0
10
17.61622
20
-0.010809
30
0
0
VERTEX
8
0
10
17.607843
20
0.075629
30
0
0
VERTEX
8
0
10
17.550576
20
0.204618
30
0
0
VERTEX
8
0
10
17.475306
20
0.29669
30
0
0
VERTEX
8
0
10
17.35864
20
0.394159
30
0
0
VERTEX
8
0
10
17.240538
20
0.469103
30
0
0
VERTEX
8
0
10
17.043768
20
0.561445
30
0
0
VERTEX
8
0
10
16.60285
20
0.696546
30
0
0
VERTEX
8
0
10
16.50527
20
0.753334
30
0
0
VERTEX
8
0
10
16.49045
20
0.779698
30
0
0
VERTEX
8
0
10
16.481614
20
0.948295
30
0
0
VERTEX
8
0
10
16.493597
20
0.976064
30
0
0
VERTEX
8
0
10
16.612928
20
1.05816
30
0
0
VERTEX
8
0
10
16.925363
20
1.182377
30
0
0
VERTEX
8
0
10
17.195127
20
1.335594
30
0
0
VERTEX
8
0
10
17.410587
20
1.531602
30
0
0
VERTEX
8
0
10
17.47582
20
1.631037
30
0
0
VERTEX
8
0
10
17.508965
20
1.713636
30
0
0
VERTEX
8
0
10
17.520846
20
1.830646
30
0
0
VERTEX
8
0
10
17.50348
20
1.915735
30
0
0
VERTEX
8
0
10
17.443464
20
2.024786
30
0
0
VERTEX
8
0
10
17.340525
20
2.127949
30
0
0
VERTEX
8
0
10
17.169321
20
2.235381
30
0
0
VERTEX
8
0
10
17.00108
20
2.305482
30
0
0
VERTEX
8
0
10
16.782371
20
2.366776
30
0
0
VERTEX
8
0
10
16.4699
20
2.418985
30
0
0
VERTEX
8
0
10
16.374922
20
2.452955
30
0
0
VERTEX
8
0
10
16.320526
20
2.492609
30
0
0
VERTEX
8
0
10
16.295605
20
2.639084
30
0
0
VERTEX
8
0
10
16.295839
20
2.68703
30
0
0
VERTEX
8
0
10
16.373141
20
2.761732
30
0
0
VERTEX
8
0
10
16.788052
20
2.994423
30
0
0
VERTEX
8
0
10
16.961322
20
3.125657
30
0
0
VERTEX
8
0
10
17.076482
20
3.240865
30
0
0
VERTEX
8
0
10
17.160289
20
3.351409
30
0
0
VERTEX
8
0
10
17.218146
20
3.47252
30
0
0
VERTEX
8
0
10
17.239162
20
3.594335
30
0
0
VERTEX
8
0
10
17.210706
20
3.728211
30
0
0
VERTEX
8
0
10
17.167486
20
3.799801
30
0
0
VERTEX
8
0
10
17.085399
20
3.884402
30
0
0
VERTEX
8
0
10
16.968596
20
3.960181
30
0
0
VERTEX
8
0
10
16.829955
20
4.022316
30
0
0
VERTEX
8
0
10
16.55459
20
4.092775
30
0
0
VERTEX
8
0
10
16.126823
20
4.127307
30
0
0
VERTEX
8
0
10
15.987963
20
4.16851
30
0
0
VERTEX
8
0
10
15.967986
20
4.191217
30
0
0
VERTEX
8
0
10
15.92429
20
4.354292
30
0
0
VERTEX
8
0
10
15.930237
20
4.383946
30
0
0
VERTEX
8
0
10
16.005493
20
4.468108
30
0
0
VERTEX
8
0
10
16.383083
20
4.732848
30
0
0
VERTEX
8
0
10
16.594166
20
4.94127
30
0
0
VERTEX
8
0
10
16.680884
20
5.063817
30
0
0
VERTEX
8
0
10
16.741828
20
5.187215
30
0
0
VERTEX
8
0
10
16.770067
20
5.316507
30
0
0
VERTEX
8
0
10
16.757361
20
5.433431
30
0
0
VERTEX
8
0
10
16.722684
20
5.51305
30
0
0
VERTEX
8
0
10
16.628359
20
5.61803
30
0
0
VERTEX
8
0
10
16.528322
20
5.682336
30
0
0
VERTEX
8
0
10
16.387245
20
5.738983
30
0
0
VERTEX
8
0
10
16.251765
20
5.773763
30
0
0
VERTEX
8
0
10
16.036091
20
5.80078
30
0
0
VERTEX
8
0
10
15.575004
20
5.793017
30
0
0
VERTEX
8
0
10
15.464651
20
5.816872
30
0
0
VERTEX
8
0
10
15.44241
20
5.837366
30
0
0
VERTEX
8
0
10
15.381907
20
5.994981
30
0
0
VERTEX
8
0
10
15.384723
20
6.025093
30
0
0
VERTEX
8
0
10
15.472844
20
6.140048
30
0
0
VERTEX
8
0
10
15.731602
20
6.354732
30
0
0
VERTEX
8
0
10
15.940816
20
6.583811
30
0
0
VERTEX
8
0
10
16.085161
20
6.836807
30
0
0
VERTEX
8
0
10
16.116475
20
6.951534
30
0
0
VERTEX
8
0
10
16.122473
20
7.040332
30
0
0
VERTEX
8
0
10
16.097614
20
7.155287
30
0
0
VERTEX
8
0
10
16.054804
20
7.230845
30
0
0
VERTEX
8
0
10
15.964027
20
7.316012
30
0
0
VERTEX
8
0
10
15.834247
20
7.382317
30
0
0
VERTEX
8
0
10
15.638224
20
7.431586
30
0
0
VERTEX
8
0
10
15.456555
20
7.446266
30
0
0
VERTEX
8
0
10
15.22961
20
7.436976
30
0
0
VERTEX
8
0
10
14.916298
20
7.39007
30
0
0
VERTEX
8
0
10
14.815471
20
7.393028
30
0
0
VERTEX
8
0
10
14.751484
20
7.413932
30
0
0
VERTEX
8
0
10
14.68252
20
7.545537
30
0
0
VERTEX
8
0
10
14.667926
20
7.591209
30
0
0
VERTEX
8
0
10
14.718361
20
7.686142
30
0
0
VERTEX
8
0
10
15.041059
20
8.035658
30
0
0
VERTEX
8
0
10
15.165295
20
8.214014
30
0
0
VERTEX
8
0
10
15.239217
20
8.359169
30
0
0
VERTEX
8
0
10
15.284763
20
8.4902
30
0
0
VERTEX
8
0
10
15.302362
20
8.623263
30
0
0
VERTEX
8
0
10
15.284707
20
8.74561
30
0
0
VERTEX
8
0
10
15.216274
20
8.86414
30
0
0
VERTEX
8
0
10
15.153047
20
8.91887
30
0
0
VERTEX
8
0
10
15.048834
20
8.973965
30
0
0
VERTEX
8
0
10
14.91433
20
9.00994
30
0
0
VERTEX
8
0
10
14.763275
20
9.026192
30
0
0
VERTEX
8
0
10
14.479614
20
9.00811
30
0
0
VERTEX
8
0
10
14.062112
20
8.908764
30
0
0
VERTEX
8
0
10
13.917316
20
8.905041
30
0
0
VERTEX
8
0
10
13.891299
20
8.920463
30
0
0
VERTEX
8
0
10
13.799349
20
9.062054
30
0
0
VERTEX
8
0
10
13.795842
20
9.092094
30
0
0
VERTEX
8
0
10
13.841407
20
9.195393
30
0
0
VERTEX
8
0
10
14.118707
20
9.563857
30
0
0
VERTEX
8
0
10
14.22362
20
9.754221
30
0
0
VERTEX
8
0
10
14.275116
20
9.884271
30
0
0
VERTEX
8
0
10
14.31221
20
10.0317
30
0
0
VERTEX
8
0
10
14.318986
20
10.15043
30
0
0
VERTEX
8
0
10
14.306391
20
10.238534
30
0
0
VERTEX
8
0
10
14.249952
20
10.35765
30
0
0
VERTEX
8
0
10
14.158343
20
10.442305
30
0
0
VERTEX
8
0
10
14.037145
20
10.495455
30
0
0
VERTEX
8
0
10
13.901491
20
10.518682
30
0
0
VERTEX
8
0
10
13.751377
20
10.520557
30
0
0
VERTEX
8
0
10
13.458689
20
10.472294
30
0
0
VERTEX
8
0
10
13.053859
20
10.329852
30
0
0
VERTEX
8
0
10
12.910245
20
10.311014
30
0
0
VERTEX
8
0
10
12.882759
20
10.323632
30
0
0
VERTEX
8
0
10
12.772933
20
10.460634
30
0
0
VERTEX
8
0
10
12.804402
20
10.591841
30
0
0
VERTEX
8
0
10
13.041668
20
10.987272
30
0
0
VERTEX
8
0
10
13.14973
20
11.26353
30
0
0
VERTEX
8
0
10
13.179106
20
11.410753
30
0
0
VERTEX
8
0
10
13.184591
20
11.548271
30
0
0
VERTEX
8
0
10
13.1578
20
11.677872
30
0
0
VERTEX
8
0
10
13.094042
20
11.78508
30
0
0
VERTEX
8
0
10
12.989264
20
11.865051
30
0
0
VERTEX
8
0
10
12.905703
20
11.895689
30
0
0
VERTEX
8
0
10
12.788159
20
11.913746
30
0
0
VERTEX
8
0
10
12.636239
20
11.908115
30
0
0
VERTEX
8
0
10
12.498325
20
11.884783
30
0
0
VERTEX
8
0
10
12.290308
20
11.821742
30
0
0
VERTEX
8
0
10
11.872242
20
11.62711
30
0
0
VERTEX
8
0
10
11.761727
20
11.604017
30
0
0
VERTEX
8
0
10
11.733073
20
11.613693
30
0
0
VERTEX
8
0
10
11.613693
20
11.733073
30
0
0
VERTEX
8
0
10
11.604017
20
11.761727
30
0
0
VERTEX
8
0
10
11.637764
20
11.902585
30
0
0
VERTEX
8
0
10
11.786831
20
12.203956
30
0
0
VERTEX
8
0
10
11.884783
20
12.498325
30
0
0
VERTEX
8
0
10
11.913746
20
12.788159
30
0
0
VERTEX
8
0
10
11.895689
20
12.905703
30
0
0
VERTEX
8
0
10
11.865051
20
12.989264
30
0
0
VERTEX
8
0
10
11.795584
20
13.08417
30
0
0
VERTEX
8
0
10
11.725744
20
13.135783
30
0
0
VERTEX
8
0
10
11.608174
20
13.176665
30
0
0
VERTEX
8
0
10
11.462646
20
13.18445
30
0
0
VERTEX
8
0
10
11.26353
20
13.14973
30
0
0
VERTEX
8
0
10
11.091596
20
13.08925
30
0
0
VERTEX
8
0
10
10.88805
20
12.988456
30
0
0
VERTEX
8
0
10
10.620904
20
12.81817
30
0
0
VERTEX
8
0
10
10.527591
20
12.779863
30
0
0
VERTEX
8
0
10
10.460634
20
12.772933
30
0
0
VERTEX
8
0
10
10.344103
20
12.86511
30
0
0
VERTEX
8
0
10
10.312194
20
12.900897
30
0
0
VERTEX
8
0
10
10.319656
20
13.008137
30
0
0
VERTEX
8
0
10
10.472294
20
13.458689
30
0
0
VERTEX
8
0
10
10.513246
20
13.672156
30
0
0
VERTEX
8
0
10
10.521737
20
13.834829
30
0
0
VERTEX
8
0
10
10.51005
20
13.973057
30
0
0
VERTEX
8
0
10
10.472007
20
14.101774
30
0
0
VERTEX
8
0
10
10.406115
20
14.206362
30
0
0
VERTEX
8
0
10
10.295387
20
14.286811
30
0
0
VERTEX
8
0
10
10.215366
20
14.311093
30
0
0
VERTEX
8
0
10
10.097753
20
14.319037
30
0
0
VERTEX
8
0
10
9.960246
20
14.297195
30
0
0
VERTEX
8
0
10
9.815639
20
14.250601
30
0
0
VERTEX
8
0
10
9.563857
20
14.118707
30
0
0
VERTEX
8
0
10
9.222858
20
13.858138
30
0
0
VERTEX
8
0
10
9.092094
20
13.795842
30
0
0
VERTEX
8
0
10
9.062054
20
13.799349
30
0
0
VERTEX
8
0
10
8.920463
20
13.891299
30
0
0
VERTEX
8
0
10
8.905041
20
13.917316
30
0
0
VERTEX
8
0
10
8.904651
20
14.030217
30
0
0
VERTEX
8
0
10
9.00811
20
14.479614
30
0
0
VERTEX
8
0
10
9.026524
20
14.696192
30
0
0
VERTEX
8
0
10
9.020672
20
14.835943
30
0
0
VERTEX
8
0
10
8.994594
20
14.985714
30
0
0
VERTEX
8
0
10
8.952493
20
15.096935
30
0
0
VERTEX
8
0
10
8.905151
20
15.1723
30
0
0
VERTEX
8
0
10
8.805143
20
15.258161
30
0
0
VERTEX
8
0
10
8.687022
20
15.298237
30
0
0
VERTEX
8
0
10
8.554684
20
15.297496
30
0
0
VERTEX
8
0
10
8.421311
20
15.26354
30
0
0
VERTEX
8
0
10
8.283412
20
15.204196
30
0
0
VERTEX
8
0
10
8.035658
20
15.041059
30
0
0
VERTEX
8
0
10
7.723764
20
14.746272
30
0
0
VERTEX
8
0
10
7.600229
20
14.67065
30
0
0
VERTEX
8
0
10
7.569987
20
14.670997
30
0
0
VERTEX
8
0
10
7.413932
20
14.751484
30
0
0
VERTEX
8
0
10
7.389314
20
14.884147
30
0
0
VERTEX
8
0
10
7.44523
20
15.341897
30
0
0
VERTEX
8
0
10
7.431586
20
15.638224
30
0
0
VERTEX
8
0
10
7.398541
20
15.784667
30
0
0
VERTEX
8
0
10
7.347618
20
15.912527
30
0
0
VERTEX
8
0
10
7.270431
20
16.020026
30
0
0
VERTEX
8
0
10
7.168579
20
16.092033
30
0
0
VERTEX
8
0
10
7.040332
20
16.122473
30
0
0
VERTEX
8
0
10
6.951534
20
16.116475
30
0
0
VERTEX
8
0
10
6.836807
20
16.085161
30
0
0
VERTEX
8
0
10
6.700312
20
16.018226
30
0
0
VERTEX
8
0
10
6.583811
20
15.940816
30
0
0
VERTEX
8
0
10
6.41942
20
15.798617
30
0
0
VERTEX
8
0
10
6.116661
20
15.450769
30
0
0
VERTEX
8
0
10
6.025093
20
15.384723
30
0
0
VERTEX
8
0
10
5.994981
20
15.381907
30
0
0
VERTEX
8
0
10
5.837366
20
15.44241
30
0
0
VERTEX
8
0
10
5.816872
20
15.464651
30
0
0
VERTEX
8
0
10
5.790409
20
15.607058
30
0
0
VERTEX
8
0
10
5.80401
20
15.943005
30
0
0
VERTEX
8
0
10
5.773763
20
16.251765
30
0
0
VERTEX
8
0
10
5.682336
20
16.528322
30
0
0
VERTEX
8
0
10
5.61803
20
16.628359
30
0
0
VERTEX
8
0
10
5.556054
20
16.692234
30
0
0
VERTEX
8
0
10
5.453991
20
16.75068
30
0
0
VERTEX
8
0
10
5.369196
20
16.769425
30
0
0
VERTEX
8
0
10
5.245162
20
16.758952
30
0
0
VERTEX
8
0
10
5.109049
20
16.706873
30
0
0
VERTEX
8
0
10
4.94127
20
16.594166
30
0
0
VERTEX
8
0
10
4.808799
20
16.468983
30
0
0
VERTEX
8
0
10
4.663848
20
16.294114
30
0
0
VERTEX
8
0
10
4.489059
20
16.029892
30
0
0
VERTEX
8
0
10
4.419395
20
15.956942
30
0
0
VERTEX
8
0
10
4.361044
20
15.923378
30
0
0
VERTEX
8
0
10
4.217096
20
15.960188
30
0
0
VERTEX
8
0
10
4.173391
20
15.979903
30
0
0
VERTEX
8
0
10
4.136589
20
16.080907
30
0
0
VERTEX
8
0
10
4.092775
20
16.55459
30
0
0
VERTEX
8
0
10
4.043361
20
16.766258
30
0
0
VERTEX
8
0
10
3.984953
20
16.918322
30
0
0
VERTEX
8
0
10
3.918054
20
17.039845
30
0
0
VERTEX
8
0
10
3.830946
20
17.141961
30
0
0
VERTEX
8
0
10
3.728211
20
17.210706
30
0
0
VERTEX
8
0
10
3.594335
20
17.239162
30
0
0
VERTEX
8
0
10
3.511355
20
17.228797
30
0
0
VERTEX
8
0
10
3.40068
20
17.188217
30
0
0
VERTEX
8
0
10
3.283944
20
17.112334
30
0
0
VERTEX
8
0
10
3.170791
20
17.010952
30
0
0
VERTEX
8
0
10
2.994423
20
16.788052
30
0
0
VERTEX
8
0
10
2.788888
20
16.411313
30
0
0
VERTEX
8
0
10
2.694767
20
16.301217
30
0
0
VERTEX
8
0
10
2.665898
20
16.292202
30
0
0
VERTEX
8
0
10
2.499148
20
16.318613
30
0
0
VERTEX
8
0
10
2.474477
20
16.336107
30
0
0
VERTEX
8
0
10
2.428201
20
16.439089
30
0
0
VERTEX
8
0
10
2.339928
20
16.891714
30
0
0
VERTEX
8
0
10
2.26866
20
17.097058
30
0
0
VERTEX
8
0
10
2.206472
20
17.222346
30
0
0
VERTEX
8
0
10
2.121732
20
17.348562
30
0
0
VERTEX
8
0
10
2.038032
20
17.433044
30
0
0
VERTEX
8
0
10
1.96413
20
17.482637
30
0
0
VERTEX
8
0
10
1.837845
20
17.520398
30
0
0
VERTEX
8
0
10
1.713636
20
17.508965
30
0
0
VERTEX
8
0
10
1.59304
20
17.454462
30
0
0
VERTEX
8
0
10
1.485009
20
17.369193
30
0
0
VERTEX
8
0
10
1.38317
20
17.258892
30
0
0
VERTEX
8
0
10
1.22319
20
17.009087
30
0
0
VERTEX
8
0
10
1.05816
20
16.612928
30
0
0
VERTEX
8
0
10
0.976064
20
16.493597
30
0
0
VERTEX
8
0
10
0.948295
20
16.481614
30
0
0
VERTEX
8
0
10
0.772995
20
16.491669
30
0
0
VERTEX
8
0
10
0.696546
20
16.60285
30
0
0
VERTEX
8
0
10
0.561445
20
17.043768
30
0
0
VERTEX
8
0
10
0.428453
20
17.308926
30
0
0
VERTEX
8
0
10
0.338701
20
17.429268
30
0
0
VERTEX
8
0
10
0.240175
20
17.525362
30
0
0
VERTEX
8
0
10
0.125937
20
17.592173
30
0
0
VERTEX
8
0
10
0.003603
20
17.616527
30
0
0
VERTEX
8
0
10
-0.125937
20
17.592173
30
0
0
VERTEX
8
0
10
-0.204618
20
17.550576
30
0
0
VERTEX
8
0
10
-0.29669
20
17.475306
30
0
0
VERTEX
8
0
10
-0.394159
20
17.35864
30
0
0
VERTEX
8
0
10
-0.469103
20
17.240538
30
0
0
VERTEX
8
0
10
-0.561445
20
17.043768
30
0
0
VERTEX
8
0
10
-0.696546
20
16.60285
30
0
0
VERTEX
8
0
10
-0.753334
20
16.50527
30
0
0
VERTEX
8
0
10
-0.779698
20
16.49045
30
0
0
VERTEX
8
0
10
-0.948295
20
16.481614
30
0
0
VERTEX
8
0
10
-0.976064
20
16.493597
30
0
0
VERTEX
8
0
10
-1.05816
20
16.612928
30
0
0
VERTEX
8
0
10
-1.182377
20
16.925363
30
0
0
VERTEX
8
0
10
-1.335594
20
17.195127
30
0
0
VERTEX
8
0
10
-1.531602
20
17.410587
30
0
0
VERTEX
8
0
10
-1.631037
20
17.47582
30
0
0
VERTEX
8
0
10
-1.713636
20
17.508965
30
0
0
VERTEX
8
0
10
-1.830646
20
17.520846
30
0
0
VERTEX
8
0
10
-1.915735
20
17.50348
30
0
0
VERTEX
8
0
10
-2.024786
20
17.443464
30
0
0
VERTEX
8
0
10
-2.127949
20
17.340525
30
0
0
VERTEX
8
0
10
-2.235381
20
17.169321
30
0
0
VERTEX
8
0
10
-2.305482
20
17.00108
30
0
0
VERTEX
8
0
10
-2.366776
20
16.782371
30
0
0
VERTEX
8
0
10
-2.418985
20
16.4699
30
0
0
VERTEX
8
0
10
-2.452955
20
16.374922
30
0
0
VERTEX
8
0
10
-2.492609
20
16.320526
30
0
0
VERTEX
8
0
10
-2.639084
20
16.295605
30
0
0
VERTEX
8
0
10
-2.68703
20
16.295839
30
0
0
VERTEX
8
0
10
-2.761732
20
16.373141
30
0
0
VERTEX
8
0
10
-2.994423
20
16.788052
30
0
0
VERTEX
8
0
10
-3.125657
20
16.961322
30
0
0
VERTEX
8
0
10
-3.240865
20
17.076482
30
0
0
VERTEX
8
0
10
-3.351409
20
17.160289
30
0
0
VERTEX
8
0
10
-3.47252
20
17.218146
30
0
0
VERTEX
8
0
10
-3.594335
20
17.239162
30
0
0
VERTEX
8
0
10
-3.728211
20
17.210706
30
0
0
VERTEX
8
0
10
-3.799801
20
17.167486
30
0
0
VERTEX
8
0
10
-3.884402
20
17.085399
30
0
0
VERTEX
8
0
10
-3.960181
20
16.968596
30
0
0
VERTEX
8
0
10
-4.022316
20
16.829955
30
0
0
VERTEX
8
0
10
-4.092775
20
16.55459
30
0
0
VERTEX
8
0
10
-4.127307
20
16.126823
30
0
0
VERTEX
8
0
10
-4.16851
20
15.987963
30
0
0
VERTEX
8
0
10
-4.191217
20
15.967986
30
0
0
VERTEX
8
0
10
-4.354292
20
15.92429
30
0
0
VERTEX
8
0
10
-4.383946
20
15.930237
30
0
0
VERTEX
8
0
10
-4.468108
20
16.005493
30
0
0
VERTEX
8
0
10
-4.732848
20
16.383083
30
0
0
VERTEX
8
0
10
-4.881476
20
16.541686
30
0
0
VERTEX
8
0
10
-4.989247
20
16.630849
30
0
0
VERTEX
8
0
10
-5.117997
20
16.711686
30
0
0
VERTEX
8
0
10
-5.228823
20
16.75482
30
0
0
VERTEX
8
0
10
-5.316507
20
16.770067
30
0
0
VERTEX
8
0
10
-5.447233
20
16.753199
30
0
0
VERTEX
8
0
10
-5.556054
20
16.692234
30
0
0
VERTEX
8
0
10
-5.644055
20
16.593392
30
0
0
VERTEX
8
0
10
-5.708064
20
16.471555
30
0
0
VERTEX
8
0
10
-5.756235
20
16.329368
30
0
0
VERTEX
8
0
10
-5.80078
20
16.036091
30
0
0
VERTEX
8
0
10
-5.790409
20
15.607058
30
0
0
VERTEX
8
0
10
-5.816872
20
15.464651
30
0
0
VERTEX
8
0
10
-5.837366
20
15.44241
30
0
0
VERTEX
8
0
10
-6.0016
20
15.380295
30
0
0
VERTEX
8
0
10
-6.116661
20
15.450769
30
0
0
VERTEX
8
0
10
-6.41942
20
15.798617
30
0
0
VERTEX
8
0
10
-6.648764
20
15.986758
30
0
0
VERTEX
8
0
10
-6.779704
20
16.060191
30
0
0
VERTEX
8
0
10
-6.908796
20
16.107903
30
0
0
VERTEX
8
0
10
-7.040332
20
16.122473
30
0
0
VERTEX
8
0
10
-7.155287
20
16.097614
30
0
0
VERTEX
8
0
10
-7.230845
20
16.054804
30
0
0
VERTEX
8
0
10
-7.32539
20
15.950023
30
0
0
VERTEX
8
0
10
-7.378887
20
15.843812
30
0
0
VERTEX
8
0
10
-7.420477
20
15.697587
30
0
0
VERTEX
8
0
10
-7.440905
20
15.559213
30
0
0
VERTEX
8
0
10
-7.44523
20
15.341897
30
0
0
VERTEX
8
0
10
-7.389314
20
14.884147
30
0
0
VERTEX
8
0
10
-7.401503
20
14.771906
30
0
0
VERTEX
8
0
10
-7.41956
20
14.747644
30
0
0
VERTEX
8
0
10
-7.569987
20
14.670997
30
0
0
VERTEX
8
0
10
-7.600229
20
14.67065
30
0
0
VERTEX
8
0
10
-7.723764
20
14.746272
30
0
0
VERTEX
8
0
10
-8.035658
20
15.041059
30
0
0
VERTEX
8
0
10
-8.272275
20
15.198549
30
0
0
VERTEX
8
0
10
-8.411219
20
15.260003
30
0
0
VERTEX
8
0
10
-8.54569
20
15.296098
30
0
0
VERTEX
8
0
10
-8.663488
20
15.300492
30
0
0
VERTEX
8
0
10
-8.74561
20
15.284707
30
0
0
VERTEX
8
0
10
-8.86414
20
15.216274
30
0
0
VERTEX
8
0
10
-8.940603
20
15.119146
30
0
0
VERTEX
8
0
10
-8.991893
20
14.99511
30
0
0
VERTEX
8
0
10
-9.017965
20
14.858862
30
0
0
VERTEX
8
0
10
-9.026524
20
14.696192
30
0
0
VERTEX
8
0
10
-9.00811
20
14.479614
30
0
0
VERTEX
8
0
10
-8.903403
20
14.015575
30
0
0
VERTEX
8
0
10
-8.907192
20
13.908142
30
0
0
VERTEX
8
0
10
-8.942667
20
13.875887
30
0
0
VERTEX
8
0
10
-9.068194
20
13.796396
30
0
0
VERTEX
8
0
10
-9.13406
20
13.810286
30
0
0
VERTEX
8
0
10
-9.222858
20
13.858138
30
0
0
VERTEX
8
0
10
-9.470741
20
14.055415
30
0
0
VERTEX
8
0
10
-9.662636
20
14.176933
30
0
0
VERTEX
8
0
10
-9.827306
20
14.255054
30
0
0
VERTEX
8
0
10
-10.021702
20
14.310397
30
0
0
VERTEX
8
0
10
-10.167246
20
14.317866
30
0
0
VERTEX
8
0
10
-10.288446
20
14.289498
30
0
0
VERTEX
8
0
10
-10.363299
20
14.245468
30
0
0
VERTEX
8
0
10
-10.442305
20
14.158343
30
0
0
VERTEX
8
0
10
-10.481509
20
14.078443
30
0
0
VERTEX
8
0
10
-10.511755
20
13.96343
30
0
0
VERTEX
8
0
10
-10.513246
20
13.672156
30
0
0
VERTEX
8
0
10
-10.446601
20
13.369161
30
0
0
VERTEX
8
0
10
-10.329852
20
13.053859
30
0
0
VERTEX
8
0
10
-10.311014
20
12.910245
30
0
0
VERTEX
8
0
10
-10.323632
20
12.882759
30
0
0
VERTEX
8
0
10
-10.454836
20
12.776512
30
0
0
VERTEX
8
0
10
-10.484345
20
12.769884
30
0
0
VERTEX
8
0
10
-10.591841
20
12.804402
30
0
0
VERTEX
8
0
10
-10.987272
20
13.041668
30
0
0
VERTEX
8
0
10
-11.18756
20
13.126107
30
0
0
VERTEX
8
0
10
-11.32228
20
13.163727
30
0
0
VERTEX
8
0
10
-11.472778
20
13.185208
30
0
0
VERTEX
8
0
10
-11.591566
20
13.179536
30
0
0
VERTEX
8
0
10
-11.725744
20
13.135783
30
0
0
VERTEX
8
0
10
-11.795584
20
13.08417
30
0
0
VERTEX
8
0
10
-11.865051
20
12.989264
30
0
0
VERTEX
8
0
10
-11.905241
20
12.863174
30
0
0
VERTEX
8
0
10
-11.914161
20
12.725836
30
0
0
VERTEX
8
0
10
-11.900335
20
12.576348
30
0
0
VERTEX
8
0
10
-11.821742
20
12.290308
30
0
0
VERTEX
8
0
10
-11.62711
20
11.872242
30
0
0
VERTEX
8
0
10
-11.609528
20
11.738464
30
0
0
VERTEX
8
0
10
-11.733073
20
11.613693
30
0
0
VERTEX
8
0
10
-11.761727
20
11.604017
30
0
0
VERTEX
8
0
10
-11.902585
20
11.637764
30
0
0
VERTEX
8
0
10
-12.290308
20
11.821742
30
0
0
VERTEX
8
0
10
-12.576348
20
11.900335
30
0
0
VERTEX
8
0
10
-12.725836
20
11.914161
30
0
0
VERTEX
8
0
10
-12.863174
20
11.905241
30
0
0
VERTEX
8
0
10
-12.989264
20
11.865051
30
0
0
VERTEX
8
0
10
-13.08922
20
11.790435
30
0
0
VERTEX
8
0
10
-13.1578
20
11.677872
30
0
0
VERTEX
8
0
10
-13.179536
20
11.591566
30
0
0
VERTEX
8
0
10
-13.185208
20
11.472778
30
0
0
VERTEX
8
0
10
-13.163727
20
11.32228
30
0
0
VERTEX
8
0
10
-13.126107
20
11.18756
30
0
0
VERTEX
8
0
10
-13.041668
20
10.987272
30
0
0
VERTEX
8
0
10
-12.804402
20
10.591841
30
0
0
VERTEX
8
0
10
-12.769884
20
10.484345
30
0
0
VERTEX
8
0
10
-12.776512
20
10.454836
30
0
0
VERTEX
8
0
10
-12.882759
20
10.323632
30
0
0
VERTEX
8
0
10
-12.910245
20
10.311014
30
0
0
VERTEX
8
0
10
-13.053859
20
10.329852
30
0
0
VERTEX
8
0
10
-13.369161
20
10.446601
30
0
0
VERTEX
8
0
10
-13.672156
20
10.513246
30
0
0
VERTEX
8
0
10
-13.96343
20
10.511755
30
0
0
VERTEX
8
0
10
-14.078443
20
10.481509
30
0
0
VERTEX
8
0
10
-14.158343
20
10.442305
30
0
0
VERTEX
8
0
10
-14.245468
20
10.363299
30
0
0
VERTEX
8
0
10
-14.289498
20
10.288446
30
0
0
VERTEX
8
0
10
-14.317866
20
10.167246
30
0
0
VERTEX
8
0
10
-14.310397
20
10.021702
30
0
0
VERTEX
8
0
10
-14.255054
20
9.827306
30
0
0
VERTEX
8
0
10
-14.176933
20
9.662636
30
0
0
VERTEX
8
0
10
-14.055415
20
9.470741
30
0
0
VERTEX
8
0
10
-13.858138
20
9.222858
30
0
0
VERTEX
8
0
10
-13.810286
20
9.13406
30
0
0
VERTEX
8
0
10
-13.796396
20
9.068194
30
0
0
VERTEX
8
0
10
-13.875887
20
8.942667
30
0
0
VERTEX
8
0
10
-13.908142
20
8.907192
30
0
0
VERTEX
8
0
10
-14.015575
20
8.903403
30
0
0
VERTEX
8
0
10
-14.479614
20
9.00811
30
0
0
VERTEX
8
0
10
-14.696192
20
9.026524
30
0
0
VERTEX
8
0
10
-14.858862
20
9.017965
30
0
0
VERTEX
8
0
10
-14.99511
20
8.991893
30
0
0
VERTEX
8
0
10
-15.119146
20
8.940603
30
0
0
VERTEX
8
0
10
-15.216274
20
8.86414
30
0
0
VERTEX
8
0
10
-15.284707
20
8.74561
30
0
0
VERTEX
8
0
10
-15.300492
20
8.663488
30
0
0
VERTEX
8
0
10
-15.296098
20
8.54569
30
0
0
VERTEX
8
0
10
-15.260003
20
8.411219
30
0
0
VERTEX
8
0
10
-15.198549
20
8.272275
30
0
0
VERTEX
8
0
10
-15.041059
20
8.035658
30
0
0
VERTEX
8
0
10
-14.746272
20
7.723764
30
0
0
VERTEX
8
0
10
-14.67065
20
7.600229
30
0
0
VERTEX
8
0
10
-14.670997
20
7.569987
30
0
0
VERTEX
8
0
10
-14.747644
20
7.41956
30
0
0
VERTEX
8
0
10
-14.771906
20
7.401503
30
0
0
VERTEX
8
0
10
-14.884147
20
7.389314
30
0
0
VERTEX
8
0
10
-15.341897
20
7.44523
30
0
0
VERTEX
8
0
10
-15.559213
20
7.440905
30
0
0
VERTEX
8
0
10
-15.697587
20
7.420477
30
0
0
VERTEX
8
0
10
-15.843812
20
7.378887
30
0
0
VERTEX
8
0
10
-15.950023
20
7.32539
30
0
0
VERTEX
8
0
10
-16.020026
20
7.270431
30
0
0
VERTEX
8
0
10
-16.094964
20
7.161995
30
0
0
VERTEX
8
0
10
-16.122473
20
7.040332
30
0
0
VERTEX
8
0
10
-16.107903
20
6.908796
30
0
0
VERTEX
8
0
10
-16.060191
20
6.779704
30
0
0
VERTEX
8
0
10
-15.986758
20
6.648764
30
0
0
VERTEX
8
0
10
-15.798617
20
6.41942
30
0
0
VERTEX
8
0
10
-15.450769
20
6.116661
30
0
0
VERTEX
8
0
10
-15.380295
20
6.0016
30
0
0
VERTEX
8
0
10
-15.44241
20
5.837366
30
0
0
VERTEX
8
0
10
-15.464651
20
5.816872
30
0
0
VERTEX
8
0
10
-15.607058
20
5.790409
30
0
0
VERTEX
8
0
10
-16.036091
20
5.80078
30
0
0
VERTEX
8
0
10
-16.329368
20
5.756235
30
0
0
VERTEX
8
0
10
-16.471555
20
5.708064
30
0
0
VERTEX
8
0
10
-16.593392
20
5.644055
30
0
0
VERTEX
8
0
10
-16.692234
20
5.556054
30
0
0
VERTEX
8
0
10
-16.75068
20
5.453991
30
0
0
VERTEX
8
0
10
-16.769425
20
5.369196
30
0
0
VERTEX
8
0
10
-16.75482
20
5.228823
30
0
0
VERTEX
8
0
10
-16.711686
20
5.117997
30
0
0
VERTEX
8
0
10
-16.630849
20
4.989247
30
0
0
VERTEX
8
0
10
-16.541686
20
4.881476
30
0
0
VERTEX
8
0
10
-16.383083
20
4.732848
30
0
0
VERTEX
8
0
10
-16.005493
20
4.468108
30
0
0
VERTEX
8
0
10
-15.930237
20
4.383946
30
0
0
VERTEX
8
0
10
-15.92429
20
4.354292
30
0
0
VERTEX
8
0
10
-15.967986
20
4.191217
30
0
0
VERTEX
8
0
10
-15.987963
20
4.16851
30
0
0
VERTEX
8
0
10
-16.126823
20
4.127307
30
0
0
VERTEX
8
0
10
-16.462352
20
4.105717
30
0
0
VERTEX
8
0
10
-16.766258
20
4.043361
30
0
0
VERTEX
8
0
10
-17.031743
20
3.923527
30
0
0
VERTEX
8
0
10
-17.124511
20
3.849117
30
0
0
VERTEX
8
0
10
-17.181558
20
3.780803
30
0
0
VERTEX
8
0
10
-17.229016
20
3.673191
30
0
0
VERTEX
8
0
10
-17.238794
20
3.5869
30
0
0
VERTEX
8
0
10
-17.215413
20
3.464641
30
0
0
VERTEX
8
0
10
-17.149392
20
3.334717
30
0
0
VERTEX
8
0
10
-17.019765
20
3.179638
30
0
0
VERTEX
8
0
10
-16.881421
20
3.060979
30
0
0
VERTEX
8
0
10
-16.692358
20
2.9351
30
0
0
VERTEX
8
0
10
-16.411313
20
2.788888
30
0
0
VERTEX
8
0
10
-16.331481
20
2.72723
30
0
0
VERTEX
8
0
10
-16.292001
20
2.672708
30
0
0
VERTEX
8
0
10
-16.313563
20
2.525701
30
0
0
VERTEX
8
0
10
-16.328602
20
2.480174
30
0
0
VERTEX
8
0
10
-16.425205
20
2.433016
30
0
0
VERTEX
8
0
10
-16.891714
20
2.339928
30
0
0
VERTEX
8
0
10
-17.097058
20
2.26866
30
0
0
VERTEX
8
0
10
-17.242182
20
2.194677
30
0
0
VERTEX
8
0
10
-17.356047
20
2.115442
30
0
0
VERTEX
8
0
10
-17.448498
20
2.018137
30
0
0
VERTEX
8
0
10
-17.506128
20
1.908778
30
0
0
VERTEX
8
0
10
-17.520434
20
1.772662
30
0
0
VERTEX
8
0
10
-17.501453
20
1.69122
30
0
0
VERTEX
8
0
10
-17.449526
20
1.585392
30
0
0
VERTEX
8
0
10
-17.361857
20
1.477228
30
0
0
VERTEX
8
0
10
-17.249203
20
1.375292
30
0
0
VERTEX
8
0
10
-17.009087
20
1.22319
30
0
0
VERTEX
8
0
10
-16.612928
20
1.05816
30
0
0
VERTEX
8
0
10
-16.493597
20
0.976064
30
0
0
VERTEX
8
0
10
-16.481614
20
0.948295
30
0
0
VERTEX
8
0
10
-16.49045
20
0.779698
30
0
0
VERTEX
8
0
10
-16.50527
20
0.753334
30
0
0
VERTEX
8
0
10
-16.60285
20
0.696546
30
0
0
VERTEX
8
0
10
-17.043768
20
0.561445
30
0
0
VERTEX
8
0
10
-17.318895
20
0.421611
30
0
0
VERTEX
8
0
10
-17.429268
20
0.338701
30
0
0
VERTEX
8
0
10
-17.525362
20
0.240175
30
0
0
VERTEX
8
0
10
-17.592173
20
0.125937
30
0
0
VERTEX
8
0
10
-17.616527
20
0.003603
30
0
0
VERTEX
8
0
10
-17.592173
20
-0.125937
30
0
0
VERTEX
8
0
10
-17.550576
20
-0.204618
30
0
0
VERTEX
8
0
10
-17.475306
20
-0.29669
30
0
0
VERTEX
8
0
10
-17.35864
20
-0.394159
30
0
0
VERTEX
8
0
10
-17.240538
20
-0.469103
30
0
0
VERTEX
8
0
10
-17.043768
20
-0.561445
30
0
0
VERTEX
8
0
10
-16.60285
20
-0.696546
30
0
0
VERTEX
8
0
10
-16.50527
20
-0.753334
30
0
0
VERTEX
8
0
10
-16.49045
20
-0.779698
30
0
0
VERTEX
8
0
10
-16.481614
20
-0.948295
30
0
0
VERTEX
8
0
10
-16.493597
20
-0.976064
30
0
0
VERTEX
8
0
10
-16.612928
20
-1.05816
30
0
0
VERTEX
8
0
10
-17.009087
20
-1.22319
30
0
0
VERTEX
8
0
10
-17.249203
20
-1.375292
30
0
0
VERTEX
8
0
10
-17.361857
20
-1.477228
30
0
0
VERTEX
8
0
10
-17.449526
20
-1.585392
30
0
0
VERTEX
8
0
10
-17.501453
20
-1.69122
30
0
0
VERTEX
8
0
10
-17.520434
20
-1.772662
30
0
0
VERTEX
8
0
10
-17.506128
20
-1.908778
30
0
0
VERTEX
8
0
10
-17.448498
20
-2.018137
30
0
0
VERTEX
8
0
10
-17.356047
20
-2.115442
30
0
0
VERTEX
8
0
10
-17.242182
20
-2.194677
30
0
0
VERTEX
8
0
10
-17.097058
20
-2.26866
30
0
0
VERTEX
8
0
10
-16.891714
20
-2.339928
30
0
0
VERTEX
8
0
10
-16.425205
20
-2.433016
30
0
0
VERTEX
8
0
10
-16.328602
20
-2.480174
30
0
0
VERTEX
8
0
10
-16.313563
20
-2.525701
30
0
0
VERTEX
8
0
10
-16.292001
20
-2.672708
30
0
0
VERTEX
8
0
10
-16.331481
20
-2.72723
30
0
0
VERTEX
8
0
10
-16.411313
20
-2.788888
30
0
0
VERTEX
8
0
10
-16.692358
20
-2.9351
30
0
0
VERTEX
8
0
10
-16.881421
20
-3.060979
30
0
0
VERTEX
8
0
10
-17.019765
20
-3.179638
30
0
0
VERTEX
8
0
10
-17.149392
20
-3.334717
30
0
0
VERTEX
8
0
10
-17.215413
20
-3.464641
30
0
0
VERTEX
8
0
10
-17.238794
20
-3.5869
30
0
0
VERTEX
8
0
10
-17.229016
20
-3.673191
30
0
0
VERTEX
8
0
10
-17.181558
20
-3.780803
30
0
0
VERTEX
8
0
10
-17.124511
20
-3.849117
30
0
0
VERTEX
8
0
10
-17.031743
20
-3.923527
30
0
0
VERTEX
8
0
10
-16.766258
20
-4.043361
30
0
0
VERTEX
8
0
10
-16.462352
20
-4.105717
30
0
0
VERTEX
8
0
10
-16.126823
20
-4.127307
30
0
0
VERTEX
8
0
10
-15.987963
20
-4.16851
30
0
0
VERTEX
8
0
10
-15.967986
20
-4.191217
30
0
0
VERTEX
8
0
10
-15.92429
20
-4.354292
30
0
0
VERTEX
8
0
10
-15.930237
20
-4.383946
30
0
0
VERTEX
8
0
10
-16.005493
20
-4.468108
30
0
0
VERTEX
8
0
10
-16.383083
20
-4.732848
30
0
0
VERTEX
8
0
10
-16.541686
20
-4.881476
30
0
0
VERTEX
8
0
10
-16.630849
20
-4.989247
30
0
0
VERTEX
8
0
10
-16.711686
20
-5.117997
30
0
0
VERTEX
8
0
10
-16.75482
20
-5.228823
30
0
0
VERTEX
8
0
10
-16.770067
20
-5.316507
30
0
0
VERTEX
8
0
10
-16.753199
20
-5.447233
30
0
0
VERTEX
8
0
10
-16.692234
20
-5.556054
30
0
0
VERTEX
8
0
10
-16.593392
20
-5.644055
30
0
0
VERTEX
8
0
10
-16.471555
20
-5.708064
30
0
0
VERTEX
8
0
10
-16.329368
20
-5.756235
30
0
0
VERTEX
8
0
10
-16.036091
20
-5.80078
30
0
0
VERTEX
8
0
10
-15.607058
20
-5.790409
30
0
0
VERTEX
8
0
10
-15.464651
20
-5.816872
30
0
0
VERTEX
8
0
10
-15.44241
20
-5.837366
30
0
0
VERTEX
8
0
10
-15.380295
20
-6.0016
30
0
0
VERTEX
8
0
10
-15.450769
20
-6.116661
30
0
0
VERTEX
8
0
10
-15.798617
20
-6.41942
30
0
0
VERTEX
8
0
10
-15.986758
20
-6.648764
30
0
0
VERTEX
8
0
10
-16.060191
20
-6.779704
30
0
0
VERTEX
8
0
10
-16.107903
20
-6.908796
30
0
0
VERTEX
8
0
10
-16.122473
20
-7.040332
30
0
0
VERTEX
8
0
10
-16.097614
20
-7.155287
30
0
0
VERTEX
8
0
10
-16.054804
20
-7.230845
30
0
0
VERTEX
8
0
10
-15.950023
20
-7.32539
30
0
0
VERTEX
8
0
10
-15.843812
20
-7.378887
30
0
0
VERTEX
8
0
10
-15.697587
20
-7.420477
30
0
0
VERTEX
8
0
10
-15.559213
20
-7.440905
30
0
0
VERTEX
8
0
10
-15.341897
20
-7.44523
30
0
0
VERTEX
8
0
10
-14.884147
20
-7.389314
30
0
0
VERTEX
8
0
10
-14.771906
20
-7.401503
30
0
0
VERTEX
8
0
10
-14.747644
20
-7.41956
30
0
0
VERTEX
8
0
10
-14.670997
20
-7.569987
30
0
0
VERTEX
8
0
10
-14.67065
20
-7.600229
30
0
0
VERTEX
8
0
10
-14.746272
20
-7.723764
30
0
0
VERTEX
8
0
10
-15.041059
20
-8.035658
30
0
0
VERTEX
8
0
10
-15.198549
20
-8.272275
30
0
0
VERTEX
8
0
10
-15.260003
20
-8.411219
30
0
0
VERTEX
8
0
10
-15.296098
20
-8.54569
30
0
0
VERTEX
8
0
10
-15.300492
20
-8.663488
30
0
0
VERTEX
8
0
10
-15.284707
20
-8.74561
30
0
0
VERTEX
8
0
10
-15.216274
20
-8.86414
30
0
0
VERTEX
8
0
10
-15.119146
20
-8.940603
30
0
0
VERTEX
8
0
10
-14.99511
20
-8.991893
30
0
0
VERTEX
8
0
10
-14.858862
20
-9.017965
30
0
0
VERTEX
8
0
10
-14.696192
20
-9.026524
30
0
0
VERTEX
8
0
10
-14.479614
20
-9.00811
30
0
0
VERTEX
8
0
10
-14.015575
20
-8.903403
30
0
0
VERTEX
8
0
10
-13.908142
20
-8.907192
30
0
0
VERTEX
8
0
10
-13.875887
20
-8.942667
30
0
0
VERTEX
8
0
10
-13.796396
20
-9.068194
30
0
0
VERTEX
8
0
10
-13.810286
20
-9.13406
30
0
0
VERTEX
8
0
10
-13.858138
20
-9.222858
30
0
0
VERTEX
8
0
10
-14.055415
20
-9.470741
30
0
0
VERTEX
8
0
10
-14.176933
20
-9.662636
30
0
0
VERTEX
8
0
10
-14.255054
20
-9.827306
30
0
0
VERTEX
8
0
10
-14.310397
20
-10.021702
30
0
0
VERTEX
8
0
10
-14.317866
20
-10.167246
30
0
0
VERTEX
8
0
10
-14.289498
20
-10.288446
30
0
0
VERTEX
8
0
10
-14.245468
20
-10.363299
30
0
0
VERTEX
8
0
10
-14.158343
20
-10.442305
30
0
0
VERTEX
8
0
10
-14.078443
20
-10.481509
30
0
0
VERTEX
8
0
10
-13.96343
20
-10.511755
30
0
0
VERTEX
8
0
10
-13.672156
20
-10.513246
30
0
0
VERTEX
8
0
10
-13.369161
20
-10.446601
30
0
0
VERTEX
8
0
10
-13.053859
20
-10.329852
30
0
0
VERTEX
8
0
10
-12.910245
20
-10.311014
30
0
0
VERTEX
8
0
10
-12.882759
20
-10.323632
30
0
0
VERTEX
8
0
10
-12.776512
20
-10.454836
30
0
0
VERTEX
8
0
10
-12.769884
20
-10.484345
30
0
0
VERTEX
8
0
10
-12.804402
20
-10.591841
30
0
0
VERTEX
8
0
10
-13.041668
20
-10.987272
30
0
0
VERTEX
8
0
10
-13.126107
20
-11.18756
30
0
0
VERTEX
8
0
10
-13.163727
20
-11.32228
30
0
0
VERTEX
8
0
10
-13.185208
20
-11.472778
30
0
0
VERTEX
8
0
10
-13.179536
20
-11.591566
30
0
0
VERTEX
8
0
10
-13.135783
20
-11.725744
30
0
0
VERTEX
8
0
10
-13.08417
20
-11.795584
30
0
0
VERTEX
8
0
10
-12.989264
20
-11.865051
30
0
0
VERTEX
8
0
10
-12.863174
20
-11.905241
30
0
0
VERTEX
8
0
10
-12.725836
20
-11.914161
30
0
0
VERTEX
8
0
10
-12.576348
20
-11.900335
30
0
0
VERTEX
8
0
10
-12.290308
20
-11.821742
30
0
0
VERTEX
8
0
10
-11.872242
20
-11.62711
30
0
0
VERTEX
8
0
10
-11.738464
20
-11.609528
30
0
0
VERTEX
8
0
10
-11.613693
20
-11.733073
30
0
0
VERTEX
8
0
10
-11.604017
20
-11.761727
30
0
0
VERTEX
8
0
10
-11.637764
20
-11.902585
30
0
0
VERTEX
8
0
10
-11.821742
20
-12.290308
30
0
0
VERTEX
8
0
10
-11.900335
20
-12.576348
30
0
0
VERTEX
8
0
10
-11.914161
20
-12.725836
30
0
0
VERTEX
8
0
10
-11.905241
20
-12.863174
30
0
0
VERTEX
8
0
10
-11.865051
20
-12.989264
30
0
0
VERTEX
8
0
10
-11.790435
20
-13.08922
30
0
0
VERTEX
8
0
10
-11.677872
20
-13.1578
30
0
0
VERTEX
8
0
10
-11.591566
20
-13.179536
30
0
0
VERTEX
8
0
10
-11.472778
20
-13.185208
30
0
0
VERTEX
8
0
10
-11.32228
20
-13.163727
30
0
0
VERTEX
8
0
10
-11.18756
20
-13.126107
30
0
0
VERTEX
8
0
10
-10.987272
20
-13.041668
30
0
0
VERTEX
8
0
10
-10.591841
20
-12.804402
30
0
0
VERTEX
8
0
10
-10.484345
20
-12.769884
30
0
0
VERTEX
8
0
10
-10.454836
20
-12.776512
30
0
0
VERTEX
8
0
10
-10.323632
20
-12.882759
30
0
0
VERTEX
8
0
10
-10.311014
20
-12.910245
30
0
0
VERTEX
8
0
10
-10.329852
20
-13.053859
30
0
0
VERTEX
8
0
10
-10.472294
20
-13.458689
30
0
0
VERTEX
8
0
10
-10.519928
20
-13.738906
30
0
0
VERTEX
8
0
10
-10.519555
20
-13.890833
30
0
0
VERTEX
8
0
10
-10.497836
20
-14.02836
30
0
0
VERTEX
8
0
10
-10.453937
20
-14.137761
30
0
0
VERTEX
8
0
10
-10.406115
20
-14.206362
30
0
0
VERTEX
8
0
10
-10.295387
20
-14.286811
30
0
0
VERTEX
8
0
10
-10.175556
20
-14.317158
30
0
0
VERTEX
8
0
10
-10.041383
20
-14.313564
30
0
0
VERTEX
8
0
10
-9.906309
20
-14.281964
30
0
0
VERTEX
8
0
10
-9.754221
20
-14.22362
30
0
0
VERTEX
8
0
10
-9.563857
20
-14.118707
30
0
0
VERTEX
8
0
10
-9.182524
20
-13.834311
30
0
0
VERTEX
8
0
10
-9.082839
20
-13.794076
30
0
0
VERTEX
8
0
10
-9.038943
20
-13.813364
30
0
0
VERTEX
8
0
10
-8.915268
20
-13.895707
30
0
0
VERTEX
8
0
10
-8.901167
20
-13.961529
30
0
0
VERTEX
8
0
10
-8.908764
20
-14.062112
30
0
0
VERTEX
8
0
10
-8.988163
20
-14.368804
30
0
0
VERTEX
8
0
10
-9.021125
20
-14.593535
30
0
0
VERTEX
8
0
10
-9.025514
20
-14.775743
30
0
0
VERTEX
8
0
10
-8.997005
20
-14.975843
30
0
0
VERTEX
8
0
10
-8.94463
20
-15.111843
30
0
0
VERTEX
8
0
10
-8.869418
20
-15.211025
30
0
0
VERTEX
8
0
10
-8.798749
20
-15.261498
30
0
0
VERTEX
8
0
10
-8.687022
20
-15.298237
30
0
0
VERTEX
8
0
10
-8.598083
20
-15.301554
30
0
0
VERTEX
8
0
10
-8.480712
20
-15.282404
30
0
0
VERTEX
8
0
10
-8.214014
20
-15.165295
30
0
0
VERTEX
8
0
10
-7.964321
20
-14.981173
30
0
0
VERTEX
8
0
10
-7.723764
20
-14.746272
30
0
0
VERTEX
8
0
10
-7.600229
20
-14.67065
30
0
0
VERTEX
8
0
10
-7.569987
20
-14.670997
30
0
0
VERTEX
8
0
10
-7.41956
20
-14.747644
30
0
0
VERTEX
8
0
10
-7.401503
20
-14.771906
30
0
0
VERTEX
8
0
10
-7.389314
20
-14.884147
30
0
0
VERTEX
8
0
10
-7.44523
20
-15.341897
30
0
0
VERTEX
8
0
10
-7.440905
20
-15.559213
30
0
0
VERTEX
8
0
10
-7.420477
20
-15.697587
30
0
0
VERTEX
8
0
10
-7.378887
20
-15.843812
30
0
0
VERTEX
8
0
10
-7.32539
20
-15.950023
30
0
0
VERTEX
8
0
10
-7.270431
20
-16.020026
30
0
0
VERTEX
8
0
10
-7.161995
20
-16.094964
30
0
0
VERTEX
8
0
10
-7.040332
20
-16.122473
30
0
0
VERTEX
8
0
10
-6.908796
20
-16.107903
30
0
0
VERTEX
8
0
10
-6.779704
20
-16.060191
30
0
0
VERTEX
8
0
10
-6.648764
20
-15.986758
30
0
0
VERTEX
8
0
10
-6.41942
20
-15.798617
30
0
0
VERTEX
8
0
10
-6.116661
20
-15.450769
30
0
0
VERTEX
8
0
10
-6.0016
20
-15.380295
30
0
0
VERTEX
8
0
10
-5.837366
20
-15.44241
30
0
0
VERTEX
8
0
10
-5.816872
20
-15.464651
30
0
0
VERTEX
8
0
10
-5.790409
20
-15.607058
30
0
0
VERTEX
8
0
10
-5.80078
20
-16.036091
30
0
0
VERTEX
8
0
10
-5.756235
20
-16.329368
30
0
0
VERTEX
8
0
10
-5.708064
20
-16.471555
30
0
0
VERTEX
8
0
10
-5.644055
20
-16.593392
30
0
0
VERTEX
8
0
10
-5.556054
20
-16.692234
30
0
0
VERTEX
8
0
10
-5.453991
20
-16.75068
30
0
0
VERTEX
8
0
10
-5.369196
20
-16.769425
30
0
0
VERTEX
8
0
10
-5.228823
20
-16.75482
30
0
0
VERTEX
8
0
10
-5.117997
20
-16.711686
30
0
0
VERTEX
8
0
10
-4.989247
20
-16.630849
30
0
0
VERTEX
8
0
10
-4.881476
20
-16.541686
30
0
0
VERTEX
8
0
10
-4.732848
20
-16.383083
30
0
0
VERTEX
8
0
10
-4.468108
20
-16.005493
30
0
0
VERTEX
8
0
10
-4.383946
20
-15.930237
30
0
0
VERTEX
8
0
10
-4.354292
20
-15.92429
30
0
0
VERTEX
8
0
10
-4.191217
20
-15.967986
30
0
0
VERTEX
8
0
10
-4.16851
20
-15.987963
30
0
0
VERTEX
8
0
10
-4.127307
20
-16.126823
30
0
0
VERTEX
8
0
10
-4.105717
20
-16.462352
30
0
0
VERTEX
8
0
10
-4.043361
20
-16.766258
30
0
0
VERTEX
8
0
10
-3.923527
20
-17.031743
30
0
0
VERTEX
8
0
10
-3.849117
20
-17.124511
30
0
0
VERTEX
8
0
10
-3.780803
20
-17.181558
30
0
0
VERTEX
8
0
10
-3.673191
20
-17.229016
30
0
0
VERTEX
8
0
10
-3.5869
20
-17.238794
30
0
0
VERTEX
8
0
10
-3.464641
20
-17.215413
30
0
0
VERTEX
8
0
10
-3.334717
20
-17.149392
30
0
0
VERTEX
8
0
10
-3.179638
20
-17.019765
30
0
0
VERTEX
8
0
10
-3.060979
20
-16.881421
30
0
0
VERTEX
8
0
10
-2.9351
20
-16.692358
30
0
0
VERTEX
8
0
10
-2.788888
20
-16.411313
30
0
0
VERTEX
8
0
10
-2.72723
20
-16.331481
30
0
0
VERTEX
8
0
10
-2.672708
20
-16.292001
30
0
0
VERTEX
8
0
10
-2.525701
20
-16.313563
30
0
0
VERTEX
8
0
10
-2.480174
20
-16.328602
30
0
0
VERTEX
8
0
10
-2.433016
20
-16.425205
30
0
0
VERTEX
8
0
10
-2.339928
20
-16.891714
30
0
0
VERTEX
8
0
10
-2.26866
20
-17.097058
30
0
0
VERTEX
8
0
10
-2.194677
20
-17.242182
30
0
0
VERTEX
8
0
10
-2.115442
20
-17.356047
30
0
0
VERTEX
8
0
10
-2.018137
20
-17.448498
30
0
0
VERTEX
8
0
10
-1.908778
20
-17.506128
30
0
0
VERTEX
8
0
10
-1.772662
20
-17.520434
30
0
0
VERTEX
8
0
10
-1.69122
20
-17.501453
30
0
0
VERTEX
8
0
10
-1.585392
20
-17.449526
30
0
0
VERTEX
8
0
10
-1.477228
20
-17.361857
30
0
0
VERTEX
8
0
10
-1.375292
20
-17.249203
30
0
0
VERTEX
8
0
10
-1.22319
20
-17.009087
30
0
0
VERTEX
8
0
10
-1.05816
20
-16.612928
30
0
0
VERTEX
8
0
10
-0.976064
20
-16.493597
30
0
0
VERTEX
8
0
10
-0.948295
20
-16.481614
30
0
0
VERTEX
8
0
10
-0.779698
20
-16.49045
30
0
0
VERTEX
8
0
10
-0.753334
20
-16.50527
30
0
0
VERTEX
8
0
10
-0.696546
20
-16.60285
30
0
0
VERTEX
8
0
10
-0.561445
20
-17.043768
30
0
0
VERTEX
8
0
10
-0.421611
20
-17.318895
30
0
0
VERTEX
8
0
10
-0.338701
20
-17.429268
30
0
0
VERTEX
8
0
10
-0.240175
20
-17.525362
30
0
0
VERTEX
8
0
10
-0.125937
20
-17.592173
30
0
0
VERTEX
8
0
10
-0.003603
20
-17.616527
30
0
0
VERTEX
8
0
10
0.125937
20
-17.592173
30
0
0
VERTEX
8
0
10
0.204618
20
-17.550576
30
0
0
VERTEX
8
0
10
0.29669
20
-17.475306
30
0
0
VERTEX
8
0
10
0.394159
20
-17.35864
30
0
0
VERTEX
8
0
10
0.469103
20
-17.240538
30
0
0
VERTEX
8
0
10
0.561445
20
-17.043768
30
0
0
VERTEX
8
0
10
0.696546
20
-16.60285
30
0
0
VERTEX
8
0
10
0.753334
20
-16.50527
30
0
0
VERTEX
8
0
10
0.779698
20
-16.49045
30
0
0
VERTEX
8
0
10
0.948295
20
-16.481614
30
0
0
VERTEX
8
0
10
0.976064
20
-16.493597
30
0
0
VERTEX
8
0
10
1.05816
20
-16.612928
30
0
0
VERTEX
8
0
10
1.22319
20
-17.009087
30
0
0
VERTEX
8
0
10
1.375292
20
-17.249203
30
0
0
VERTEX
8
0
10
1.477228
20
-17.361857
30
0
0
VERTEX
8
0
10
1.585392
20
-17.449526
30
0
0
VERTEX
8
0
10
1.69122
20
-17.501453
30
0
0
VERTEX
8
0
10
1.772662
20
-17.520434
30
0
0
VERTEX
8
0
10
1.908778
20
-17.506128
30
0
0
VERTEX
8
0
10
2.018137
20
-17.448498
30
0
0
VERTEX
8
0
10
2.115442
20
-17.356047
30
0
0
VERTEX
8
0
10
2.194677
20
-17.242182
30
0
0
VERTEX
8
0
10
2.26866
20
-17.097058
30
0
0
VERTEX
8
0
10
2.339928
20
-16.891714
30
0
0
VERTEX
8
0
10
2.433016
20
-16.425205
30
0
0
VERTEX
8
0
10
2.480174
20
-16.328602
30
0
0
VERTEX
8
0
10
2.525701
20
-16.313563
30
0
0
VERTEX
8
0
10
2.672708
20
-16.292001
30
0
0
VERTEX
8
0
10
2.72723
20
-16.331481
30
0
0
VERTEX
8
0
10
2.788888
20
-16.411313
30
0
0
VERTEX
8
0
10
2.9351
20
-16.692358
30
0
0
VERTEX
8
0
10
3.060979
20
-16.881421
30
0
0
VERTEX
8
0
10
3.179638
20
-17.019765
30
0
0
VERTEX
8
0
10
3.334717
20
-17.149392
30
0
0
VERTEX
8
0
10
3.464641
20
-17.215413
30
0
0
VERTEX
8
0
10
3.5869
20
-17.238794
30
0
0
VERTEX
8
0
10
3.673191
20
-17.229016
30
0
0
VERTEX
8
0
10
3.780803
20
-17.181558
30
0
0
VERTEX
8
0
10
3.849117
20
-17.124511
30
0
0
VERTEX
8
0
10
3.923527
20
-17.031743
30
0
0
VERTEX
8
0
10
4.043361
20
-16.766258
30
0
0
VERTEX
8
0
10
4.105717
20
-16.462352
30
0
0
VERTEX
8
0
10
4.127307
20
-16.126823
30
0
0
VERTEX
8
0
10
4.16851
20
-15.987963
30
0
0
VERTEX
8
0
10
4.191217
20
-15.967986
30
0
0
VERTEX
8
0
10
4.354292
20
-15.92429
30
0
0
VERTEX
8
0
10
4.383946
20
-15.930237
30
0
0
VERTEX
8
0
10
4.468108
20
-16.005493
30
0
0
VERTEX
8
0
10
4.732848
20
-16.383083
30
0
0
VERTEX
8
0
10
4.881476
20
-16.541686
30
0
0
VERTEX
8
0
10
4.989247
20
-16.630849
30
0
0
VERTEX
8
0
10
5.117997
20
-16.711686
30
0
0
VERTEX
8
0
10
5.228823
20
-16.75482
30
0
0
VERTEX
8
0
10
5.316507
20
-16.770067
30
0
0
VERTEX
8
0
10
5.447233
20
-16.753199
30
0
0
VERTEX
8
0
10
5.556054
20
-16.692234
30
0
0
VERTEX
8
0
10
5.644055
20
-16.593392
30
0
0
VERTEX
8
0
10
5.708064
20
-16.471555
30
0
0
VERTEX
8
0
10
5.756235
20
-16.329368
30
0
0
VERTEX
8
0
10
5.80078
20
-16.036091
30
0
0
VERTEX
8
0
10
5.790409
20
-15.607058
30
0
0
VERTEX
8
0
10
5.816872
20
-15.464651
30
0
0
VERTEX
8
0
10
5.837366
20
-15.44241
30
0
0
VERTEX
8
0
10
6.0016
20
-15.380295
30
0
0
VERTEX
8
0
10
6.116661
20
-15.450769
30
0
0
VERTEX
8
0
10
6.41942
20
-15.798617
30
0
0
VERTEX
8
0
10
6.648764
20
-15.986758
30
0
0
VERTEX
8
0
10
6.779704
20
-16.060191
30
0
0
VERTEX
8
0
10
6.908796
20
-16.107903
30
0
0
VERTEX
8
0
10
7.040332
20
-16.122473
30
0
0
VERTEX
8
0
10
7.161995
20
-16.094964
30
0
0
VERTEX
8
0
10
7.270431
20
-16.020026
30
0
0
VERTEX
8
0
10
7.32539
20
-15.950023
30
0
0
VERTEX
8
0
10
7.378887
20
-15.843812
30
0
0
VERTEX
8
0
10
7.420477
20
-15.697587
30
0
0
VERTEX
8
0
10
7.440905
20
-15.559213
30
0
0
VERTEX
8
0
10
7.44523
20
-15.341897
30
0
0
VERTEX
8
0
10
7.389314
20
-14.884147
30
0
0
VERTEX
8
0
10
7.401503
20
-14.771906
30
0
0
VERTEX
8
0
10
7.41956
20
-14.747644
30
0
0
VERTEX
8
0
10
7.569987
20
-14.670997
30
0
0
VERTEX
8
0
10
7.600229
20
-14.67065
30
0
0
VERTEX
8
0
10
7.723764
20
-14.746272
30
0
0
VERTEX
8
0
10
8.035658
20
-15.041059
30
0
0
VERTEX
8
0
10
8.272275
20
-15.198549
30
0
0
VERTEX
8
0
10
8.411219
20
-15.260003
30
0
0
VERTEX
8
0
10
8.54569
20
-15.296098
30
0
0
VERTEX
8
0
10
8.663488
20
-15.300492
30
0
0
VERTEX
8
0
10
8.74561
20
-15.284707
30
0
0
VERTEX
8
0
10
8.86414
20
-15.216274
30
0
0
VERTEX
8
0
10
8.940603
20
-15.119146
30
0
0
VERTEX
8
0
10
8.991893
20
-14.99511
30
0
0
VERTEX
8
0
10
9.017965
20
-14.858862
30
0
0
VERTEX
8
0
10
9.026524
20
-14.696192
30
0
0
VERTEX
8
0
10
9.00811
20
-14.479614
30
0
0
VERTEX
8
0
10
8.903403
20
-14.015575
30
0
0
VERTEX
8
0
10
8.907192
20
-13.908142
30
0
0
VERTEX
8
0
10
8.942667
20
-13.875887
30
0
0
VERTEX
8
0
10
9.068194
20
-13.796396
30
0
0
VERTEX
8
0
10
9.13406
20
-13.810286
30
0
0
VERTEX
8
0
10
9.222858
20
-13.858138
30
0
0
VERTEX
8
0
10
9.470741
20
-14.055415
30
0
0
VERTEX
8
0
10
9.662636
20
-14.176933
30
0
0
VERTEX
8
0
10
9.827306
20
-14.255054
30
0
0
VERTEX
8
0
10
10.021702
20
-14.310397
30
0
0
VERTEX
8
0
10
10.167246
20
-14.317866
30
0
0
VERTEX
8
0
10
10.288446
20
-14.289498
30
0
0
VERTEX
8
0
10
10.363299
20
-14.245468
30
0
0
VERTEX
8
0
10
10.442305
20
-14.158343
30
0
0
VERTEX
8
0
10
10.481509
20
-14.078443
30
0
0
VERTEX
8
0
10
10.511755
20
-13.96343
30
0
0
VERTEX
8
0
10
10.513246
20
-13.672156
30
0
0
VERTEX
8
0
10
10.446601
20
-13.369161
30
0
0
VERTEX
8
0
10
10.329852
20
-13.053859
30
0
0
VERTEX
8
0
10
10.311014
20
-12.910245
30
0
0
VERTEX
8
0
10
10.323632
20
-12.882759
30
0
0
VERTEX
8
0
10
10.454836
20
-12.776512
30
0
0
VERTEX
8
0
10
10.484345
20
-12.769884
30
0
0
VERTEX
8
0
10
10.591841
20
-12.804402
30
0
0
VERTEX
8
0
10
10.987272
20
-13.041668
30
0
0
VERTEX
8
0
10
11.18756
20
-13.126107
30
0
0
VERTEX
8
0
10
11.32228
20
-13.163727
30
0
0
VERTEX
8
0
10
11.472778
20
-13.185208
30
0
0
VERTEX
8
0
10
11.591566
20
-13.179536
30
0
0
VERTEX
8
0
10
11.677872
20
-13.1578
30
0
0
VERTEX
8
0
10
11.790435
20
-13.08922
30
0
0
VERTEX
8
0
10
11.865051
20
-12.989264
30
0
0
VERTEX
8
0
10
11.905241
20
-12.863174
30
0
0
VERTEX
8
0
10
11.914161
20
-12.725836
30
0
0
VERTEX
8
0
10
11.900335
20
-12.576348
30
0
0
VERTEX
8
0
10
11.821742
20
-12.290308
30
0
0
VERTEX
8
0
10
11.637764
20
-11.902585
30
0
0
VERTEX
8
0
10
11.604017
20
-11.761727
30
0
0
VERTEX
8
0
10
11.613693
20
-11.733073
30
0
0
VERTEX
8
0
10
11.738464
20
-11.609528
30
0
0
VERTEX
8
0
10
11.872242
20
-11.62711
30
0
0
VERTEX
8
0
10
12.290308
20
-11.821742
30
0
0
VERTEX
8
0
10
12.576348
20
-11.900335
30
0
0
VERTEX
8
0
10
12.725836
20
-11.914161
30
0
0
VERTEX
8
0
10
12.863174
20
-11.905241
30
0
0
VERTEX
8
0
10
12.989264
20
-11.865051
30
0
0
VERTEX
8
0
10
13.08417
20
-11.795584
30
0
0
VERTEX
8
0
10
13.135783
20
-11.725744
30
0
0
VERTEX
8
0
10
13.179536
20
-11.591566
30
0
0
VERTEX
8
0
10
13.185208
20
-11.472778
30
0
0
VERTEX
8
0
10
13.163727
20
-11.32228
30
0
0
VERTEX
8
0
10
13.126107
20
-11.18756
30
0
0
VERTEX
8
0
10
13.041668
20
-10.987272
30
0
0
VERTEX
8
0
10
12.804402
20
-10.591841
30
0
0
VERTEX
8
0
10
12.769884
20
-10.484345
30
0
0
VERTEX
8
0
10
12.776512
20
-10.454836
30
0
0
VERTEX
8
0
10
12.882759
20
-10.323632
30
0
0
VERTEX
8
0
10
12.910245
20
-10.311014
30
0
0
VERTEX
8
0
10
13.053859
20
-10.329852
30
0
0
VERTEX
8
0
10
13.369161
20
-10.446601
30
0
0
VERTEX
8
0
10
13.672156
20
-10.513246
30
0
0
VERTEX
8
0
10
13.96343
20
-10.511755
30
0
0
VERTEX
8
0
10
14.078443
20
-10.481509
30
0
0
VERTEX
8
0
10
14.158343
20
-10.442305
30
0
0
VERTEX
8
0
10
14.245468
20
-10.363299
30
0
0
VERTEX
8
0
10
14.289498
20
-10.288446
30
0
0
VERTEX
8
0
10
14.317866
20
-10.167246
30
0
0
VERTEX
8
0
10
14.310397
20
-10.021702
30
0
0
VERTEX
8
0
10
14.255054
20
-9.827306
30
0
0
VERTEX
8
0
10
14.176933
20
-9.662636
30
0
0
VERTEX
8
0
10
14.055415
20
-9.470741
30
0
0
VERTEX
8
0
10
13.858138
20
-9.222858
30
0
0
VERTEX
8
0
10
13.810286
20
-9.13406
30
0
0
VERTEX
8
0
10
13.796396
20
-9.068194
30
0
0
VERTEX
8
0
10
13.875887
20
-8.942667
30
0
0
VERTEX
8
0
10
13.908142
20
-8.907192
30
0
0
VERTEX
8
0
10
14.015575
20
-8.903403
30
0
0
VERTEX
8
0
10
14.479614
20
-9.00811
30
0
0
VERTEX
8
0
10
14.696192
20
-9.026524
30
0
0
VERTEX
8
0
10
14.858862
20
-9.017965
30
0
0
VERTEX
8
0
10
14.99511
20
-8.991893
30
0
0
VERTEX
8
0
10
15.119146
20
-8.940603
30
0
0
VERTEX
8
0
10
15.216274
20
-8.86414
30
0
0
VERTEX
8
0
10
15.284707
20
-8.74561
30
0
0
VERTEX
8
0
10
15.300492
20
-8.663488
30
0
0
VERTEX
8
0
10
15.296098
20
-8.54569
30
0
0
VERTEX
8
0
10
15.260003
20
-8.411219
30
0
0
VERTEX
8
0
10
15.198549
20
-8.272275
30
0
0
VERTEX
8
0
10
15.041059
20
-8.035658
30
0
0
VERTEX
8
0
10
14.746272
20
-7.723764
30
0
0
VERTEX
8
0
10
14.67065
20
-7.600229
30
0
0
VERTEX
8
0
10
14.670997
20
-7.569987
30
0
0
VERTEX
8
0
10
14.747644
20
-7.41956
30
0
0
VERTEX
8
0
10
14.771906
20
-7.401503
30
0
0
VERTEX
8
0
10
14.884147
20
-7.389314
30
0
0
VERTEX
8
0
10
15.341897
20
-7.44523
30
0
0
VERTEX
8
0
10
15.559213
20
-7.440905
30
0
0
VERTEX
8
0
10
15.697587
20
-7.420477
30
0
0
VERTEX
8
0
10
15.843812
20
-7.378887
30
0
0
VERTEX
8
0
10
15.950023
20
-7.32539
30
0
0
VERTEX
8
0
10
16.020026
20
-7.270431
30
0
0
VERTEX
8
0
10
16.094964
20
-7.161995
30
0
0
VERTEX
8
0
10
16.122473
20
-7.040332
30
0
0
VERTEX
8
0
10
16.107903
20
-6.908796
30
0
0
VERTEX
8
0
10
16.060191
20
-6.779704
30
0
0
VERTEX
8
0
10
15.986758
20
-6.648764
30
0
0
VERTEX
8
0
10
15.798617
20
-6.41942
30
0
0
VERTEX
8
0
10
15.472844
20
-6.140048
30
0
0
VERTEX
8
0
10
15.384723
20
-6.025093
30
0
0
VERTEX
8
0
10
15.381907
20
-5.994981
30
0
0
VERTEX
8
0
10
15.445641
20
-5.831368
30
0
0
VERTEX
8
0
10
15.575004
20
-5.793017
30
0
0
VERTEX
8
0
10
16.036091
20
-5.80078
30
0
0
VERTEX
8
0
10
16.340963
20
-5.752808
30
0
0
VERTEX
8
0
10
16.519168
20
-5.686746
30
0
0
VERTEX
8
0
10
16.628359
20
-5.61803
30
0
0
VERTEX
8
0
10
16.692234
20
-5.556054
30
0
0
VERTEX
8
0
10
16.755426
20
-5.440379
30
0
0
VERTEX
8
0
10
16.770067
20
-5.316507
30
0
0
VERTEX
8
0
10
16.741828
20
-5.187215
30
0
0
VERTEX
8
0
10
16.680884
20
-5.063817
30
0
0
VERTEX
8
0
10
16.601532
20
-4.950857
30
0
0
VERTEX
8
0
10
16.383083
20
-4.732848
30
0
0
VERTEX
8
0
10
16.005493
20
-4.468108
30
0
0
VERTEX
8
0
10
15.930237
20
-4.383946
30
0
0
VERTEX
8
0
10
15.92429
20
-4.354292
30
0
0
VERTEX
8
0
10
15.967986
20
-4.191217
30
0
0
VERTEX
8
0
10
15.987963
20
-4.16851
30
0
0
VERTEX
8
0
10
16.126823
20
-4.127307
30
0
0
VERTEX
8
0
10
16.462352
20
-4.105717
30
0
0
VERTEX
8
0
10
16.766258
20
-4.043361
30
0
0
VERTEX
8
0
10
17.031743
20
-3.923527
30
0
0
VERTEX
8
0
10
17.124511
20
-3.849117
30
0
0
VERTEX
8
0
10
17.181558
20
-3.780803
30
0
0
VERTEX
8
0
10
17.229016
20
-3.673191
30
0
0
VERTEX
8
0
10
17.238794
20
-3.5869
30
0
0
VERTEX
8
0
10
17.215413
20
-3.464641
30
0
0
VERTEX
8
0
10
17.149392
20
-3.334717
30
0
0
VERTEX
8
0
10
17.019765
20
-3.179638
30
0
0
VERTEX
8
0
10
16.881421
20
-3.060979
30
0
0
VERTEX
8
0
10
16.692358
20
-2.9351
30
0
0
VERTEX
8
0
10
16.411313
20
-2.788888
30
0
0
VERTEX
8
0
10
16.331481
20
-2.72723
30
0
0
VERTEX
8
0
10
16.292001
20
-2.672708
30
0
0
VERTEX
8
0
10
16.313563
20
-2.525701
30
0
0
VERTEX
8
0
10
16.328602
20
-2.480174
30
0
0
VERTEX
8
0
10
16.425205
20
-2.433016
30
0
0
VERTEX
8
0
10
16.891714
20
-2.339928
30
0
0
VERTEX
8
0
10
17.097058
20
-2.26866
30
0
0
VERTEX
8
0
10
17.242182
20
-2.194677
30
0
0
VERTEX
8
0
10
17.356047
20
-2.115442
30
0
0
VERTEX
8
0
10
17.448498
20
-2.018137
30
0
0
VERTEX
8
0
10
17.506128
20
-1.908778
30
0
0
VERTEX
8
0
10
17.520434
20
-1.772662
30
0
0
VERTEX
8
0
10
17.501453
20
-1.69122
30
0
0
VERTEX
8
0
10
17.454462
20
-1.59304
30
0
0
VERTEX
8
0
10
17.304748
20
-1.422472
30
0
0
VERTEX
8
0
10
17.195127
20
-1.335594
30
0
0
VERTEX
8
0
10
17.009087
20
-1.22319
30
0
0
VERTEX
8
0
10
16.612928
20
-1.05816
30
0
0
VERTEX
8
0
10
16.527089
20
-1.005185
30
0
0
VERTEX
8
0
10
16.483755
20
-0.961949
30
0
0
SEQEND
0
CIRCLE
8
0
10
0
20
0
30
0
40
20.616527
0
ENDSEC
0
EOF
