0
SECTION
2
HEADER
9
$ACADVER
1
AC1009
9
$INSUNITS
70
4
0
ENDSEC
0
SECTION
2
ENTITIES
0
POLYLINE
8
0
66
1
70
1
0
VERTEX
8
0
10
16.519116
20
-0.834477
30
0
0
VERTEX
8
0
10
16.560385
20
-0.685461
30
0
0
VERTEX
8
0
10
16.652644
20
-0.57705
30
0
0
VERTEX
8
0
10
16.832729
20
-0.489906
30
0
0
VERTEX
8
0
10
17.237152
20
-0.385598
30
0
0
VERTEX
8
0
10
17.415951
20
-0.306832
30
0
0
VERTEX
8
0
10
17.568537
20
-0.184309
30
0
0
VERTEX
8
0
10
17.63875
20
-0.05237
30
0
0
VERTEX
8
0
10
17.63875
20
0.05237
30
0
0
VERTEX
8
0
10
17.621993
20
0.101152
30
0
0
VERTEX
8
0
10
17.568537
20
0.184309
30
0
0
VERTEX
8
0
10
17.494996
20
0.252805
30
0
0
VERTEX
8
0
10
17.415951
20
0.306832
30
0
0
VERTEX
8
0
10
17.237152
20
0.385598
30
0
0
VERTEX
8
0
10
16.906381
20
0.465257
30
0
0
VERTEX
8
0
10
16.672762
20
0.564531
30
0
0
VERTEX
8
0
10
16.612039
20
0.61515
30
0
0
VERTEX
8
0
10
16.560385
20
0.685461
30
0
0
VERTEX
8
0
10
16.519888
20
0.821404
30
0
0
VERTEX
8
0
10
16.534341
20
0.966543
30
0
0
VERTEX
8
0
10
16.625584
20
1.110631
30
0
0
VERTEX
8
0
10
16.829516
20
1.231372
30
0
0
VERTEX
8
0
10
17.1224
20
1.334605
30
0
0
VERTEX
8
0
10
17.264232
20
1.40068
30
0
0
VERTEX
8
0
10
17.357637
20
1.456685
30
0
0
VERTEX
8
0
10
17.468766
20
1.556583
30
0
0
VERTEX
8
0
10
17.524493
20
1.638496
30
0
0
VERTEX
8
0
10
17.553549
20
1.732382
30
0
0
VERTEX
8
0
10
17.542953
20
1.836584
30
0
0
VERTEX
8
0
10
17.521347
20
1.883421
30
0
0
VERTEX
8
0
10
17.424517
20
1.991717
30
0
0
VERTEX
8
0
10
17.295554
20
2.0672
30
0
0
VERTEX
8
0
10
17.109704
20
2.127473
30
0
0
VERTEX
8
0
10
16.696803
20
2.190331
30
0
0
VERTEX
8
0
10
16.508826
20
2.258809
30
0
0
VERTEX
8
0
10
16.390446
20
2.381581
30
0
0
VERTEX
8
0
10
16.345457
20
2.533841
30
0
0
VERTEX
8
0
10
16.359375
20
2.662151
30
0
0
VERTEX
8
0
10
16.395818
20
2.741421
30
0
0
VERTEX
8
0
10
16.445108
20
2.803227
30
0
0
VERTEX
8
0
10
16.653962
20
2.947496
30
0
0
VERTEX
8
0
10
16.961927
20
3.092109
30
0
0
VERTEX
8
0
10
17.158309
20
3.24033
30
0
0
VERTEX
8
0
10
17.268817
20
3.403013
30
0
0
VERTEX
8
0
10
17.288225
20
3.499357
30
0
0
VERTEX
8
0
10
17.28215
20
3.555137
30
0
0
VERTEX
8
0
10
17.211312
20
3.682834
30
0
0
VERTEX
8
0
10
17.045605
20
3.788753
30
0
0
VERTEX
8
0
10
16.806686
20
3.847518
30
0
0
VERTEX
8
0
10
16.466651
20
3.858963
30
0
0
VERTEX
8
0
10
16.267645
20
3.893939
30
0
0
VERTEX
8
0
10
16.141117
20
3.951587
30
0
0
VERTEX
8
0
10
16.039829
20
4.068416
30
0
0
VERTEX
8
0
10
16.005249
20
4.174483
30
0
0
VERTEX
8
0
10
15.998984
20
4.254122
30
0
0
VERTEX
8
0
10
16.024101
20
4.362841
30
0
0
VERTEX
8
0
10
16.055909
20
4.426166
30
0
0
VERTEX
8
0
10
16.207427
20
4.57166
30
0
0
VERTEX
8
0
10
16.562077
20
4.792254
30
0
0
VERTEX
8
0
10
16.709097
20
4.920933
30
0
0
VERTEX
8
0
10
16.797842
20
5.041156
30
0
0
VERTEX
8
0
10
16.835939
20
5.13261
30
0
0
VERTEX
8
0
10
16.845501
20
5.230423
30
0
0
VERTEX
8
0
10
16.833813
20
5.285303
30
0
0
VERTEX
8
0
10
16.75042
20
5.405178
30
0
0
VERTEX
8
0
10
16.574848
20
5.49379
30
0
0
VERTEX
8
0
10
16.33121
20
5.528082
30
0
0
VERTEX
8
0
10
15.991761
20
5.505067
30
0
0
VERTEX
8
0
10
15.764389
20
5.524706
30
0
0
VERTEX
8
0
10
15.644349
20
5.573199
30
0
0
VERTEX
8
0
10
15.575524
20
5.632202
30
0
0
VERTEX
8
0
10
15.526574
20
5.705023
30
0
0
VERTEX
8
0
10
15.497009
20
5.78485
30
0
0
VERTEX
8
0
10
15.486717
20
5.871988
30
0
0
VERTEX
8
0
10
15.530641
20
6.036784
30
0
0
VERTEX
8
0
10
15.661765
20
6.187882
30
0
0
VERTEX
8
0
10
15.992278
20
6.443224
30
0
0
VERTEX
8
0
10
16.125525
20
6.586117
30
0
0
VERTEX
8
0
10
16.217428
20
6.758884
30
0
0
VERTEX
8
0
10
16.229919
20
6.907819
30
0
0
VERTEX
8
0
10
16.188614
20
7.00407
30
0
0
VERTEX
8
0
10
16.153978
20
7.042291
30
0
0
VERTEX
8
0
10
16.072061
20
7.097627
30
0
0
VERTEX
8
0
10
15.977468
20
7.131571
30
0
0
VERTEX
8
0
10
15.883524
20
7.150048
30
0
0
VERTEX
8
0
10
15.688153
20
7.15192
30
0
0
VERTEX
8
0
10
15.352774
20
7.094682
30
0
0
VERTEX
8
0
10
15.098938
20
7.093781
30
0
0
VERTEX
8
0
10
15.023175
20
7.116352
30
0
0
VERTEX
8
0
10
14.94798
20
7.160595
30
0
0
VERTEX
8
0
10
14.857155
20
7.26955
30
0
0
VERTEX
8
0
10
14.8132
20
7.408626
30
0
0
VERTEX
8
0
10
14.840227
20
7.57702
30
0
0
VERTEX
8
0
10
14.980016
20
7.768398
30
0
0
VERTEX
8
0
10
15.208454
20
7.978764
30
0
0
VERTEX
8
0
10
15.312734
20
8.095417
30
0
0
VERTEX
8
0
10
15.376484
20
8.183718
30
0
0
VERTEX
8
0
10
15.439212
20
8.319344
30
0
0
VERTEX
8
0
10
15.458119
20
8.416595
30
0
0
VERTEX
8
0
10
15.447796
20
8.514331
30
0
0
VERTEX
8
0
10
15.396966
20
8.605909
30
0
0
VERTEX
8
0
10
15.35864
20
8.64043
30
0
0
VERTEX
8
0
10
15.226951
20
8.701764
30
0
0
VERTEX
8
0
10
15.078672
20
8.720273
30
0
0
VERTEX
8
0
10
14.884114
20
8.70237
30
0
0
VERTEX
8
0
10
14.479887
20
8.597304
30
0
0
VERTEX
8
0
10
14.28014
20
8.586102
30
0
0
VERTEX
8
0
10
14.122938
20
8.652241
30
0
0
VERTEX
8
0
10
14.02155
20
8.77442
30
0
0
VERTEX
8
0
10
13.983741
20
8.89782
30
0
0
VERTEX
8
0
10
13.98597
20
8.985037
30
0
0
VERTEX
8
0
10
14.006892
20
9.061272
30
0
0
VERTEX
8
0
10
14.141926
20
9.276212
30
0
0
VERTEX
8
0
10
14.367904
20
9.530553
30
0
0
VERTEX
8
0
10
14.489919
20
9.744206
30
0
0
VERTEX
8
0
10
14.527316
20
9.937284
30
0
0
VERTEX
8
0
10
14.507158
20
10.033474
30
0
0
VERTEX
8
0
10
14.479577
20
10.082338
30
0
0
VERTEX
8
0
10
14.364123
20
10.171751
30
0
0
VERTEX
8
0
10
14.268484
20
10.197604
30
0
0
VERTEX
8
0
10
14.119093
20
10.201016
30
0
0
VERTEX
8
0
10
13.927345
20
10.163522
30
0
0
VERTEX
8
0
10
13.535821
20
10.0181
30
0
0
VERTEX
8
0
10
13.328023
20
9.987341
30
0
0
VERTEX
8
0
10
13.258477
20
10.000949
30
0
0
VERTEX
8
0
10
13.15713
20
10.047635
30
0
0
VERTEX
8
0
10
13.044493
20
10.175868
30
0
0
VERTEX
8
0
10
13.004961
20
10.328465
30
0
0
VERTEX
8
0
10
13.011204
20
10.409233
30
0
0
VERTEX
8
0
10
13.036755
20
10.480555
30
0
0
VERTEX
8
0
10
13.13091
20
10.659334
30
0
0
VERTEX
8
0
10
13.329997
20
10.935231
30
0
0
VERTEX
8
0
10
13.429771
20
11.160132
30
0
0
VERTEX
8
0
10
13.447443
20
11.356003
30
0
0
VERTEX
8
0
10
13.389824
20
11.490184
30
0
0
VERTEX
8
0
10
13.349432
20
11.529132
30
0
0
VERTEX
8
0
10
13.261366
20
11.572757
30
0
0
VERTEX
8
0
10
13.065077
20
11.584949
30
0
0
VERTEX
8
0
10
12.827661
20
11.520382
30
0
0
VERTEX
8
0
10
12.524798
20
11.365369
30
0
0
VERTEX
8
0
10
12.333824
20
11.299373
30
0
0
VERTEX
8
0
10
12.259455
20
11.284915
30
0
0
VERTEX
8
0
10
12.178673
20
11.290975
30
0
0
VERTEX
8
0
10
12.033822
20
11.353159
30
0
0
VERTEX
8
0
10
11.924123
20
11.483915
30
0
0
VERTEX
8
0
10
11.893323
20
11.591163
30
0
0
VERTEX
8
0
10
11.890403
20
11.661968
30
0
0
VERTEX
8
0
10
11.952274
20
11.862712
30
0
0
VERTEX
8
0
10
12.155306
20
12.227699
30
0
0
VERTEX
8
0
10
12.221404
20
12.411559
30
0
0
VERTEX
8
0
10
12.240653
20
12.559744
30
0
0
VERTEX
8
0
10
12.22958
20
12.658195
30
0
0
VERTEX
8
0
10
12.158682
20
12.785857
30
0
0
VERTEX
8
0
10
12.114558
20
12.820519
30
0
0
VERTEX
8
0
10
12.02253
20
12.855011
30
0
0
VERTEX
8
0
10
11.826015
20
12.847282
30
0
0
VERTEX
8
0
10
11.596349
20
12.759028
30
0
0
VERTEX
8
0
10
11.310722
20
12.57417
30
0
0
VERTEX
8
0
10
11.10239
20
12.480997
30
0
0
VERTEX
8
0
10
10.973899
20
12.465141
30
0
0
VERTEX
8
0
10
10.885088
20
12.483329
30
0
0
VERTEX
8
0
10
10.806948
20
12.523244
30
0
0
VERTEX
8
0
10
10.742358
20
12.578693
30
0
0
VERTEX
8
0
10
10.691071
20
12.649887
30
0
0
VERTEX
8
0
10
10.6495
20
12.815292
30
0
0
VERTEX
8
0
10
10.69082
20
13.011039
30
0
0
VERTEX
8
0
10
10.855885
20
13.394695
30
0
0
VERTEX
8
0
10
10.903043
20
13.584298
30
0
0
VERTEX
8
0
10
10.899553
20
13.779957
30
0
0
VERTEX
8
0
10
10.838197
20
13.916239
30
0
0
VERTEX
8
0
10
10.755372
20
13.980351
30
0
0
VERTEX
8
0
10
10.706538
20
13.99696
30
0
0
VERTEX
8
0
10
10.60806
20
14.005589
30
0
0
VERTEX
8
0
10
10.50888
20
13.989362
30
0
0
VERTEX
8
0
10
10.417773
20
13.959925
30
0
0
VERTEX
8
0
10
10.246043
20
13.866748
30
0
0
VERTEX
8
0
10
9.980583
20
13.653943
30
0
0
VERTEX
8
0
10
9.75908
20
13.529968
30
0
0
VERTEX
8
0
10
9.681882
20
13.512934
30
0
0
VERTEX
8
0
10
9.594665
20
13.515126
30
0
0
VERTEX
8
0
10
9.462376
20
13.566313
30
0
0
VERTEX
8
0
10
9.356451
20
13.666583
30
0
0
VERTEX
8
0
10
9.298359
20
13.826933
30
0
0
VERTEX
8
0
10
9.327708
20
14.062103
30
0
0
VERTEX
8
0
10
9.425351
20
14.356898
30
0
0
VERTEX
8
0
10
9.459916
20
14.5095
30
0
0
VERTEX
8
0
10
9.472803
20
14.617644
30
0
0
VERTEX
8
0
10
9.461828
20
14.76667
30
0
0
VERTEX
8
0
10
9.431164
20
14.860877
30
0
0
VERTEX
8
0
10
9.374707
20
14.941322
30
0
0
VERTEX
8
0
10
9.285821
20
14.996725
30
0
0
VERTEX
8
0
10
9.235558
20
15.008309
30
0
0
VERTEX
8
0
10
9.09065
20
14.998028
30
0
0
VERTEX
8
0
10
8.95202
20
14.94225
30
0
0
VERTEX
8
0
10
8.790598
20
14.832178
30
0
0
VERTEX
8
0
10
8.488152
20
14.544141
30
0
0
VERTEX
8
0
10
8.31894
20
14.43741
30
0
0
VERTEX
8
0
10
8.149394
20
14.418947
30
0
0
VERTEX
8
0
10
8.001452
20
14.47657
30
0
0
VERTEX
8
0
10
7.908507
20
14.566116
30
0
0
VERTEX
8
0
10
7.868129
20
14.643455
30
0
0
VERTEX
8
0
10
7.849425
20
14.720265
30
0
0
VERTEX
8
0
10
7.863181
20
14.973729
30
0
0
VERTEX
8
0
10
7.937332
20
15.305778
30
0
0
VERTEX
8
0
10
7.940329
20
15.551799
30
0
0
VERTEX
8
0
10
7.879326
20
15.738766
30
0
0
VERTEX
8
0
10
7.81502
20
15.813086
30
0
0
VERTEX
8
0
10
7.767191
20
15.842425
30
0
0
VERTEX
8
0
10
7.622851
20
15.864573
30
0
0
VERTEX
8
0
10
7.437662
20
15.798369
30
0
0
VERTEX
8
0
10
7.244949
20
15.645408
30
0
0
VERTEX
8
0
10
7.027761
20
15.383522
30
0
0
VERTEX
8
0
10
6.87829
20
15.247562
30
0
0
VERTEX
8
0
10
6.815649
20
15.204949
30
0
0
VERTEX
8
0
10
6.739025
20
15.178661
30
0
0
VERTEX
8
0
10
6.58139
20
15.178682
30
0
0
VERTEX
8
0
10
6.429017
20
15.255582
30
0
0
VERTEX
8
0
10
6.358419
20
15.341992
30
0
0
VERTEX
8
0
10
6.327813
20
15.405906
30
0
0
VERTEX
8
0
10
6.305505
20
15.614781
30
0
0
VERTEX
8
0
10
6.348149
20
16.030256
30
0
0
VERTEX
8
0
10
6.336384
20
16.225281
30
0
0
VERTEX
8
0
10
6.295635
20
16.369048
30
0
0
VERTEX
8
0
10
6.246635
20
16.455153
30
0
0
VERTEX
8
0
10
6.131138
20
16.544511
30
0
0
VERTEX
8
0
10
6.076921
20
16.558963
30
0
0
VERTEX
8
0
10
5.978749
20
16.554368
30
0
0
VERTEX
8
0
10
5.801208
20
16.469769
30
0
0
VERTEX
8
0
10
5.624958
20
16.298096
30
0
0
VERTEX
8
0
10
5.435379
20
16.015581
30
0
0
VERTEX
8
0
10
5.261148
20
15.830982
30
0
0
VERTEX
8
0
10
5.19259
20
15.791619
30
0
0
VERTEX
8
0
10
5.108716
20
15.767601
30
0
0
VERTEX
8
0
10
4.979778
20
15.773273
30
0
0
VERTEX
8
0
10
4.836086
20
15.840799
30
0
0
VERTEX
8
0
10
4.732656
20
15.976405
30
0
0
VERTEX
8
0
10
4.693433
20
16.172584
30
0
0
VERTEX
8
0
10
4.693824
20
16.590242
30
0
0
VERTEX
8
0
10
4.662389
20
16.783076
30
0
0
VERTEX
8
0
10
4.607305
20
16.921982
30
0
0
VERTEX
8
0
10
4.51492
20
17.034094
30
0
0
VERTEX
8
0
10
4.471895
20
17.062543
30
0
0
VERTEX
8
0
10
4.3705
20
17.088796
30
0
0
VERTEX
8
0
10
4.273296
20
17.074293
30
0
0
VERTEX
8
0
10
4.183889
20
17.031612
30
0
0
VERTEX
8
0
10
4.068315
20
16.936892
30
0
0
VERTEX
8
0
10
3.998812
20
16.853044
30
0
0
VERTEX
8
0
10
3.912021
20
16.722854
30
0
0
VERTEX
8
0
10
3.765629
20
16.44898
30
0
0
VERTEX
8
0
10
3.615399
20
16.265683
30
0
0
VERTEX
8
0
10
3.459156
20
16.197311
30
0
0
VERTEX
8
0
10
3.313501
20
16.205003
30
0
0
VERTEX
8
0
10
3.185259
20
16.265618
30
0
0
VERTEX
8
0
10
3.123581
20
16.327323
30
0
0
VERTEX
8
0
10
3.08274
20
16.395011
30
0
0
VERTEX
8
0
10
3.019988
20
16.640969
30
0
0
VERTEX
8
0
10
2.991335
20
16.979989
30
0
0
VERTEX
8
0
10
2.940552
20
17.168653
30
0
0
VERTEX
8
0
10
2.899118
20
17.254968
30
0
0
VERTEX
8
0
10
2.842548
20
17.338033
30
0
0
VERTEX
8
0
10
2.768445
20
17.403464
30
0
0
VERTEX
8
0
10
2.722762
20
17.427415
30
0
0
VERTEX
8
0
10
2.619231
20
17.443275
30
0
0
VERTEX
8
0
10
2.478181
20
17.393852
30
0
0
VERTEX
8
0
10
2.333965
20
17.261579
30
0
0
VERTEX
8
0
10
2.229032
20
17.096769
30
0
0
VERTEX
8
0
10
2.064686
20
16.712805
30
0
0
VERTEX
8
0
10
1.951278
20
16.547993
30
0
0
VERTEX
8
0
10
1.802753
20
16.464165
30
0
0
VERTEX
8
0
10
1.715817
20
16.452287
30
0
0
VERTEX
8
0
10
1.631127
20
16.460899
30
0
0
VERTEX
8
0
10
1.548362
20
16.490034
30
0
0
VERTEX
8
0
10
1.473991
20
16.541873
30
0
0
VERTEX
8
0
10
1.396957
20
16.645926
30
0
0
VERTEX
8
0
10
1.320954
20
16.861117
30
0
0
VERTEX
8
0
10
1.25815
20
17.195498
30
0
0
VERTEX
8
0
10
1.163885
20
17.422763
30
0
0
VERTEX
8
0
10
1.034094
20
17.57052
30
0
0
VERTEX
8
0
10
0.94569
20
17.613458
30
0
0
VERTEX
8
0
10
0.890167
20
17.621558
30
0
0
VERTEX
8
0
10
0.748792
20
17.584989
30
0
0
VERTEX
8
0
10
0.604719
20
17.451121
30
0
0
VERTEX
8
0
10
0.487944
20
17.234559
30
0
0
VERTEX
8
0
10
0.391634
20
16.908247
30
0
0
VERTEX
8
0
10
0.294251
20
16.701849
30
0
0
VERTEX
8
0
10
0.207085
20
16.606123
30
0
0
VERTEX
8
0
10
0.127852
20
16.562074
30
0
0
VERTEX
8
0
10
0.042563
20
16.541462
30
0
0
VERTEX
8
0
10
-0.042563
20
16.541462
30
0
0
VERTEX
8
0
10
-0.127852
20
16.562074
30
0
0
VERTEX
8
0
10
-0.267134
20
16.660498
30
0
0
VERTEX
8
0
10
-0.363287
20
16.835938
30
0
0
VERTEX
8
0
10
-0.487944
20
17.234559
30
0
0
VERTEX
8
0
10
-0.575665
20
17.409139
30
0
0
VERTEX
8
0
10
-0.70576
20
17.555323
30
0
0
VERTEX
8
0
10
-0.841086
20
17.618763
30
0
0
VERTEX
8
0
10
-0.94569
20
17.613458
30
0
0
VERTEX
8
0
10
-0.993562
20
17.594252
30
0
0
VERTEX
8
0
10
-1.073904
20
17.536653
30
0
0
VERTEX
8
0
10
-1.138587
20
17.459737
30
0
0
VERTEX
8
0
10
-1.188541
20
17.378057
30
0
0
VERTEX
8
0
10
-1.25815
20
17.195498
30
0
0
VERTEX
8
0
10
-1.320954
20
16.861117
30
0
0
VERTEX
8
0
10
-1.408268
20
16.622769
30
0
0
VERTEX
8
0
10
-1.455747
20
16.55956
30
0
0
VERTEX
8
0
10
-1.523351
20
16.504412
30
0
0
VERTEX
8
0
10
-1.657068
20
16.457082
30
0
0
VERTEX
8
0
10
-1.802753
20
16.464165
30
0
0
VERTEX
8
0
10
-1.951278
20
16.547993
30
0
0
VERTEX
8
0
10
-2.082193
20
16.745548
30
0
0
VERTEX
8
0
10
-2.200127
20
17.032827
30
0
0
VERTEX
8
0
10
-2.273301
20
17.17113
30
0
0
VERTEX
8
0
10
-2.333965
20
17.261579
30
0
0
VERTEX
8
0
10
-2.439364
20
17.367506
30
0
0
VERTEX
8
0
10
-2.523994
20
17.419012
30
0
0
VERTEX
8
0
10
-2.619231
20
17.443275
30
0
0
VERTEX
8
0
10
-2.722762
20
17.427415
30
0
0
VERTEX
8
0
10
-2.768445
20
17.403464
30
0
0
VERTEX
8
0
10
-2.871698
20
17.301274
30
0
0
VERTEX
8
0
10
-2.940552
20
17.168653
30
0
0
VERTEX
8
0
10
-2.991335
20
16.979989
30
0
0
VERTEX
8
0
10
-3.033199
20
16.564434
30
0
0
VERTEX
8
0
10
-3.092068
20
16.37323
30
0
0
VERTEX
8
0
10
-3.208687
20
16.248784
30
0
0
VERTEX
8
0
10
-3.358473
20
16.196141
30
0
0
VERTEX
8
0
10
-3.487323
20
16.203543
30
0
0
VERTEX
8
0
10
-3.568337
20
16.235923
30
0
0
VERTEX
8
0
10
-3.63256
20
16.28202
30
0
0
VERTEX
8
0
10
-3.787222
20
16.483299
30
0
0
VERTEX
8
0
10
-3.947247
20
16.783544
30
0
0
VERTEX
8
0
10
-4.105225
20
16.972166
30
0
0
VERTEX
8
0
10
-4.273296
20
17.074293
30
0
0
VERTEX
8
0
10
-4.3705
20
17.088796
30
0
0
VERTEX
8
0
10
-4.425901
20
17.079903
30
0
0
VERTEX
8
0
10
-4.549846
20
17.002689
30
0
0
VERTEX
8
0
10
-4.607305
20
16.921982
30
0
0
VERTEX
8
0
10
-4.662389
20
16.783076
30
0
0
VERTEX
8
0
10
-4.693824
20
16.590242
30
0
0
VERTEX
8
0
10
-4.693433
20
16.172584
30
0
0
VERTEX
8
0
10
-4.736758
20
15.967038
30
0
0
VERTEX
8
0
10
-4.773673
20
15.906548
30
0
0
VERTEX
8
0
10
-4.85265
20
15.827723
30
0
0
VERTEX
8
0
10
-5.012021
20
15.766633
30
0
0
VERTEX
8
0
10
-5.168849
20
15.78256
30
0
0
VERTEX
8
0
10
-5.242421
20
15.816465
30
0
0
VERTEX
8
0
10
-5.30043
20
15.865197
30
0
0
VERTEX
8
0
10
-5.435379
20
16.015581
30
0
0
VERTEX
8
0
10
-5.624958
20
16.298096
30
0
0
VERTEX
8
0
10
-5.801208
20
16.469769
30
0
0
VERTEX
8
0
10
-5.978749
20
16.554368
30
0
0
VERTEX
8
0
10
-6.124588
20
16.546937
30
0
0
VERTEX
8
0
10
-6.17514
20
16.522587
30
0
0
VERTEX
8
0
10
-6.246635
20
16.455153
30
0
0
VERTEX
8
0
10
-6.326241
20
16.275318
30
0
0
VERTEX
8
0
10
-6.348149
20
16.030256
30
0
0
VERTEX
8
0
10
-6.307971
20
15.692408
30
0
0
VERTEX
8
0
10
-6.319928
20
15.438853
30
0
0
VERTEX
8
0
10
-6.346307
20
15.36433
30
0
0
VERTEX
8
0
10
-6.394301
20
15.291472
30
0
0
VERTEX
8
0
10
-6.495829
20
15.211789
30
0
0
VERTEX
8
0
10
-6.648841
20
15.169428
30
0
0
VERTEX
8
0
10
-6.815649
20
15.204949
30
0
0
VERTEX
8
0
10
-6.973196
20
15.328252
30
0
0
VERTEX
8
0
10
-7.244949
20
15.645408
30
0
0
VERTEX
8
0
10
-7.394408
20
15.771247
30
0
0
VERTEX
8
0
10
-7.526683
20
15.840763
30
0
0
VERTEX
8
0
10
-7.669808
20
15.865652
30
0
0
VERTEX
8
0
10
-7.720985
20
15.859213
30
0
0
VERTEX
8
0
10
-7.81502
20
15.813086
30
0
0
VERTEX
8
0
10
-7.879326
20
15.738766
30
0
0
VERTEX
8
0
10
-7.919363
20
15.648145
30
0
0
VERTEX
8
0
10
-7.945358
20
15.500993
30
0
0
VERTEX
8
0
10
-7.943478
20
15.3921
30
0
0
VERTEX
8
0
10
-7.924529
20
15.236784
30
0
0
VERTEX
8
0
10
-7.857211
20
14.933624
30
0
0
VERTEX
8
0
10
-7.851805
20
14.69669
30
0
0
VERTEX
8
0
10
-7.925821
20
14.54304
30
0
0
VERTEX
8
0
10
-8.041347
20
14.454001
30
0
0
VERTEX
8
0
10
-8.178135
20
14.41646
30
0
0
VERTEX
8
0
10
-8.265127
20
14.423103
30
0
0
VERTEX
8
0
10
-8.340205
20
14.44786
30
0
0
VERTEX
8
0
10
-8.548029
20
14.593608
30
0
0
VERTEX
8
0
10
-8.790598
20
14.832178
30
0
0
VERTEX
8
0
10
-8.95202
20
14.94225
30
0
0
VERTEX
8
0
10
-9.039682
20
14.980752
30
0
0
VERTEX
8
0
10
-9.136711
20
15.006931
30
0
0
VERTEX
8
0
10
-9.235558
20
15.008309
30
0
0
VERTEX
8
0
10
-9.285821
20
14.996725
30
0
0
VERTEX
8
0
10
-9.374707
20
14.941322
30
0
0
VERTEX
8
0
10
-9.449536
20
14.811946
30
0
0
VERTEX
8
0
10
-9.472803
20
14.617644
30
0
0
VERTEX
8
0
10
-9.445069
20
14.424243
30
0
0
VERTEX
8
0
10
-9.319664
20
14.025856
30
0
0
VERTEX
8
0
10
-9.298359
20
13.826933
30
0
0
VERTEX
8
0
10
-9.356451
20
13.666583
30
0
0
VERTEX
8
0
10
-9.414677
20
13.600942
30
0
0
VERTEX
8
0
10
-9.484546
20
13.552312
30
0
0
VERTEX
8
0
10
-9.566323
20
13.520507
30
0
0
VERTEX
8
0
10
-9.656518
20
13.511397
30
0
0
VERTEX
8
0
10
-9.782746
20
13.540171
30
0
0
VERTEX
8
0
10
-9.980583
20
13.653943
30
0
0
VERTEX
8
0
10
-10.246043
20
13.866748
30
0
0
VERTEX
8
0
10
-10.465601
20
13.977785
30
0
0
VERTEX
8
0
10
-10.660326
20
14.005355
30
0
0
VERTEX
8
0
10
-10.755372
20
13.980351
30
0
0
VERTEX
8
0
10
-10.802776
20
13.950331
30
0
0
VERTEX
8
0
10
-10.886226
20
13.830496
30
0
0
VERTEX
8
0
10
-10.907202
20
13.73367
30
0
0
VERTEX
8
0
10
-10.903043
20
13.584298
30
0
0
VERTEX
8
0
10
-10.855885
20
13.394695
30
0
0
VERTEX
8
0
10
-10.69082
20
13.011039
30
0
0
VERTEX
8
0
10
-10.649575
20
12.805066
30
0
0
VERTEX
8
0
10
-10.659644
20
12.73492
30
0
0
VERTEX
8
0
10
-10.701136
20
12.631339
30
0
0
VERTEX
8
0
10
-10.8235
20
12.512351
30
0
0
VERTEX
8
0
10
-10.973899
20
12.465141
30
0
0
VERTEX
8
0
10
-11.05488
20
12.467285
30
0
0
VERTEX
8
0
10
-11.127404
20
12.489191
30
0
0
VERTEX
8
0
10
-11.310722
20
12.57417
30
0
0
VERTEX
8
0
10
-11.596349
20
12.759028
30
0
0
VERTEX
8
0
10
-11.826015
20
12.847282
30
0
0
VERTEX
8
0
10
-12.02253
20
12.855011
30
0
0
VERTEX
8
0
10
-12.15362
20
12.79067
30
0
0
VERTEX
8
0
10
-12.190472
20
12.748358
30
0
0
VERTEX
8
0
10
-12.22958
20
12.658195
30
0
0
VERTEX
8
0
10
-12.231815
20
12.461541
30
0
0
VERTEX
8
0
10
-12.155306
20
12.227699
30
0
0
VERTEX
8
0
10
-11.985152
20
11.933076
30
0
0
VERTEX
8
0
10
-11.896149
20
11.695354
30
0
0
VERTEX
8
0
10
-11.891001
20
11.616468
30
0
0
VERTEX
8
0
10
-11.906375
20
11.530588
30
0
0
VERTEX
8
0
10
-11.968251
20
11.417324
30
0
0
VERTEX
8
0
10
-12.092157
20
11.318055
30
0
0
VERTEX
8
0
10
-12.259455
20
11.284915
30
0
0
VERTEX
8
0
10
-12.452859
20
11.336096
30
0
0
VERTEX
8
0
10
-12.827661
20
11.520382
30
0
0
VERTEX
8
0
10
-13.014633
20
11.577083
30
0
0
VERTEX
8
0
10
-13.163602
20
11.588802
30
0
0
VERTEX
8
0
10
-13.304942
20
11.555231
30
0
0
VERTEX
8
0
10
-13.349432
20
11.529132
30
0
0
VERTEX
8
0
10
-13.417657
20
11.44966
30
0
0
VERTEX
8
0
10
-13.447443
20
11.356003
30
0
0
VERTEX
8
0
10
-13.448498
20
11.256937
30
0
0
VERTEX
8
0
10
-13.414356
20
11.11146
30
0
0
VERTEX
8
0
10
-13.369686
20
11.012134
30
0
0
VERTEX
8
0
10
-13.291023
20
10.876878
30
0
0
VERTEX
8
0
10
-13.109608
20
10.624833
30
0
0
VERTEX
8
0
10
-13.011204
20
10.409233
30
0
0
VERTEX
8
0
10
-13.018628
20
10.238847
30
0
0
VERTEX
8
0
10
-13.089679
20
10.111465
30
0
0
VERTEX
8
0
10
-13.200577
20
10.023023
30
0
0
VERTEX
8
0
10
-13.283138
20
9.994822
30
0
0
VERTEX
8
0
10
-13.361895
20
9.987965
30
0
0
VERTEX
8
0
10
-13.610353
20
10.039944
30
0
0
VERTEX
8
0
10
-13.927345
20
10.163522
30
0
0
VERTEX
8
0
10
-14.119093
20
10.201016
30
0
0
VERTEX
8
0
10
-14.214834
20
10.201828
30
0
0
VERTEX
8
0
10
-14.314323
20
10.187621
30
0
0
VERTEX
8
0
10
-14.405702
20
10.149907
30
0
0
VERTEX
8
0
10
-14.447324
20
10.11944
30
0
0
VERTEX
8
0
10
-14.507158
20
10.033474
30
0
0
VERTEX
8
0
10
-14.524903
20
9.885073
30
0
0
VERTEX
8
0
10
-14.469659
20
9.697343
30
0
0
VERTEX
8
0
10
-14.367904
20
9.530553
30
0
0
VERTEX
8
0
10
-14.095556
20
9.213906
30
0
0
VERTEX
8
0
10
-13.997532
20
9.039505
30
0
0
VERTEX
8
0
10
-13.98768
20
8.869242
30
0
0
VERTEX
8
0
10
-14.015302
20
8.785959
30
0
0
VERTEX
8
0
10
-14.060331
20
8.713717
30
0
0
VERTEX
8
0
10
-14.122938
20
8.652241
30
0
0
VERTEX
8
0
10
-14.202232
20
8.6083
30
0
0
VERTEX
8
0
10
-14.329576
20
8.584963
30
0
0
VERTEX
8
0
10
-14.556247
20
8.611496
30
0
0
VERTEX
8
0
10
-14.884114
20
8.70237
30
0
0
VERTEX
8
0
10
-15.129668
20
8.717824
30
0
0
VERTEX
8
0
10
-15.319484
20
8.666368
30
0
0
VERTEX
8
0
10
-15.396966
20
8.605909
30
0
0
VERTEX
8
0
10
-15.42869
20
8.559627
30
0
0
VERTEX
8
0
10
-15.458119
20
8.416595
30
0
0
VERTEX
8
0
10
-15.439212
20
8.319344
30
0
0
VERTEX
8
0
10
-15.376484
20
8.183718
30
0
0
VERTEX
8
0
10
-15.258377
20
8.028078
30
0
0
VERTEX
8
0
10
-14.955392
20
7.740609
30
0
0
VERTEX
8
0
10
-14.836263
20
7.567593
30
0
0
VERTEX
8
0
10
-14.817853
20
7.499162
30
0
0
VERTEX
8
0
10
-14.815135
20
7.387612
30
0
0
VERTEX
8
0
10
-14.880659
20
7.230012
30
0
0
VERTEX
8
0
10
-15.000252
20
7.127317
30
0
0
VERTEX
8
0
10
-15.075515
20
7.097352
30
0
0
VERTEX
8
0
10
-15.150801
20
7.088883
30
0
0
VERTEX
8
0
10
-15.352774
20
7.094682
30
0
0
VERTEX
8
0
10
-15.688153
20
7.15192
30
0
0
VERTEX
8
0
10
-15.93401
20
7.142452
30
0
0
VERTEX
8
0
10
-16.117646
20
7.072058
30
0
0
VERTEX
8
0
10
-16.212739
20
6.961235
30
0
0
VERTEX
8
0
10
-16.229919
20
6.907819
30
0
0
VERTEX
8
0
10
-16.230302
20
6.80954
30
0
0
VERTEX
8
0
10
-16.154804
20
6.627942
30
0
0
VERTEX
8
0
10
-15.992278
20
6.443224
30
0
0
VERTEX
8
0
10
-15.719728
20
6.239578
30
0
0
VERTEX
8
0
10
-15.56
20
6.076574
30
0
0
VERTEX
8
0
10
-15.500505
20
5.961589
30
0
0
VERTEX
8
0
10
-15.486717
20
5.871988
30
0
0
VERTEX
8
0
10
-15.497009
20
5.78485
30
0
0
VERTEX
8
0
10
-15.526574
20
5.705023
30
0
0
VERTEX
8
0
10
-15.575524
20
5.632202
30
0
0
VERTEX
8
0
10
-15.716194
20
5.535773
30
0
0
VERTEX
8
0
10
-15.914108
20
5.506537
30
0
0
VERTEX
8
0
10
-16.33121
20
5.528082
30
0
0
VERTEX
8
0
10
-16.525389
20
5.506454
30
0
0
VERTEX
8
0
10
-16.707656
20
5.435228
30
0
0
VERTEX
8
0
10
-16.814146
20
5.330359
30
0
0
VERTEX
8
0
10
-16.845501
20
5.230423
30
0
0
VERTEX
8
0
10
-16.844116
20
5.178861
30
0
0
VERTEX
8
0
10
-16.818006
20
5.083516
30
0
0
VERTEX
8
0
10
-16.768343
20
4.996146
30
0
0
VERTEX
8
0
10
-16.709097
20
4.920933
30
0
0
VERTEX
8
0
10
-16.562077
20
4.792254
30
0
0
VERTEX
8
0
10
-16.270323
20
4.617227
30
0
0
VERTEX
8
0
10
-16.077136
20
4.452569
30
0
0
VERTEX
8
0
10
-16.034351
20
4.386093
30
0
0
VERTEX
8
0
10
-16.006115
20
4.303543
30
0
0
VERTEX
8
0
10
-16.008172
20
4.161712
30
0
0
VERTEX
8
0
10
-16.065411
20
4.027556
30
0
0
VERTEX
8
0
10
-16.195605
20
3.91739
30
0
0
VERTEX
8
0
10
-16.42633
20
3.863236
30
0
0
VERTEX
8
0
10
-16.736686
20
3.852417
30
0
0
VERTEX
8
0
10
-16.891793
20
3.83183
30
0
0
VERTEX
8
0
10
-16.997681
20
3.806356
30
0
0
VERTEX
8
0
10
-17.133619
20
3.744307
30
0
0
VERTEX
8
0
10
-17.211312
20
3.682834
30
0
0
VERTEX
8
0
10
-17.267141
20
3.601952
30
0
0
VERTEX
8
0
10
-17.288225
20
3.499357
30
0
0
VERTEX
8
0
10
-17.281631
20
3.448199
30
0
0
VERTEX
8
0
10
-17.221663
20
3.315882
30
0
0
VERTEX
8
0
10
-17.121211
20
3.205254
30
0
0
VERTEX
8
0
10
-16.961927
20
3.092109
30
0
0
VERTEX
8
0
10
-16.586779
20
2.908526
30
0
0
VERTEX
8
0
10
-16.427923
20
2.786915
30
0
0
VERTEX
8
0
10
-16.351725
20
2.634335
30
0
0
VERTEX
8
0
10
-16.354381
20
2.47559
30
0
0
VERTEX
8
0
10
-16.406072
20
2.357331
30
0
0
VERTEX
8
0
10
-16.464574
20
2.292606
30
0
0
VERTEX
8
0
10
-16.530106
20
2.24839
30
0
0
VERTEX
8
0
10
-16.772571
20
2.17326
30
0
0
VERTEX
8
0
10
-17.109704
20
2.127473
30
0
0
VERTEX
8
0
10
-17.341451
20
2.044839
30
0
0
VERTEX
8
0
10
-17.495592
20
1.922699
30
0
0
VERTEX
8
0
10
-17.542953
20
1.836584
30
0
0
VERTEX
8
0
10
-17.553854
20
1.781542
30
0
0
VERTEX
8
0
10
-17.524493
20
1.638496
30
0
0
VERTEX
8
0
10
-17.468766
20
1.556583
30
0
0
VERTEX
8
0
10
-17.357637
20
1.456685
30
0
0
VERTEX
8
0
10
-17.187724
20
1.360234
30
0
0
VERTEX
8
0
10
-16.795929
20
1.215547
30
0
0
VERTEX
8
0
10
-16.618225
20
1.103532
30
0
0
VERTEX
8
0
10
-16.57432
20
1.047906
30
0
0
VERTEX
8
0
10
-16.527832
20
0.946468
30
0
0
VERTEX
8
0
10
-16.525895
20
0.775801
30
0
0
VERTEX
8
0
10
-16.595298
20
0.634267
30
0
0
VERTEX
8
0
10
-16.652644
20
0.57705
30
0
0
VERTEX
8
0
10
-16.718489
20
0.539577
30
0
0
VERTEX
8
0
10
-16.906381
20
0.465257
30
0
0
VERTEX
8
0
10
-17.237152
20
0.385598
30
0
0
VERTEX
8
0
10
-17.459351
20
0.279942
30
0
0
VERTEX
8
0
10
-17.600344
20
0.142834
30
0
0
VERTEX
8
0
10
-17.644027
20
0.003492
30
0
0
VERTEX
8
0
10
-17.63875
20
-0.05237
30
0
0
VERTEX
8
0
10
-17.600344
20
-0.142834
30
0
0
VERTEX
8
0
10
-17.459351
20
-0.279942
30
0
0
VERTEX
8
0
10
-17.237152
20
-0.385598
30
0
0
VERTEX
8
0
10
-16.906381
20
-0.465257
30
0
0
VERTEX
8
0
10
-16.695316
20
-0.552062
30
0
0
VERTEX
8
0
10
-16.595298
20
-0.634267
30
0
0
VERTEX
8
0
10
-16.547293
20
-0.711168
30
0
0
VERTEX
8
0
10
-16.522387
20
-0.795303
30
0
0
VERTEX
8
0
10
-16.518075
20
-0.88032
30
0
0
VERTEX
8
0
10
-16.534341
20
-0.966543
30
0
0
VERTEX
8
0
10
-16.625584
20
-1.110631
30
0
0
VERTEX
8
0
10
-16.795929
20
-1.215547
30
0
0
VERTEX
8
0
10
-17.187724
20
-1.360234
30
0
0
VERTEX
8
0
10
-17.357637
20
-1.456685
30
0
0
VERTEX
8
0
10
-17.497045
20
-1.594016
30
0
0
VERTEX
8
0
10
-17.553549
20
-1.732382
30
0
0
VERTEX
8
0
10
-17.542953
20
-1.836584
30
0
0
VERTEX
8
0
10
-17.521347
20
-1.883421
30
0
0
VERTEX
8
0
10
-17.459752
20
-1.960742
30
0
0
VERTEX
8
0
10
-17.379659
20
-2.021447
30
0
0
VERTEX
8
0
10
-17.295554
20
-2.0672
30
0
0
VERTEX
8
0
10
-17.109704
20
-2.127473
30
0
0
VERTEX
8
0
10
-16.772571
20
-2.17326
30
0
0
VERTEX
8
0
10
-16.530106
20
-2.24839
30
0
0
VERTEX
8
0
10
-16.464574
20
-2.292606
30
0
0
VERTEX
8
0
10
-16.406072
20
-2.357331
30
0
0
VERTEX
8
0
10
-16.35203
20
-2.488479
30
0
0
VERTEX
8
0
10
-16.351725
20
-2.634335
30
0
0
VERTEX
8
0
10
-16.427923
20
-2.786915
30
0
0
VERTEX
8
0
10
-16.618593
20
-2.927669
30
0
0
VERTEX
8
0
10
-16.899531
20
-3.060002
30
0
0
VERTEX
8
0
10
-17.03395
20
-3.140087
30
0
0
VERTEX
8
0
10
-17.121211
20
-3.205254
30
0
0
VERTEX
8
0
10
-17.221663
20
-3.315882
30
0
0
VERTEX
8
0
10
-17.268817
20
-3.403013
30
0
0
VERTEX
8
0
10
-17.288225
20
-3.499357
30
0
0
VERTEX
8
0
10
-17.267141
20
-3.601952
30
0
0
VERTEX
8
0
10
-17.240908
20
-3.646363
30
0
0
VERTEX
8
0
10
-17.133619
20
-3.744307
30
0
0
VERTEX
8
0
10
-16.997681
20
-3.806356
30
0
0
VERTEX
8
0
10
-16.806686
20
-3.847518
30
0
0
VERTEX
8
0
10
-16.389545
20
-3.868281
30
0
0
VERTEX
8
0
10
-16.195605
20
-3.91739
30
0
0
VERTEX
8
0
10
-16.065411
20
-4.027556
30
0
0
VERTEX
8
0
10
-16.005249
20
-4.174483
30
0
0
VERTEX
8
0
10
-16.006115
20
-4.303543
30
0
0
VERTEX
8
0
10
-16.034351
20
-4.386093
30
0
0
VERTEX
8
0
10
-16.077136
20
-4.452569
30
0
0
VERTEX
8
0
10
-16.270323
20
-4.617227
30
0
0
VERTEX
8
0
10
-16.562077
20
-4.792254
30
0
0
VERTEX
8
0
10
-16.742456
20
-4.959582
30
0
0
VERTEX
8
0
10
-16.835939
20
-5.13261
30
0
0
VERTEX
8
0
10
-16.845501
20
-5.230423
30
0
0
VERTEX
8
0
10
-16.833813
20
-5.285303
30
0
0
VERTEX
8
0
10
-16.75042
20
-5.405178
30
0
0
VERTEX
8
0
10
-16.666907
20
-5.458476
30
0
0
VERTEX
8
0
10
-16.525389
20
-5.506454
30
0
0
VERTEX
8
0
10
-16.33121
20
-5.528082
30
0
0
VERTEX
8
0
10
-15.914108
20
-5.506537
30
0
0
VERTEX
8
0
10
-15.706631
20
-5.539395
30
0
0
VERTEX
8
0
10
-15.644349
20
-5.573199
30
0
0
VERTEX
8
0
10
-15.561626
20
-5.648083
30
0
0
VERTEX
8
0
10
-15.492542
20
-5.804155
30
0
0
VERTEX
8
0
10
-15.500505
20
-5.961589
30
0
0
VERTEX
8
0
10
-15.530641
20
-6.036784
30
0
0
VERTEX
8
0
10
-15.576372
20
-6.097186
30
0
0
VERTEX
8
0
10
-15.719728
20
-6.239578
30
0
0
VERTEX
8
0
10
-15.992278
20
-6.443224
30
0
0
VERTEX
8
0
10
-16.154804
20
-6.627942
30
0
0
VERTEX
8
0
10
-16.230302
20
-6.80954
30
0
0
VERTEX
8
0
10
-16.215494
20
-6.954816
30
0
0
VERTEX
8
0
10
-16.188614
20
-7.00407
30
0
0
VERTEX
8
0
10
-16.117646
20
-7.072058
30
0
0
VERTEX
8
0
10
-15.93401
20
-7.142452
30
0
0
VERTEX
8
0
10
-15.688153
20
-7.15192
30
0
0
VERTEX
8
0
10
-15.352774
20
-7.094682
30
0
0
VERTEX
8
0
10
-15.124582
20
-7.091217
30
0
0
VERTEX
8
0
10
-15.000252
20
-7.127317
30
0
0
VERTEX
8
0
10
-14.925811
20
-7.179055
30
0
0
VERTEX
8
0
10
-14.869744
20
-7.246549
30
0
0
VERTEX
8
0
10
-14.832255
20
-7.322977
30
0
0
VERTEX
8
0
10
-14.8132
20
-7.408626
30
0
0
VERTEX
8
0
10
-14.840227
20
-7.57702
30
0
0
VERTEX
8
0
10
-14.955392
20
-7.740609
30
0
0
VERTEX
8
0
10
-15.258377
20
-8.028078
30
0
0
VERTEX
8
0
10
-15.376484
20
-8.183718
30
0
0
VERTEX
8
0
10
-15.450436
20
-8.364896
30
0
0
VERTEX
8
0
10
-15.447796
20
-8.514331
30
0
0
VERTEX
8
0
10
-15.396966
20
-8.605909
30
0
0
VERTEX
8
0
10
-15.35864
20
-8.64043
30
0
0
VERTEX
8
0
10
-15.271546
20
-8.687195
30
0
0
VERTEX
8
0
10
-15.174004
20
-8.711395
30
0
0
VERTEX
8
0
10
-15.078672
20
-8.720273
30
0
0
VERTEX
8
0
10
-14.884114
20
-8.70237
30
0
0
VERTEX
8
0
10
-14.556247
20
-8.611496
30
0
0
VERTEX
8
0
10
-14.303805
20
-8.58492
30
0
0
VERTEX
8
0
10
-14.226146
20
-8.599709
30
0
0
VERTEX
8
0
10
-14.146861
20
-8.636118
30
0
0
VERTEX
8
0
10
-14.04548
20
-8.735326
30
0
0
VERTEX
8
0
10
-13.98768
20
-8.869242
30
0
0
VERTEX
8
0
10
-13.997532
20
-9.039505
30
0
0
VERTEX
8
0
10
-14.117243
20
-9.244044
30
0
0
VERTEX
8
0
10
-14.323226
20
-9.476441
30
0
0
VERTEX
8
0
10
-14.41517
20
-9.603045
30
0
0
VERTEX
8
0
10
-14.469659
20
-9.697343
30
0
0
VERTEX
8
0
10
-14.518344
20
-9.83862
30
0
0
VERTEX
8
0
10
-14.527316
20
-9.937284
30
0
0
VERTEX
8
0
10
-14.507158
20
-10.033474
30
0
0
VERTEX
8
0
10
-14.447324
20
-10.11944
30
0
0
VERTEX
8
0
10
-14.405702
20
-10.149907
30
0
0
VERTEX
8
0
10
-14.268484
20
-10.197604
30
0
0
VERTEX
8
0
10
-14.119093
20
-10.201016
30
0
0
VERTEX
8
0
10
-13.927345
20
-10.163522
30
0
0
VERTEX
8
0
10
-13.535821
20
-10.0181
30
0
0
VERTEX
8
0
10
-13.338232
20
-9.986748
30
0
0
VERTEX
8
0
10
-13.175145
20
-10.036643
30
0
0
VERTEX
8
0
10
-13.061917
20
-10.147938
30
0
0
VERTEX
8
0
10
-13.011817
20
-10.26688
30
0
0
VERTEX
8
0
10
-13.005211
20
-10.353875
30
0
0
VERTEX
8
0
10
-13.018313
20
-10.431836
30
0
0
VERTEX
8
0
10
-13.13091
20
-10.659334
30
0
0
VERTEX
8
0
10
-13.329997
20
-10.935231
30
0
0
VERTEX
8
0
10
-13.429771
20
-11.160132
30
0
0
VERTEX
8
0
10
-13.447443
20
-11.356003
30
0
0
VERTEX
8
0
10
-13.417657
20
-11.44966
30
0
0
VERTEX
8
0
10
-13.385274
20
-11.495483
30
0
0
VERTEX
8
0
10
-13.261366
20
-11.572757
30
0
0
VERTEX
8
0
10
-13.065077
20
-11.584949
30
0
0
VERTEX
8
0
10
-12.827661
20
-11.520382
30
0
0
VERTEX
8
0
10
-12.524798
20
-11.365369
30
0
0
VERTEX
8
0
10
-12.333824
20
-11.299373
30
0
0
VERTEX
8
0
10
-12.259455
20
-11.284915
30
0
0
VERTEX
8
0
10
-12.178673
20
-11.290975
30
0
0
VERTEX
8
0
10
-12.033822
20
-11.353159
30
0
0
VERTEX
8
0
10
-11.924123
20
-11.483915
30
0
0
VERTEX
8
0
10
-11.893323
20
-11.591163
30
0
0
VERTEX
8
0
10
-11.890403
20
-11.661968
30
0
0
VERTEX
8
0
10
-11.952274
20
-11.862712
30
0
0
VERTEX
8
0
10
-12.155306
20
-12.227699
30
0
0
VERTEX
8
0
10
-12.221404
20
-12.411559
30
0
0
VERTEX
8
0
10
-12.240653
20
-12.559744
30
0
0
VERTEX
8
0
10
-12.22958
20
-12.658195
30
0
0
VERTEX
8
0
10
-12.158682
20
-12.785857
30
0
0
VERTEX
8
0
10
-12.114558
20
-12.820519
30
0
0
VERTEX
8
0
10
-12.02253
20
-12.855011
30
0
0
VERTEX
8
0
10
-11.826015
20
-12.847282
30
0
0
VERTEX
8
0
10
-11.596349
20
-12.759028
30
0
0
VERTEX
8
0
10
-11.310722
20
-12.57417
30
0
0
VERTEX
8
0
10
-11.077813
20
-12.473241
30
0
0
VERTEX
8
0
10
-10.999289
20
-12.464104
30
0
0
VERTEX
8
0
10
-10.91274
20
-12.475108
30
0
0
VERTEX
8
0
10
-10.796488
20
-12.531167
30
0
0
VERTEX
8
0
10
-10.691071
20
-12.649887
30
0
0
VERTEX
8
0
10
-10.6495
20
-12.815292
30
0
0
VERTEX
8
0
10
-10.69082
20
-13.011039
30
0
0
VERTEX
8
0
10
-10.855885
20
-13.394695
30
0
0
VERTEX
8
0
10
-10.903043
20
-13.584298
30
0
0
VERTEX
8
0
10
-10.907202
20
-13.73367
30
0
0
VERTEX
8
0
10
-10.866516
20
-13.873128
30
0
0
VERTEX
8
0
10
-10.838197
20
-13.916239
30
0
0
VERTEX
8
0
10
-10.755372
20
-13.980351
30
0
0
VERTEX
8
0
10
-10.660326
20
-14.005355
30
0
0
VERTEX
8
0
10
-10.561334
20
-14.001392
30
0
0
VERTEX
8
0
10
-10.417773
20
-13.959925
30
0
0
VERTEX
8
0
10
-10.320836
20
-13.910282
30
0
0
VERTEX
8
0
10
-10.189738
20
-13.824869
30
0
0
VERTEX
8
0
10
-9.947205
20
-13.630921
30
0
0
VERTEX
8
0
10
-9.736866
20
-13.521723
30
0
0
VERTEX
8
0
10
-9.566323
20
-13.520507
30
0
0
VERTEX
8
0
10
-9.435506
20
-13.585015
30
0
0
VERTEX
8
0
10
-9.34156
20
-13.691292
30
0
0
VERTEX
8
0
10
-9.309214
20
-13.772319
30
0
0
VERTEX
8
0
10
-9.298377
20
-13.850627
30
0
0
VERTEX
8
0
10
-9.337705
20
-14.101399
30
0
0
VERTEX
8
0
10
-9.445069
20
-14.424243
30
0
0
VERTEX
8
0
10
-9.472803
20
-14.617644
30
0
0
VERTEX
8
0
10
-9.468765
20
-14.713303
30
0
0
VERTEX
8
0
10
-9.449536
20
-14.811946
30
0
0
VERTEX
8
0
10
-9.407242
20
-14.901297
30
0
0
VERTEX
8
0
10
-9.374707
20
-14.941322
30
0
0
VERTEX
8
0
10
-9.285821
20
-14.996725
30
0
0
VERTEX
8
0
10
-9.136711
20
-15.006931
30
0
0
VERTEX
8
0
10
-8.95202
20
-14.94225
30
0
0
VERTEX
8
0
10
-8.790598
20
-14.832178
30
0
0
VERTEX
8
0
10
-8.488152
20
-14.544141
30
0
0
VERTEX
8
0
10
-8.31894
20
-14.43741
30
0
0
VERTEX
8
0
10
-8.149394
20
-14.418947
30
0
0
VERTEX
8
0
10
-8.064819
20
-14.442315
30
0
0
VERTEX
8
0
10
-7.990389
20
-14.483627
30
0
0
VERTEX
8
0
10
-7.925821
20
-14.54304
30
0
0
VERTEX
8
0
10
-7.87792
20
-14.620006
30
0
0
VERTEX
8
0
10
-7.848163
20
-14.746006
30
0
0
VERTEX
8
0
10
-7.863181
20
-14.973729
30
0
0
VERTEX
8
0
10
-7.937332
20
-15.305778
30
0
0
VERTEX
8
0
10
-7.940329
20
-15.551799
30
0
0
VERTEX
8
0
10
-7.879326
20
-15.738766
30
0
0
VERTEX
8
0
10
-7.81502
20
-15.813086
30
0
0
VERTEX
8
0
10
-7.767191
20
-15.842425
30
0
0
VERTEX
8
0
10
-7.622851
20
-15.864573
30
0
0
VERTEX
8
0
10
-7.437662
20
-15.798369
30
0
0
VERTEX
8
0
10
-7.244949
20
-15.645408
30
0
0
VERTEX
8
0
10
-7.027761
20
-15.383522
30
0
0
VERTEX
8
0
10
-6.87829
20
-15.247562
30
0
0
VERTEX
8
0
10
-6.815649
20
-15.204949
30
0
0
VERTEX
8
0
10
-6.739025
20
-15.178661
30
0
0
VERTEX
8
0
10
-6.58139
20
-15.178682
30
0
0
VERTEX
8
0
10
-6.429017
20
-15.255582
30
0
0
VERTEX
8
0
10
-6.358419
20
-15.341992
30
0
0
VERTEX
8
0
10
-6.327813
20
-15.405906
30
0
0
VERTEX
8
0
10
-6.305505
20
-15.614781
30
0
0
VERTEX
8
0
10
-6.348149
20
-16.030256
30
0
0
VERTEX
8
0
10
-6.336384
20
-16.225281
30
0
0
VERTEX
8
0
10
-6.295635
20
-16.369048
30
0
0
VERTEX
8
0
10
-6.246635
20
-16.455153
30
0
0
VERTEX
8
0
10
-6.131138
20
-16.544511
30
0
0
VERTEX
8
0
10
-6.076921
20
-16.558963
30
0
0
VERTEX
8
0
10
-5.978749
20
-16.554368
30
0
0
VERTEX
8
0
10
-5.801208
20
-16.469769
30
0
0
VERTEX
8
0
10
-5.624958
20
-16.298096
30
0
0
VERTEX
8
0
10
-5.435379
20
-16.015581
30
0
0
VERTEX
8
0
10
-5.280674
20
-15.847802
30
0
0
VERTEX
8
0
10
-5.168849
20
-15.78256
30
0
0
VERTEX
8
0
10
-5.080063
20
-15.764251
30
0
0
VERTEX
8
0
10
-4.992515
20
-15.770116
30
0
0
VERTEX
8
0
10
-4.911292
20
-15.7956
30
0
0
VERTEX
8
0
10
-4.836086
20
-15.840799
30
0
0
VERTEX
8
0
10
-4.732656
20
-15.976405
30
0
0
VERTEX
8
0
10
-4.693433
20
-16.172584
30
0
0
VERTEX
8
0
10
-4.693824
20
-16.590242
30
0
0
VERTEX
8
0
10
-4.662389
20
-16.783076
30
0
0
VERTEX
8
0
10
-4.582023
20
-16.961501
30
0
0
VERTEX
8
0
10
-4.471895
20
-17.062543
30
0
0
VERTEX
8
0
10
-4.3705
20
-17.088796
30
0
0
VERTEX
8
0
10
-4.319074
20
-17.084802
30
0
0
VERTEX
8
0
10
-4.225173
20
-17.053896
30
0
0
VERTEX
8
0
10
-4.140431
20
-16.999871
30
0
0
VERTEX
8
0
10
-4.068315
20
-16.936892
30
0
0
VERTEX
8
0
10
-3.947247
20
-16.783544
30
0
0
VERTEX
8
0
10
-3.787222
20
-16.483299
30
0
0
VERTEX
8
0
10
-3.63256
20
-16.28202
30
0
0
VERTEX
8
0
10
-3.568337
20
-16.235923
30
0
0
VERTEX
8
0
10
-3.487323
20
-16.203543
30
0
0
VERTEX
8
0
10
-3.34557
20
-16.198413
30
0
0
VERTEX
8
0
10
-3.208687
20
-16.248784
30
0
0
VERTEX
8
0
10
-3.092068
20
-16.37323
30
0
0
VERTEX
8
0
10
-3.026297
20
-16.600916
30
0
0
VERTEX
8
0
10
-2.999773
20
-16.910326
30
0
0
VERTEX
8
0
10
-2.971357
20
-17.064192
30
0
0
VERTEX
8
0
10
-2.940552
20
-17.168653
30
0
0
VERTEX
8
0
10
-2.871698
20
-17.301274
30
0
0
VERTEX
8
0
10
-2.806368
20
-17.375754
30
0
0
VERTEX
8
0
10
-2.722762
20
-17.427415
30
0
0
VERTEX
8
0
10
-2.619231
20
-17.443275
30
0
0
VERTEX
8
0
10
-2.568473
20
-17.434099
30
0
0
VERTEX
8
0
10
-2.439364
20
-17.367506
30
0
0
VERTEX
8
0
10
-2.333965
20
-17.261579
30
0
0
VERTEX
8
0
10
-2.229032
20
-17.096769
30
0
0
VERTEX
8
0
10
-2.064686
20
-16.712805
30
0
0
VERTEX
8
0
10
-1.951278
20
-16.547993
30
0
0
VERTEX
8
0
10
-1.802753
20
-16.464165
30
0
0
VERTEX
8
0
10
-1.644077
20
-16.458777
30
0
0
VERTEX
8
0
10
-1.523351
20
-16.504412
30
0
0
VERTEX
8
0
10
-1.455747
20
-16.55956
30
0
0
VERTEX
8
0
10
-1.408268
20
-16.622769
30
0
0
VERTEX
8
0
10
-1.320954
20
-16.861117
30
0
0
VERTEX
8
0
10
-1.25815
20
-17.195498
30
0
0
VERTEX
8
0
10
-1.163885
20
-17.422763
30
0
0
VERTEX
8
0
10
-1.034094
20
-17.57052
30
0
0
VERTEX
8
0
10
-0.94569
20
-17.613458
30
0
0
VERTEX
8
0
10
-0.890167
20
-17.621558
30
0
0
VERTEX
8
0
10
-0.748792
20
-17.584989
30
0
0
VERTEX
8
0
10
-0.604719
20
-17.451121
30
0
0
VERTEX
8
0
10
-0.487944
20
-17.234559
30
0
0
VERTEX
8
0
10
-0.391634
20
-16.908247
30
0
0
VERTEX
8
0
10
-0.307893
20
-16.724361
30
0
0
VERTEX
8
0
10
-0.267134
20
-16.660498
30
0
0
VERTEX
8
0
10
-0.207085
20
-16.606123
30
0
0
VERTEX
8
0
10
-0.062218
20
-16.543978
30
0
0
VERTEX
8
0
10
0.108132
20
-16.554556
30
0
0
VERTEX
8
0
10
0.207085
20
-16.606123
30
0
0
VERTEX
8
0
10
0.260416
20
-16.652788
30
0
0
VERTEX
8
0
10
0.363287
20
-16.835938
30
0
0
VERTEX
8
0
10
0.487944
20
-17.234559
30
0
0
VERTEX
8
0
10
0.575665
20
-17.409139
30
0
0
VERTEX
8
0
10
0.669807
20
-17.525185
30
0
0
VERTEX
8
0
10
0.748792
20
-17.584989
30
0
0
VERTEX
8
0
10
0.890167
20
-17.621558
30
0
0
VERTEX
8
0
10
0.94569
20
-17.613458
30
0
0
VERTEX
8
0
10
1.034094
20
-17.57052
30
0
0
VERTEX
8
0
10
1.163885
20
-17.422763
30
0
0
VERTEX
8
0
10
1.25815
20
-17.195498
30
0
0
VERTEX
8
0
10
1.320954
20
-16.861117
30
0
0
VERTEX
8
0
10
1.396957
20
-16.645926
30
0
0
VERTEX
8
0
10
1.473991
20
-16.541873
30
0
0
VERTEX
8
0
10
1.548362
20
-16.490034
30
0
0
VERTEX
8
0
10
1.631127
20
-16.460899
30
0
0
VERTEX
8
0
10
1.715817
20
-16.452287
30
0
0
VERTEX
8
0
10
1.802753
20
-16.464165
30
0
0
VERTEX
8
0
10
1.951278
20
-16.547993
30
0
0
VERTEX
8
0
10
2.064686
20
-16.712805
30
0
0
VERTEX
8
0
10
2.229032
20
-17.096769
30
0
0
VERTEX
8
0
10
2.333965
20
-17.261579
30
0
0
VERTEX
8
0
10
2.478181
20
-17.393852
30
0
0
VERTEX
8
0
10
2.619231
20
-17.443275
30
0
0
VERTEX
8
0
10
2.722762
20
-17.427415
30
0
0
VERTEX
8
0
10
2.768445
20
-17.403464
30
0
0
VERTEX
8
0
10
2.842548
20
-17.338033
30
0
0
VERTEX
8
0
10
2.899118
20
-17.254968
30
0
0
VERTEX
8
0
10
2.940552
20
-17.168653
30
0
0
VERTEX
8
0
10
2.991335
20
-16.979989
30
0
0
VERTEX
8
0
10
3.019988
20
-16.640969
30
0
0
VERTEX
8
0
10
3.08274
20
-16.395011
30
0
0
VERTEX
8
0
10
3.123581
20
-16.327323
30
0
0
VERTEX
8
0
10
3.185259
20
-16.265618
30
0
0
VERTEX
8
0
10
3.313501
20
-16.205003
30
0
0
VERTEX
8
0
10
3.459156
20
-16.197311
30
0
0
VERTEX
8
0
10
3.615399
20
-16.265683
30
0
0
VERTEX
8
0
10
3.765629
20
-16.44898
30
0
0
VERTEX
8
0
10
3.912021
20
-16.722854
30
0
0
VERTEX
8
0
10
3.998812
20
-16.853044
30
0
0
VERTEX
8
0
10
4.068315
20
-16.936892
30
0
0
VERTEX
8
0
10
4.183889
20
-17.031612
30
0
0
VERTEX
8
0
10
4.273296
20
-17.074293
30
0
0
VERTEX
8
0
10
4.3705
20
-17.088796
30
0
0
VERTEX
8
0
10
4.471895
20
-17.062543
30
0
0
VERTEX
8
0
10
4.51492
20
-17.034094
30
0
0
VERTEX
8
0
10
4.607305
20
-16.921982
30
0
0
VERTEX
8
0
10
4.662389
20
-16.783076
30
0
0
VERTEX
8
0
10
4.693824
20
-16.590242
30
0
0
VERTEX
8
0
10
4.693433
20
-16.172584
30
0
0
VERTEX
8
0
10
4.732656
20
-15.976405
30
0
0
VERTEX
8
0
10
4.836086
20
-15.840799
30
0
0
VERTEX
8
0
10
4.979778
20
-15.773273
30
0
0
VERTEX
8
0
10
5.108716
20
-15.767601
30
0
0
VERTEX
8
0
10
5.19259
20
-15.791619
30
0
0
VERTEX
8
0
10
5.261148
20
-15.830982
30
0
0
VERTEX
8
0
10
5.435379
20
-16.015581
30
0
0
VERTEX
8
0
10
5.624958
20
-16.298096
30
0
0
VERTEX
8
0
10
5.801208
20
-16.469769
30
0
0
VERTEX
8
0
10
5.978749
20
-16.554368
30
0
0
VERTEX
8
0
10
6.076921
20
-16.558963
30
0
0
VERTEX
8
0
10
6.131138
20
-16.544511
30
0
0
VERTEX
8
0
10
6.246635
20
-16.455153
30
0
0
VERTEX
8
0
10
6.326241
20
-16.275318
30
0
0
VERTEX
8
0
10
6.348149
20
-16.030256
30
0
0
VERTEX
8
0
10
6.307971
20
-15.692408
30
0
0
VERTEX
8
0
10
6.312409
20
-15.490401
30
0
0
VERTEX
8
0
10
6.32468
20
-15.41564
30
0
0
VERTEX
8
0
10
6.358419
20
-15.341992
30
0
0
VERTEX
8
0
10
6.467039
20
-15.227754
30
0
0
VERTEX
8
0
10
6.627755
20
-15.170296
30
0
0
VERTEX
8
0
10
6.739025
20
-15.178661
30
0
0
VERTEX
8
0
10
6.806436
20
-15.200513
30
0
0
VERTEX
8
0
10
6.973196
20
-15.328252
30
0
0
VERTEX
8
0
10
7.244949
20
-15.645408
30
0
0
VERTEX
8
0
10
7.394408
20
-15.771247
30
0
0
VERTEX
8
0
10
7.526683
20
-15.840763
30
0
0
VERTEX
8
0
10
7.622851
20
-15.864573
30
0
0
VERTEX
8
0
10
7.767191
20
-15.842425
30
0
0
VERTEX
8
0
10
7.81502
20
-15.813086
30
0
0
VERTEX
8
0
10
7.879326
20
-15.738766
30
0
0
VERTEX
8
0
10
7.940329
20
-15.551799
30
0
0
VERTEX
8
0
10
7.937332
20
-15.305778
30
0
0
VERTEX
8
0
10
7.863181
20
-14.973729
30
0
0
VERTEX
8
0
10
7.848163
20
-14.746006
30
0
0
VERTEX
8
0
10
7.87792
20
-14.620006
30
0
0
VERTEX
8
0
10
7.925821
20
-14.54304
30
0
0
VERTEX
8
0
10
7.990389
20
-14.483627
30
0
0
VERTEX
8
0
10
8.064819
20
-14.442315
30
0
0
VERTEX
8
0
10
8.149394
20
-14.418947
30
0
0
VERTEX
8
0
10
8.31894
20
-14.43741
30
0
0
VERTEX
8
0
10
8.488152
20
-14.544141
30
0
0
VERTEX
8
0
10
8.790598
20
-14.832178
30
0
0
VERTEX
8
0
10
8.95202
20
-14.94225
30
0
0
VERTEX
8
0
10
9.136711
20
-15.006931
30
0
0
VERTEX
8
0
10
9.285821
20
-14.996725
30
0
0
VERTEX
8
0
10
9.374707
20
-14.941322
30
0
0
VERTEX
8
0
10
9.407242
20
-14.901297
30
0
0
VERTEX
8
0
10
9.449536
20
-14.811946
30
0
0
VERTEX
8
0
10
9.468765
20
-14.713303
30
0
0
VERTEX
8
0
10
9.472803
20
-14.617644
30
0
0
VERTEX
8
0
10
9.445069
20
-14.424243
30
0
0
VERTEX
8
0
10
9.337705
20
-14.101399
30
0
0
VERTEX
8
0
10
9.298377
20
-13.850627
30
0
0
VERTEX
8
0
10
9.309214
20
-13.772319
30
0
0
VERTEX
8
0
10
9.34156
20
-13.691292
30
0
0
VERTEX
8
0
10
9.435506
20
-13.585015
30
0
0
VERTEX
8
0
10
9.566323
20
-13.520507
30
0
0
VERTEX
8
0
10
9.736866
20
-13.521723
30
0
0
VERTEX
8
0
10
9.947205
20
-13.630921
30
0
0
VERTEX
8
0
10
10.189738
20
-13.824869
30
0
0
VERTEX
8
0
10
10.320836
20
-13.910282
30
0
0
VERTEX
8
0
10
10.417773
20
-13.959925
30
0
0
VERTEX
8
0
10
10.561334
20
-14.001392
30
0
0
VERTEX
8
0
10
10.660326
20
-14.005355
30
0
0
VERTEX
8
0
10
10.755372
20
-13.980351
30
0
0
VERTEX
8
0
10
10.838197
20
-13.916239
30
0
0
VERTEX
8
0
10
10.866516
20
-13.873128
30
0
0
VERTEX
8
0
10
10.907202
20
-13.73367
30
0
0
VERTEX
8
0
10
10.903043
20
-13.584298
30
0
0
VERTEX
8
0
10
10.855885
20
-13.394695
30
0
0
VERTEX
8
0
10
10.69082
20
-13.011039
30
0
0
VERTEX
8
0
10
10.6495
20
-12.815292
30
0
0
VERTEX
8
0
10
10.691071
20
-12.649887
30
0
0
VERTEX
8
0
10
10.796488
20
-12.531167
30
0
0
VERTEX
8
0
10
10.91274
20
-12.475108
30
0
0
VERTEX
8
0
10
10.999289
20
-12.464104
30
0
0
VERTEX
8
0
10
11.077813
20
-12.473241
30
0
0
VERTEX
8
0
10
11.310722
20
-12.57417
30
0
0
VERTEX
8
0
10
11.596349
20
-12.759028
30
0
0
VERTEX
8
0
10
11.826015
20
-12.847282
30
0
0
VERTEX
8
0
10
12.02253
20
-12.855011
30
0
0
VERTEX
8
0
10
12.114558
20
-12.820519
30
0
0
VERTEX
8
0
10
12.158682
20
-12.785857
30
0
0
VERTEX
8
0
10
12.22958
20
-12.658195
30
0
0
VERTEX
8
0
10
12.231815
20
-12.461541
30
0
0
VERTEX
8
0
10
12.155306
20
-12.227699
30
0
0
VERTEX
8
0
10
11.985152
20
-11.933076
30
0
0
VERTEX
8
0
10
11.909568
20
-11.74569
30
0
0
VERTEX
8
0
10
11.891562
20
-11.607819
30
0
0
VERTEX
8
0
10
11.93713
20
-11.460063
30
0
0
VERTEX
8
0
10
12.008852
20
-11.374611
30
0
0
VERTEX
8
0
10
12.073123
20
-11.327168
30
0
0
VERTEX
8
0
10
12.178673
20
-11.290975
30
0
0
VERTEX
8
0
10
12.249239
20
-11.284473
30
0
0
VERTEX
8
0
10
12.452859
20
-11.336096
30
0
0
VERTEX
8
0
10
12.827661
20
-11.520382
30
0
0
VERTEX
8
0
10
13.014633
20
-11.577083
30
0
0
VERTEX
8
0
10
13.163602
20
-11.588802
30
0
0
VERTEX
8
0
10
13.261366
20
-11.572757
30
0
0
VERTEX
8
0
10
13.349432
20
-11.529132
30
0
0
VERTEX
8
0
10
13.389824
20
-11.490184
30
0
0
VERTEX
8
0
10
13.447443
20
-11.356003
30
0
0
VERTEX
8
0
10
13.429771
20
-11.160132
30
0
0
VERTEX
8
0
10
13.329997
20
-10.935231
30
0
0
VERTEX
8
0
10
13.13091
20
-10.659334
30
0
0
VERTEX
8
0
10
13.036755
20
-10.480555
30
0
0
VERTEX
8
0
10
13.011204
20
-10.409233
30
0
0
VERTEX
8
0
10
13.004961
20
-10.328465
30
0
0
VERTEX
8
0
10
13.044493
20
-10.175868
30
0
0
VERTEX
8
0
10
13.15713
20
-10.047635
30
0
0
VERTEX
8
0
10
13.258477
20
-10.000949
30
0
0
VERTEX
8
0
10
13.328023
20
-9.987341
30
0
0
VERTEX
8
0
10
13.535821
20
-10.0181
30
0
0
VERTEX
8
0
10
13.927345
20
-10.163522
30
0
0
VERTEX
8
0
10
14.119093
20
-10.201016
30
0
0
VERTEX
8
0
10
14.268484
20
-10.197604
30
0
0
VERTEX
8
0
10
14.364123
20
-10.171751
30
0
0
VERTEX
8
0
10
14.479577
20
-10.082338
30
0
0
VERTEX
8
0
10
14.507158
20
-10.033474
30
0
0
VERTEX
8
0
10
14.527316
20
-9.937284
30
0
0
VERTEX
8
0
10
14.489919
20
-9.744206
30
0
0
VERTEX
8
0
10
14.367904
20
-9.530553
30
0
0
VERTEX
8
0
10
14.141926
20
-9.276212
30
0
0
VERTEX
8
0
10
14.006892
20
-9.061272
30
0
0
VERTEX
8
0
10
13.98597
20
-8.985037
30
0
0
VERTEX
8
0
10
13.983741
20
-8.89782
30
0
0
VERTEX
8
0
10
14.02155
20
-8.77442
30
0
0
VERTEX
8
0
10
14.122938
20
-8.652241
30
0
0
VERTEX
8
0
10
14.28014
20
-8.586102
30
0
0
VERTEX
8
0
10
14.479887
20
-8.597304
30
0
0
VERTEX
8
0
10
14.884114
20
-8.70237
30
0
0
VERTEX
8
0
10
15.078672
20
-8.720273
30
0
0
VERTEX
8
0
10
15.226951
20
-8.701764
30
0
0
VERTEX
8
0
10
15.35864
20
-8.64043
30
0
0
VERTEX
8
0
10
15.396966
20
-8.605909
30
0
0
VERTEX
8
0
10
15.447796
20
-8.514331
30
0
0
VERTEX
8
0
10
15.458119
20
-8.416595
30
0
0
VERTEX
8
0
10
15.439212
20
-8.319344
30
0
0
VERTEX
8
0
10
15.376484
20
-8.183718
30
0
0
VERTEX
8
0
10
15.312734
20
-8.095417
30
0
0
VERTEX
8
0
10
15.208454
20
-7.978764
30
0
0
VERTEX
8
0
10
14.980016
20
-7.768398
30
0
0
VERTEX
8
0
10
14.840227
20
-7.57702
30
0
0
VERTEX
8
0
10
14.8132
20
-7.408626
30
0
0
VERTEX
8
0
10
14.857155
20
-7.26955
30
0
0
VERTEX
8
0
10
14.94798
20
-7.160595
30
0
0
VERTEX
8
0
10
15.023175
20
-7.116352
30
0
0
VERTEX
8
0
10
15.098938
20
-7.093781
30
0
0
VERTEX
8
0
10
15.352774
20
-7.094682
30
0
0
VERTEX
8
0
10
15.688153
20
-7.15192
30
0
0
VERTEX
8
0
10
15.883524
20
-7.150048
30
0
0
VERTEX
8
0
10
15.977468
20
-7.131571
30
0
0
VERTEX
8
0
10
16.072061
20
-7.097627
30
0
0
VERTEX
8
0
10
16.153978
20
-7.042291
30
0
0
VERTEX
8
0
10
16.188614
20
-7.00407
30
0
0
VERTEX
8
0
10
16.229919
20
-6.907819
30
0
0
VERTEX
8
0
10
16.217428
20
-6.758884
30
0
0
VERTEX
8
0
10
16.125525
20
-6.586117
30
0
0
VERTEX
8
0
10
15.992278
20
-6.443224
30
0
0
VERTEX
8
0
10
15.661765
20
-6.187882
30
0
0
VERTEX
8
0
10
15.530641
20
-6.036784
30
0
0
VERTEX
8
0
10
15.486717
20
-5.871988
30
0
0
VERTEX
8
0
10
15.497009
20
-5.78485
30
0
0
VERTEX
8
0
10
15.526574
20
-5.705023
30
0
0
VERTEX
8
0
10
15.575524
20
-5.632202
30
0
0
VERTEX
8
0
10
15.644349
20
-5.573199
30
0
0
VERTEX
8
0
10
15.764389
20
-5.524706
30
0
0
VERTEX
8
0
10
15.991761
20
-5.505067
30
0
0
VERTEX
8
0
10
16.33121
20
-5.528082
30
0
0
VERTEX
8
0
10
16.574848
20
-5.49379
30
0
0
VERTEX
8
0
10
16.75042
20
-5.405178
30
0
0
VERTEX
8
0
10
16.833813
20
-5.285303
30
0
0
VERTEX
8
0
10
16.845501
20
-5.230423
30
0
0
VERTEX
8
0
10
16.835939
20
-5.13261
30
0
0
VERTEX
8
0
10
16.742456
20
-4.959582
30
0
0
VERTEX
8
0
10
16.562077
20
-4.792254
30
0
0
VERTEX
8
0
10
16.270323
20
-4.617227
30
0
0
VERTEX
8
0
10
16.077136
20
-4.452569
30
0
0
VERTEX
8
0
10
16.034351
20
-4.386093
30
0
0
VERTEX
8
0
10
16.006115
20
-4.303543
30
0
0
VERTEX
8
0
10
16.005249
20
-4.174483
30
0
0
VERTEX
8
0
10
16.065411
20
-4.027556
30
0
0
VERTEX
8
0
10
16.195605
20
-3.91739
30
0
0
VERTEX
8
0
10
16.389545
20
-3.868281
30
0
0
VERTEX
8
0
10
16.806686
20
-3.847518
30
0
0
VERTEX
8
0
10
16.997681
20
-3.806356
30
0
0
VERTEX
8
0
10
17.133619
20
-3.744307
30
0
0
VERTEX
8
0
10
17.240908
20
-3.646363
30
0
0
VERTEX
8
0
10
17.267141
20
-3.601952
30
0
0
VERTEX
8
0
10
17.288225
20
-3.499357
30
0
0
VERTEX
8
0
10
17.268817
20
-3.403013
30
0
0
VERTEX
8
0
10
17.221663
20
-3.315882
30
0
0
VERTEX
8
0
10
17.121211
20
-3.205254
30
0
0
VERTEX
8
0
10
17.03395
20
-3.140087
30
0
0
VERTEX
8
0
10
16.899531
20
-3.060002
30
0
0
VERTEX
8
0
10
16.618593
20
-2.927669
30
0
0
VERTEX
8
0
10
16.427923
20
-2.786915
30
0
0
VERTEX
8
0
10
16.351725
20
-2.634335
30
0
0
VERTEX
8
0
10
16.35203
20
-2.488479
30
0
0
VERTEX
8
0
10
16.406072
20
-2.357331
30
0
0
VERTEX
8
0
10
16.464574
20
-2.292606
30
0
0
VERTEX
8
0
10
16.530106
20
-2.24839
30
0
0
VERTEX
8
0
10
16.772571
20
-2.17326
30
0
0
VERTEX
8
0
10
17.109704
20
-2.127473
30
0
0
VERTEX
8
0
10
17.295554
20
-2.0672
30
0
0
VERTEX
8
0
10
17.379659
20
-2.021447
30
0
0
VERTEX
8
0
10
17.459752
20
-1.960742
30
0
0
VERTEX
8
0
10
17.521347
20
-1.883421
30
0
0
VERTEX
8
0
10
17.542953
20
-1.836584
30
0
0
VERTEX
8
0
10
17.553549
20
-1.732382
30
0
0
VERTEX
8
0
10
17.497045
20
-1.594016
30
0
0
VERTEX
8
0
10
17.357637
20
-1.456685
30
0
0
VERTEX
8
0
10
17.187724
20
-1.360234
30
0
0
VERTEX
8
0
10
16.795929
20
-1.215547
30
0
0
VERTEX
8
0
10
16.625584
20
-1.110631
30
0
0
VERTEX
8
0
10
16.534341
20
-0.966543
30
0
0
SEQEND
0
CIRCLE
8
0
10
0
20
0
30
0
40
20.644027
0
ENDSEC
0
EOF
