ISO-10303-21;
HEADER;
/* Generated by software containing ST-Developer
 * from STEP Tools, Inc. (www.steptools.com) 
 */
/* OPTION: using custom renumber hook */

FILE_DESCRIPTION(
/* description */ ('STEP AP242 Edition 2',
'CAx-IF Rec.Pracs.---Representation and Presentation of Product Manufa
cturing Information (PMI)---4.0---2014-10-13',
'CAx-IF Rec.Pracs.---3D Tessellated Geometry---0.4---2014-09-14','2;1',
'CAx-IF Rec.Pracs.---User Defined Attributes---1.5---2016-08-15'),
/* implementation_level */ '2;1');

FILE_NAME(
/* name */ 'Single Bearing Version - SB INTERFACE',
/* time_stamp */ '2026-09-07T18:44:45Z',
/* author */ (''),
/* organization */ (''),
/* preprocessor_version */ 'ST-DEVELOPER v20',
/* originating_system */ 'ONSHAPE BY PTC INC, 1.220',
/* authorisation */ '  ');

FILE_SCHEMA (('AP242_MANAGED_MODEL_BASED_3D_ENGINEERING_MIM_LF { 1 0 10303 442 3 1 4 }'));
ENDSEC;

DATA;
#10=SHAPE_REPRESENTATION_RELATIONSHIP('','',#782,#11);
#11=ADVANCED_BREP_SHAPE_REPRESENTATION('',(#780),#1355);
#12=PLANE('',#794);
#13=PLANE('',#822);
#14=PLANE('',#833);
#15=PLANE('',#838);
#16=PLANE('',#843);
#17=PLANE('',#848);
#18=PLANE('',#853);
#19=PLANE('',#858);
#20=PLANE('',#863);
#21=PLANE('',#868);
#22=PLANE('',#871);
#23=PLANE('',#872);
#24=PLANE('',#873);
#25=PLANE('',#874);
#26=PLANE('',#875);
#27=PLANE('',#876);
#28=PLANE('',#877);
#29=PLANE('',#878);
#30=LINE('',#1142,#70);
#31=LINE('',#1146,#71);
#32=LINE('',#1150,#72);
#33=LINE('',#1154,#73);
#34=LINE('',#1158,#74);
#35=LINE('',#1162,#75);
#36=LINE('',#1166,#76);
#37=LINE('',#1170,#77);
#38=LINE('',#1184,#78);
#39=LINE('',#1188,#79);
#40=LINE('',#1193,#80);
#41=LINE('',#1197,#81);
#42=LINE('',#1202,#82);
#43=LINE('',#1206,#83);
#44=LINE('',#1211,#84);
#45=LINE('',#1215,#85);
#46=LINE('',#1219,#86);
#47=LINE('',#1221,#87);
#48=LINE('',#1225,#88);
#49=LINE('',#1227,#89);
#50=LINE('',#1231,#90);
#51=LINE('',#1233,#91);
#52=LINE('',#1237,#92);
#53=LINE('',#1239,#93);
#54=LINE('',#1266,#94);
#55=LINE('',#1271,#95);
#56=LINE('',#1276,#96);
#57=LINE('',#1281,#97);
#58=LINE('',#1286,#98);
#59=LINE('',#1291,#99);
#60=LINE('',#1296,#100);
#61=LINE('',#1301,#101);
#62=LINE('',#1331,#102);
#63=LINE('',#1333,#103);
#64=LINE('',#1335,#104);
#65=LINE('',#1337,#105);
#66=LINE('',#1339,#106);
#67=LINE('',#1341,#107);
#68=LINE('',#1343,#108);
#69=LINE('',#1345,#109);
#70=VECTOR('',#895,1.);
#71=VECTOR('',#898,1.);
#72=VECTOR('',#901,1.);
#73=VECTOR('',#904,1.);
#74=VECTOR('',#907,1.);
#75=VECTOR('',#910,1.);
#76=VECTOR('',#913,1.);
#77=VECTOR('',#916,1.);
#78=VECTOR('',#931,1.);
#79=VECTOR('',#934,1.);
#80=VECTOR('',#939,1.);
#81=VECTOR('',#942,1.);
#82=VECTOR('',#947,1.);
#83=VECTOR('',#950,1.);
#84=VECTOR('',#955,1.);
#85=VECTOR('',#958,1.);
#86=VECTOR('',#963,1.);
#87=VECTOR('',#964,1.);
#88=VECTOR('',#969,1.);
#89=VECTOR('',#970,1.);
#90=VECTOR('',#975,1.);
#91=VECTOR('',#976,1.);
#92=VECTOR('',#981,1.);
#93=VECTOR('',#982,1.);
#94=VECTOR('',#1013,1.);
#95=VECTOR('',#1018,1.);
#96=VECTOR('',#1025,1.);
#97=VECTOR('',#1030,1.);
#98=VECTOR('',#1037,1.);
#99=VECTOR('',#1042,1.);
#100=VECTOR('',#1049,1.);
#101=VECTOR('',#1054,1.);
#102=VECTOR('',#1097,1.);
#103=VECTOR('',#1100,1.);
#104=VECTOR('',#1103,1.);
#105=VECTOR('',#1106,1.);
#106=VECTOR('',#1109,1.);
#107=VECTOR('',#1112,1.);
#108=VECTOR('',#1115,1.);
#109=VECTOR('',#1118,1.);
#110=ORIENTED_EDGE('',*,*,#308,.T.);
#111=ORIENTED_EDGE('',*,*,#309,.T.);
#112=ORIENTED_EDGE('',*,*,#310,.T.);
#113=ORIENTED_EDGE('',*,*,#311,.F.);
#114=ORIENTED_EDGE('',*,*,#312,.T.);
#115=ORIENTED_EDGE('',*,*,#313,.T.);
#116=ORIENTED_EDGE('',*,*,#314,.T.);
#117=ORIENTED_EDGE('',*,*,#315,.F.);
#118=ORIENTED_EDGE('',*,*,#316,.T.);
#119=ORIENTED_EDGE('',*,*,#317,.T.);
#120=ORIENTED_EDGE('',*,*,#318,.T.);
#121=ORIENTED_EDGE('',*,*,#319,.F.);
#122=ORIENTED_EDGE('',*,*,#320,.T.);
#123=ORIENTED_EDGE('',*,*,#321,.T.);
#124=ORIENTED_EDGE('',*,*,#322,.T.);
#125=ORIENTED_EDGE('',*,*,#323,.F.);
#126=ORIENTED_EDGE('',*,*,#324,.T.);
#127=ORIENTED_EDGE('',*,*,#325,.T.);
#128=ORIENTED_EDGE('',*,*,#326,.T.);
#129=ORIENTED_EDGE('',*,*,#327,.T.);
#130=ORIENTED_EDGE('',*,*,#328,.T.);
#131=ORIENTED_EDGE('',*,*,#329,.F.);
#132=ORIENTED_EDGE('',*,*,#311,.T.);
#133=ORIENTED_EDGE('',*,*,#330,.T.);
#134=ORIENTED_EDGE('',*,*,#331,.F.);
#135=ORIENTED_EDGE('',*,*,#332,.T.);
#136=ORIENTED_EDGE('',*,*,#333,.T.);
#137=ORIENTED_EDGE('',*,*,#334,.T.);
#138=ORIENTED_EDGE('',*,*,#323,.T.);
#139=ORIENTED_EDGE('',*,*,#335,.T.);
#140=ORIENTED_EDGE('',*,*,#336,.F.);
#141=ORIENTED_EDGE('',*,*,#337,.T.);
#142=ORIENTED_EDGE('',*,*,#338,.T.);
#143=ORIENTED_EDGE('',*,*,#339,.T.);
#144=ORIENTED_EDGE('',*,*,#319,.T.);
#145=ORIENTED_EDGE('',*,*,#340,.T.);
#146=ORIENTED_EDGE('',*,*,#341,.F.);
#147=ORIENTED_EDGE('',*,*,#342,.T.);
#148=ORIENTED_EDGE('',*,*,#343,.T.);
#149=ORIENTED_EDGE('',*,*,#344,.T.);
#150=ORIENTED_EDGE('',*,*,#315,.T.);
#151=ORIENTED_EDGE('',*,*,#345,.T.);
#152=ORIENTED_EDGE('',*,*,#346,.F.);
#153=ORIENTED_EDGE('',*,*,#347,.T.);
#154=ORIENTED_EDGE('',*,*,#348,.T.);
#155=ORIENTED_EDGE('',*,*,#349,.T.);
#156=ORIENTED_EDGE('',*,*,#350,.T.);
#157=ORIENTED_EDGE('',*,*,#332,.F.);
#158=ORIENTED_EDGE('',*,*,#351,.F.);
#159=ORIENTED_EDGE('',*,*,#352,.T.);
#160=ORIENTED_EDGE('',*,*,#353,.T.);
#161=ORIENTED_EDGE('',*,*,#347,.F.);
#162=ORIENTED_EDGE('',*,*,#354,.F.);
#163=ORIENTED_EDGE('',*,*,#355,.T.);
#164=ORIENTED_EDGE('',*,*,#356,.T.);
#165=ORIENTED_EDGE('',*,*,#342,.F.);
#166=ORIENTED_EDGE('',*,*,#357,.F.);
#167=ORIENTED_EDGE('',*,*,#358,.T.);
#168=ORIENTED_EDGE('',*,*,#359,.T.);
#169=ORIENTED_EDGE('',*,*,#337,.F.);
#170=ORIENTED_EDGE('',*,*,#360,.F.);
#171=ORIENTED_EDGE('',*,*,#361,.T.);
#172=ORIENTED_EDGE('',*,*,#362,.F.);
#173=ORIENTED_EDGE('',*,*,#329,.T.);
#174=ORIENTED_EDGE('',*,*,#363,.T.);
#175=ORIENTED_EDGE('',*,*,#364,.T.);
#176=ORIENTED_EDGE('',*,*,#365,.T.);
#177=ORIENTED_EDGE('',*,*,#366,.T.);
#178=ORIENTED_EDGE('',*,*,#367,.F.);
#179=ORIENTED_EDGE('',*,*,#368,.F.);
#180=ORIENTED_EDGE('',*,*,#369,.F.);
#181=ORIENTED_EDGE('',*,*,#370,.F.);
#182=ORIENTED_EDGE('',*,*,#308,.F.);
#183=ORIENTED_EDGE('',*,*,#362,.T.);
#184=ORIENTED_EDGE('',*,*,#371,.F.);
#185=ORIENTED_EDGE('',*,*,#370,.T.);
#186=ORIENTED_EDGE('',*,*,#371,.T.);
#187=ORIENTED_EDGE('',*,*,#352,.F.);
#188=ORIENTED_EDGE('',*,*,#372,.F.);
#189=ORIENTED_EDGE('',*,*,#373,.T.);
#190=ORIENTED_EDGE('',*,*,#309,.F.);
#191=ORIENTED_EDGE('',*,*,#374,.T.);
#192=ORIENTED_EDGE('',*,*,#375,.T.);
#193=ORIENTED_EDGE('',*,*,#376,.F.);
#194=ORIENTED_EDGE('',*,*,#369,.T.);
#195=ORIENTED_EDGE('',*,*,#376,.T.);
#196=ORIENTED_EDGE('',*,*,#355,.F.);
#197=ORIENTED_EDGE('',*,*,#377,.F.);
#198=ORIENTED_EDGE('',*,*,#378,.T.);
#199=ORIENTED_EDGE('',*,*,#313,.F.);
#200=ORIENTED_EDGE('',*,*,#379,.T.);
#201=ORIENTED_EDGE('',*,*,#380,.T.);
#202=ORIENTED_EDGE('',*,*,#381,.F.);
#203=ORIENTED_EDGE('',*,*,#368,.T.);
#204=ORIENTED_EDGE('',*,*,#381,.T.);
#205=ORIENTED_EDGE('',*,*,#358,.F.);
#206=ORIENTED_EDGE('',*,*,#382,.F.);
#207=ORIENTED_EDGE('',*,*,#383,.T.);
#208=ORIENTED_EDGE('',*,*,#317,.F.);
#209=ORIENTED_EDGE('',*,*,#384,.T.);
#210=ORIENTED_EDGE('',*,*,#385,.T.);
#211=ORIENTED_EDGE('',*,*,#386,.F.);
#212=ORIENTED_EDGE('',*,*,#367,.T.);
#213=ORIENTED_EDGE('',*,*,#386,.T.);
#214=ORIENTED_EDGE('',*,*,#361,.F.);
#215=ORIENTED_EDGE('',*,*,#387,.F.);
#216=ORIENTED_EDGE('',*,*,#388,.T.);
#217=ORIENTED_EDGE('',*,*,#321,.F.);
#218=ORIENTED_EDGE('',*,*,#389,.T.);
#219=ORIENTED_EDGE('',*,*,#390,.T.);
#220=ORIENTED_EDGE('',*,*,#328,.F.);
#221=ORIENTED_EDGE('',*,*,#391,.F.);
#222=ORIENTED_EDGE('',*,*,#391,.T.);
#223=ORIENTED_EDGE('',*,*,#392,.F.);
#224=ORIENTED_EDGE('',*,*,#392,.T.);
#225=ORIENTED_EDGE('',*,*,#366,.F.);
#226=ORIENTED_EDGE('',*,*,#327,.F.);
#227=ORIENTED_EDGE('',*,*,#393,.F.);
#228=ORIENTED_EDGE('',*,*,#393,.T.);
#229=ORIENTED_EDGE('',*,*,#394,.F.);
#230=ORIENTED_EDGE('',*,*,#394,.T.);
#231=ORIENTED_EDGE('',*,*,#365,.F.);
#232=ORIENTED_EDGE('',*,*,#326,.F.);
#233=ORIENTED_EDGE('',*,*,#395,.F.);
#234=ORIENTED_EDGE('',*,*,#395,.T.);
#235=ORIENTED_EDGE('',*,*,#396,.F.);
#236=ORIENTED_EDGE('',*,*,#396,.T.);
#237=ORIENTED_EDGE('',*,*,#364,.F.);
#238=ORIENTED_EDGE('',*,*,#325,.F.);
#239=ORIENTED_EDGE('',*,*,#397,.F.);
#240=ORIENTED_EDGE('',*,*,#397,.T.);
#241=ORIENTED_EDGE('',*,*,#398,.F.);
#242=ORIENTED_EDGE('',*,*,#398,.T.);
#243=ORIENTED_EDGE('',*,*,#363,.F.);
#244=ORIENTED_EDGE('',*,*,#336,.T.);
#245=ORIENTED_EDGE('',*,*,#399,.T.);
#246=ORIENTED_EDGE('',*,*,#387,.T.);
#247=ORIENTED_EDGE('',*,*,#360,.T.);
#248=ORIENTED_EDGE('',*,*,#390,.F.);
#249=ORIENTED_EDGE('',*,*,#400,.T.);
#250=ORIENTED_EDGE('',*,*,#338,.F.);
#251=ORIENTED_EDGE('',*,*,#359,.F.);
#252=ORIENTED_EDGE('',*,*,#341,.T.);
#253=ORIENTED_EDGE('',*,*,#401,.T.);
#254=ORIENTED_EDGE('',*,*,#382,.T.);
#255=ORIENTED_EDGE('',*,*,#357,.T.);
#256=ORIENTED_EDGE('',*,*,#385,.F.);
#257=ORIENTED_EDGE('',*,*,#402,.T.);
#258=ORIENTED_EDGE('',*,*,#343,.F.);
#259=ORIENTED_EDGE('',*,*,#356,.F.);
#260=ORIENTED_EDGE('',*,*,#346,.T.);
#261=ORIENTED_EDGE('',*,*,#403,.T.);
#262=ORIENTED_EDGE('',*,*,#377,.T.);
#263=ORIENTED_EDGE('',*,*,#354,.T.);
#264=ORIENTED_EDGE('',*,*,#380,.F.);
#265=ORIENTED_EDGE('',*,*,#404,.T.);
#266=ORIENTED_EDGE('',*,*,#348,.F.);
#267=ORIENTED_EDGE('',*,*,#353,.F.);
#268=ORIENTED_EDGE('',*,*,#331,.T.);
#269=ORIENTED_EDGE('',*,*,#405,.T.);
#270=ORIENTED_EDGE('',*,*,#372,.T.);
#271=ORIENTED_EDGE('',*,*,#351,.T.);
#272=ORIENTED_EDGE('',*,*,#375,.F.);
#273=ORIENTED_EDGE('',*,*,#406,.T.);
#274=ORIENTED_EDGE('',*,*,#333,.F.);
#275=ORIENTED_EDGE('',*,*,#350,.F.);
#276=ORIENTED_EDGE('',*,*,#330,.F.);
#277=ORIENTED_EDGE('',*,*,#310,.F.);
#278=ORIENTED_EDGE('',*,*,#373,.F.);
#279=ORIENTED_EDGE('',*,*,#405,.F.);
#280=ORIENTED_EDGE('',*,*,#334,.F.);
#281=ORIENTED_EDGE('',*,*,#406,.F.);
#282=ORIENTED_EDGE('',*,*,#374,.F.);
#283=ORIENTED_EDGE('',*,*,#324,.F.);
#284=ORIENTED_EDGE('',*,*,#345,.F.);
#285=ORIENTED_EDGE('',*,*,#314,.F.);
#286=ORIENTED_EDGE('',*,*,#378,.F.);
#287=ORIENTED_EDGE('',*,*,#403,.F.);
#288=ORIENTED_EDGE('',*,*,#339,.F.);
#289=ORIENTED_EDGE('',*,*,#400,.F.);
#290=ORIENTED_EDGE('',*,*,#389,.F.);
#291=ORIENTED_EDGE('',*,*,#320,.F.);
#292=ORIENTED_EDGE('',*,*,#344,.F.);
#293=ORIENTED_EDGE('',*,*,#402,.F.);
#294=ORIENTED_EDGE('',*,*,#384,.F.);
#295=ORIENTED_EDGE('',*,*,#316,.F.);
#296=ORIENTED_EDGE('',*,*,#340,.F.);
#297=ORIENTED_EDGE('',*,*,#318,.F.);
#298=ORIENTED_EDGE('',*,*,#383,.F.);
#299=ORIENTED_EDGE('',*,*,#401,.F.);
#300=ORIENTED_EDGE('',*,*,#349,.F.);
#301=ORIENTED_EDGE('',*,*,#404,.F.);
#302=ORIENTED_EDGE('',*,*,#379,.F.);
#303=ORIENTED_EDGE('',*,*,#312,.F.);
#304=ORIENTED_EDGE('',*,*,#335,.F.);
#305=ORIENTED_EDGE('',*,*,#322,.F.);
#306=ORIENTED_EDGE('',*,*,#388,.F.);
#307=ORIENTED_EDGE('',*,*,#399,.F.);
#308=EDGE_CURVE('',#407,#407,#482,.T.);
#309=EDGE_CURVE('',#408,#409,#483,.F.);
#310=EDGE_CURVE('',#409,#410,#30,.T.);
#311=EDGE_CURVE('',#411,#410,#484,.T.);
#312=EDGE_CURVE('',#411,#412,#31,.F.);
#313=EDGE_CURVE('',#412,#413,#485,.F.);
#314=EDGE_CURVE('',#413,#414,#32,.T.);
#315=EDGE_CURVE('',#415,#414,#486,.T.);
#316=EDGE_CURVE('',#415,#416,#33,.F.);
#317=EDGE_CURVE('',#416,#417,#487,.F.);
#318=EDGE_CURVE('',#417,#418,#34,.T.);
#319=EDGE_CURVE('',#419,#418,#488,.T.);
#320=EDGE_CURVE('',#419,#420,#35,.F.);
#321=EDGE_CURVE('',#420,#421,#489,.F.);
#322=EDGE_CURVE('',#421,#422,#36,.T.);
#323=EDGE_CURVE('',#423,#422,#490,.T.);
#324=EDGE_CURVE('',#423,#408,#37,.F.);
#325=EDGE_CURVE('',#424,#424,#491,.F.);
#326=EDGE_CURVE('',#425,#425,#492,.F.);
#327=EDGE_CURVE('',#426,#426,#493,.F.);
#328=EDGE_CURVE('',#427,#427,#494,.F.);
#329=EDGE_CURVE('',#428,#428,#495,.T.);
#330=EDGE_CURVE('',#410,#429,#496,.T.);
#331=EDGE_CURVE('',#430,#429,#38,.T.);
#332=EDGE_CURVE('',#430,#431,#497,.T.);
#333=EDGE_CURVE('',#431,#432,#39,.T.);
#334=EDGE_CURVE('',#432,#423,#498,.T.);
#335=EDGE_CURVE('',#422,#433,#499,.T.);
#336=EDGE_CURVE('',#434,#433,#40,.T.);
#337=EDGE_CURVE('',#434,#435,#500,.T.);
#338=EDGE_CURVE('',#435,#436,#41,.T.);
#339=EDGE_CURVE('',#436,#419,#501,.T.);
#340=EDGE_CURVE('',#418,#437,#502,.T.);
#341=EDGE_CURVE('',#438,#437,#42,.T.);
#342=EDGE_CURVE('',#438,#439,#503,.T.);
#343=EDGE_CURVE('',#439,#440,#43,.T.);
#344=EDGE_CURVE('',#440,#415,#504,.T.);
#345=EDGE_CURVE('',#414,#441,#505,.T.);
#346=EDGE_CURVE('',#442,#441,#44,.T.);
#347=EDGE_CURVE('',#442,#443,#506,.T.);
#348=EDGE_CURVE('',#443,#444,#45,.T.);
#349=EDGE_CURVE('',#444,#411,#507,.T.);
#350=EDGE_CURVE('',#445,#431,#46,.T.);
#351=EDGE_CURVE('',#446,#430,#47,.T.);
#352=EDGE_CURVE('',#446,#445,#508,.T.);
#353=EDGE_CURVE('',#447,#443,#48,.T.);
#354=EDGE_CURVE('',#448,#442,#49,.T.);
#355=EDGE_CURVE('',#448,#447,#509,.T.);
#356=EDGE_CURVE('',#449,#439,#50,.T.);
#357=EDGE_CURVE('',#450,#438,#51,.T.);
#358=EDGE_CURVE('',#450,#449,#510,.T.);
#359=EDGE_CURVE('',#451,#435,#52,.T.);
#360=EDGE_CURVE('',#452,#434,#53,.T.);
#361=EDGE_CURVE('',#452,#451,#511,.T.);
#362=EDGE_CURVE('',#453,#453,#512,.T.);
#363=EDGE_CURVE('',#454,#454,#513,.T.);
#364=EDGE_CURVE('',#455,#455,#514,.T.);
#365=EDGE_CURVE('',#456,#456,#515,.T.);
#366=EDGE_CURVE('',#457,#457,#516,.T.);
#367=EDGE_CURVE('',#458,#458,#517,.F.);
#368=EDGE_CURVE('',#459,#459,#518,.F.);
#369=EDGE_CURVE('',#460,#460,#519,.F.);
#370=EDGE_CURVE('',#461,#461,#520,.F.);
#371=EDGE_CURVE('',#462,#462,#521,.T.);
#372=EDGE_CURVE('',#463,#446,#54,.T.);
#373=EDGE_CURVE('',#463,#409,#522,.F.);
#374=EDGE_CURVE('',#408,#464,#523,.F.);
#375=EDGE_CURVE('',#464,#445,#55,.T.);
#376=EDGE_CURVE('',#465,#465,#524,.T.);
#377=EDGE_CURVE('',#466,#448,#56,.T.);
#378=EDGE_CURVE('',#466,#413,#525,.F.);
#379=EDGE_CURVE('',#412,#467,#526,.F.);
#380=EDGE_CURVE('',#467,#447,#57,.T.);
#381=EDGE_CURVE('',#468,#468,#527,.T.);
#382=EDGE_CURVE('',#469,#450,#58,.T.);
#383=EDGE_CURVE('',#469,#417,#528,.F.);
#384=EDGE_CURVE('',#416,#470,#529,.F.);
#385=EDGE_CURVE('',#470,#449,#59,.T.);
#386=EDGE_CURVE('',#471,#471,#530,.T.);
#387=EDGE_CURVE('',#472,#452,#60,.T.);
#388=EDGE_CURVE('',#472,#421,#531,.F.);
#389=EDGE_CURVE('',#420,#473,#532,.F.);
#390=EDGE_CURVE('',#473,#451,#61,.T.);
#391=EDGE_CURVE('',#474,#474,#533,.T.);
#392=EDGE_CURVE('',#475,#475,#534,.T.);
#393=EDGE_CURVE('',#476,#476,#535,.T.);
#394=EDGE_CURVE('',#477,#477,#536,.T.);
#395=EDGE_CURVE('',#478,#478,#537,.T.);
#396=EDGE_CURVE('',#479,#479,#538,.T.);
#397=EDGE_CURVE('',#480,#480,#539,.T.);
#398=EDGE_CURVE('',#481,#481,#540,.T.);
#399=EDGE_CURVE('',#433,#472,#62,.T.);
#400=EDGE_CURVE('',#473,#436,#63,.T.);
#401=EDGE_CURVE('',#437,#469,#64,.T.);
#402=EDGE_CURVE('',#470,#440,#65,.T.);
#403=EDGE_CURVE('',#441,#466,#66,.T.);
#404=EDGE_CURVE('',#467,#444,#67,.T.);
#405=EDGE_CURVE('',#429,#463,#68,.T.);
#406=EDGE_CURVE('',#464,#432,#69,.T.);
#407=VERTEX_POINT('',#1138);
#408=VERTEX_POINT('',#1140);
#409=VERTEX_POINT('',#1141);
#410=VERTEX_POINT('',#1143);
#411=VERTEX_POINT('',#1145);
#412=VERTEX_POINT('',#1147);
#413=VERTEX_POINT('',#1149);
#414=VERTEX_POINT('',#1151);
#415=VERTEX_POINT('',#1153);
#416=VERTEX_POINT('',#1155);
#417=VERTEX_POINT('',#1157);
#418=VERTEX_POINT('',#1159);
#419=VERTEX_POINT('',#1161);
#420=VERTEX_POINT('',#1163);
#421=VERTEX_POINT('',#1165);
#422=VERTEX_POINT('',#1167);
#423=VERTEX_POINT('',#1169);
#424=VERTEX_POINT('',#1173);
#425=VERTEX_POINT('',#1175);
#426=VERTEX_POINT('',#1177);
#427=VERTEX_POINT('',#1179);
#428=VERTEX_POINT('',#1181);
#429=VERTEX_POINT('',#1183);
#430=VERTEX_POINT('',#1185);
#431=VERTEX_POINT('',#1187);
#432=VERTEX_POINT('',#1189);
#433=VERTEX_POINT('',#1192);
#434=VERTEX_POINT('',#1194);
#435=VERTEX_POINT('',#1196);
#436=VERTEX_POINT('',#1198);
#437=VERTEX_POINT('',#1201);
#438=VERTEX_POINT('',#1203);
#439=VERTEX_POINT('',#1205);
#440=VERTEX_POINT('',#1207);
#441=VERTEX_POINT('',#1210);
#442=VERTEX_POINT('',#1212);
#443=VERTEX_POINT('',#1214);
#444=VERTEX_POINT('',#1216);
#445=VERTEX_POINT('',#1220);
#446=VERTEX_POINT('',#1222);
#447=VERTEX_POINT('',#1226);
#448=VERTEX_POINT('',#1228);
#449=VERTEX_POINT('',#1232);
#450=VERTEX_POINT('',#1234);
#451=VERTEX_POINT('',#1238);
#452=VERTEX_POINT('',#1240);
#453=VERTEX_POINT('',#1244);
#454=VERTEX_POINT('',#1247);
#455=VERTEX_POINT('',#1249);
#456=VERTEX_POINT('',#1251);
#457=VERTEX_POINT('',#1253);
#458=VERTEX_POINT('',#1255);
#459=VERTEX_POINT('',#1257);
#460=VERTEX_POINT('',#1259);
#461=VERTEX_POINT('',#1261);
#462=VERTEX_POINT('',#1264);
#463=VERTEX_POINT('',#1267);
#464=VERTEX_POINT('',#1270);
#465=VERTEX_POINT('',#1274);
#466=VERTEX_POINT('',#1277);
#467=VERTEX_POINT('',#1280);
#468=VERTEX_POINT('',#1284);
#469=VERTEX_POINT('',#1287);
#470=VERTEX_POINT('',#1290);
#471=VERTEX_POINT('',#1294);
#472=VERTEX_POINT('',#1297);
#473=VERTEX_POINT('',#1300);
#474=VERTEX_POINT('',#1304);
#475=VERTEX_POINT('',#1307);
#476=VERTEX_POINT('',#1311);
#477=VERTEX_POINT('',#1314);
#478=VERTEX_POINT('',#1318);
#479=VERTEX_POINT('',#1321);
#480=VERTEX_POINT('',#1325);
#481=VERTEX_POINT('',#1328);
#482=CIRCLE('',#785,0.0269);
#483=CIRCLE('',#786,0.0269);
#484=CIRCLE('',#787,0.0269);
#485=CIRCLE('',#788,0.0269);
#486=CIRCLE('',#789,0.0269);
#487=CIRCLE('',#790,0.0269);
#488=CIRCLE('',#791,0.0269);
#489=CIRCLE('',#792,0.0269);
#490=CIRCLE('',#793,0.0269);
#491=CIRCLE('',#795,0.0018);
#492=CIRCLE('',#796,0.0018);
#493=CIRCLE('',#797,0.0018);
#494=CIRCLE('',#798,0.0018);
#495=CIRCLE('',#799,0.0136440273455578);
#496=CIRCLE('',#800,0.002);
#497=CIRCLE('',#801,0.00325);
#498=CIRCLE('',#802,0.002);
#499=CIRCLE('',#803,0.002);
#500=CIRCLE('',#804,0.00325);
#501=CIRCLE('',#805,0.002);
#502=CIRCLE('',#806,0.002);
#503=CIRCLE('',#807,0.00325);
#504=CIRCLE('',#808,0.002);
#505=CIRCLE('',#809,0.002);
#506=CIRCLE('',#810,0.00325);
#507=CIRCLE('',#811,0.002);
#508=CIRCLE('',#813,0.00325);
#509=CIRCLE('',#815,0.00325);
#510=CIRCLE('',#817,0.00325);
#511=CIRCLE('',#819,0.00325);
#512=CIRCLE('',#821,0.0136440273455578);
#513=CIRCLE('',#823,0.00325);
#514=CIRCLE('',#824,0.00325);
#515=CIRCLE('',#825,0.00325);
#516=CIRCLE('',#826,0.00325);
#517=CIRCLE('',#827,0.0018);
#518=CIRCLE('',#828,0.0018);
#519=CIRCLE('',#829,0.0018);
#520=CIRCLE('',#830,0.0018);
#521=CIRCLE('',#832,0.0018);
#522=CIRCLE('',#834,0.002);
#523=CIRCLE('',#835,0.002);
#524=CIRCLE('',#837,0.0018);
#525=CIRCLE('',#839,0.002);
#526=CIRCLE('',#840,0.002);
#527=CIRCLE('',#842,0.0018);
#528=CIRCLE('',#844,0.002);
#529=CIRCLE('',#845,0.002);
#530=CIRCLE('',#847,0.0018);
#531=CIRCLE('',#849,0.002);
#532=CIRCLE('',#850,0.002);
#533=CIRCLE('',#852,0.0018);
#534=CIRCLE('',#854,0.00325);
#535=CIRCLE('',#857,0.0018);
#536=CIRCLE('',#859,0.00325);
#537=CIRCLE('',#862,0.0018);
#538=CIRCLE('',#864,0.00325);
#539=CIRCLE('',#867,0.0018);
#540=CIRCLE('',#869,0.00325);
#541=EDGE_LOOP('',(#110));
#542=EDGE_LOOP('',(#111,#112,#113,#114,#115,#116,#117,#118,#119,#120,#121,
#122,#123,#124,#125,#126));
#543=EDGE_LOOP('',(#127));
#544=EDGE_LOOP('',(#128));
#545=EDGE_LOOP('',(#129));
#546=EDGE_LOOP('',(#130));
#547=EDGE_LOOP('',(#131));
#548=EDGE_LOOP('',(#132,#133,#134,#135,#136,#137,#138,#139,#140,#141,#142,
#143,#144,#145,#146,#147,#148,#149,#150,#151,#152,#153,#154,#155));
#549=EDGE_LOOP('',(#156,#157,#158,#159));
#550=EDGE_LOOP('',(#160,#161,#162,#163));
#551=EDGE_LOOP('',(#164,#165,#166,#167));
#552=EDGE_LOOP('',(#168,#169,#170,#171));
#553=EDGE_LOOP('',(#172));
#554=EDGE_LOOP('',(#173));
#555=EDGE_LOOP('',(#174));
#556=EDGE_LOOP('',(#175));
#557=EDGE_LOOP('',(#176));
#558=EDGE_LOOP('',(#177));
#559=EDGE_LOOP('',(#178));
#560=EDGE_LOOP('',(#179));
#561=EDGE_LOOP('',(#180));
#562=EDGE_LOOP('',(#181));
#563=EDGE_LOOP('',(#182));
#564=EDGE_LOOP('',(#183));
#565=EDGE_LOOP('',(#184));
#566=EDGE_LOOP('',(#185));
#567=EDGE_LOOP('',(#186));
#568=EDGE_LOOP('',(#187,#188,#189,#190,#191,#192));
#569=EDGE_LOOP('',(#193));
#570=EDGE_LOOP('',(#194));
#571=EDGE_LOOP('',(#195));
#572=EDGE_LOOP('',(#196,#197,#198,#199,#200,#201));
#573=EDGE_LOOP('',(#202));
#574=EDGE_LOOP('',(#203));
#575=EDGE_LOOP('',(#204));
#576=EDGE_LOOP('',(#205,#206,#207,#208,#209,#210));
#577=EDGE_LOOP('',(#211));
#578=EDGE_LOOP('',(#212));
#579=EDGE_LOOP('',(#213));
#580=EDGE_LOOP('',(#214,#215,#216,#217,#218,#219));
#581=EDGE_LOOP('',(#220));
#582=EDGE_LOOP('',(#221));
#583=EDGE_LOOP('',(#222));
#584=EDGE_LOOP('',(#223));
#585=EDGE_LOOP('',(#224));
#586=EDGE_LOOP('',(#225));
#587=EDGE_LOOP('',(#226));
#588=EDGE_LOOP('',(#227));
#589=EDGE_LOOP('',(#228));
#590=EDGE_LOOP('',(#229));
#591=EDGE_LOOP('',(#230));
#592=EDGE_LOOP('',(#231));
#593=EDGE_LOOP('',(#232));
#594=EDGE_LOOP('',(#233));
#595=EDGE_LOOP('',(#234));
#596=EDGE_LOOP('',(#235));
#597=EDGE_LOOP('',(#236));
#598=EDGE_LOOP('',(#237));
#599=EDGE_LOOP('',(#238));
#600=EDGE_LOOP('',(#239));
#601=EDGE_LOOP('',(#240));
#602=EDGE_LOOP('',(#241));
#603=EDGE_LOOP('',(#242));
#604=EDGE_LOOP('',(#243));
#605=EDGE_LOOP('',(#244,#245,#246,#247));
#606=EDGE_LOOP('',(#248,#249,#250,#251));
#607=EDGE_LOOP('',(#252,#253,#254,#255));
#608=EDGE_LOOP('',(#256,#257,#258,#259));
#609=EDGE_LOOP('',(#260,#261,#262,#263));
#610=EDGE_LOOP('',(#264,#265,#266,#267));
#611=EDGE_LOOP('',(#268,#269,#270,#271));
#612=EDGE_LOOP('',(#272,#273,#274,#275));
#613=EDGE_LOOP('',(#276,#277,#278,#279));
#614=EDGE_LOOP('',(#280,#281,#282,#283));
#615=EDGE_LOOP('',(#284,#285,#286,#287));
#616=EDGE_LOOP('',(#288,#289,#290,#291));
#617=EDGE_LOOP('',(#292,#293,#294,#295));
#618=EDGE_LOOP('',(#296,#297,#298,#299));
#619=EDGE_LOOP('',(#300,#301,#302,#303));
#620=EDGE_LOOP('',(#304,#305,#306,#307));
#621=FACE_BOUND('',#541,.T.);
#622=FACE_BOUND('',#542,.T.);
#623=FACE_BOUND('',#543,.T.);
#624=FACE_BOUND('',#544,.T.);
#625=FACE_BOUND('',#545,.T.);
#626=FACE_BOUND('',#546,.T.);
#627=FACE_BOUND('',#547,.T.);
#628=FACE_BOUND('',#548,.T.);
#629=FACE_BOUND('',#549,.T.);
#630=FACE_BOUND('',#550,.T.);
#631=FACE_BOUND('',#551,.T.);
#632=FACE_BOUND('',#552,.T.);
#633=FACE_BOUND('',#553,.T.);
#634=FACE_BOUND('',#554,.T.);
#635=FACE_BOUND('',#555,.T.);
#636=FACE_BOUND('',#556,.T.);
#637=FACE_BOUND('',#557,.T.);
#638=FACE_BOUND('',#558,.T.);
#639=FACE_BOUND('',#559,.T.);
#640=FACE_BOUND('',#560,.T.);
#641=FACE_BOUND('',#561,.T.);
#642=FACE_BOUND('',#562,.T.);
#643=FACE_BOUND('',#563,.T.);
#644=FACE_BOUND('',#564,.T.);
#645=FACE_BOUND('',#565,.T.);
#646=FACE_BOUND('',#566,.T.);
#647=FACE_BOUND('',#567,.T.);
#648=FACE_BOUND('',#568,.T.);
#649=FACE_BOUND('',#569,.T.);
#650=FACE_BOUND('',#570,.T.);
#651=FACE_BOUND('',#571,.T.);
#652=FACE_BOUND('',#572,.T.);
#653=FACE_BOUND('',#573,.T.);
#654=FACE_BOUND('',#574,.T.);
#655=FACE_BOUND('',#575,.T.);
#656=FACE_BOUND('',#576,.T.);
#657=FACE_BOUND('',#577,.T.);
#658=FACE_BOUND('',#578,.T.);
#659=FACE_BOUND('',#579,.T.);
#660=FACE_BOUND('',#580,.T.);
#661=FACE_BOUND('',#581,.T.);
#662=FACE_BOUND('',#582,.T.);
#663=FACE_BOUND('',#583,.T.);
#664=FACE_BOUND('',#584,.T.);
#665=FACE_BOUND('',#585,.T.);
#666=FACE_BOUND('',#586,.T.);
#667=FACE_BOUND('',#587,.T.);
#668=FACE_BOUND('',#588,.T.);
#669=FACE_BOUND('',#589,.T.);
#670=FACE_BOUND('',#590,.T.);
#671=FACE_BOUND('',#591,.T.);
#672=FACE_BOUND('',#592,.T.);
#673=FACE_BOUND('',#593,.T.);
#674=FACE_BOUND('',#594,.T.);
#675=FACE_BOUND('',#595,.T.);
#676=FACE_BOUND('',#596,.T.);
#677=FACE_BOUND('',#597,.T.);
#678=FACE_BOUND('',#598,.T.);
#679=FACE_BOUND('',#599,.T.);
#680=FACE_BOUND('',#600,.T.);
#681=FACE_BOUND('',#601,.T.);
#682=FACE_BOUND('',#602,.T.);
#683=FACE_BOUND('',#603,.T.);
#684=FACE_BOUND('',#604,.T.);
#685=FACE_BOUND('',#605,.T.);
#686=FACE_BOUND('',#606,.T.);
#687=FACE_BOUND('',#607,.T.);
#688=FACE_BOUND('',#608,.T.);
#689=FACE_BOUND('',#609,.T.);
#690=FACE_BOUND('',#610,.T.);
#691=FACE_BOUND('',#611,.T.);
#692=FACE_BOUND('',#612,.T.);
#693=FACE_BOUND('',#613,.T.);
#694=FACE_BOUND('',#614,.T.);
#695=FACE_BOUND('',#615,.T.);
#696=FACE_BOUND('',#616,.T.);
#697=FACE_BOUND('',#617,.T.);
#698=FACE_BOUND('',#618,.T.);
#699=FACE_BOUND('',#619,.T.);
#700=FACE_BOUND('',#620,.T.);
#701=CYLINDRICAL_SURFACE('',#784,0.0269);
#702=CYLINDRICAL_SURFACE('',#812,0.00325);
#703=CYLINDRICAL_SURFACE('',#814,0.00325);
#704=CYLINDRICAL_SURFACE('',#816,0.00325);
#705=CYLINDRICAL_SURFACE('',#818,0.00325);
#706=CYLINDRICAL_SURFACE('',#820,0.0136440273455578);
#707=CYLINDRICAL_SURFACE('',#831,0.0018);
#708=CYLINDRICAL_SURFACE('',#836,0.0018);
#709=CYLINDRICAL_SURFACE('',#841,0.0018);
#710=CYLINDRICAL_SURFACE('',#846,0.0018);
#711=CYLINDRICAL_SURFACE('',#851,0.0018);
#712=CYLINDRICAL_SURFACE('',#855,0.00325);
#713=CYLINDRICAL_SURFACE('',#856,0.0018);
#714=CYLINDRICAL_SURFACE('',#860,0.00325);
#715=CYLINDRICAL_SURFACE('',#861,0.0018);
#716=CYLINDRICAL_SURFACE('',#865,0.00325);
#717=CYLINDRICAL_SURFACE('',#866,0.0018);
#718=CYLINDRICAL_SURFACE('',#870,0.00325);
#719=CYLINDRICAL_SURFACE('',#879,0.002);
#720=CYLINDRICAL_SURFACE('',#880,0.002);
#721=CYLINDRICAL_SURFACE('',#881,0.002);
#722=CYLINDRICAL_SURFACE('',#882,0.002);
#723=CYLINDRICAL_SURFACE('',#883,0.002);
#724=CYLINDRICAL_SURFACE('',#884,0.002);
#725=CYLINDRICAL_SURFACE('',#885,0.002);
#726=CYLINDRICAL_SURFACE('',#886,0.002);
#727=ADVANCED_FACE('',(#621,#622),#701,.T.);
#728=ADVANCED_FACE('',(#623,#624,#625,#626,#627,#628),#12,.T.);
#729=ADVANCED_FACE('',(#629),#702,.F.);
#730=ADVANCED_FACE('',(#630),#703,.F.);
#731=ADVANCED_FACE('',(#631),#704,.F.);
#732=ADVANCED_FACE('',(#632),#705,.F.);
#733=ADVANCED_FACE('',(#633,#634),#706,.F.);
#734=ADVANCED_FACE('',(#635,#636,#637,#638,#639,#640,#641,#642,#643,#644),
#13,.F.);
#735=ADVANCED_FACE('',(#645,#646),#707,.F.);
#736=ADVANCED_FACE('',(#647,#648),#14,.T.);
#737=ADVANCED_FACE('',(#649,#650),#708,.F.);
#738=ADVANCED_FACE('',(#651,#652),#15,.T.);
#739=ADVANCED_FACE('',(#653,#654),#709,.F.);
#740=ADVANCED_FACE('',(#655,#656),#16,.T.);
#741=ADVANCED_FACE('',(#657,#658),#710,.F.);
#742=ADVANCED_FACE('',(#659,#660),#17,.T.);
#743=ADVANCED_FACE('',(#661,#662),#711,.F.);
#744=ADVANCED_FACE('',(#663,#664),#18,.T.);
#745=ADVANCED_FACE('',(#665,#666),#712,.F.);
#746=ADVANCED_FACE('',(#667,#668),#713,.F.);
#747=ADVANCED_FACE('',(#669,#670),#19,.T.);
#748=ADVANCED_FACE('',(#671,#672),#714,.F.);
#749=ADVANCED_FACE('',(#673,#674),#715,.F.);
#750=ADVANCED_FACE('',(#675,#676),#20,.T.);
#751=ADVANCED_FACE('',(#677,#678),#716,.F.);
#752=ADVANCED_FACE('',(#679,#680),#717,.F.);
#753=ADVANCED_FACE('',(#681,#682),#21,.T.);
#754=ADVANCED_FACE('',(#683,#684),#718,.F.);
#755=ADVANCED_FACE('',(#685),#22,.F.);
#756=ADVANCED_FACE('',(#686),#23,.T.);
#757=ADVANCED_FACE('',(#687),#24,.F.);
#758=ADVANCED_FACE('',(#688),#25,.T.);
#759=ADVANCED_FACE('',(#689),#26,.F.);
#760=ADVANCED_FACE('',(#690),#27,.T.);
#761=ADVANCED_FACE('',(#691),#28,.F.);
#762=ADVANCED_FACE('',(#692),#29,.T.);
#763=ADVANCED_FACE('',(#693),#719,.T.);
#764=ADVANCED_FACE('',(#694),#720,.T.);
#765=ADVANCED_FACE('',(#695),#721,.T.);
#766=ADVANCED_FACE('',(#696),#722,.T.);
#767=ADVANCED_FACE('',(#697),#723,.T.);
#768=ADVANCED_FACE('',(#698),#724,.T.);
#769=ADVANCED_FACE('',(#699),#725,.T.);
#770=ADVANCED_FACE('',(#700),#726,.T.);
#771=CLOSED_SHELL('',(#727,#728,#729,#730,#731,#732,#733,#734,#735,#736,
#737,#738,#739,#740,#741,#742,#743,#744,#745,#746,#747,#748,#749,#750,#751,
#752,#753,#754,#755,#756,#757,#758,#759,#760,#761,#762,#763,#764,#765,#766,
#767,#768,#769,#770));
#772=STYLED_ITEM('',(#773),#780);
#773=PRESENTATION_STYLE_ASSIGNMENT((#774));
#774=SURFACE_STYLE_USAGE(.BOTH.,#775);
#775=SURFACE_SIDE_STYLE('',(#776));
#776=SURFACE_STYLE_FILL_AREA(#777);
#777=FILL_AREA_STYLE('',(#778));
#778=FILL_AREA_STYLE_COLOUR('',#779);
#779=COLOUR_RGB('',0.615686274509804,0.811764705882353,0.929411764705882);
#780=MANIFOLD_SOLID_BREP('SB INTERFACE',#771);
#781=SHAPE_DEFINITION_REPRESENTATION(#1360,#782);
#782=SHAPE_REPRESENTATION('SB INTERFACE',(#783),#1355);
#783=AXIS2_PLACEMENT_3D('',#1135,#887,#888);
#784=AXIS2_PLACEMENT_3D('',#1136,#889,#890);
#785=AXIS2_PLACEMENT_3D('',#1137,#891,#892);
#786=AXIS2_PLACEMENT_3D('',#1139,#893,#894);
#787=AXIS2_PLACEMENT_3D('',#1144,#896,#897);
#788=AXIS2_PLACEMENT_3D('',#1148,#899,#900);
#789=AXIS2_PLACEMENT_3D('',#1152,#902,#903);
#790=AXIS2_PLACEMENT_3D('',#1156,#905,#906);
#791=AXIS2_PLACEMENT_3D('',#1160,#908,#909);
#792=AXIS2_PLACEMENT_3D('',#1164,#911,#912);
#793=AXIS2_PLACEMENT_3D('',#1168,#914,#915);
#794=AXIS2_PLACEMENT_3D('',#1171,#917,#918);
#795=AXIS2_PLACEMENT_3D('',#1172,#919,#920);
#796=AXIS2_PLACEMENT_3D('',#1174,#921,#922);
#797=AXIS2_PLACEMENT_3D('',#1176,#923,#924);
#798=AXIS2_PLACEMENT_3D('',#1178,#925,#926);
#799=AXIS2_PLACEMENT_3D('',#1180,#927,#928);
#800=AXIS2_PLACEMENT_3D('',#1182,#929,#930);
#801=AXIS2_PLACEMENT_3D('',#1186,#932,#933);
#802=AXIS2_PLACEMENT_3D('',#1190,#935,#936);
#803=AXIS2_PLACEMENT_3D('',#1191,#937,#938);
#804=AXIS2_PLACEMENT_3D('',#1195,#940,#941);
#805=AXIS2_PLACEMENT_3D('',#1199,#943,#944);
#806=AXIS2_PLACEMENT_3D('',#1200,#945,#946);
#807=AXIS2_PLACEMENT_3D('',#1204,#948,#949);
#808=AXIS2_PLACEMENT_3D('',#1208,#951,#952);
#809=AXIS2_PLACEMENT_3D('',#1209,#953,#954);
#810=AXIS2_PLACEMENT_3D('',#1213,#956,#957);
#811=AXIS2_PLACEMENT_3D('',#1217,#959,#960);
#812=AXIS2_PLACEMENT_3D('',#1218,#961,#962);
#813=AXIS2_PLACEMENT_3D('',#1223,#965,#966);
#814=AXIS2_PLACEMENT_3D('',#1224,#967,#968);
#815=AXIS2_PLACEMENT_3D('',#1229,#971,#972);
#816=AXIS2_PLACEMENT_3D('',#1230,#973,#974);
#817=AXIS2_PLACEMENT_3D('',#1235,#977,#978);
#818=AXIS2_PLACEMENT_3D('',#1236,#979,#980);
#819=AXIS2_PLACEMENT_3D('',#1241,#983,#984);
#820=AXIS2_PLACEMENT_3D('',#1242,#985,#986);
#821=AXIS2_PLACEMENT_3D('',#1243,#987,#988);
#822=AXIS2_PLACEMENT_3D('',#1245,#989,#990);
#823=AXIS2_PLACEMENT_3D('',#1246,#991,#992);
#824=AXIS2_PLACEMENT_3D('',#1248,#993,#994);
#825=AXIS2_PLACEMENT_3D('',#1250,#995,#996);
#826=AXIS2_PLACEMENT_3D('',#1252,#997,#998);
#827=AXIS2_PLACEMENT_3D('',#1254,#999,#1000);
#828=AXIS2_PLACEMENT_3D('',#1256,#1001,#1002);
#829=AXIS2_PLACEMENT_3D('',#1258,#1003,#1004);
#830=AXIS2_PLACEMENT_3D('',#1260,#1005,#1006);
#831=AXIS2_PLACEMENT_3D('',#1262,#1007,#1008);
#832=AXIS2_PLACEMENT_3D('',#1263,#1009,#1010);
#833=AXIS2_PLACEMENT_3D('',#1265,#1011,#1012);
#834=AXIS2_PLACEMENT_3D('',#1268,#1014,#1015);
#835=AXIS2_PLACEMENT_3D('',#1269,#1016,#1017);
#836=AXIS2_PLACEMENT_3D('',#1272,#1019,#1020);
#837=AXIS2_PLACEMENT_3D('',#1273,#1021,#1022);
#838=AXIS2_PLACEMENT_3D('',#1275,#1023,#1024);
#839=AXIS2_PLACEMENT_3D('',#1278,#1026,#1027);
#840=AXIS2_PLACEMENT_3D('',#1279,#1028,#1029);
#841=AXIS2_PLACEMENT_3D('',#1282,#1031,#1032);
#842=AXIS2_PLACEMENT_3D('',#1283,#1033,#1034);
#843=AXIS2_PLACEMENT_3D('',#1285,#1035,#1036);
#844=AXIS2_PLACEMENT_3D('',#1288,#1038,#1039);
#845=AXIS2_PLACEMENT_3D('',#1289,#1040,#1041);
#846=AXIS2_PLACEMENT_3D('',#1292,#1043,#1044);
#847=AXIS2_PLACEMENT_3D('',#1293,#1045,#1046);
#848=AXIS2_PLACEMENT_3D('',#1295,#1047,#1048);
#849=AXIS2_PLACEMENT_3D('',#1298,#1050,#1051);
#850=AXIS2_PLACEMENT_3D('',#1299,#1052,#1053);
#851=AXIS2_PLACEMENT_3D('',#1302,#1055,#1056);
#852=AXIS2_PLACEMENT_3D('',#1303,#1057,#1058);
#853=AXIS2_PLACEMENT_3D('',#1305,#1059,#1060);
#854=AXIS2_PLACEMENT_3D('',#1306,#1061,#1062);
#855=AXIS2_PLACEMENT_3D('',#1308,#1063,#1064);
#856=AXIS2_PLACEMENT_3D('',#1309,#1065,#1066);
#857=AXIS2_PLACEMENT_3D('',#1310,#1067,#1068);
#858=AXIS2_PLACEMENT_3D('',#1312,#1069,#1070);
#859=AXIS2_PLACEMENT_3D('',#1313,#1071,#1072);
#860=AXIS2_PLACEMENT_3D('',#1315,#1073,#1074);
#861=AXIS2_PLACEMENT_3D('',#1316,#1075,#1076);
#862=AXIS2_PLACEMENT_3D('',#1317,#1077,#1078);
#863=AXIS2_PLACEMENT_3D('',#1319,#1079,#1080);
#864=AXIS2_PLACEMENT_3D('',#1320,#1081,#1082);
#865=AXIS2_PLACEMENT_3D('',#1322,#1083,#1084);
#866=AXIS2_PLACEMENT_3D('',#1323,#1085,#1086);
#867=AXIS2_PLACEMENT_3D('',#1324,#1087,#1088);
#868=AXIS2_PLACEMENT_3D('',#1326,#1089,#1090);
#869=AXIS2_PLACEMENT_3D('',#1327,#1091,#1092);
#870=AXIS2_PLACEMENT_3D('',#1329,#1093,#1094);
#871=AXIS2_PLACEMENT_3D('',#1330,#1095,#1096);
#872=AXIS2_PLACEMENT_3D('',#1332,#1098,#1099);
#873=AXIS2_PLACEMENT_3D('',#1334,#1101,#1102);
#874=AXIS2_PLACEMENT_3D('',#1336,#1104,#1105);
#875=AXIS2_PLACEMENT_3D('',#1338,#1107,#1108);
#876=AXIS2_PLACEMENT_3D('',#1340,#1110,#1111);
#877=AXIS2_PLACEMENT_3D('',#1342,#1113,#1114);
#878=AXIS2_PLACEMENT_3D('',#1344,#1116,#1117);
#879=AXIS2_PLACEMENT_3D('',#1346,#1119,#1120);
#880=AXIS2_PLACEMENT_3D('',#1347,#1121,#1122);
#881=AXIS2_PLACEMENT_3D('',#1348,#1123,#1124);
#882=AXIS2_PLACEMENT_3D('',#1349,#1125,#1126);
#883=AXIS2_PLACEMENT_3D('',#1350,#1127,#1128);
#884=AXIS2_PLACEMENT_3D('',#1351,#1129,#1130);
#885=AXIS2_PLACEMENT_3D('',#1352,#1131,#1132);
#886=AXIS2_PLACEMENT_3D('',#1353,#1133,#1134);
#887=DIRECTION('',(0.,0.,1.));
#888=DIRECTION('',(1.,0.,0.));
#889=DIRECTION('',(0.,0.,-1.));
#890=DIRECTION('',(-1.,0.,0.));
#891=DIRECTION('',(0.,0.,-1.));
#892=DIRECTION('',(-1.,0.,0.));
#893=DIRECTION('',(0.,0.,-1.));
#894=DIRECTION('',(-1.,0.,0.));
#895=DIRECTION('',(0.,0.,-1.));
#896=DIRECTION('',(0.,0.,-1.));
#897=DIRECTION('',(-1.,0.,0.));
#898=DIRECTION('',(0.,0.,-1.));
#899=DIRECTION('',(0.,0.,-1.));
#900=DIRECTION('',(-1.,0.,0.));
#901=DIRECTION('',(0.,0.,-1.));
#902=DIRECTION('',(0.,0.,-1.));
#903=DIRECTION('',(-1.,0.,0.));
#904=DIRECTION('',(0.,0.,-1.));
#905=DIRECTION('',(0.,0.,-1.));
#906=DIRECTION('',(-1.,0.,0.));
#907=DIRECTION('',(0.,0.,-1.));
#908=DIRECTION('',(0.,0.,-1.));
#909=DIRECTION('',(-1.,0.,0.));
#910=DIRECTION('',(0.,0.,-1.));
#911=DIRECTION('',(0.,0.,-1.));
#912=DIRECTION('',(-1.,0.,0.));
#913=DIRECTION('',(0.,0.,-1.));
#914=DIRECTION('',(0.,0.,-1.));
#915=DIRECTION('',(-1.,0.,0.));
#916=DIRECTION('',(0.,0.,-1.));
#917=DIRECTION('',(0.,0.,-1.));
#918=DIRECTION('',(-1.,0.,0.));
#919=DIRECTION('',(0.,0.,-1.));
#920=DIRECTION('',(-1.,0.,0.));
#921=DIRECTION('',(0.,0.,-1.));
#922=DIRECTION('',(-1.,0.,0.));
#923=DIRECTION('',(0.,0.,-1.));
#924=DIRECTION('',(-1.,0.,0.));
#925=DIRECTION('',(0.,0.,-1.));
#926=DIRECTION('',(-1.,0.,0.));
#927=DIRECTION('',(0.,0.,-1.));
#928=DIRECTION('',(-1.,0.,0.));
#929=DIRECTION('',(0.,0.,-1.));
#930=DIRECTION('',(-1.,0.,0.));
#931=DIRECTION('',(8.67361737988404E-17,-1.,0.));
#932=DIRECTION('',(0.,0.,1.));
#933=DIRECTION('',(1.,0.,0.));
#934=DIRECTION('',(8.67361737988404E-17,-1.,0.));
#935=DIRECTION('',(0.,0.,-1.));
#936=DIRECTION('',(-1.,0.,0.));
#937=DIRECTION('',(0.,0.,-1.));
#938=DIRECTION('',(-1.,0.,0.));
#939=DIRECTION('',(-1.,-1.3010426069826E-16,0.));
#940=DIRECTION('',(0.,0.,1.));
#941=DIRECTION('',(1.,0.,0.));
#942=DIRECTION('',(-1.,-1.3010426069826E-16,0.));
#943=DIRECTION('',(0.,0.,-1.));
#944=DIRECTION('',(-1.,0.,0.));
#945=DIRECTION('',(0.,0.,-1.));
#946=DIRECTION('',(-1.,0.,0.));
#947=DIRECTION('',(-1.7347234759768E-16,1.,0.));
#948=DIRECTION('',(0.,0.,1.));
#949=DIRECTION('',(1.,0.,0.));
#950=DIRECTION('',(-1.7347234759768E-16,1.,0.));
#951=DIRECTION('',(0.,0.,-1.));
#952=DIRECTION('',(-1.,0.,0.));
#953=DIRECTION('',(0.,0.,-1.));
#954=DIRECTION('',(-1.,0.,0.));
#955=DIRECTION('',(1.,0.,0.));
#956=DIRECTION('',(0.,0.,1.));
#957=DIRECTION('',(1.,0.,0.));
#958=DIRECTION('',(1.,0.,0.));
#959=DIRECTION('',(0.,0.,-1.));
#960=DIRECTION('',(-1.,0.,0.));
#961=DIRECTION('',(0.,0.,1.));
#962=DIRECTION('',(1.,0.,0.));
#963=DIRECTION('',(0.,0.,-1.));
#964=DIRECTION('',(0.,0.,-1.));
#965=DIRECTION('',(0.,0.,1.));
#966=DIRECTION('',(1.,0.,0.));
#967=DIRECTION('',(0.,0.,1.));
#968=DIRECTION('',(1.,0.,0.));
#969=DIRECTION('',(0.,0.,-1.));
#970=DIRECTION('',(0.,0.,-1.));
#971=DIRECTION('',(0.,0.,1.));
#972=DIRECTION('',(1.,0.,0.));
#973=DIRECTION('',(0.,0.,1.));
#974=DIRECTION('',(1.,0.,0.));
#975=DIRECTION('',(0.,0.,-1.));
#976=DIRECTION('',(0.,0.,-1.));
#977=DIRECTION('',(0.,0.,1.));
#978=DIRECTION('',(1.,0.,0.));
#979=DIRECTION('',(0.,0.,1.));
#980=DIRECTION('',(1.,0.,0.));
#981=DIRECTION('',(0.,0.,-1.));
#982=DIRECTION('',(0.,0.,-1.));
#983=DIRECTION('',(0.,0.,1.));
#984=DIRECTION('',(1.,0.,0.));
#985=DIRECTION('',(0.,0.,-1.));
#986=DIRECTION('',(-1.,0.,0.));
#987=DIRECTION('',(0.,0.,-1.));
#988=DIRECTION('',(-1.,0.,0.));
#989=DIRECTION('',(0.,0.,-1.));
#990=DIRECTION('',(-1.,0.,0.));
#991=DIRECTION('',(0.,0.,-1.));
#992=DIRECTION('',(-1.,0.,0.));
#993=DIRECTION('',(0.,0.,-1.));
#994=DIRECTION('',(-1.,0.,0.));
#995=DIRECTION('',(0.,0.,-1.));
#996=DIRECTION('',(-1.,0.,0.));
#997=DIRECTION('',(0.,0.,-1.));
#998=DIRECTION('',(-1.,0.,0.));
#999=DIRECTION('',(0.,0.,-1.));
#1000=DIRECTION('',(-1.,0.,0.));
#1001=DIRECTION('',(0.,0.,-1.));
#1002=DIRECTION('',(-1.,0.,0.));
#1003=DIRECTION('',(0.,0.,-1.));
#1004=DIRECTION('',(-1.,0.,0.));
#1005=DIRECTION('',(0.,0.,-1.));
#1006=DIRECTION('',(-1.,0.,0.));
#1007=DIRECTION('',(0.,0.,1.));
#1008=DIRECTION('',(1.,0.,0.));
#1009=DIRECTION('',(0.,0.,1.));
#1010=DIRECTION('',(1.,0.,0.));
#1011=DIRECTION('',(0.,0.,-1.));
#1012=DIRECTION('',(-1.,0.,0.));
#1013=DIRECTION('',(-8.67361737988404E-17,1.,0.));
#1014=DIRECTION('',(0.,0.,-1.));
#1015=DIRECTION('',(-1.,0.,0.));
#1016=DIRECTION('',(0.,0.,-1.));
#1017=DIRECTION('',(-1.,0.,0.));
#1018=DIRECTION('',(-8.67361737988404E-17,1.,0.));
#1019=DIRECTION('',(0.,0.,1.));
#1020=DIRECTION('',(1.,0.,0.));
#1021=DIRECTION('',(0.,0.,1.));
#1022=DIRECTION('',(1.,0.,0.));
#1023=DIRECTION('',(0.,0.,-1.));
#1024=DIRECTION('',(-1.,0.,0.));
#1025=DIRECTION('',(-1.,0.,0.));
#1026=DIRECTION('',(0.,0.,-1.));
#1027=DIRECTION('',(-1.,0.,0.));
#1028=DIRECTION('',(0.,0.,-1.));
#1029=DIRECTION('',(-1.,0.,0.));
#1030=DIRECTION('',(-1.,0.,0.));
#1031=DIRECTION('',(0.,0.,1.));
#1032=DIRECTION('',(1.,0.,0.));
#1033=DIRECTION('',(0.,0.,1.));
#1034=DIRECTION('',(1.,0.,0.));
#1035=DIRECTION('',(0.,0.,-1.));
#1036=DIRECTION('',(-1.,0.,0.));
#1037=DIRECTION('',(1.7347234759768E-16,-1.,0.));
#1038=DIRECTION('',(0.,0.,-1.));
#1039=DIRECTION('',(-1.,0.,0.));
#1040=DIRECTION('',(0.,0.,-1.));
#1041=DIRECTION('',(-1.,0.,0.));
#1042=DIRECTION('',(1.7347234759768E-16,-1.,0.));
#1043=DIRECTION('',(0.,0.,1.));
#1044=DIRECTION('',(1.,0.,0.));
#1045=DIRECTION('',(0.,0.,1.));
#1046=DIRECTION('',(1.,0.,0.));
#1047=DIRECTION('',(0.,0.,-1.));
#1048=DIRECTION('',(-1.,0.,0.));
#1049=DIRECTION('',(1.,1.3010426069826E-16,0.));
#1050=DIRECTION('',(0.,0.,-1.));
#1051=DIRECTION('',(-1.,0.,0.));
#1052=DIRECTION('',(0.,0.,-1.));
#1053=DIRECTION('',(-1.,0.,0.));
#1054=DIRECTION('',(1.,1.3010426069826E-16,0.));
#1055=DIRECTION('',(0.,0.,-1.));
#1056=DIRECTION('',(-1.,0.,0.));
#1057=DIRECTION('',(0.,0.,-1.));
#1058=DIRECTION('',(-1.,0.,0.));
#1059=DIRECTION('',(0.,0.,1.));
#1060=DIRECTION('',(1.,0.,0.));
#1061=DIRECTION('',(0.,0.,-1.));
#1062=DIRECTION('',(-1.,0.,0.));
#1063=DIRECTION('',(0.,0.,-1.));
#1064=DIRECTION('',(-1.,0.,0.));
#1065=DIRECTION('',(0.,0.,-1.));
#1066=DIRECTION('',(-1.,0.,0.));
#1067=DIRECTION('',(0.,0.,-1.));
#1068=DIRECTION('',(-1.,0.,0.));
#1069=DIRECTION('',(0.,0.,1.));
#1070=DIRECTION('',(1.,0.,0.));
#1071=DIRECTION('',(0.,0.,-1.));
#1072=DIRECTION('',(-1.,0.,0.));
#1073=DIRECTION('',(0.,0.,-1.));
#1074=DIRECTION('',(-1.,0.,0.));
#1075=DIRECTION('',(0.,0.,-1.));
#1076=DIRECTION('',(-1.,0.,0.));
#1077=DIRECTION('',(0.,0.,-1.));
#1078=DIRECTION('',(-1.,0.,0.));
#1079=DIRECTION('',(0.,0.,1.));
#1080=DIRECTION('',(1.,0.,0.));
#1081=DIRECTION('',(0.,0.,-1.));
#1082=DIRECTION('',(-1.,0.,0.));
#1083=DIRECTION('',(0.,0.,-1.));
#1084=DIRECTION('',(-1.,0.,0.));
#1085=DIRECTION('',(0.,0.,-1.));
#1086=DIRECTION('',(-1.,0.,0.));
#1087=DIRECTION('',(0.,0.,-1.));
#1088=DIRECTION('',(-1.,0.,0.));
#1089=DIRECTION('',(0.,0.,1.));
#1090=DIRECTION('',(1.,0.,0.));
#1091=DIRECTION('',(0.,0.,-1.));
#1092=DIRECTION('',(-1.,0.,0.));
#1093=DIRECTION('',(0.,0.,-1.));
#1094=DIRECTION('',(-1.,0.,0.));
#1095=DIRECTION('',(1.3010426069826E-16,-1.,0.));
#1096=DIRECTION('',(1.,1.3010426069826E-16,0.));
#1097=DIRECTION('',(0.,0.,1.));
#1098=DIRECTION('',(1.3010426069826E-16,-1.,0.));
#1099=DIRECTION('',(1.,1.3010426069826E-16,0.));
#1100=DIRECTION('',(0.,0.,-1.));
#1101=DIRECTION('',(-1.,-1.7347234759768E-16,0.));
#1102=DIRECTION('',(1.7347234759768E-16,-1.,0.));
#1103=DIRECTION('',(0.,0.,1.));
#1104=DIRECTION('',(-1.,-1.7347234759768E-16,0.));
#1105=DIRECTION('',(1.7347234759768E-16,-1.,0.));
#1106=DIRECTION('',(0.,0.,-1.));
#1107=DIRECTION('',(0.,1.,0.));
#1108=DIRECTION('',(0.,0.,1.));
#1109=DIRECTION('',(0.,0.,1.));
#1110=DIRECTION('',(0.,1.,0.));
#1111=DIRECTION('',(0.,0.,1.));
#1112=DIRECTION('',(0.,0.,-1.));
#1113=DIRECTION('',(1.,8.67361737988404E-17,0.));
#1114=DIRECTION('',(-8.67361737988404E-17,1.,0.));
#1115=DIRECTION('',(0.,0.,1.));
#1116=DIRECTION('',(1.,8.67361737988404E-17,0.));
#1117=DIRECTION('',(-8.67361737988404E-17,1.,0.));
#1118=DIRECTION('',(0.,0.,-1.));
#1119=DIRECTION('',(0.,0.,-1.));
#1120=DIRECTION('',(-1.,0.,0.));
#1121=DIRECTION('',(0.,0.,-1.));
#1122=DIRECTION('',(-1.,0.,0.));
#1123=DIRECTION('',(0.,0.,-1.));
#1124=DIRECTION('',(-1.,0.,0.));
#1125=DIRECTION('',(0.,0.,-1.));
#1126=DIRECTION('',(-1.,0.,0.));
#1127=DIRECTION('',(0.,0.,-1.));
#1128=DIRECTION('',(-1.,0.,0.));
#1129=DIRECTION('',(0.,0.,-1.));
#1130=DIRECTION('',(-1.,0.,0.));
#1131=DIRECTION('',(0.,0.,-1.));
#1132=DIRECTION('',(-1.,0.,0.));
#1133=DIRECTION('',(0.,0.,-1.));
#1134=DIRECTION('',(-1.,0.,0.));
#1135=CARTESIAN_POINT('',(0.,0.,0.));
#1136=CARTESIAN_POINT('',(0.,0.,0.0214));
#1137=CARTESIAN_POINT('',(0.,0.,0.));
#1138=CARTESIAN_POINT('',(-0.0269,0.,0.));
#1139=CARTESIAN_POINT('',(0.,0.,-0.003));
#1140=CARTESIAN_POINT('',(-0.00567168674698795,-0.0262952841673947,-0.003));
#1141=CARTESIAN_POINT('',(0.00567168674698796,-0.0262952841673947,-0.003));
#1142=CARTESIAN_POINT('',(0.00567168674698796,-0.0262952841673947,0.0214));
#1143=CARTESIAN_POINT('',(0.00567168674698796,-0.0262952841673947,-0.005));
#1144=CARTESIAN_POINT('',(0.,0.,-0.005));
#1145=CARTESIAN_POINT('',(0.0262952841673947,-0.00567168674698795,-0.005));
#1146=CARTESIAN_POINT('',(0.0262952841673947,-0.00567168674698795,0.0214));
#1147=CARTESIAN_POINT('',(0.0262952841673947,-0.00567168674698795,-0.003));
#1148=CARTESIAN_POINT('',(0.,0.,-0.003));
#1149=CARTESIAN_POINT('',(0.0262952841673947,0.00567168674698796,-0.003));
#1150=CARTESIAN_POINT('',(0.0262952841673947,0.00567168674698796,0.0214));
#1151=CARTESIAN_POINT('',(0.0262952841673947,0.00567168674698796,-0.005));
#1152=CARTESIAN_POINT('',(0.,0.,-0.005));
#1153=CARTESIAN_POINT('',(0.00567168674698794,0.0262952841673947,-0.005));
#1154=CARTESIAN_POINT('',(0.00567168674698794,0.0262952841673947,0.0214));
#1155=CARTESIAN_POINT('',(0.00567168674698794,0.0262952841673947,-0.003));
#1156=CARTESIAN_POINT('',(0.,0.,-0.003));
#1157=CARTESIAN_POINT('',(-0.00567168674698796,0.0262952841673947,-0.003));
#1158=CARTESIAN_POINT('',(-0.00567168674698796,0.0262952841673947,0.0214));
#1159=CARTESIAN_POINT('',(-0.00567168674698796,0.0262952841673947,-0.005));
#1160=CARTESIAN_POINT('',(0.,0.,-0.005));
#1161=CARTESIAN_POINT('',(-0.0262952841673947,0.00567168674698794,-0.005));
#1162=CARTESIAN_POINT('',(-0.0262952841673947,0.00567168674698794,0.0214));
#1163=CARTESIAN_POINT('',(-0.0262952841673947,0.00567168674698794,-0.003));
#1164=CARTESIAN_POINT('',(0.,0.,-0.003));
#1165=CARTESIAN_POINT('',(-0.0262952841673947,-0.00567168674698796,-0.003));
#1166=CARTESIAN_POINT('',(-0.0262952841673947,-0.00567168674698796,0.0214));
#1167=CARTESIAN_POINT('',(-0.0262952841673947,-0.00567168674698796,-0.005));
#1168=CARTESIAN_POINT('',(0.,0.,-0.005));
#1169=CARTESIAN_POINT('',(-0.00567168674698795,-0.0262952841673947,-0.005));
#1170=CARTESIAN_POINT('',(-0.00567168674698795,-0.0262952841673947,0.0214));
#1171=CARTESIAN_POINT('',(0.0202720136727789,0.,-0.005));
#1172=CARTESIAN_POINT('',(0.0155,0.0155,-0.005));
#1173=CARTESIAN_POINT('',(0.0137,0.0155,-0.005));
#1174=CARTESIAN_POINT('',(-0.0155,-0.0155,-0.005));
#1175=CARTESIAN_POINT('',(-0.0173,-0.0155,-0.005));
#1176=CARTESIAN_POINT('',(0.0155,-0.0155,-0.005));
#1177=CARTESIAN_POINT('',(0.0137,-0.0155,-0.005));
#1178=CARTESIAN_POINT('',(-0.0155,0.0155,-0.005));
#1179=CARTESIAN_POINT('',(-0.0173,0.0155,-0.005));
#1180=CARTESIAN_POINT('',(0.,0.,-0.005));
#1181=CARTESIAN_POINT('',(-0.0136440273455578,0.,-0.005));
#1182=CARTESIAN_POINT('',(0.00525,-0.0243402444523468,-0.005));
#1183=CARTESIAN_POINT('',(0.00325,-0.0243402444523468,-0.005));
#1184=CARTESIAN_POINT('',(0.00325,-0.029,-0.005));
#1185=CARTESIAN_POINT('',(0.00325,-0.024,-0.005));
#1186=CARTESIAN_POINT('',(3.46944695195361E-18,-0.024,-0.005));
#1187=CARTESIAN_POINT('',(-0.00325,-0.024,-0.005));
#1188=CARTESIAN_POINT('',(-0.00325,-0.029,-0.005));
#1189=CARTESIAN_POINT('',(-0.00325,-0.0243402444523468,-0.005));
#1190=CARTESIAN_POINT('',(-0.00525,-0.0243402444523468,-0.005));
#1191=CARTESIAN_POINT('',(-0.0243402444523468,-0.00525,-0.005));
#1192=CARTESIAN_POINT('',(-0.0243402444523468,-0.00325,-0.005));
#1193=CARTESIAN_POINT('',(-0.029,-0.00325,-0.005));
#1194=CARTESIAN_POINT('',(-0.024,-0.00325,-0.005));
#1195=CARTESIAN_POINT('',(-0.024,0.,-0.005));
#1196=CARTESIAN_POINT('',(-0.024,0.00325,-0.005));
#1197=CARTESIAN_POINT('',(-0.029,0.00325,-0.005));
#1198=CARTESIAN_POINT('',(-0.0243402444523468,0.00325,-0.005));
#1199=CARTESIAN_POINT('',(-0.0243402444523468,0.00525,-0.005));
#1200=CARTESIAN_POINT('',(-0.00525,0.0243402444523468,-0.005));
#1201=CARTESIAN_POINT('',(-0.00325,0.0243402444523468,-0.005));
#1202=CARTESIAN_POINT('',(-0.00325,0.029,-0.005));
#1203=CARTESIAN_POINT('',(-0.00325,0.024,-0.005));
#1204=CARTESIAN_POINT('',(0.,0.024,-0.005));
#1205=CARTESIAN_POINT('',(0.00325,0.024,-0.005));
#1206=CARTESIAN_POINT('',(0.00325,0.029,-0.005));
#1207=CARTESIAN_POINT('',(0.00325,0.0243402444523468,-0.005));
#1208=CARTESIAN_POINT('',(0.00525,0.0243402444523468,-0.005));
#1209=CARTESIAN_POINT('',(0.0243402444523468,0.00525,-0.005));
#1210=CARTESIAN_POINT('',(0.0243402444523468,0.00325,-0.005));
#1211=CARTESIAN_POINT('',(0.029,0.00325,-0.005));
#1212=CARTESIAN_POINT('',(0.024,0.00325,-0.005));
#1213=CARTESIAN_POINT('',(0.024,2.93915231795365E-18,-0.005));
#1214=CARTESIAN_POINT('',(0.024,-0.00325,-0.005));
#1215=CARTESIAN_POINT('',(0.029,-0.00325,-0.005));
#1216=CARTESIAN_POINT('',(0.0243402444523468,-0.00325,-0.005));
#1217=CARTESIAN_POINT('',(0.0243402444523468,-0.00525,-0.005));
#1218=CARTESIAN_POINT('',(3.46944695195361E-18,-0.024,-0.005));
#1219=CARTESIAN_POINT('',(-0.00325,-0.024,-0.002998));
#1220=CARTESIAN_POINT('',(-0.00325,-0.024,-0.003));
#1221=CARTESIAN_POINT('',(0.00325,-0.024,-0.002998));
#1222=CARTESIAN_POINT('',(0.00325,-0.024,-0.003));
#1223=CARTESIAN_POINT('',(3.46944695195361E-18,-0.024,-0.003));
#1224=CARTESIAN_POINT('',(0.024,2.93915231795365E-18,-0.005));
#1225=CARTESIAN_POINT('',(0.024,-0.00325,-0.002998));
#1226=CARTESIAN_POINT('',(0.024,-0.00325,-0.003));
#1227=CARTESIAN_POINT('',(0.024,0.00325,-0.002998));
#1228=CARTESIAN_POINT('',(0.024,0.00325,-0.003));
#1229=CARTESIAN_POINT('',(0.024,2.93915231795365E-18,-0.003));
#1230=CARTESIAN_POINT('',(0.,0.024,-0.005));
#1231=CARTESIAN_POINT('',(0.00325,0.024,-0.002998));
#1232=CARTESIAN_POINT('',(0.00325,0.024,-0.003));
#1233=CARTESIAN_POINT('',(-0.00325,0.024,-0.002998));
#1234=CARTESIAN_POINT('',(-0.00325,0.024,-0.003));
#1235=CARTESIAN_POINT('',(0.,0.024,-0.003));
#1236=CARTESIAN_POINT('',(-0.024,0.,-0.005));
#1237=CARTESIAN_POINT('',(-0.024,0.00325,-0.002998));
#1238=CARTESIAN_POINT('',(-0.024,0.00325,-0.003));
#1239=CARTESIAN_POINT('',(-0.024,-0.00325,-0.002998));
#1240=CARTESIAN_POINT('',(-0.024,-0.00325,-0.003));
#1241=CARTESIAN_POINT('',(-0.024,0.,-0.003));
#1242=CARTESIAN_POINT('',(0.,0.,0.0214));
#1243=CARTESIAN_POINT('',(0.,0.,0.));
#1244=CARTESIAN_POINT('',(-0.0136440273455578,0.,0.));
#1245=CARTESIAN_POINT('',(0.0202720136727789,0.,5.62006008951902E-19));
#1246=CARTESIAN_POINT('',(0.0155,0.0155,5.62006008951902E-19));
#1247=CARTESIAN_POINT('',(0.01225,0.0155,5.62006008951902E-19));
#1248=CARTESIAN_POINT('',(-0.0155,-0.0155,5.62006008951902E-19));
#1249=CARTESIAN_POINT('',(-0.01875,-0.0155,5.62006008951902E-19));
#1250=CARTESIAN_POINT('',(0.0155,-0.0155,5.62006008951902E-19));
#1251=CARTESIAN_POINT('',(0.01225,-0.0155,5.62006008951902E-19));
#1252=CARTESIAN_POINT('',(-0.0155,0.0155,5.62006008951902E-19));
#1253=CARTESIAN_POINT('',(-0.01875,0.0155,5.62006008951902E-19));
#1254=CARTESIAN_POINT('',(-0.024,0.,8.67361737988404E-19));
#1255=CARTESIAN_POINT('',(-0.0258,0.,8.67361737988404E-19));
#1256=CARTESIAN_POINT('',(0.,0.024,8.67361737988404E-19));
#1257=CARTESIAN_POINT('',(-0.0018,0.024,8.67361737988404E-19));
#1258=CARTESIAN_POINT('',(0.024,2.93915231795365E-18,8.67361737988404E-19));
#1259=CARTESIAN_POINT('',(0.0222,2.93915231795365E-18,8.67361737988404E-19));
#1260=CARTESIAN_POINT('',(3.46944695195361E-18,-0.024,8.67361737988404E-19));
#1261=CARTESIAN_POINT('',(-0.0018,-0.024,8.67361737988404E-19));
#1262=CARTESIAN_POINT('',(3.46944695195361E-18,-0.024,-0.005));
#1263=CARTESIAN_POINT('',(3.46944695195361E-18,-0.024,-0.003));
#1264=CARTESIAN_POINT('',(0.0018,-0.024,-0.003));
#1265=CARTESIAN_POINT('',(0.00325,-0.024,-0.003));
#1266=CARTESIAN_POINT('',(0.00325,-0.029,-0.003));
#1267=CARTESIAN_POINT('',(0.00325,-0.0243402444523468,-0.003));
#1268=CARTESIAN_POINT('',(0.00525,-0.0243402444523468,-0.003));
#1269=CARTESIAN_POINT('',(-0.00525,-0.0243402444523468,-0.003));
#1270=CARTESIAN_POINT('',(-0.00325,-0.0243402444523468,-0.003));
#1271=CARTESIAN_POINT('',(-0.00325,-0.029,-0.003));
#1272=CARTESIAN_POINT('',(0.024,2.93915231795365E-18,-0.005));
#1273=CARTESIAN_POINT('',(0.024,2.93915231795365E-18,-0.003));
#1274=CARTESIAN_POINT('',(0.0258,2.93915231795365E-18,-0.003));
#1275=CARTESIAN_POINT('',(0.02725,2.93915231795365E-18,-0.003));
#1276=CARTESIAN_POINT('',(0.029,0.00325,-0.003));
#1277=CARTESIAN_POINT('',(0.0243402444523468,0.00325,-0.003));
#1278=CARTESIAN_POINT('',(0.0243402444523468,0.00525,-0.003));
#1279=CARTESIAN_POINT('',(0.0243402444523468,-0.00525,-0.003));
#1280=CARTESIAN_POINT('',(0.0243402444523468,-0.00325,-0.003));
#1281=CARTESIAN_POINT('',(0.029,-0.00325,-0.003));
#1282=CARTESIAN_POINT('',(0.,0.024,-0.005));
#1283=CARTESIAN_POINT('',(0.,0.024,-0.003));
#1284=CARTESIAN_POINT('',(0.0018,0.024,-0.003));
#1285=CARTESIAN_POINT('',(0.00325,0.024,-0.003));
#1286=CARTESIAN_POINT('',(-0.00325,0.029,-0.003));
#1287=CARTESIAN_POINT('',(-0.00325,0.0243402444523468,-0.003));
#1288=CARTESIAN_POINT('',(-0.00525,0.0243402444523468,-0.003));
#1289=CARTESIAN_POINT('',(0.00525,0.0243402444523468,-0.003));
#1290=CARTESIAN_POINT('',(0.00325,0.0243402444523468,-0.003));
#1291=CARTESIAN_POINT('',(0.00325,0.029,-0.003));
#1292=CARTESIAN_POINT('',(-0.024,0.,-0.005));
#1293=CARTESIAN_POINT('',(-0.024,0.,-0.003));
#1294=CARTESIAN_POINT('',(-0.0222,0.,-0.003));
#1295=CARTESIAN_POINT('',(-0.02075,0.,-0.003));
#1296=CARTESIAN_POINT('',(-0.029,-0.00325,-0.003));
#1297=CARTESIAN_POINT('',(-0.0243402444523468,-0.00325,-0.003));
#1298=CARTESIAN_POINT('',(-0.0243402444523468,-0.00525,-0.003));
#1299=CARTESIAN_POINT('',(-0.0243402444523468,0.00525,-0.003));
#1300=CARTESIAN_POINT('',(-0.0243402444523468,0.00325,-0.003));
#1301=CARTESIAN_POINT('',(-0.029,0.00325,-0.003));
#1302=CARTESIAN_POINT('',(-0.0155,0.0155,5.62006008951902E-19));
#1303=CARTESIAN_POINT('',(-0.0155,0.0155,-0.002));
#1304=CARTESIAN_POINT('',(-0.0173,0.0155,-0.002));
#1305=CARTESIAN_POINT('',(-0.01225,0.0155,-0.002));
#1306=CARTESIAN_POINT('',(-0.0155,0.0155,-0.002));
#1307=CARTESIAN_POINT('',(-0.01875,0.0155,-0.002));
#1308=CARTESIAN_POINT('',(-0.0155,0.0155,5.62006008951902E-19));
#1309=CARTESIAN_POINT('',(0.0155,-0.0155,5.62006008951902E-19));
#1310=CARTESIAN_POINT('',(0.0155,-0.0155,-0.002));
#1311=CARTESIAN_POINT('',(0.0137,-0.0155,-0.002));
#1312=CARTESIAN_POINT('',(0.01875,-0.0155,-0.002));
#1313=CARTESIAN_POINT('',(0.0155,-0.0155,-0.002));
#1314=CARTESIAN_POINT('',(0.01225,-0.0155,-0.002));
#1315=CARTESIAN_POINT('',(0.0155,-0.0155,5.62006008951902E-19));
#1316=CARTESIAN_POINT('',(-0.0155,-0.0155,5.62006008951902E-19));
#1317=CARTESIAN_POINT('',(-0.0155,-0.0155,-0.002));
#1318=CARTESIAN_POINT('',(-0.0173,-0.0155,-0.002));
#1319=CARTESIAN_POINT('',(-0.01225,-0.0155,-0.002));
#1320=CARTESIAN_POINT('',(-0.0155,-0.0155,-0.002));
#1321=CARTESIAN_POINT('',(-0.01875,-0.0155,-0.002));
#1322=CARTESIAN_POINT('',(-0.0155,-0.0155,5.62006008951902E-19));
#1323=CARTESIAN_POINT('',(0.0155,0.0155,5.62006008951902E-19));
#1324=CARTESIAN_POINT('',(0.0155,0.0155,-0.002));
#1325=CARTESIAN_POINT('',(0.0137,0.0155,-0.002));
#1326=CARTESIAN_POINT('',(0.01875,0.0155,-0.002));
#1327=CARTESIAN_POINT('',(0.0155,0.0155,-0.002));
#1328=CARTESIAN_POINT('',(0.01225,0.0155,-0.002));
#1329=CARTESIAN_POINT('',(0.0155,0.0155,5.62006008951902E-19));
#1330=CARTESIAN_POINT('',(-0.029,-0.00325,-0.002998));
#1331=CARTESIAN_POINT('',(-0.0243402444523468,-0.00325,-0.003));
#1332=CARTESIAN_POINT('',(-0.029,0.00325,-0.002998));
#1333=CARTESIAN_POINT('',(-0.0243402444523468,0.00325,-0.002998));
#1334=CARTESIAN_POINT('',(-0.00325,0.029,-0.002998));
#1335=CARTESIAN_POINT('',(-0.00325,0.0243402444523468,-0.003));
#1336=CARTESIAN_POINT('',(0.00325,0.029,-0.002998));
#1337=CARTESIAN_POINT('',(0.00325,0.0243402444523468,-0.002998));
#1338=CARTESIAN_POINT('',(0.029,0.00325,-0.002998));
#1339=CARTESIAN_POINT('',(0.0243402444523468,0.00325,-0.003));
#1340=CARTESIAN_POINT('',(0.029,-0.00325,-0.002998));
#1341=CARTESIAN_POINT('',(0.0243402444523468,-0.00325,-0.002998));
#1342=CARTESIAN_POINT('',(0.00325,-0.029,-0.002998));
#1343=CARTESIAN_POINT('',(0.00325,-0.0243402444523468,-0.003));
#1344=CARTESIAN_POINT('',(-0.00325,-0.029,-0.002998));
#1345=CARTESIAN_POINT('',(-0.00325,-0.0243402444523468,-0.002998));
#1346=CARTESIAN_POINT('',(0.00525,-0.0243402444523468,0.0214));
#1347=CARTESIAN_POINT('',(-0.00525,-0.0243402444523468,0.0214));
#1348=CARTESIAN_POINT('',(0.0243402444523468,0.00525,0.0214));
#1349=CARTESIAN_POINT('',(-0.0243402444523468,0.00525,0.0214));
#1350=CARTESIAN_POINT('',(0.00525,0.0243402444523468,0.0214));
#1351=CARTESIAN_POINT('',(-0.00525,0.0243402444523468,0.0214));
#1352=CARTESIAN_POINT('',(0.0243402444523468,-0.00525,0.0214));
#1353=CARTESIAN_POINT('',(-0.0243402444523468,-0.00525,0.0214));
#1354=MECHANICAL_DESIGN_GEOMETRIC_PRESENTATION_REPRESENTATION('',(#772),
#1355);
#1355=(
GEOMETRIC_REPRESENTATION_CONTEXT(3)
GLOBAL_UNCERTAINTY_ASSIGNED_CONTEXT((#1356))
GLOBAL_UNIT_ASSIGNED_CONTEXT((#1359,#1358,#1357))
REPRESENTATION_CONTEXT('SB INTERFACE','TOP_LEVEL_ASSEMBLY_PART')
);
#1356=UNCERTAINTY_MEASURE_WITH_UNIT(LENGTH_MEASURE(1.E-8),#1359,
'DISTANCE_ACCURACY_VALUE','Maximum Tolerance applied to model');
#1357=(
NAMED_UNIT(*)
SI_UNIT($,.STERADIAN.)
SOLID_ANGLE_UNIT()
);
#1358=(
NAMED_UNIT(*)
PLANE_ANGLE_UNIT()
SI_UNIT($,.RADIAN.)
);
#1359=(
LENGTH_UNIT()
NAMED_UNIT(*)
SI_UNIT($,.METRE.)
);
#1360=PRODUCT_DEFINITION_SHAPE('','',#1361);
#1361=PRODUCT_DEFINITION('','',#1363,#1362);
#1362=PRODUCT_DEFINITION_CONTEXT('',#1369,'design');
#1363=PRODUCT_DEFINITION_FORMATION_WITH_SPECIFIED_SOURCE('','',#1365,
 .NOT_KNOWN.);
#1364=PRODUCT_RELATED_PRODUCT_CATEGORY('','',(#1365));
#1365=PRODUCT('SB INTERFACE','SB INTERFACE','SB INTERFACE',(#1367));
#1366=PRODUCT_CATEGORY('','');
#1367=PRODUCT_CONTEXT('',#1369,'mechanical');
#1368=APPLICATION_PROTOCOL_DEFINITION('international standard',
'ap242_managed_model_based_3d_engineering',2020,#1369);
#1369=APPLICATION_CONTEXT('managed model based 3d engineering');
ENDSEC;
END-ISO-10303-21;
