ISO-10303-21;
HEADER;
/* Generated by software containing ST-Developer
 * from STEP Tools, Inc. (www.steptools.com) 
 */
/* OPTION: using custom renumber hook */

FILE_DESCRIPTION(
/* description */ ('STEP AP242 Edition 2',
'CAx-IF Rec.Pracs.---Representation and Presentation of Product Manufa
cturing Information (PMI)---4.0---2014-10-13',
'CAx-IF Rec.Pracs.---3D Tessellated Geometry---0.4---2014-09-14','2;1',
'CAx-IF Rec.Pracs.---User Defined Attributes---1.5---2016-08-15'),
/* implementation_level */ '2;1');

FILE_NAME(
/* name */ 'Single Bearing Version - PIN',
/* time_stamp */ '2026-09-07T18:44:42Z',
/* author */ (''),
/* organization */ (''),
/* preprocessor_version */ 'ST-DEVELOPER v20',
/* originating_system */ 'ONSHAPE BY PTC INC, 1.220',
/* authorisation */ '  ');

FILE_SCHEMA (('AP242_MANAGED_MODEL_BASED_3D_ENGINEERING_MIM_LF { 1 0 10303 442 3 1 4 }'));
ENDSEC;

DATA;
#10=SHAPE_REPRESENTATION_RELATIONSHIP('','',#147,#11);
#11=ADVANCED_BREP_SHAPE_REPRESENTATION('',(#145),#253);
#12=CONICAL_SURFACE('',#161,0.00196132486540518,0.523598775598299);
#13=CONICAL_SURFACE('',#162,0.00225,0.523598775598299);
#14=CIRCLE('',#151,0.0005);
#15=CIRCLE('',#152,0.0005);
#16=CIRCLE('',#155,0.00225);
#17=CIRCLE('',#156,0.00225);
#18=CIRCLE('',#158,0.00196132486540518);
#19=CIRCLE('',#160,0.00196132486540518);
#20=CYLINDRICAL_SURFACE('',#150,0.0005);
#21=CYLINDRICAL_SURFACE('',#154,0.00225);
#22=B_SPLINE_CURVE_WITH_KNOTS('',3,(#206,#207,#208,#209),.UNSPECIFIED.,
 .F.,.F.,(4,4),(0.,0.000578386204322186),.UNSPECIFIED.);
#23=B_SPLINE_CURVE_WITH_KNOTS('',3,(#213,#214,#215,#216),.UNSPECIFIED.,
 .F.,.F.,(4,4),(2.50673544710159E-17,0.000578386204322161),
 .UNSPECIFIED.);
#24=B_SPLINE_CURVE_WITH_KNOTS('',3,(#231,#232,#233,#234),.UNSPECIFIED.,
 .F.,.F.,(4,4),(2.50673544710159E-17,0.000578386204322161),
 .UNSPECIFIED.);
#25=B_SPLINE_CURVE_WITH_KNOTS('',3,(#239,#240,#241,#242),.UNSPECIFIED.,
 .F.,.F.,(4,4),(0.,0.000578386204322186),.UNSPECIFIED.);
#26=ORIENTED_EDGE('',*,*,#62,.T.);
#27=ORIENTED_EDGE('',*,*,#63,.T.);
#28=ORIENTED_EDGE('',*,*,#64,.T.);
#29=ORIENTED_EDGE('',*,*,#65,.T.);
#30=ORIENTED_EDGE('',*,*,#66,.F.);
#31=ORIENTED_EDGE('',*,*,#67,.F.);
#32=ORIENTED_EDGE('',*,*,#68,.F.);
#33=ORIENTED_EDGE('',*,*,#69,.F.);
#34=ORIENTED_EDGE('',*,*,#70,.T.);
#35=ORIENTED_EDGE('',*,*,#67,.T.);
#36=ORIENTED_EDGE('',*,*,#71,.F.);
#37=ORIENTED_EDGE('',*,*,#72,.T.);
#38=ORIENTED_EDGE('',*,*,#73,.F.);
#39=ORIENTED_EDGE('',*,*,#69,.T.);
#40=ORIENTED_EDGE('',*,*,#74,.T.);
#41=ORIENTED_EDGE('',*,*,#75,.T.);
#42=ORIENTED_EDGE('',*,*,#64,.F.);
#43=ORIENTED_EDGE('',*,*,#76,.T.);
#44=ORIENTED_EDGE('',*,*,#71,.T.);
#45=ORIENTED_EDGE('',*,*,#77,.T.);
#46=ORIENTED_EDGE('',*,*,#73,.T.);
#47=ORIENTED_EDGE('',*,*,#78,.T.);
#48=ORIENTED_EDGE('',*,*,#62,.F.);
#49=ORIENTED_EDGE('',*,*,#70,.F.);
#50=ORIENTED_EDGE('',*,*,#66,.T.);
#51=ORIENTED_EDGE('',*,*,#79,.T.);
#52=ORIENTED_EDGE('',*,*,#74,.F.);
#53=ORIENTED_EDGE('',*,*,#68,.T.);
#54=ORIENTED_EDGE('',*,*,#72,.F.);
#55=ORIENTED_EDGE('',*,*,#76,.F.);
#56=ORIENTED_EDGE('',*,*,#63,.F.);
#57=ORIENTED_EDGE('',*,*,#78,.F.);
#58=ORIENTED_EDGE('',*,*,#75,.F.);
#59=ORIENTED_EDGE('',*,*,#79,.F.);
#60=ORIENTED_EDGE('',*,*,#65,.F.);
#61=ORIENTED_EDGE('',*,*,#77,.F.);
#62=EDGE_CURVE('',#80,#81,#92,.T.);
#63=EDGE_CURVE('',#81,#82,#22,.T.);
#64=EDGE_CURVE('',#82,#83,#93,.T.);
#65=EDGE_CURVE('',#83,#84,#23,.T.);
#66=EDGE_CURVE('',#85,#84,#94,.T.);
#67=EDGE_CURVE('',#80,#85,#95,.T.);
#68=EDGE_CURVE('',#86,#85,#14,.T.);
#69=EDGE_CURVE('',#87,#86,#96,.T.);
#70=EDGE_CURVE('',#87,#80,#15,.T.);
#71=EDGE_CURVE('',#88,#89,#97,.T.);
#72=EDGE_CURVE('',#88,#90,#24,.T.);
#73=EDGE_CURVE('',#87,#90,#98,.T.);
#74=EDGE_CURVE('',#86,#91,#99,.T.);
#75=EDGE_CURVE('',#91,#89,#25,.T.);
#76=EDGE_CURVE('',#82,#88,#16,.F.);
#77=EDGE_CURVE('',#89,#83,#17,.T.);
#78=EDGE_CURVE('',#90,#81,#18,.T.);
#79=EDGE_CURVE('',#84,#91,#19,.F.);
#80=VERTEX_POINT('',#204);
#81=VERTEX_POINT('',#205);
#82=VERTEX_POINT('',#210);
#83=VERTEX_POINT('',#212);
#84=VERTEX_POINT('',#217);
#85=VERTEX_POINT('',#219);
#86=VERTEX_POINT('',#223);
#87=VERTEX_POINT('',#225);
#88=VERTEX_POINT('',#229);
#89=VERTEX_POINT('',#230);
#90=VERTEX_POINT('',#235);
#91=VERTEX_POINT('',#238);
#92=LINE('',#203,#100);
#93=LINE('',#211,#101);
#94=LINE('',#218,#102);
#95=LINE('',#220,#103);
#96=LINE('',#224,#104);
#97=LINE('',#228,#105);
#98=LINE('',#236,#106);
#99=LINE('',#237,#107);
#100=VECTOR('',#167,1.);
#101=VECTOR('',#168,1.);
#102=VECTOR('',#169,1.);
#103=VECTOR('',#170,1.);
#104=VECTOR('',#175,1.);
#105=VECTOR('',#180,1.);
#106=VECTOR('',#181,1.);
#107=VECTOR('',#182,1.);
#108=EDGE_LOOP('',(#26,#27,#28,#29,#30,#31));
#109=EDGE_LOOP('',(#32,#33,#34,#35));
#110=EDGE_LOOP('',(#36,#37,#38,#39,#40,#41));
#111=EDGE_LOOP('',(#42,#43,#44,#45));
#112=EDGE_LOOP('',(#46,#47,#48,#49));
#113=EDGE_LOOP('',(#50,#51,#52,#53));
#114=EDGE_LOOP('',(#54,#55,#56,#57));
#115=EDGE_LOOP('',(#58,#59,#60,#61));
#116=FACE_BOUND('',#108,.T.);
#117=FACE_BOUND('',#109,.T.);
#118=FACE_BOUND('',#110,.T.);
#119=FACE_BOUND('',#111,.T.);
#120=FACE_BOUND('',#112,.T.);
#121=FACE_BOUND('',#113,.T.);
#122=FACE_BOUND('',#114,.T.);
#123=FACE_BOUND('',#115,.T.);
#124=PLANE('',#149);
#125=PLANE('',#153);
#126=PLANE('',#157);
#127=PLANE('',#159);
#128=ADVANCED_FACE('',(#116),#124,.T.);
#129=ADVANCED_FACE('',(#117),#20,.F.);
#130=ADVANCED_FACE('',(#118),#125,.F.);
#131=ADVANCED_FACE('',(#119),#21,.T.);
#132=ADVANCED_FACE('',(#120),#126,.T.);
#133=ADVANCED_FACE('',(#121),#127,.F.);
#134=ADVANCED_FACE('',(#122),#12,.T.);
#135=ADVANCED_FACE('',(#123),#13,.T.);
#136=CLOSED_SHELL('',(#128,#129,#130,#131,#132,#133,#134,#135));
#137=STYLED_ITEM('',(#138),#145);
#138=PRESENTATION_STYLE_ASSIGNMENT((#139));
#139=SURFACE_STYLE_USAGE(.BOTH.,#140);
#140=SURFACE_SIDE_STYLE('',(#141));
#141=SURFACE_STYLE_FILL_AREA(#142);
#142=FILL_AREA_STYLE('',(#143));
#143=FILL_AREA_STYLE_COLOUR('',#144);
#144=COLOUR_RGB('',0.980392156862745,0.796078431372549,0.262745098039216);
#145=MANIFOLD_SOLID_BREP('PIN',#136);
#146=SHAPE_DEFINITION_REPRESENTATION(#258,#147);
#147=SHAPE_REPRESENTATION('PIN',(#148),#253);
#148=AXIS2_PLACEMENT_3D('',#201,#163,#164);
#149=AXIS2_PLACEMENT_3D('',#202,#165,#166);
#150=AXIS2_PLACEMENT_3D('',#221,#171,#172);
#151=AXIS2_PLACEMENT_3D('',#222,#173,#174);
#152=AXIS2_PLACEMENT_3D('',#226,#176,#177);
#153=AXIS2_PLACEMENT_3D('',#227,#178,#179);
#154=AXIS2_PLACEMENT_3D('',#243,#183,#184);
#155=AXIS2_PLACEMENT_3D('',#244,#185,#186);
#156=AXIS2_PLACEMENT_3D('',#245,#187,#188);
#157=AXIS2_PLACEMENT_3D('',#246,#189,#190);
#158=AXIS2_PLACEMENT_3D('',#247,#191,#192);
#159=AXIS2_PLACEMENT_3D('',#248,#193,#194);
#160=AXIS2_PLACEMENT_3D('',#249,#195,#196);
#161=AXIS2_PLACEMENT_3D('',#250,#197,#198);
#162=AXIS2_PLACEMENT_3D('',#251,#199,#200);
#163=DIRECTION('',(0.,0.,1.));
#164=DIRECTION('',(1.,0.,0.));
#165=DIRECTION('',(-6.01313884911356E-17,1.,0.));
#166=DIRECTION('',(-1.,-6.01313884911356E-17,0.));
#167=DIRECTION('',(1.,6.01313884911356E-17,0.));
#168=DIRECTION('',(0.,0.,-1.));
#169=DIRECTION('',(1.,6.01313884911356E-17,0.));
#170=DIRECTION('',(0.,0.,-1.));
#171=DIRECTION('',(0.,0.,-1.));
#172=DIRECTION('',(-1.,0.,0.));
#173=DIRECTION('',(0.,0.,1.));
#174=DIRECTION('',(1.,0.,0.));
#175=DIRECTION('',(0.,0.,-1.));
#176=DIRECTION('',(0.,0.,1.));
#177=DIRECTION('',(1.,0.,0.));
#178=DIRECTION('',(-6.01313884911356E-17,1.,0.));
#179=DIRECTION('',(-1.,-6.01313884911356E-17,0.));
#180=DIRECTION('',(0.,0.,-1.));
#181=DIRECTION('',(1.,6.01313884911356E-17,0.));
#182=DIRECTION('',(1.,6.01313884911356E-17,0.));
#183=DIRECTION('',(0.,0.,-1.));
#184=DIRECTION('',(-1.,0.,0.));
#185=DIRECTION('',(0.,0.,1.));
#186=DIRECTION('',(1.,0.,0.));
#187=DIRECTION('',(0.,0.,1.));
#188=DIRECTION('',(1.,0.,0.));
#189=DIRECTION('',(0.,0.,1.));
#190=DIRECTION('',(1.,0.,0.));
#191=DIRECTION('',(0.,0.,1.));
#192=DIRECTION('',(1.,0.,0.));
#193=DIRECTION('',(0.,0.,1.));
#194=DIRECTION('',(1.,0.,0.));
#195=DIRECTION('',(0.,0.,1.));
#196=DIRECTION('',(1.,0.,0.));
#197=DIRECTION('',(0.,0.,-1.));
#198=DIRECTION('',(-1.,0.,0.));
#199=DIRECTION('',(0.,0.,1.));
#200=DIRECTION('',(1.,0.,0.));
#201=CARTESIAN_POINT('',(0.,0.,0.));
#202=CARTESIAN_POINT('',(0.001334540339696,-0.00025,0.005));
#203=CARTESIAN_POINT('',(0.001334540339696,-0.00025,0.005));
#204=CARTESIAN_POINT('',(0.00043301270189222,-0.00025,0.005));
#205=CARTESIAN_POINT('',(0.00194532650926688,-0.00025,0.005));
#206=CARTESIAN_POINT('',(0.00194532650926689,-0.00025,0.005));
#207=CARTESIAN_POINT('',(0.00204231696850855,-0.00025,0.00483337789614886));
#208=CARTESIAN_POINT('',(0.00213922086005623,-0.00025,0.00466670545466085));
#209=CARTESIAN_POINT('',(0.00223606797749974,-0.00025,0.0045));
#210=CARTESIAN_POINT('',(0.00223606797749979,-0.00025,0.0045));
#211=CARTESIAN_POINT('',(0.00223606797749979,-0.00025,0.005));
#212=CARTESIAN_POINT('',(0.00223606797749979,-0.00025,-0.0045));
#213=CARTESIAN_POINT('',(0.00223606797749974,-0.000249999999999994,-0.0045));
#214=CARTESIAN_POINT('',(0.00213922086005624,-0.000249999999999994,-0.00466670545466083));
#215=CARTESIAN_POINT('',(0.00204231696850854,-0.00025,-0.00483337789614888));
#216=CARTESIAN_POINT('',(0.00194532650926688,-0.00025,-0.005));
#217=CARTESIAN_POINT('',(0.00194532650926688,-0.00025,-0.005));
#218=CARTESIAN_POINT('',(0.001334540339696,-0.00025,-0.005));
#219=CARTESIAN_POINT('',(0.00043301270189222,-0.00025,-0.005));
#220=CARTESIAN_POINT('',(0.00043301270189222,-0.00025,0.005));
#221=CARTESIAN_POINT('',(-2.16840434497101E-19,-7.76495578402111E-21,0.005));
#222=CARTESIAN_POINT('',(-2.16840434497101E-19,-7.76495578402111E-21,-0.005));
#223=CARTESIAN_POINT('',(0.00043301270189222,0.00025,-0.005));
#224=CARTESIAN_POINT('',(0.00043301270189222,0.00025,0.005));
#225=CARTESIAN_POINT('',(0.00043301270189222,0.00025,0.005));
#226=CARTESIAN_POINT('',(-2.16840434497101E-19,-7.76495578402111E-21,0.005));
#227=CARTESIAN_POINT('',(0.001334540339696,0.00025,0.005));
#228=CARTESIAN_POINT('',(0.00223606797749979,0.00025,0.005));
#229=CARTESIAN_POINT('',(0.00223606797749979,0.00025,0.0045));
#230=CARTESIAN_POINT('',(0.00223606797749979,0.00025,-0.0045));
#231=CARTESIAN_POINT('',(0.00223606797749974,0.000249999999999995,0.0045));
#232=CARTESIAN_POINT('',(0.00213922086005624,0.000249999999999995,0.00466670545466083));
#233=CARTESIAN_POINT('',(0.00204231696850854,0.00025,0.00483337789614888));
#234=CARTESIAN_POINT('',(0.00194532650926688,0.00025,0.005));
#235=CARTESIAN_POINT('',(0.00194532650926688,0.00025,0.005));
#236=CARTESIAN_POINT('',(0.001334540339696,0.00025,0.005));
#237=CARTESIAN_POINT('',(0.001334540339696,0.00025,-0.005));
#238=CARTESIAN_POINT('',(0.00194532650926688,0.00025,-0.005));
#239=CARTESIAN_POINT('',(0.00194532650926689,0.00025,-0.005));
#240=CARTESIAN_POINT('',(0.00204231696850855,0.00025,-0.00483337789614886));
#241=CARTESIAN_POINT('',(0.00213922086005623,0.00025,-0.00466670545466085));
#242=CARTESIAN_POINT('',(0.00223606797749974,0.00025,-0.0045));
#243=CARTESIAN_POINT('',(-5.11743425413158E-17,-2.89058887949692E-18,0.005));
#244=CARTESIAN_POINT('',(-5.11743425413158E-17,-2.89058887949692E-18,0.0045));
#245=CARTESIAN_POINT('',(-5.11743425413158E-17,-2.89058887949692E-18,-0.0045));
#246=CARTESIAN_POINT('',(-6.96601125010563E-6,0.,0.005));
#247=CARTESIAN_POINT('',(-5.11743425413158E-17,-2.89058887949692E-18,0.005));
#248=CARTESIAN_POINT('',(-6.96601125010563E-6,0.,-0.005));
#249=CARTESIAN_POINT('',(-5.11743425413158E-17,-2.89058887949692E-18,-0.005));
#250=CARTESIAN_POINT('',(-5.11743425413158E-17,-2.89058887949692E-18,0.005));
#251=CARTESIAN_POINT('',(-5.11743425413158E-17,-2.89058887949692E-18,-0.0045));
#252=MECHANICAL_DESIGN_GEOMETRIC_PRESENTATION_REPRESENTATION('',(#137),
#253);
#253=(
GEOMETRIC_REPRESENTATION_CONTEXT(3)
GLOBAL_UNCERTAINTY_ASSIGNED_CONTEXT((#254))
GLOBAL_UNIT_ASSIGNED_CONTEXT((#257,#256,#255))
REPRESENTATION_CONTEXT('PIN','TOP_LEVEL_ASSEMBLY_PART')
);
#254=UNCERTAINTY_MEASURE_WITH_UNIT(LENGTH_MEASURE(2.E-5),#257,
'DISTANCE_ACCURACY_VALUE','Maximum Tolerance applied to model');
#255=(
NAMED_UNIT(*)
SI_UNIT($,.STERADIAN.)
SOLID_ANGLE_UNIT()
);
#256=(
NAMED_UNIT(*)
PLANE_ANGLE_UNIT()
SI_UNIT($,.RADIAN.)
);
#257=(
LENGTH_UNIT()
NAMED_UNIT(*)
SI_UNIT($,.METRE.)
);
#258=PRODUCT_DEFINITION_SHAPE('','',#259);
#259=PRODUCT_DEFINITION('','',#261,#260);
#260=PRODUCT_DEFINITION_CONTEXT('',#267,'design');
#261=PRODUCT_DEFINITION_FORMATION_WITH_SPECIFIED_SOURCE('','',#263,
 .NOT_KNOWN.);
#262=PRODUCT_RELATED_PRODUCT_CATEGORY('','',(#263));
#263=PRODUCT('PIN','PIN','PIN',(#265));
#264=PRODUCT_CATEGORY('','');
#265=PRODUCT_CONTEXT('',#267,'mechanical');
#266=APPLICATION_PROTOCOL_DEFINITION('international standard',
'ap242_managed_model_based_3d_engineering',2020,#267);
#267=APPLICATION_CONTEXT('managed model based 3d engineering');
ENDSEC;
END-ISO-10303-21;
