ISO-10303-21;
HEADER;
/* Generated by software containing ST-Developer
 * from STEP Tools, Inc. (www.steptools.com) 
 */
/* OPTION: using custom renumber hook */

FILE_DESCRIPTION(
/* description */ ('STEP AP242 Edition 2',
'CAx-IF Rec.Pracs.---Representation and Presentation of Product Manufa
cturing Information (PMI)---4.0---2014-10-13',
'CAx-IF Rec.Pracs.---3D Tessellated Geometry---0.4---2014-09-14','2;1',
'CAx-IF Rec.Pracs.---User Defined Attributes---1.5---2016-08-15'),
/* implementation_level */ '2;1');

FILE_NAME(
/* name */ 'Single Bearing Version - WG',
/* time_stamp */ '2026-09-07T18:45:00Z',
/* author */ (''),
/* organization */ (''),
/* preprocessor_version */ 'ST-DEVELOPER v20',
/* originating_system */ 'ONSHAPE BY PTC INC, 1.220',
/* authorisation */ '  ');

FILE_SCHEMA (('AP242_MANAGED_MODEL_BASED_3D_ENGINEERING_MIM_LF { 1 0 10303 442 3 1 4 }'));
ENDSEC;

DATA;
#10=SHAPE_REPRESENTATION_RELATIONSHIP('','',#259,#11);
#11=ADVANCED_BREP_SHAPE_REPRESENTATION('',(#257),#1016);
#12=CONICAL_SURFACE('',#275,0.00365,0.785398163397449);
#13=LINE('',#731,#24);
#14=LINE('',#827,#25);
#15=LINE('',#845,#26);
#16=LINE('',#850,#27);
#17=LINE('',#851,#28);
#18=LINE('',#888,#29);
#19=LINE('',#995,#30);
#20=LINE('',#996,#31);
#21=LINE('',#998,#32);
#22=LINE('',#1000,#33);
#23=LINE('',#1002,#34);
#24=VECTOR('',#291,1.);
#25=VECTOR('',#292,1.);
#26=VECTOR('',#293,1.);
#27=VECTOR('',#298,1.);
#28=VECTOR('',#299,1.);
#29=VECTOR('',#302,1.);
#30=VECTOR('',#307,1.);
#31=VECTOR('',#308,1.);
#32=VECTOR('',#311,1.);
#33=VECTOR('',#312,1.);
#34=VECTOR('',#313,1.);
#35=PLANE('',#265);
#36=PLANE('',#267);
#37=PLANE('',#269);
#38=PLANE('',#270);
#39=PLANE('',#271);
#40=PLANE('',#272);
#41=PLANE('',#276);
#42=B_SPLINE_SURFACE_WITH_KNOTS('',3,1,((#635,#636),(#637,#638),(#639,#640),
(#641,#642),(#643,#644),(#645,#646),(#647,#648),(#649,#650),(#651,#652),
(#653,#654),(#655,#656),(#657,#658),(#659,#660),(#661,#662),(#663,#664),
(#665,#666),(#667,#668),(#669,#670),(#671,#672)),
 .SURF_OF_LINEAR_EXTRUSION.,.T.,.F.,.F.,(1,1,1,1,1,1,1,1,1,1,1,1,1,1,1,
1,1,1,1,1,1,1,1),(2,2),(-0.1875,-0.125,-0.0625,0.,0.0625,0.125,0.1875,0.25,
0.3125,0.375,0.4375,0.5,0.5625,0.625,0.6875,0.75,0.8125,0.875,0.9375,1.,
1.0625,1.125,1.1875),(0.,1.),.UNSPECIFIED.);
#43=B_SPLINE_SURFACE_WITH_KNOTS('',3,1,((#759,#760),(#761,#762),(#763,#764),
(#765,#766),(#767,#768),(#769,#770),(#771,#772),(#773,#774),(#775,#776),
(#777,#778),(#779,#780),(#781,#782),(#783,#784),(#785,#786),(#787,#788),
(#789,#790),(#791,#792),(#793,#794),(#795,#796)),
 .SURF_OF_LINEAR_EXTRUSION.,.T.,.F.,.F.,(1,1,1,1,1,1,1,1,1,1,1,1,1,1,1,
1,1,1,1,1,1,1,1),(2,2),(-0.1875,-0.125,-0.0625,0.,0.0625,0.125,0.1875,0.25,
0.3125,0.375,0.4375,0.5,0.5625,0.625,0.6875,0.75,0.8125,0.875,0.9375,1.,
1.0625,1.125,1.1875),(0.,1.),.UNSPECIFIED.);
#44=B_SPLINE_SURFACE_WITH_KNOTS('',3,1,((#797,#798),(#799,#800),(#801,#802),
(#803,#804),(#805,#806),(#807,#808),(#809,#810),(#811,#812),(#813,#814),
(#815,#816),(#817,#818),(#819,#820),(#821,#822),(#823,#824),(#825,#826)),
 .SURF_OF_LINEAR_EXTRUSION.,.F.,.F.,.F.,(4,1,1,1,1,1,1,1,1,1,1,1,4),(2,
2),(0.727663154969953,0.827195477986271,0.876961639494431,0.92672780100259,
0.976493962510749,1.02626012401891,1.12579244703523,1.22532477005155,1.2750909315597,
1.32485709306786,1.37462325457602,1.42438941608418,1.5239217391005),(0.,
1.),.UNSPECIFIED.);
#45=B_SPLINE_SURFACE_WITH_KNOTS('',1,3,((#898,#899,#900,#901,#902,#903,
#904,#905,#906,#907,#908,#909,#910,#911,#912,#913,#914,#915,#916,#917,#918,
#919,#920,#921,#922,#923,#924,#925,#926,#927,#928,#929,#930,#931,#932,#933,
#934,#935,#936,#937,#938,#939,#940,#941,#942,#943,#944,#945),(#946,#947,
#948,#949,#950,#951,#952,#953,#954,#955,#956,#957,#958,#959,#960,#961,#962,
#963,#964,#965,#966,#967,#968,#969,#970,#971,#972,#973,#974,#975,#976,#977,
#978,#979,#980,#981,#982,#983,#984,#985,#986,#987,#988,#989,#990,#991,#992,
#993)),.RULED_SURF.,.F.,.F.,.F.,(2,2),(4,2,2,2,2,2,2,2,2,2,2,2,2,2,2,2,
2,2,2,2,2,2,2,4),(0.,1.),(0.000808449997716327,0.00151125504761266,0.00314104651312526,
0.00477083797863786,0.00640062944415046,0.00803042090966306,0.00966021237517566,
0.0112900038406883,0.0129197953062009,0.0145495867717135,0.016179378237226,
0.0194389611682513,0.0210687526337639,0.0226985440992765,0.0259581270303017,
0.0292177099613268,0.0324772928923521,0.0357368758233772,0.0389964587544024,
0.0422560416854277,0.0438858331509403,0.0455156246164529,0.0487752075474781,
0.0499028795999779),.UNSPECIFIED.);
#46=(
BOUNDED_SURFACE()
B_SPLINE_SURFACE(3,3,((#346,#347,#348,#349,#350,#351,#352,#353,#354,#355,
#356,#357,#358,#359,#360,#361,#362,#363,#364,#365,#366,#367,#368,#369,#370,
#371),(#372,#373,#374,#375,#376,#377,#378,#379,#380,#381,#382,#383,#384,
#385,#386,#387,#388,#389,#390,#391,#392,#393,#394,#395,#396,#397),(#398,
#399,#400,#401,#402,#403,#404,#405,#406,#407,#408,#409,#410,#411,#412,#413,
#414,#415,#416,#417,#418,#419,#420,#421,#422,#423),(#424,#425,#426,#427,
#428,#429,#430,#431,#432,#433,#434,#435,#436,#437,#438,#439,#440,#441,#442,
#443,#444,#445,#446,#447,#448,#449)),.UNSPECIFIED.,.F.,.T.,.F.)
B_SPLINE_SURFACE_WITH_KNOTS((4,4),(2,2,2,2,2,2,2,2,2,2,2,2,2,2,2),(0.,1.),
(-0.0625,0.,0.125,0.25,0.3125,0.375,0.4375,0.5,0.625,0.75,0.8125,0.875,
0.9375,1.,1.125),.UNSPECIFIED.)
GEOMETRIC_REPRESENTATION_ITEM()
RATIONAL_B_SPLINE_SURFACE(((1.,1.,1.,1.,1.,1.,1.,1.,1.,1.,1.,1.,1.,1.,1.,
1.,1.,1.,1.,1.,1.,1.,1.,1.,1.,1.),(0.842508512551611,0.842508512551611,
0.842508512551611,0.842508512551611,0.842508512551611,0.842508512551611,
0.842508512551611,0.842508512551611,0.842508512551611,0.842508512551611,
0.842508512551611,0.842508512551611,0.842508512551611,0.842508512551611,
0.842508512551611,0.842508512551611,0.842508512551611,0.842508512551611,
0.842508512551611,0.842508512551611,0.842508512551611,0.842508512551611,
0.842508512551611,0.842508512551611,0.842508512551611,0.842508512551611),
(0.842508512551611,0.842508512551611,0.842508512551611,0.842508512551611,
0.842508512551611,0.842508512551611,0.842508512551611,0.842508512551611,
0.842508512551611,0.842508512551611,0.842508512551611,0.842508512551611,
0.842508512551611,0.842508512551611,0.842508512551611,0.842508512551611,
0.842508512551611,0.842508512551611,0.842508512551611,0.842508512551611,
0.842508512551611,0.842508512551611,0.842508512551611,0.842508512551611,
0.842508512551611,0.842508512551611),(1.,1.,1.,1.,1.,1.,1.,1.,1.,1.,1.,
1.,1.,1.,1.,1.,1.,1.,1.,1.,1.,1.,1.,1.,1.,1.)))
REPRESENTATION_ITEM('')
SURFACE()
);
#47=(
BOUNDED_SURFACE()
B_SPLINE_SURFACE(3,3,((#504,#505,#506,#507,#508,#509,#510,#511,#512,#513,
#514,#515,#516,#517,#518,#519,#520,#521,#522,#523,#524,#525,#526,#527,#528,
#529),(#530,#531,#532,#533,#534,#535,#536,#537,#538,#539,#540,#541,#542,
#543,#544,#545,#546,#547,#548,#549,#550,#551,#552,#553,#554,#555),(#556,
#557,#558,#559,#560,#561,#562,#563,#564,#565,#566,#567,#568,#569,#570,#571,
#572,#573,#574,#575,#576,#577,#578,#579,#580,#581),(#582,#583,#584,#585,
#586,#587,#588,#589,#590,#591,#592,#593,#594,#595,#596,#597,#598,#599,#600,
#601,#602,#603,#604,#605,#606,#607)),.UNSPECIFIED.,.F.,.T.,.F.)
B_SPLINE_SURFACE_WITH_KNOTS((4,4),(2,2,2,2,2,2,2,2,2,2,2,2,2,2,2),(0.,1.),
(-0.0625,0.,0.125,0.25,0.3125,0.375,0.4375,0.5,0.625,0.75,0.8125,0.875,
0.9375,1.,1.125),.UNSPECIFIED.)
GEOMETRIC_REPRESENTATION_ITEM()
RATIONAL_B_SPLINE_SURFACE(((1.,1.,1.,1.,1.,1.,1.,1.,1.,1.,1.,1.,1.,1.,1.,
1.,1.,1.,1.,1.,1.,1.,1.,1.,1.,1.),(0.669540874930842,0.669540874930842,
0.669540874930842,0.669540874930842,0.669540874930842,0.669540874930842,
0.669540874930842,0.669540874930842,0.669540874930842,0.669540874930842,
0.669540874930842,0.669540874930842,0.669540874930842,0.669540874930842,
0.669540874930842,0.669540874930842,0.669540874930842,0.669540874930842,
0.669540874930842,0.669540874930842,0.669540874930842,0.669540874930842,
0.669540874930842,0.669540874930842,0.669540874930842,0.669540874930842),
(0.669540874930842,0.669540874930842,0.669540874930842,0.669540874930842,
0.669540874930842,0.669540874930842,0.669540874930842,0.669540874930842,
0.669540874930842,0.669540874930842,0.669540874930842,0.669540874930842,
0.669540874930842,0.669540874930842,0.669540874930842,0.669540874930842,
0.669540874930842,0.669540874930842,0.669540874930842,0.669540874930842,
0.669540874930842,0.669540874930842,0.669540874930842,0.669540874930842,
0.669540874930842,0.669540874930842),(1.,1.,1.,1.,1.,1.,1.,1.,1.,1.,1.,
1.,1.,1.,1.,1.,1.,1.,1.,1.,1.,1.,1.,1.,1.,1.)))
REPRESENTATION_ITEM('')
SURFACE()
);
#48=B_SPLINE_CURVE_WITH_KNOTS('',3,(#329,#330,#331,#332,#333,#334,#335),
 .UNSPECIFIED.,.F.,.F.,(4,1,1,1,4),(0.,0.000991357124553049,0.0019827142491061,
0.00297407137365915,0.0039654284982122),.UNSPECIFIED.);
#49=B_SPLINE_CURVE_WITH_KNOTS('',3,(#339,#340,#341,#342,#343,#344,#345),
 .UNSPECIFIED.,.F.,.F.,(4,1,1,1,4),(0.,0.000990992066850535,0.00198198413370107,
0.00297297620055161,0.00396396826740214),.UNSPECIFIED.);
#50=B_SPLINE_CURVE_WITH_KNOTS('',3,(#450,#451,#452,#453,#454,#455,#456,
#457,#458,#459,#460,#461,#462,#463,#464,#465,#466,#467,#468,#469,#470,#471,
#472,#473,#474,#475),.UNSPECIFIED.,.T.,.F.,(2,2,2,2,2,2,2,2,2,2,2,2,2,2,
2),(-0.0625,0.,0.125,0.25,0.3125,0.375,0.4375,0.5,0.625,0.75,0.8125,0.875,
0.9375,1.,1.125),.UNSPECIFIED.);
#51=B_SPLINE_CURVE_WITH_KNOTS('',3,(#477,#478,#479,#480,#481,#482,#483,
#484,#485,#486,#487,#488,#489,#490,#491,#492,#493,#494,#495,#496,#497,#498,
#499,#500,#501,#502),.UNSPECIFIED.,.T.,.F.,(2,2,2,2,2,2,2,2,2,2,2,2,2,2,
2),(-0.0625,0.,0.125,0.25,0.3125,0.375,0.4375,0.5,0.625,0.75,0.8125,0.875,
0.9375,1.,1.125),.UNSPECIFIED.);
#52=B_SPLINE_CURVE_WITH_KNOTS('',3,(#608,#609,#610,#611,#612,#613,#614,
#615,#616,#617,#618,#619,#620,#621,#622,#623,#624,#625,#626,#627,#628,#629,
#630,#631,#632,#633),.UNSPECIFIED.,.T.,.F.,(2,2,2,2,2,2,2,2,2,2,2,2,2,2,
2),(-0.0625,0.,0.125,0.25,0.3125,0.375,0.4375,0.5,0.625,0.75,0.8125,0.875,
0.9375,1.,1.125),.UNSPECIFIED.);
#53=B_SPLINE_CURVE_WITH_KNOTS('',3,(#673,#674,#675,#676,#677,#678,#679,
#680,#681,#682,#683,#684,#685,#686,#687,#688,#689,#690,#691,#692,#693,#694,
#695,#696,#697,#698),.UNSPECIFIED.,.T.,.F.,(2,2,2,2,2,2,2,2,2,2,2,2,2,2,
2),(-0.0625,0.,0.125,0.25,0.3125,0.375,0.4375,0.5,0.625,0.75,0.8125,0.875,
0.9375,1.,1.125),.UNSPECIFIED.);
#54=B_SPLINE_CURVE_WITH_KNOTS('',3,(#701,#702,#703,#704,#705,#706,#707,
#708,#709,#710,#711,#712,#713,#714,#715,#716,#717,#718,#719,#720,#721,#722,
#723,#724,#725,#726),.UNSPECIFIED.,.T.,.F.,(2,2,2,2,2,2,2,2,2,2,2,2,2,2,
2),(-0.0625,0.,0.125,0.25,0.3125,0.375,0.4375,0.5,0.625,0.75,0.8125,0.875,
0.9375,1.,1.125),.UNSPECIFIED.);
#55=B_SPLINE_CURVE_WITH_KNOTS('',3,(#732,#733,#734,#735,#736,#737,#738,
#739,#740,#741,#742,#743,#744,#745,#746,#747,#748,#749,#750,#751,#752,#753,
#754,#755,#756,#757),.UNSPECIFIED.,.T.,.F.,(2,2,2,2,2,2,2,2,2,2,2,2,2,2,
2),(-0.0625,0.,0.125,0.25,0.3125,0.375,0.4375,0.5,0.625,0.75,0.8125,0.875,
0.9375,1.,1.125),.UNSPECIFIED.);
#56=B_SPLINE_CURVE_WITH_KNOTS('',3,(#829,#830,#831,#832,#833,#834,#835,
#836,#837,#838,#839,#840,#841,#842,#843),.UNSPECIFIED.,.F.,.F.,(4,1,1,1,
1,1,1,1,1,1,1,1,4),(0.,0.125,0.1875,0.25,0.3125,0.375,0.5,0.625,0.6875,
0.75,0.8125,0.875,1.),.UNSPECIFIED.);
#57=B_SPLINE_CURVE_WITH_KNOTS('',3,(#854,#855,#856,#857,#858,#859,#860,
#861,#862,#863,#864,#865,#866,#867,#868,#869,#870,#871,#872,#873,#874,#875,
#876,#877,#878,#879,#880,#881,#882,#883,#884,#885,#886),.UNSPECIFIED.,.F.,
 .F.,(4,1,1,1,1,1,1,1,1,1,1,1,1,1,1,1,1,1,1,1,1,1,1,1,1,1,1,1,1,1,4),(0.,
0.03125,0.0625,0.09375,0.125,0.15625,0.1875,0.25,0.28125,0.3125,0.34375,
0.375,0.40625,0.4375,0.46875,0.5,0.53125,0.5625,0.59375,0.625,0.65625,0.6875,
0.71875,0.75,0.8125,0.84375,0.875,0.90625,0.9375,0.96875,1.),
 .UNSPECIFIED.);
#58=B_SPLINE_CURVE_WITH_KNOTS('',3,(#890,#891,#892,#893),.UNSPECIFIED.,
 .F.,.F.,(4,4),(0.,1.),.UNSPECIFIED.);
#59=B_SPLINE_CURVE_WITH_KNOTS('',3,(#894,#895,#896,#897),.UNSPECIFIED.,
 .F.,.F.,(4,4),(0.,1.),.UNSPECIFIED.);
#60=B_SPLINE_CURVE_WITH_KNOTS('',3,(#1006,#1007,#1008,#1009),
 .UNSPECIFIED.,.F.,.F.,(4,4),(0.,0.00144459588022593),.UNSPECIFIED.);
#61=B_SPLINE_CURVE_WITH_KNOTS('',3,(#1010,#1011,#1012,#1013),
 .UNSPECIFIED.,.F.,.F.,(4,4),(0.,0.00144459588022593),.UNSPECIFIED.);
#62=ORIENTED_EDGE('',*,*,#124,.F.);
#63=ORIENTED_EDGE('',*,*,#125,.T.);
#64=ORIENTED_EDGE('',*,*,#126,.T.);
#65=ORIENTED_EDGE('',*,*,#127,.T.);
#66=ORIENTED_EDGE('',*,*,#128,.T.);
#67=ORIENTED_EDGE('',*,*,#129,.T.);
#68=ORIENTED_EDGE('',*,*,#130,.F.);
#69=ORIENTED_EDGE('',*,*,#130,.T.);
#70=ORIENTED_EDGE('',*,*,#131,.F.);
#71=ORIENTED_EDGE('',*,*,#131,.T.);
#72=ORIENTED_EDGE('',*,*,#132,.F.);
#73=ORIENTED_EDGE('',*,*,#133,.F.);
#74=ORIENTED_EDGE('',*,*,#134,.T.);
#75=ORIENTED_EDGE('',*,*,#135,.T.);
#76=ORIENTED_EDGE('',*,*,#136,.F.);
#77=ORIENTED_EDGE('',*,*,#136,.T.);
#78=ORIENTED_EDGE('',*,*,#129,.F.);
#79=ORIENTED_EDGE('',*,*,#137,.T.);
#80=ORIENTED_EDGE('',*,*,#138,.T.);
#81=ORIENTED_EDGE('',*,*,#139,.T.);
#82=ORIENTED_EDGE('',*,*,#133,.T.);
#83=ORIENTED_EDGE('',*,*,#140,.T.);
#84=ORIENTED_EDGE('',*,*,#141,.T.);
#85=ORIENTED_EDGE('',*,*,#142,.F.);
#86=ORIENTED_EDGE('',*,*,#143,.T.);
#87=ORIENTED_EDGE('',*,*,#132,.T.);
#88=ORIENTED_EDGE('',*,*,#144,.T.);
#89=ORIENTED_EDGE('',*,*,#124,.T.);
#90=ORIENTED_EDGE('',*,*,#142,.T.);
#91=ORIENTED_EDGE('',*,*,#145,.T.);
#92=ORIENTED_EDGE('',*,*,#137,.F.);
#93=ORIENTED_EDGE('',*,*,#144,.F.);
#94=ORIENTED_EDGE('',*,*,#139,.F.);
#95=ORIENTED_EDGE('',*,*,#146,.T.);
#96=ORIENTED_EDGE('',*,*,#146,.F.);
#97=ORIENTED_EDGE('',*,*,#138,.F.);
#98=ORIENTED_EDGE('',*,*,#145,.F.);
#99=ORIENTED_EDGE('',*,*,#143,.F.);
#100=ORIENTED_EDGE('',*,*,#147,.T.);
#101=ORIENTED_EDGE('',*,*,#125,.F.);
#102=ORIENTED_EDGE('',*,*,#148,.F.);
#103=ORIENTED_EDGE('',*,*,#141,.F.);
#104=ORIENTED_EDGE('',*,*,#149,.T.);
#105=ORIENTED_EDGE('',*,*,#150,.T.);
#106=ORIENTED_EDGE('',*,*,#151,.F.);
#107=ORIENTED_EDGE('',*,*,#127,.F.);
#108=ORIENTED_EDGE('',*,*,#151,.T.);
#109=ORIENTED_EDGE('',*,*,#152,.T.);
#110=ORIENTED_EDGE('',*,*,#149,.F.);
#111=ORIENTED_EDGE('',*,*,#126,.F.);
#112=ORIENTED_EDGE('',*,*,#147,.F.);
#113=ORIENTED_EDGE('',*,*,#140,.F.);
#114=ORIENTED_EDGE('',*,*,#148,.T.);
#115=ORIENTED_EDGE('',*,*,#128,.F.);
#116=ORIENTED_EDGE('',*,*,#153,.F.);
#117=ORIENTED_EDGE('',*,*,#152,.F.);
#118=ORIENTED_EDGE('',*,*,#154,.F.);
#119=ORIENTED_EDGE('',*,*,#134,.F.);
#120=ORIENTED_EDGE('',*,*,#154,.T.);
#121=ORIENTED_EDGE('',*,*,#150,.F.);
#122=ORIENTED_EDGE('',*,*,#153,.T.);
#123=ORIENTED_EDGE('',*,*,#135,.F.);
#124=EDGE_CURVE('',#155,#155,#176,.T.);
#125=EDGE_CURVE('',#156,#157,#177,.T.);
#126=EDGE_CURVE('',#157,#158,#48,.T.);
#127=EDGE_CURVE('',#158,#159,#178,.T.);
#128=EDGE_CURVE('',#159,#156,#49,.T.);
#129=EDGE_CURVE('',#160,#160,#50,.T.);
#130=EDGE_CURVE('',#161,#161,#51,.T.);
#131=EDGE_CURVE('',#162,#162,#52,.T.);
#132=EDGE_CURVE('',#163,#164,#53,.T.);
#133=EDGE_CURVE('',#164,#163,#54,.T.);
#134=EDGE_CURVE('',#165,#166,#179,.T.);
#135=EDGE_CURVE('',#166,#165,#13,.F.);
#136=EDGE_CURVE('',#167,#167,#55,.T.);
#137=EDGE_CURVE('',#163,#168,#14,.F.);
#138=EDGE_CURVE('',#168,#169,#56,.T.);
#139=EDGE_CURVE('',#169,#164,#15,.T.);
#140=EDGE_CURVE('',#170,#171,#180,.F.);
#141=EDGE_CURVE('',#171,#170,#16,.T.);
#142=EDGE_CURVE('',#172,#173,#17,.T.);
#143=EDGE_CURVE('',#172,#173,#57,.T.);
#144=EDGE_CURVE('',#164,#163,#18,.T.);
#145=EDGE_CURVE('',#173,#168,#58,.T.);
#146=EDGE_CURVE('',#169,#172,#59,.T.);
#147=EDGE_CURVE('',#171,#157,#19,.T.);
#148=EDGE_CURVE('',#170,#156,#20,.T.);
#149=EDGE_CURVE('',#158,#174,#21,.T.);
#150=EDGE_CURVE('',#174,#175,#22,.T.);
#151=EDGE_CURVE('',#159,#175,#23,.T.);
#152=EDGE_CURVE('',#175,#174,#181,.T.);
#153=EDGE_CURVE('',#174,#165,#60,.F.);
#154=EDGE_CURVE('',#166,#175,#61,.F.);
#155=VERTEX_POINT('',#325);
#156=VERTEX_POINT('',#327);
#157=VERTEX_POINT('',#328);
#158=VERTEX_POINT('',#336);
#159=VERTEX_POINT('',#338);
#160=VERTEX_POINT('',#476);
#161=VERTEX_POINT('',#503);
#162=VERTEX_POINT('',#634);
#163=VERTEX_POINT('',#699);
#164=VERTEX_POINT('',#700);
#165=VERTEX_POINT('',#729);
#166=VERTEX_POINT('',#730);
#167=VERTEX_POINT('',#758);
#168=VERTEX_POINT('',#828);
#169=VERTEX_POINT('',#844);
#170=VERTEX_POINT('',#848);
#171=VERTEX_POINT('',#849);
#172=VERTEX_POINT('',#852);
#173=VERTEX_POINT('',#853);
#174=VERTEX_POINT('',#999);
#175=VERTEX_POINT('',#1001);
#176=CIRCLE('',#262,0.00225);
#177=CIRCLE('',#263,0.00225);
#178=CIRCLE('',#264,0.00225);
#179=CIRCLE('',#266,0.00365);
#180=CIRCLE('',#268,0.00265);
#181=CIRCLE('',#274,0.00265);
#182=EDGE_LOOP('',(#62));
#183=EDGE_LOOP('',(#63,#64,#65,#66));
#184=EDGE_LOOP('',(#67));
#185=EDGE_LOOP('',(#68));
#186=EDGE_LOOP('',(#69));
#187=EDGE_LOOP('',(#70));
#188=EDGE_LOOP('',(#71));
#189=EDGE_LOOP('',(#72,#73));
#190=EDGE_LOOP('',(#74,#75));
#191=EDGE_LOOP('',(#76));
#192=EDGE_LOOP('',(#77));
#193=EDGE_LOOP('',(#78));
#194=EDGE_LOOP('',(#79,#80,#81,#82));
#195=EDGE_LOOP('',(#83,#84));
#196=EDGE_LOOP('',(#85,#86));
#197=EDGE_LOOP('',(#87,#88));
#198=EDGE_LOOP('',(#89));
#199=EDGE_LOOP('',(#90,#91,#92,#93,#94,#95));
#200=EDGE_LOOP('',(#96,#97,#98,#99));
#201=EDGE_LOOP('',(#100,#101,#102,#103));
#202=EDGE_LOOP('',(#104,#105,#106,#107));
#203=EDGE_LOOP('',(#108,#109,#110,#111,#112,#113,#114,#115));
#204=EDGE_LOOP('',(#116,#117,#118,#119));
#205=EDGE_LOOP('',(#120,#121,#122,#123));
#206=FACE_BOUND('',#182,.T.);
#207=FACE_BOUND('',#183,.T.);
#208=FACE_BOUND('',#184,.T.);
#209=FACE_BOUND('',#185,.T.);
#210=FACE_BOUND('',#186,.T.);
#211=FACE_BOUND('',#187,.T.);
#212=FACE_BOUND('',#188,.T.);
#213=FACE_BOUND('',#189,.T.);
#214=FACE_BOUND('',#190,.T.);
#215=FACE_BOUND('',#191,.T.);
#216=FACE_BOUND('',#192,.T.);
#217=FACE_BOUND('',#193,.T.);
#218=FACE_BOUND('',#194,.T.);
#219=FACE_BOUND('',#195,.T.);
#220=FACE_BOUND('',#196,.T.);
#221=FACE_BOUND('',#197,.T.);
#222=FACE_BOUND('',#198,.T.);
#223=FACE_BOUND('',#199,.T.);
#224=FACE_BOUND('',#200,.T.);
#225=FACE_BOUND('',#201,.T.);
#226=FACE_BOUND('',#202,.T.);
#227=FACE_BOUND('',#203,.T.);
#228=FACE_BOUND('',#204,.T.);
#229=FACE_BOUND('',#205,.T.);
#230=CYLINDRICAL_SURFACE('',#261,0.00225);
#231=CYLINDRICAL_SURFACE('',#273,0.00265);
#232=ADVANCED_FACE('',(#206,#207),#230,.F.);
#233=ADVANCED_FACE('',(#208,#209),#46,.T.);
#234=ADVANCED_FACE('',(#210,#211),#47,.T.);
#235=ADVANCED_FACE('',(#212,#213),#42,.T.);
#236=ADVANCED_FACE('',(#214,#215),#35,.F.);
#237=ADVANCED_FACE('',(#216,#217),#43,.T.);
#238=ADVANCED_FACE('',(#218),#44,.F.);
#239=ADVANCED_FACE('',(#219,#220),#36,.T.);
#240=ADVANCED_FACE('',(#221),#37,.T.);
#241=ADVANCED_FACE('',(#222,#223),#38,.F.);
#242=ADVANCED_FACE('',(#224),#45,.T.);
#243=ADVANCED_FACE('',(#225),#39,.T.);
#244=ADVANCED_FACE('',(#226),#40,.T.);
#245=ADVANCED_FACE('',(#227),#231,.F.);
#246=ADVANCED_FACE('',(#228),#12,.F.);
#247=ADVANCED_FACE('',(#229),#41,.T.);
#248=CLOSED_SHELL('',(#232,#233,#234,#235,#236,#237,#238,#239,#240,#241,
#242,#243,#244,#245,#246,#247));
#249=STYLED_ITEM('',(#250),#257);
#250=PRESENTATION_STYLE_ASSIGNMENT((#251));
#251=SURFACE_STYLE_USAGE(.BOTH.,#252);
#252=SURFACE_SIDE_STYLE('',(#253));
#253=SURFACE_STYLE_FILL_AREA(#254);
#254=FILL_AREA_STYLE('',(#255));
#255=FILL_AREA_STYLE_COLOUR('',#256);
#256=COLOUR_RGB('',0.647058823529412,0.647058823529412,0.647058823529412);
#257=MANIFOLD_SOLID_BREP('WG',#248);
#258=SHAPE_DEFINITION_REPRESENTATION(#1021,#259);
#259=SHAPE_REPRESENTATION('WG',(#260),#1016);
#260=AXIS2_PLACEMENT_3D('',#322,#277,#278);
#261=AXIS2_PLACEMENT_3D('',#323,#279,#280);
#262=AXIS2_PLACEMENT_3D('',#324,#281,#282);
#263=AXIS2_PLACEMENT_3D('',#326,#283,#284);
#264=AXIS2_PLACEMENT_3D('',#337,#285,#286);
#265=AXIS2_PLACEMENT_3D('',#727,#287,#288);
#266=AXIS2_PLACEMENT_3D('',#728,#289,#290);
#267=AXIS2_PLACEMENT_3D('',#846,#294,#295);
#268=AXIS2_PLACEMENT_3D('',#847,#296,#297);
#269=AXIS2_PLACEMENT_3D('',#887,#300,#301);
#270=AXIS2_PLACEMENT_3D('',#889,#303,#304);
#271=AXIS2_PLACEMENT_3D('',#994,#305,#306);
#272=AXIS2_PLACEMENT_3D('',#997,#309,#310);
#273=AXIS2_PLACEMENT_3D('',#1003,#314,#315);
#274=AXIS2_PLACEMENT_3D('',#1004,#316,#317);
#275=AXIS2_PLACEMENT_3D('',#1005,#318,#319);
#276=AXIS2_PLACEMENT_3D('',#1014,#320,#321);
#277=DIRECTION('',(0.,0.,1.));
#278=DIRECTION('',(1.,0.,0.));
#279=DIRECTION('',(1.,1.7347234759768E-16,0.));
#280=DIRECTION('',(-1.7347234759768E-16,1.,0.));
#281=DIRECTION('',(1.,1.7347234759768E-16,0.));
#282=DIRECTION('',(-1.7347234759768E-16,1.,0.));
#283=DIRECTION('',(1.,0.,0.));
#284=DIRECTION('',(0.,0.,-1.));
#285=DIRECTION('',(1.,0.,0.));
#286=DIRECTION('',(0.,0.,-1.));
#287=DIRECTION('',(0.,0.,1.));
#288=DIRECTION('',(1.,0.,0.));
#289=DIRECTION('',(0.,0.,1.));
#290=DIRECTION('',(1.,0.,0.));
#291=DIRECTION('',(0.,1.,0.));
#292=DIRECTION('',(0.,0.,-1.));
#293=DIRECTION('',(0.,0.,-1.));
#294=DIRECTION('',(0.,0.,1.));
#295=DIRECTION('',(1.,0.,0.));
#296=DIRECTION('',(0.,0.,1.));
#297=DIRECTION('',(1.,0.,0.));
#298=DIRECTION('',(0.,1.,0.));
#299=DIRECTION('',(-1.7347234759768E-16,1.,0.));
#300=DIRECTION('',(0.,0.,1.));
#301=DIRECTION('',(1.,0.,0.));
#302=DIRECTION('',(-1.7347234759768E-16,1.,0.));
#303=DIRECTION('',(1.,1.7347234759768E-16,0.));
#304=DIRECTION('',(-1.7347234759768E-16,1.,0.));
#305=DIRECTION('',(1.,0.,0.));
#306=DIRECTION('',(0.,0.,-1.));
#307=DIRECTION('',(0.,0.,-1.));
#308=DIRECTION('',(0.,0.,-1.));
#309=DIRECTION('',(1.,0.,0.));
#310=DIRECTION('',(0.,0.,-1.));
#311=DIRECTION('',(0.,0.,-1.));
#312=DIRECTION('',(0.,1.,0.));
#313=DIRECTION('',(0.,0.,-1.));
#314=DIRECTION('',(0.,0.,-1.));
#315=DIRECTION('',(-1.,0.,0.));
#316=DIRECTION('',(0.,0.,-1.));
#317=DIRECTION('',(-1.,0.,0.));
#318=DIRECTION('',(0.,0.,-1.));
#319=DIRECTION('',(-1.,0.,0.));
#320=DIRECTION('',(0.707106781186547,0.,-0.707106781186548));
#321=DIRECTION('',(0.,1.,0.));
#322=CARTESIAN_POINT('',(0.,0.,0.));
#323=CARTESIAN_POINT('',(-0.00864174470926646,-1.86982107152564E-7,0.010444799389565));
#324=CARTESIAN_POINT('',(-0.00864174470926646,-1.86982107152564E-7,0.010444799389565));
#325=CARTESIAN_POINT('',(-0.00864174470926646,0.00224981301789285,0.010444799389565));
#326=CARTESIAN_POINT('',(-0.00215,-1.86982107151437E-7,0.010444799389565));
#327=CARTESIAN_POINT('',(-0.00215,0.00154919333848297,0.0120763387308523));
#328=CARTESIAN_POINT('',(-0.00215,-0.00154919333848297,0.012076693781953));
#329=CARTESIAN_POINT('',(-0.00215,-0.00154919333848297,0.012076693781953));
#330=CARTESIAN_POINT('',(-0.00199486674936352,-0.00176449021627295,0.0118723323761168));
#331=CARTESIAN_POINT('',(-0.0016547770042966,-0.00209798948257065,0.0114139068185571));
#332=CARTESIAN_POINT('',(-0.00127171757799787,-0.00232663815871326,0.0104420384438445));
#333=CARTESIAN_POINT('',(-0.00165655903539419,-0.00209657376514557,0.0094739971425811));
#334=CARTESIAN_POINT('',(-0.00199503028010983,-0.00176426326519102,0.00901705097934969));
#335=CARTESIAN_POINT('',(-0.00215000000000009,-0.00154919333848301,0.00881290499717708));
#336=CARTESIAN_POINT('',(-0.00215,-0.00154919333848297,0.00881290499717704));
#337=CARTESIAN_POINT('',(-0.00215,-1.86982107151437E-7,0.010444799389565));
#338=CARTESIAN_POINT('',(-0.00215,0.00154919333848297,0.00881326004827776));
#339=CARTESIAN_POINT('',(-0.00215,0.00154919333848297,0.00881326004827776));
#340=CARTESIAN_POINT('',(-0.00199495118538832,0.00176437303435072,0.00901760399373544));
#341=CARTESIAN_POINT('',(-0.00165507521872376,0.00209771162194858,0.0094759777428193));
#342=CARTESIAN_POINT('',(-0.00127247927263043,0.00232620871874834,0.0104475371439493));
#343=CARTESIAN_POINT('',(-0.00165681990106759,0.00209632573679058,0.0114152631847431));
#344=CARTESIAN_POINT('',(-0.00199511382036092,0.00176414732644059,0.0118722091273876));
#345=CARTESIAN_POINT('',(-0.00215000000000009,0.00154919333848301,0.0120763387308522));
#346=CARTESIAN_POINT('',(0.00684920178670361,-0.00782995273577597,0.00557661854102146));
#347=CARTESIAN_POINT('',(0.00987386573032046,-0.00504659983038808,0.00557661854102146));
#348=CARTESIAN_POINT('',(0.0109767398786552,-0.00254004626007342,0.00557661854102146));
#349=CARTESIAN_POINT('',(0.0110032805456526,0.00244582897225069,0.00557661854102146));
#350=CARTESIAN_POINT('',(0.00992786143817591,0.00495953402937654,0.00557661854102146));
#351=CARTESIAN_POINT('',(0.00693589923625186,0.00776782089786167,0.00557661854102146));
#352=CARTESIAN_POINT('',(0.00571721570742269,0.00853779132148785,0.00557661854102146));
#353=CARTESIAN_POINT('',(0.00301737822465252,0.00959168635361549,0.00557661854102146));
#354=CARTESIAN_POINT('',(0.00153820248427435,0.00987386407719239,0.00557661854102146));
#355=CARTESIAN_POINT('',(-0.00142616765177629,0.00988749355972552,0.00557661854102146));
#356=CARTESIAN_POINT('',(-0.00290875878119661,0.00961892299613006,0.00557661854102146));
#357=CARTESIAN_POINT('',(-0.00562128157482546,0.00858929896513102,0.00557661854102146));
#358=CARTESIAN_POINT('',(-0.00684920185387832,0.00782995267369559,0.00557661854102146));
#359=CARTESIAN_POINT('',(-0.00987386559597104,0.00504659995454884,0.00557661854102146));
#360=CARTESIAN_POINT('',(-0.0109767398786553,0.0025400462600724,0.00557661854102146));
#361=CARTESIAN_POINT('',(-0.0110032805456526,-0.00244582897224965,0.00557661854102146));
#362=CARTESIAN_POINT('',(-0.00992786143817958,-0.00495953402937353,0.00557661854102146));
#363=CARTESIAN_POINT('',(-0.00693589923625003,-0.00776782089786318,0.00557661854102146));
#364=CARTESIAN_POINT('',(-0.00571721570741915,-0.00853779132148962,0.00557661854102146));
#365=CARTESIAN_POINT('',(-0.00301737822465604,-0.00959168635361373,0.00557661854102146));
#366=CARTESIAN_POINT('',(-0.00153820248427693,-0.00987386407719065,0.00557661854102146));
#367=CARTESIAN_POINT('',(0.00142616765177886,-0.00988749355972727,0.00557661854102146));
#368=CARTESIAN_POINT('',(0.00290875878121456,-0.0096189229961255,0.00557661854102146));
#369=CARTESIAN_POINT('',(0.00562128157480751,-0.00858929896513558,0.00557661854102146));
#370=CARTESIAN_POINT('',(0.00684920178670361,-0.00782995273577597,0.00557661854102146));
#371=CARTESIAN_POINT('',(0.00987386573032046,-0.00504659983038808,0.00557661854102146));
#372=CARTESIAN_POINT('',(0.00645541439057918,-0.0072714815336756,0.00437547603742717));
#373=CARTESIAN_POINT('',(0.00928493835316417,-0.00466770012558038,0.00437547603742717));
#374=CARTESIAN_POINT('',(0.0103001634034051,-0.00234556509977235,0.00437547603742717));
#375=CARTESIAN_POINT('',(0.0103246719581405,0.00225856169391675,0.00437547603742717));
#376=CARTESIAN_POINT('',(0.00933503724227306,0.00458663928719753,0.00437547603742717));
#377=CARTESIAN_POINT('',(0.00653671352852975,0.00721317505476883,0.00437547603742717));
#378=CARTESIAN_POINT('',(0.00539242575319464,0.00793717677594541,0.00437547603742717));
#379=CARTESIAN_POINT('',(0.00284937214960822,0.00892987043851465,0.00437547603742717));
#380=CARTESIAN_POINT('',(0.00145265455883369,0.00919664811307379,0.00437547603742717));
#381=CARTESIAN_POINT('',(-0.00134685057361911,0.00920951958476962,0.00437547603742717));
#382=CARTESIAN_POINT('',(-0.00274689314091296,0.00895558892018658,0.00437547603742717));
#383=CARTESIAN_POINT('',(-0.00530221772858183,0.00798563445251364,0.00437547603742717));
#384=CARTESIAN_POINT('',(-0.00645541445339533,0.00727148147556806,0.00437547603742717));
#385=CARTESIAN_POINT('',(-0.00928493822753185,0.00466770024179547,0.00437547603742717));
#386=CARTESIAN_POINT('',(-0.0103001634034052,0.00234556509977004,0.00437547603742717));
#387=CARTESIAN_POINT('',(-0.0103246719581405,-0.00225856169391441,0.00437547603742717));
#388=CARTESIAN_POINT('',(-0.00933503724227776,-0.0045866392871986,0.00437547603742717));
#389=CARTESIAN_POINT('',(-0.00653671352852741,-0.00721317505476828,0.00437547603742717));
#390=CARTESIAN_POINT('',(-0.00539242575319199,-0.00793717677594541,0.00437547603742717));
#391=CARTESIAN_POINT('',(-0.00284937214961086,-0.00892987043851465,0.00437547603742717));
#392=CARTESIAN_POINT('',(-0.00145265455883673,-0.00919664811307383,0.00437547603742717));
#393=CARTESIAN_POINT('',(0.00134685057362214,-0.00920951958476958,0.00437547603742717));
#394=CARTESIAN_POINT('',(0.00274689314092961,-0.00895558892018217,0.00437547603742717));
#395=CARTESIAN_POINT('',(0.00530221772856518,-0.00798563445251804,0.00437547603742717));
#396=CARTESIAN_POINT('',(0.00645541439057918,-0.0072714815336756,0.00437547603742717));
#397=CARTESIAN_POINT('',(0.00928493835316417,-0.00466770012558038,0.00437547603742717));
#398=CARTESIAN_POINT('',(0.00660523831599426,-0.00748396255402679,0.00302069794068876));
#399=CARTESIAN_POINT('',(0.00950900700619461,-0.00481185974488665,0.00302069794068876));
#400=CARTESIAN_POINT('',(0.0105575798275011,-0.00241955916647558,0.00302069794068876));
#401=CARTESIAN_POINT('',(0.0105828615381097,0.00232981110163792,0.00302069794068876));
#402=CARTESIAN_POINT('',(0.00956058851432,0.00472851420393945,0.00302069794068876));
#403=CARTESIAN_POINT('',(0.00668859134455125,0.0074242006443269,0.00302069794068876));
#404=CARTESIAN_POINT('',(0.00551599828587715,0.00816569203509345,0.00302069794068876));
#405=CARTESIAN_POINT('',(0.00291329326517651,0.00918167092598178,0.00302069794068876));
#406=CARTESIAN_POINT('',(0.00148520289869028,0.00945430784290868,0.00302069794068876));
#407=CARTESIAN_POINT('',(-0.00137702826878809,0.00946746771428587,0.00302069794068876));
#408=CARTESIAN_POINT('',(-0.00280847801096247,0.0092079670209007,0.00302069794068876));
#409=CARTESIAN_POINT('',(-0.00542361165426962,0.00821531012980712,0.00302069794068876));
#410=CARTESIAN_POINT('',(-0.00660523838046775,0.0074839624944074,0.00302069794068876));
#411=CARTESIAN_POINT('',(-0.00950900687724763,0.00481185986412544,0.00302069794068876));
#412=CARTESIAN_POINT('',(-0.0105575798275045,0.00241955916647313,0.00302069794068876));
#413=CARTESIAN_POINT('',(-0.0105828615381063,-0.00232981110163544,0.00302069794068876));
#414=CARTESIAN_POINT('',(-0.00956058851432324,-0.00472851420394027,0.00302069794068876));
#415=CARTESIAN_POINT('',(-0.00668859134454963,-0.00742420064432649,0.00302069794068876));
#416=CARTESIAN_POINT('',(-0.00551599828587626,-0.00816569203509346,0.00302069794068876));
#417=CARTESIAN_POINT('',(-0.00291329326517738,-0.00918167092598178,0.00302069794068876));
#418=CARTESIAN_POINT('',(-0.00148520289869314,-0.00945430784291228,0.00302069794068876));
#419=CARTESIAN_POINT('',(0.00137702826879093,-0.00946746771428227,0.00302069794068876));
#420=CARTESIAN_POINT('',(0.0028084780109784,-0.00920796702089448,0.00302069794068876));
#421=CARTESIAN_POINT('',(0.0054236116542537,-0.00821531012981334,0.00302069794068876));
#422=CARTESIAN_POINT('',(0.00660523831599426,-0.00748396255402679,0.00302069794068876));
#423=CARTESIAN_POINT('',(0.00950900700619461,-0.00481185974488665,0.00302069794068876));
#424=CARTESIAN_POINT('',(0.00722788558434193,-0.00836700394098056,0.0021523823036597));
#425=CARTESIAN_POINT('',(0.0104402049730428,-0.00541096694968329,0.0021523823036597));
#426=CARTESIAN_POINT('',(0.0116273664643786,-0.00272706815330143,0.0021523823036597));
#427=CARTESIAN_POINT('',(0.0116558613025719,0.00262591366980937,0.0021523823036597));
#428=CARTESIAN_POINT('',(0.010497948038325,0.00531812650459595,0.0021523823036597));
#429=CARTESIAN_POINT('',(0.00731977429484948,0.0083011934645676,0.0021523823036597));
#430=CARTESIAN_POINT('',(0.00602954843953126,0.00911536947473103,0.0021523823036597));
#431=CARTESIAN_POINT('',(0.00317894047664591,0.0102281185160799,0.0021523823036597));
#432=CARTESIAN_POINT('',(0.00162046924447242,0.0105251056243767,0.0021523823036597));
#433=CARTESIAN_POINT('',(-0.00150244254698571,0.0105394640444667,0.0021523823036597));
#434=CARTESIAN_POINT('',(-0.00306441611297941,0.0102568150908338,0.0021523823036597));
#435=CARTESIAN_POINT('',(-0.00592810782211804,0.00916981010486453,0.0021523823036597));
#436=CARTESIAN_POINT('',(-0.00722788565570791,0.00836700387507994,0.0021523823036597));
#437=CARTESIAN_POINT('',(-0.0104402048303109,0.00541096708148454,0.0021523823036597));
#438=CARTESIAN_POINT('',(-0.0116273664643852,0.00272706815330006,0.0021523823036597));
#439=CARTESIAN_POINT('',(-0.0116558613025652,-0.00262591366980798,0.0021523823036597));
#440=CARTESIAN_POINT('',(-0.0104979480383258,-0.00531812650459576,0.0021523823036597));
#441=CARTESIAN_POINT('',(-0.00731977429484905,-0.00830119346456769,0.0021523823036597));
#442=CARTESIAN_POINT('',(-0.00602954843952949,-0.00911536947472927,0.0021523823036597));
#443=CARTESIAN_POINT('',(-0.00317894047664766,-0.0102281185160817,0.0021523823036597));
#444=CARTESIAN_POINT('',(-0.00162046924447547,-0.010525105624375,0.0021523823036597));
#445=CARTESIAN_POINT('',(0.00150244254698874,-0.0105394640444684,0.0021523823036597));
#446=CARTESIAN_POINT('',(0.00306441611299954,-0.0102568150908291,0.0021523823036597));
#447=CARTESIAN_POINT('',(0.00592810782209792,-0.00916981010486924,0.0021523823036597));
#448=CARTESIAN_POINT('',(0.00722788558434193,-0.00836700394098056,0.0021523823036597));
#449=CARTESIAN_POINT('',(0.0104402049730428,-0.00541096694968329,0.0021523823036597));
#450=CARTESIAN_POINT('',(0.00722788558434192,-0.00836700394098056,0.0021523823036597));
#451=CARTESIAN_POINT('',(0.0104402049730428,-0.00541096694968329,0.0021523823036597));
#452=CARTESIAN_POINT('',(0.0116273664643819,-0.00272706815330309,0.0021523823036597));
#453=CARTESIAN_POINT('',(0.0116558613025686,0.00262591366981102,0.0021523823036597));
#454=CARTESIAN_POINT('',(0.010497948038325,0.00531812650459595,0.0021523823036597));
#455=CARTESIAN_POINT('',(0.00731977429484949,0.0083011934645676,0.0021523823036597));
#456=CARTESIAN_POINT('',(0.00602954843953126,0.00911536947473103,0.0021523823036597));
#457=CARTESIAN_POINT('',(0.00317894047664591,0.0102281185160799,0.0021523823036597));
#458=CARTESIAN_POINT('',(0.00162046924447242,0.0105251056243785,0.0021523823036597));
#459=CARTESIAN_POINT('',(-0.00150244254698571,0.0105394640444649,0.0021523823036597));
#460=CARTESIAN_POINT('',(-0.00306441611298029,0.0102568150908338,0.0021523823036597));
#461=CARTESIAN_POINT('',(-0.00592810782211716,0.00916981010486453,0.0021523823036597));
#462=CARTESIAN_POINT('',(-0.00722788565570791,0.00836700387507994,0.0021523823036597));
#463=CARTESIAN_POINT('',(-0.0104402048303109,0.00541096708148454,0.0021523823036597));
#464=CARTESIAN_POINT('',(-0.0116273664643786,0.0027270681532984,0.0021523823036597));
#465=CARTESIAN_POINT('',(-0.0116558613025719,-0.00262591366980632,0.0021523823036597));
#466=CARTESIAN_POINT('',(-0.0104979480383293,-0.00531812650459576,0.0021523823036597));
#467=CARTESIAN_POINT('',(-0.00731977429484733,-0.00830119346456769,0.0021523823036597));
#468=CARTESIAN_POINT('',(-0.00602954843952861,-0.00911536947473104,0.0021523823036597));
#469=CARTESIAN_POINT('',(-0.00317894047664854,-0.0102281185160799,0.0021523823036597));
#470=CARTESIAN_POINT('',(-0.00162046924447547,-0.0105251056243785,0.0021523823036597));
#471=CARTESIAN_POINT('',(0.00150244254698874,-0.0105394640444649,0.0021523823036597));
#472=CARTESIAN_POINT('',(0.00306441611299778,-0.0102568150908273,0.0021523823036597));
#473=CARTESIAN_POINT('',(0.00592810782209968,-0.00916981010487101,0.0021523823036597));
#474=CARTESIAN_POINT('',(0.00722788558434192,-0.00836700394098056,0.0021523823036597));
#475=CARTESIAN_POINT('',(0.0104402049730428,-0.00541096694968329,0.0021523823036597));
#476=CARTESIAN_POINT('',(0.00829865871390889,-0.0073816582772148,0.0021523823036597));
#477=CARTESIAN_POINT('',(0.00684920178670361,-0.00782995273577597,0.00557661854102145));
#478=CARTESIAN_POINT('',(0.00987386573032046,-0.00504659983038808,0.00557661854102145));
#479=CARTESIAN_POINT('',(0.0109767398786552,-0.00254004626007508,0.00557661854102145));
#480=CARTESIAN_POINT('',(0.0110032805456526,0.00244582897225235,0.00557661854102145));
#481=CARTESIAN_POINT('',(0.00992786143817935,0.00495953402937654,0.00557661854102145));
#482=CARTESIAN_POINT('',(0.00693589923625014,0.00776782089786167,0.00557661854102145));
#483=CARTESIAN_POINT('',(0.00571721570742181,0.00853779132148785,0.00557661854102145));
#484=CARTESIAN_POINT('',(0.0030173782246534,0.00959168635361549,0.00557661854102145));
#485=CARTESIAN_POINT('',(0.00153820248427346,0.00987386407719239,0.00557661854102145));
#486=CARTESIAN_POINT('',(-0.0014261676517754,0.00988749355972552,0.00557661854102145));
#487=CARTESIAN_POINT('',(-0.00290875878119749,0.00961892299613006,0.00557661854102145));
#488=CARTESIAN_POINT('',(-0.00562128157482458,0.00858929896513102,0.00557661854102145));
#489=CARTESIAN_POINT('',(-0.00684920185387832,0.00782995267369559,0.00557661854102145));
#490=CARTESIAN_POINT('',(-0.00987386559597104,0.00504659995454884,0.00557661854102145));
#491=CARTESIAN_POINT('',(-0.0109767398786586,0.00254004626007241,0.00557661854102145));
#492=CARTESIAN_POINT('',(-0.0110032805456492,-0.00244582897224965,0.00557661854102145));
#493=CARTESIAN_POINT('',(-0.00992786143817958,-0.00495953402937009,0.00557661854102145));
#494=CARTESIAN_POINT('',(-0.00693589923625003,-0.0077678208978649,0.00557661854102145));
#495=CARTESIAN_POINT('',(-0.00571721570742003,-0.00853779132148962,0.00557661854102145));
#496=CARTESIAN_POINT('',(-0.00301737822465516,-0.00959168635361373,0.00557661854102145));
#497=CARTESIAN_POINT('',(-0.00153820248427693,-0.00987386407719065,0.00557661854102145));
#498=CARTESIAN_POINT('',(0.00142616765177886,-0.00988749355972727,0.00557661854102145));
#499=CARTESIAN_POINT('',(0.00290875878121368,-0.0096189229961255,0.00557661854102145));
#500=CARTESIAN_POINT('',(0.00562128157480839,-0.00858929896513558,0.00557661854102145));
#501=CARTESIAN_POINT('',(0.00684920178670361,-0.00782995273577597,0.00557661854102145));
#502=CARTESIAN_POINT('',(0.00987386573032046,-0.00504659983038808,0.00557661854102145));
#503=CARTESIAN_POINT('',(0.00785742310124256,-0.00690216843398001,0.00557661854102145));
#504=CARTESIAN_POINT('',(0.00664673718202569,-0.0075428164478448,0.00617315462117278));
#505=CARTESIAN_POINT('',(0.00957107049163722,-0.00485178968739856,0.00617315462117278));
#506=CARTESIAN_POINT('',(0.0106288801199523,-0.0024400543567647,0.00617315462117278));
#507=CARTESIAN_POINT('',(0.0106543759825465,0.00234954606464635,0.00617315462117278));
#508=CARTESIAN_POINT('',(0.00962306266186354,0.00476781131985003,0.00617315462117278));
#509=CARTESIAN_POINT('',(0.00673065910591007,0.00748265140675321,0.00617315462117278));
#510=CARTESIAN_POINT('',(0.00555022592985978,0.00822898716035028,0.00617315462117278));
#511=CARTESIAN_POINT('',(0.00293099840675497,0.00925141569249355,0.00617315462117278));
#512=CARTESIAN_POINT('',(0.00149421827585173,0.00952567552721145,0.00617315462117278));
#513=CARTESIAN_POINT('',(-0.00138538701473374,0.00953891528075619,0.00617315462117278));
#514=CARTESIAN_POINT('',(-0.00282553604935358,0.00927787177717928,0.00617315462117278));
#515=CARTESIAN_POINT('',(-0.00545723585844997,0.00827892667260051,0.00617315462117278));
#516=CARTESIAN_POINT('',(-0.00664673724695897,0.0075428163878061,0.00617315462117278));
#517=CARTESIAN_POINT('',(-0.00957107036177066,0.00485178980747597,0.00617315462117278));
#518=CARTESIAN_POINT('',(-0.0106288801199524,0.0024400543567622,0.00617315462117278));
#519=CARTESIAN_POINT('',(-0.0106543759825465,-0.00234954606464384,0.00617315462117278));
#520=CARTESIAN_POINT('',(-0.00962306266186685,-0.00476781131984734,0.00617315462117278));
#521=CARTESIAN_POINT('',(-0.00673065910590841,-0.00748265140675455,0.00617315462117278));
#522=CARTESIAN_POINT('',(-0.00555022592985625,-0.00822898716035029,0.00617315462117278));
#523=CARTESIAN_POINT('',(-0.00293099840675849,-0.00925141569249355,0.00617315462117278));
#524=CARTESIAN_POINT('',(-0.00149421827585455,-0.00952567552721327,0.00617315462117278));
#525=CARTESIAN_POINT('',(0.00138538701473655,-0.00953891528075437,0.00617315462117278));
#526=CARTESIAN_POINT('',(0.00282553604937131,-0.0092778717771748,0.00617315462117278));
#527=CARTESIAN_POINT('',(0.00545723585843224,-0.00827892667260499,0.00617315462117278));
#528=CARTESIAN_POINT('',(0.00664673718202569,-0.0075428164478448,0.00617315462117278));
#529=CARTESIAN_POINT('',(0.00957107049163722,-0.00485178968739856,0.00617315462117278));
#530=CARTESIAN_POINT('',(0.00684660922405717,-0.00782627595081046,0.00617315462117278));
#531=CARTESIAN_POINT('',(0.00986998843222888,-0.00504410528325148,0.00617315462117278));
#532=CARTESIAN_POINT('',(0.0109722855286324,-0.00253876586208113,0.00617315462117278));
#533=CARTESIAN_POINT('',(0.0109988128168905,0.00244459606801037,0.00617315462117278));
#534=CARTESIAN_POINT('',(0.00992395848475407,0.00495707901687488,0.00617315462117278));
#535=CARTESIAN_POINT('',(0.00693327113295164,0.00776416929776342,0.00617315462117278));
#536=CARTESIAN_POINT('',(0.00571507740052864,0.00853383707904428,0.00617315462117278));
#537=CARTESIAN_POINT('',(0.00301627212964244,0.00958732918211283,0.00617315462117278));
#538=CARTESIAN_POINT('',(0.00153763926575127,0.00986940551699028,0.00617315462117278));
#539=CARTESIAN_POINT('',(-0.00142564545503827,0.00988303000903872,0.00617315462117278));
#540=CARTESIAN_POINT('',(-0.00290769311272537,0.00961455582957134,0.00617315462117278));
#541=CARTESIAN_POINT('',(-0.00561918096668498,0.00858532464273878,0.00617315462117278));
#542=CARTESIAN_POINT('',(-0.00684660929120254,0.00782627588875682,0.00617315462117278));
#543=CARTESIAN_POINT('',(-0.00986998829793812,0.00504410540735877,0.00617315462117278));
#544=CARTESIAN_POINT('',(-0.0109722855286357,0.00253876586207845,0.00617315462117278));
#545=CARTESIAN_POINT('',(-0.0109988128168872,-0.00244459606800768,0.00617315462117278));
#546=CARTESIAN_POINT('',(-0.00992395848475428,-0.00495707901687187,0.00617315462117278));
#547=CARTESIAN_POINT('',(-0.00693327113295153,-0.00776416929776491,0.00617315462117278));
#548=CARTESIAN_POINT('',(-0.00571507740052775,-0.00853383707904605,0.00617315462117278));
#549=CARTESIAN_POINT('',(-0.00301627212964331,-0.00958732918211107,0.00617315462117278));
#550=CARTESIAN_POINT('',(-0.00153763926575386,-0.0098694055169921,0.00617315462117278));
#551=CARTESIAN_POINT('',(0.00142564545504084,-0.0098830300090369,0.00617315462117278));
#552=CARTESIAN_POINT('',(0.00290769311274243,-0.00961455582956678,0.00617315462117278));
#553=CARTESIAN_POINT('',(0.00561918096666792,-0.00858532464274333,0.00617315462117278));
#554=CARTESIAN_POINT('',(0.00684660922405717,-0.00782627595081046,0.00617315462117278));
#555=CARTESIAN_POINT('',(0.00986998843222888,-0.00504410528325148,0.00617315462117278));
#556=CARTESIAN_POINT('',(0.00694740695588537,-0.00796922778476225,0.00587616698756344));
#557=CARTESIAN_POINT('',(0.0100207361311474,-0.00514109221379033,0.00587616698756344));
#558=CARTESIAN_POINT('',(0.0111454687609669,-0.0025885471908768,0.00587616698756344));
#559=CARTESIAN_POINT('',(0.011172516208857,0.00249253085995107,0.00587616698756344));
#560=CARTESIAN_POINT('',(0.0100757036520917,0.00505252885755743,0.00587616698756344));
#561=CARTESIAN_POINT('',(0.00703545067021566,0.00790614195484094,0.00587616698756344));
#562=CARTESIAN_POINT('',(0.00579821386205348,0.00868757634162613,0.00587616698756344));
#563=CARTESIAN_POINT('',(0.00305927663274337,0.00975673415491296,0.00587616698756344));
#564=CARTESIAN_POINT('',(0.00155953696215209,0.0100427524392468,0.00587616698756344));
#565=CARTESIAN_POINT('',(-0.00144594824190232,0.0100565709592725,0.00587616698756344));
#566=CARTESIAN_POINT('',(-0.00294912584917731,0.00978434940589564,0.00587616698756344));
#567=CARTESIAN_POINT('',(-0.00570085171675483,0.00873984460517518,0.00587616698756344));
#568=CARTESIAN_POINT('',(-0.00694740702414703,0.00796922772169201,0.00587616698756344));
#569=CARTESIAN_POINT('',(-0.0100207359946241,0.0051410923399308,0.00587616698756344));
#570=CARTESIAN_POINT('',(-0.0111454687609703,0.00258854719087237,0.00587616698756344));
#571=CARTESIAN_POINT('',(-0.0111725162088536,-0.00249253085994663,0.00587616698756344));
#572=CARTESIAN_POINT('',(-0.0100757036520955,-0.00505252885755426,0.00587616698756344));
#573=CARTESIAN_POINT('',(-0.00703545067021375,-0.00790614195484252,0.00587616698756344));
#574=CARTESIAN_POINT('',(-0.00579821386205171,-0.00868757634162613,0.00587616698756344));
#575=CARTESIAN_POINT('',(-0.00305927663274512,-0.00975673415491297,0.00587616698756344));
#576=CARTESIAN_POINT('',(-0.00155953696215457,-0.0100427524392469,0.00587616698756344));
#577=CARTESIAN_POINT('',(0.00144594824190477,-0.0100565709592725,0.00587616698756344));
#578=CARTESIAN_POINT('',(0.00294912584919449,-0.00978434940589104,0.00587616698756344));
#579=CARTESIAN_POINT('',(0.00570085171673765,-0.00873984460517978,0.00587616698756344));
#580=CARTESIAN_POINT('',(0.00694740695588537,-0.00796922778476225,0.00587616698756344));
#581=CARTESIAN_POINT('',(0.0100207361311474,-0.00514109221379033,0.00587616698756344));
#582=CARTESIAN_POINT('',(0.00684920178670361,-0.00782995273577597,0.00557661854102145));
#583=CARTESIAN_POINT('',(0.00987386573032046,-0.00504659983038808,0.00557661854102145));
#584=CARTESIAN_POINT('',(0.0109767398786552,-0.00254004626007508,0.00557661854102145));
#585=CARTESIAN_POINT('',(0.0110032805456526,0.00244582897225235,0.00557661854102145));
#586=CARTESIAN_POINT('',(0.00992786143817935,0.00495953402937654,0.00557661854102145));
#587=CARTESIAN_POINT('',(0.00693589923625014,0.00776782089786167,0.00557661854102145));
#588=CARTESIAN_POINT('',(0.00571721570742181,0.00853779132148785,0.00557661854102145));
#589=CARTESIAN_POINT('',(0.0030173782246534,0.00959168635361549,0.00557661854102145));
#590=CARTESIAN_POINT('',(0.00153820248427346,0.00987386407719239,0.00557661854102145));
#591=CARTESIAN_POINT('',(-0.0014261676517754,0.00988749355972552,0.00557661854102145));
#592=CARTESIAN_POINT('',(-0.00290875878119749,0.00961892299613006,0.00557661854102145));
#593=CARTESIAN_POINT('',(-0.00562128157482458,0.00858929896513102,0.00557661854102145));
#594=CARTESIAN_POINT('',(-0.00684920185387832,0.00782995267369559,0.00557661854102145));
#595=CARTESIAN_POINT('',(-0.00987386559597104,0.00504659995454884,0.00557661854102145));
#596=CARTESIAN_POINT('',(-0.0109767398786586,0.00254004626007241,0.00557661854102145));
#597=CARTESIAN_POINT('',(-0.0110032805456492,-0.00244582897224965,0.00557661854102145));
#598=CARTESIAN_POINT('',(-0.00992786143817958,-0.00495953402937009,0.00557661854102145));
#599=CARTESIAN_POINT('',(-0.00693589923625003,-0.0077678208978649,0.00557661854102145));
#600=CARTESIAN_POINT('',(-0.00571721570742003,-0.00853779132148962,0.00557661854102145));
#601=CARTESIAN_POINT('',(-0.00301737822465516,-0.00959168635361373,0.00557661854102145));
#602=CARTESIAN_POINT('',(-0.00153820248427693,-0.00987386407719065,0.00557661854102145));
#603=CARTESIAN_POINT('',(0.00142616765177886,-0.00988749355972727,0.00557661854102145));
#604=CARTESIAN_POINT('',(0.00290875878121368,-0.0096189229961255,0.00557661854102145));
#605=CARTESIAN_POINT('',(0.00562128157480839,-0.00858929896513558,0.00557661854102145));
#606=CARTESIAN_POINT('',(0.00684920178670361,-0.00782995273577597,0.00557661854102145));
#607=CARTESIAN_POINT('',(0.00987386573032046,-0.00504659983038808,0.00557661854102145));
#608=CARTESIAN_POINT('',(0.00664673718202569,-0.0075428164478448,0.00617315462117278));
#609=CARTESIAN_POINT('',(0.00957107049163722,-0.00485178968739856,0.00617315462117278));
#610=CARTESIAN_POINT('',(0.0106288801199523,-0.0024400543567647,0.00617315462117278));
#611=CARTESIAN_POINT('',(0.0106543759825465,0.00234954606464635,0.00617315462117278));
#612=CARTESIAN_POINT('',(0.00962306266186354,0.00476781131985003,0.00617315462117278));
#613=CARTESIAN_POINT('',(0.00673065910591007,0.00748265140675321,0.00617315462117278));
#614=CARTESIAN_POINT('',(0.00555022592985978,0.00822898716035028,0.00617315462117278));
#615=CARTESIAN_POINT('',(0.00293099840675497,0.00925141569249355,0.00617315462117278));
#616=CARTESIAN_POINT('',(0.00149421827585173,0.00952567552721145,0.00617315462117278));
#617=CARTESIAN_POINT('',(-0.00138538701473374,0.00953891528075619,0.00617315462117278));
#618=CARTESIAN_POINT('',(-0.00282553604935358,0.00927787177717928,0.00617315462117278));
#619=CARTESIAN_POINT('',(-0.00545723585844997,0.00827892667260051,0.00617315462117278));
#620=CARTESIAN_POINT('',(-0.00664673724695897,0.0075428163878061,0.00617315462117278));
#621=CARTESIAN_POINT('',(-0.00957107036177066,0.00485178980747597,0.00617315462117278));
#622=CARTESIAN_POINT('',(-0.0106288801199524,0.0024400543567622,0.00617315462117278));
#623=CARTESIAN_POINT('',(-0.0106543759825465,-0.00234954606464384,0.00617315462117278));
#624=CARTESIAN_POINT('',(-0.00962306266186685,-0.00476781131984734,0.00617315462117278));
#625=CARTESIAN_POINT('',(-0.00673065910590841,-0.00748265140675455,0.00617315462117278));
#626=CARTESIAN_POINT('',(-0.00555022592985625,-0.00822898716035029,0.00617315462117278));
#627=CARTESIAN_POINT('',(-0.00293099840675849,-0.00925141569249355,0.00617315462117278));
#628=CARTESIAN_POINT('',(-0.00149421827585455,-0.00952567552721327,0.00617315462117278));
#629=CARTESIAN_POINT('',(0.00138538701473655,-0.00953891528075437,0.00617315462117278));
#630=CARTESIAN_POINT('',(0.00282553604937131,-0.0092778717771748,0.00617315462117278));
#631=CARTESIAN_POINT('',(0.00545723585843224,-0.00827892667260499,0.00617315462117278));
#632=CARTESIAN_POINT('',(0.00664673718202569,-0.0075428164478448,0.00617315462117278));
#633=CARTESIAN_POINT('',(0.00957107049163722,-0.00485178968739856,0.00617315462117278));
#634=CARTESIAN_POINT('',(0.0076215149518962,-0.00664580752769605,0.00617315462117278));
#635=CARTESIAN_POINT('',(0.00426597952325243,-0.00901669968152565,0.00617315462117278));
#636=CARTESIAN_POINT('',(0.00426597952325243,-0.00901669968152565,0.00744479938956502));
#637=CARTESIAN_POINT('',(0.00784049388637795,-0.00680358036818839,0.00617315462117278));
#638=CARTESIAN_POINT('',(0.00784049388637795,-0.00680358036818839,0.00744479938956502));
#639=CARTESIAN_POINT('',(0.010101134642613,-0.00364382401189709,0.00617315462117278));
#640=CARTESIAN_POINT('',(0.010101134642613,-0.00364382401189709,0.00744479938956502));
#641=CARTESIAN_POINT('',(0.0109022136716059,-4.60689389069777E-5,0.00617315462117278));
#642=CARTESIAN_POINT('',(0.0109022136716059,-4.60689389069777E-5,0.00744479938956502));
#643=CARTESIAN_POINT('',(0.01013977897846,0.00355657489116997,0.00617315462117278));
#644=CARTESIAN_POINT('',(0.01013977897846,0.00355657489116997,0.00744479938956502));
#645=CARTESIAN_POINT('',(0.00791522362133487,0.00673316141313869,0.00617315462117278));
#646=CARTESIAN_POINT('',(0.00791522362133487,0.00673316141313869,0.00744479938956502));
#647=CARTESIAN_POINT('',(0.00436808828356791,0.00897700772298816,0.00617315462117278));
#648=CARTESIAN_POINT('',(0.00436808828356791,0.00897700772298816,0.00744479938956502));
#649=CARTESIAN_POINT('',(5.60962542377476E-5,0.00980001625344014,0.00617315462117278));
#650=CARTESIAN_POINT('',(5.60962542377476E-5,0.00980001625344014,0.00744479938956502));
#651=CARTESIAN_POINT('',(-0.00426597951716495,0.0090166996871542,0.00617315462117278));
#652=CARTESIAN_POINT('',(-0.00426597951716495,0.0090166996871542,0.00744479938956502));
#653=CARTESIAN_POINT('',(-0.0078404939089886,0.00680358034728243,0.00617315462117278));
#654=CARTESIAN_POINT('',(-0.0078404939089886,0.00680358034728243,0.00744479938956502));
#655=CARTESIAN_POINT('',(-0.0101011345582579,0.00364382408989243,0.00617315462117278));
#656=CARTESIAN_POINT('',(-0.0101011345582579,0.00364382408989243,0.00744479938956502));
#657=CARTESIAN_POINT('',(-0.010902213694216,4.60689180001875E-5,0.00617315462117278));
#658=CARTESIAN_POINT('',(-0.010902213694216,4.60689180001875E-5,0.00744479938956502));
#659=CARTESIAN_POINT('',(-0.0101397789723746,-0.00355657488553808,0.00617315462117278));
#660=CARTESIAN_POINT('',(-0.0101397789723746,-0.00355657488553808,0.00744479938956502));
#661=CARTESIAN_POINT('',(-0.00791522362307358,-0.00673316141474774,0.00617315462117278));
#662=CARTESIAN_POINT('',(-0.00791522362307358,-0.00673316141474774,0.00744479938956502));
#663=CARTESIAN_POINT('',(-0.00436808828269841,-0.00897700772218386,0.00617315462117278));
#664=CARTESIAN_POINT('',(-0.00436808828269841,-0.00897700772218386,0.00744479938956502));
#665=CARTESIAN_POINT('',(-5.60962559770037E-5,-0.00980001625504835,0.00617315462117278));
#666=CARTESIAN_POINT('',(-5.60962559770037E-5,-0.00980001625504835,0.00744479938956502));
#667=CARTESIAN_POINT('',(0.00426597952325243,-0.00901669968152565,0.00617315462117278));
#668=CARTESIAN_POINT('',(0.00426597952325243,-0.00901669968152565,0.00744479938956502));
#669=CARTESIAN_POINT('',(0.00784049388637795,-0.00680358036818839,0.00617315462117278));
#670=CARTESIAN_POINT('',(0.00784049388637795,-0.00680358036818839,0.00744479938956502));
#671=CARTESIAN_POINT('',(0.010101134642613,-0.00364382401189709,0.00617315462117278));
#672=CARTESIAN_POINT('',(0.010101134642613,-0.00364382401189709,0.00744479938956502));
#673=CARTESIAN_POINT('',(0.00664673718202569,-0.0075428164478448,0.00744479938956502));
#674=CARTESIAN_POINT('',(0.00957107049163722,-0.00485178968739856,0.00744479938956502));
#675=CARTESIAN_POINT('',(0.0106288801199523,-0.0024400543567647,0.00744479938956502));
#676=CARTESIAN_POINT('',(0.0106543759825465,0.00234954606464635,0.00744479938956502));
#677=CARTESIAN_POINT('',(0.00962306266186354,0.00476781131985003,0.00744479938956502));
#678=CARTESIAN_POINT('',(0.00673065910591007,0.00748265140675321,0.00744479938956502));
#679=CARTESIAN_POINT('',(0.00555022592985978,0.00822898716035028,0.00744479938956502));
#680=CARTESIAN_POINT('',(0.00293099840675497,0.00925141569249355,0.00744479938956502));
#681=CARTESIAN_POINT('',(0.00149421827585173,0.00952567552721145,0.00744479938956502));
#682=CARTESIAN_POINT('',(-0.00138538701473374,0.00953891528075619,0.00744479938956502));
#683=CARTESIAN_POINT('',(-0.00282553604935358,0.00927787177717928,0.00744479938956502));
#684=CARTESIAN_POINT('',(-0.00545723585844997,0.00827892667260051,0.00744479938956502));
#685=CARTESIAN_POINT('',(-0.00664673724695897,0.0075428163878061,0.00744479938956502));
#686=CARTESIAN_POINT('',(-0.00957107036177066,0.00485178980747597,0.00744479938956502));
#687=CARTESIAN_POINT('',(-0.0106288801199524,0.0024400543567622,0.00744479938956502));
#688=CARTESIAN_POINT('',(-0.0106543759825465,-0.00234954606464384,0.00744479938956502));
#689=CARTESIAN_POINT('',(-0.00962306266186685,-0.00476781131984734,0.00744479938956502));
#690=CARTESIAN_POINT('',(-0.00673065910590841,-0.00748265140675455,0.00744479938956502));
#691=CARTESIAN_POINT('',(-0.00555022592985625,-0.00822898716035029,0.00744479938956502));
#692=CARTESIAN_POINT('',(-0.00293099840675849,-0.00925141569249355,0.00744479938956502));
#693=CARTESIAN_POINT('',(-0.00149421827585455,-0.00952567552721327,0.00744479938956502));
#694=CARTESIAN_POINT('',(0.00138538701473655,-0.00953891528075437,0.00744479938956502));
#695=CARTESIAN_POINT('',(0.00282553604937131,-0.0092778717771748,0.00744479938956502));
#696=CARTESIAN_POINT('',(0.00545723585843224,-0.00827892667260499,0.00744479938956502));
#697=CARTESIAN_POINT('',(0.00664673718202569,-0.0075428164478448,0.00744479938956502));
#698=CARTESIAN_POINT('',(0.00957107049163722,-0.00485178968739856,0.00744479938956502));
#699=CARTESIAN_POINT('',(-0.00864174470926646,0.00555240131683976,0.00744479938956502));
#700=CARTESIAN_POINT('',(-0.00864174472877815,-0.00555277528105407,0.00744479938956502));
#701=CARTESIAN_POINT('',(0.00664673718202569,-0.0075428164478448,0.00744479938956502));
#702=CARTESIAN_POINT('',(0.00957107049163722,-0.00485178968739856,0.00744479938956502));
#703=CARTESIAN_POINT('',(0.0106288801199523,-0.0024400543567647,0.00744479938956502));
#704=CARTESIAN_POINT('',(0.0106543759825465,0.00234954606464635,0.00744479938956502));
#705=CARTESIAN_POINT('',(0.00962306266186354,0.00476781131985003,0.00744479938956502));
#706=CARTESIAN_POINT('',(0.00673065910591007,0.00748265140675321,0.00744479938956502));
#707=CARTESIAN_POINT('',(0.00555022592985978,0.00822898716035028,0.00744479938956502));
#708=CARTESIAN_POINT('',(0.00293099840675497,0.00925141569249355,0.00744479938956502));
#709=CARTESIAN_POINT('',(0.00149421827585173,0.00952567552721145,0.00744479938956502));
#710=CARTESIAN_POINT('',(-0.00138538701473374,0.00953891528075619,0.00744479938956502));
#711=CARTESIAN_POINT('',(-0.00282553604935358,0.00927787177717928,0.00744479938956502));
#712=CARTESIAN_POINT('',(-0.00545723585844997,0.00827892667260051,0.00744479938956502));
#713=CARTESIAN_POINT('',(-0.00664673724695897,0.0075428163878061,0.00744479938956502));
#714=CARTESIAN_POINT('',(-0.00957107036177066,0.00485178980747597,0.00744479938956502));
#715=CARTESIAN_POINT('',(-0.0106288801199524,0.0024400543567622,0.00744479938956502));
#716=CARTESIAN_POINT('',(-0.0106543759825465,-0.00234954606464384,0.00744479938956502));
#717=CARTESIAN_POINT('',(-0.00962306266186685,-0.00476781131984734,0.00744479938956502));
#718=CARTESIAN_POINT('',(-0.00673065910590841,-0.00748265140675455,0.00744479938956502));
#719=CARTESIAN_POINT('',(-0.00555022592985625,-0.00822898716035029,0.00744479938956502));
#720=CARTESIAN_POINT('',(-0.00293099840675849,-0.00925141569249355,0.00744479938956502));
#721=CARTESIAN_POINT('',(-0.00149421827585455,-0.00952567552721327,0.00744479938956502));
#722=CARTESIAN_POINT('',(0.00138538701473655,-0.00953891528075437,0.00744479938956502));
#723=CARTESIAN_POINT('',(0.00282553604937131,-0.0092778717771748,0.00744479938956502));
#724=CARTESIAN_POINT('',(0.00545723585843224,-0.00827892667260499,0.00744479938956502));
#725=CARTESIAN_POINT('',(0.00664673718202569,-0.0075428164478448,0.00744479938956502));
#726=CARTESIAN_POINT('',(0.00957107049163722,-0.00485178968739856,0.00744479938956502));
#727=CARTESIAN_POINT('',(0.00728294307088986,-0.00627788215293668,0.00125));
#728=CARTESIAN_POINT('',(0.,9.63549187631342E-21,0.00125));
#729=CARTESIAN_POINT('',(-0.00315,-0.00184390889145858,0.00125));
#730=CARTESIAN_POINT('',(-0.00315,0.00184390889145858,0.00125));
#731=CARTESIAN_POINT('',(-0.00315,-0.00627788215293668,0.00125));
#732=CARTESIAN_POINT('',(0.00722788558434192,-0.00836700394098056,0.00125));
#733=CARTESIAN_POINT('',(0.0104402049730428,-0.00541096694968329,0.00125));
#734=CARTESIAN_POINT('',(0.0116273664643819,-0.00272706815330309,0.00125));
#735=CARTESIAN_POINT('',(0.0116558613025686,0.00262591366981102,0.00125));
#736=CARTESIAN_POINT('',(0.010497948038325,0.00531812650459595,0.00125));
#737=CARTESIAN_POINT('',(0.00731977429484949,0.0083011934645676,0.00125));
#738=CARTESIAN_POINT('',(0.00602954843953126,0.00911536947473103,0.00125));
#739=CARTESIAN_POINT('',(0.00317894047664591,0.0102281185160799,0.00125));
#740=CARTESIAN_POINT('',(0.00162046924447242,0.0105251056243785,0.00125));
#741=CARTESIAN_POINT('',(-0.00150244254698571,0.0105394640444649,0.00125));
#742=CARTESIAN_POINT('',(-0.00306441611298029,0.0102568150908338,0.00125));
#743=CARTESIAN_POINT('',(-0.00592810782211716,0.00916981010486453,0.00125));
#744=CARTESIAN_POINT('',(-0.00722788565570791,0.00836700387507994,0.00125));
#745=CARTESIAN_POINT('',(-0.0104402048303109,0.00541096708148454,0.00125));
#746=CARTESIAN_POINT('',(-0.0116273664643786,0.0027270681532984,0.00125));
#747=CARTESIAN_POINT('',(-0.0116558613025719,-0.00262591366980632,0.00125));
#748=CARTESIAN_POINT('',(-0.0104979480383293,-0.00531812650459576,0.00125));
#749=CARTESIAN_POINT('',(-0.00731977429484733,-0.00830119346456769,0.00125));
#750=CARTESIAN_POINT('',(-0.00602954843952861,-0.00911536947473104,0.00125));
#751=CARTESIAN_POINT('',(-0.00317894047664854,-0.0102281185160799,0.00125));
#752=CARTESIAN_POINT('',(-0.00162046924447547,-0.0105251056243785,0.00125));
#753=CARTESIAN_POINT('',(0.00150244254698874,-0.0105394640444649,0.00125));
#754=CARTESIAN_POINT('',(0.00306441611299778,-0.0102568150908273,0.00125));
#755=CARTESIAN_POINT('',(0.00592810782209968,-0.00916981010487101,0.00125));
#756=CARTESIAN_POINT('',(0.00722788558434192,-0.00836700394098056,0.00125));
#757=CARTESIAN_POINT('',(0.0104402049730428,-0.00541096694968329,0.00125));
#758=CARTESIAN_POINT('',(0.00829865871390889,-0.0073816582772148,0.00125));
#759=CARTESIAN_POINT('',(0.00462643475220725,-0.00997388938597629,0.00125));
#760=CARTESIAN_POINT('',(0.00462643475220725,-0.00997388938597629,0.00215238230365969));
#761=CARTESIAN_POINT('',(0.0085325947013088,-0.0075620733231987,0.00125));
#762=CARTESIAN_POINT('',(0.0085325947013088,-0.0075620733231987,0.0021523823036597));
#763=CARTESIAN_POINT('',(0.0110351387260109,-0.00406776698451772,0.00125));
#764=CARTESIAN_POINT('',(0.0110351387260109,-0.00406776698451772,0.0021523823036597));
#765=CARTESIAN_POINT('',(0.0119340905768915,-5.16143596704157E-5,0.00125));
#766=CARTESIAN_POINT('',(0.0119340905768915,-5.16143596704165E-5,0.00215238230365969));
#767=CARTESIAN_POINT('',(0.0110781822672746,0.00397076097272319,0.00125));
#768=CARTESIAN_POINT('',(0.0110781822672746,0.00397076097272318,0.0021523823036597));
#769=CARTESIAN_POINT('',(0.00861483594063304,0.00748485628831663,0.00125));
#770=CARTESIAN_POINT('',(0.00861483594063304,0.00748485628831663,0.00215238230365969));
#771=CARTESIAN_POINT('',(0.00473746722624114,0.00993084074147258,0.00125));
#772=CARTESIAN_POINT('',(0.00473746722624114,0.00993084074147258,0.0021523823036597));
#773=CARTESIAN_POINT('',(6.07619029338965E-5,0.0108222447182259,0.00125));
#774=CARTESIAN_POINT('',(6.07619029338957E-5,0.0108222447182259,0.0021523823036597));
#775=CARTESIAN_POINT('',(-0.00462643474551658,0.00997388939215427,0.00125));
#776=CARTESIAN_POINT('',(-0.00462643474551658,0.00997388939215427,0.0021523823036597));
#777=CARTESIAN_POINT('',(-0.00853259472615994,0.00756207330025192,0.00125));
#778=CARTESIAN_POINT('',(-0.00853259472615994,0.00756207330025192,0.0021523823036597));
#779=CARTESIAN_POINT('',(-0.011035138633297,0.00406776707012687,0.00125));
#780=CARTESIAN_POINT('',(-0.011035138633297,0.00406776707012687,0.0021523823036597));
#781=CARTESIAN_POINT('',(-0.0119340906017414,5.16143367228607E-5,0.00125));
#782=CARTESIAN_POINT('',(-0.0119340906017414,5.16143367228599E-5,0.0021523823036597));
#783=CARTESIAN_POINT('',(-0.0110781822605888,-0.00397076096654204,0.00125));
#784=CARTESIAN_POINT('',(-0.0110781822605888,-0.00397076096654204,0.0021523823036597));
#785=CARTESIAN_POINT('',(-0.00861483594254336,-0.00748485629008261,0.00125));
#786=CARTESIAN_POINT('',(-0.00861483594254336,-0.00748485629008262,0.0021523823036597));
#787=CARTESIAN_POINT('',(-0.00473746722528566,-0.00993084074058979,0.00125));
#788=CARTESIAN_POINT('',(-0.00473746722528566,-0.00993084074058979,0.0021523823036597));
#789=CARTESIAN_POINT('',(-6.07619048454446E-5,-0.0108222447199911,0.00125));
#790=CARTESIAN_POINT('',(-6.07619048454454E-5,-0.0108222447199911,0.00215238230365969));
#791=CARTESIAN_POINT('',(0.00462643475220725,-0.00997388938597629,0.00125));
#792=CARTESIAN_POINT('',(0.00462643475220725,-0.00997388938597629,0.00215238230365969));
#793=CARTESIAN_POINT('',(0.0085325947013088,-0.0075620733231987,0.00125));
#794=CARTESIAN_POINT('',(0.0085325947013088,-0.0075620733231987,0.0021523823036597));
#795=CARTESIAN_POINT('',(0.0110351387260109,-0.00406776698451772,0.00125));
#796=CARTESIAN_POINT('',(0.0110351387260109,-0.00406776698451772,0.0021523823036597));
#797=CARTESIAN_POINT('',(-0.00864174467484204,-0.00555277534858799,0.011694799389565));
#798=CARTESIAN_POINT('',(-0.00864174467484204,-0.00555277534858799,0.00744479938956502));
#799=CARTESIAN_POINT('',(-0.00736533490517913,-0.00715098052574619,0.011694799389565));
#800=CARTESIAN_POINT('',(-0.00736533490517913,-0.00715098052574619,0.00744479938956502));
#801=CARTESIAN_POINT('',(-0.00451222948613738,-0.00905949051160761,0.011694799389565));
#802=CARTESIAN_POINT('',(-0.00451222948613738,-0.00905949051160761,0.00744479938956502));
#803=CARTESIAN_POINT('',(8.34275324153051E-5,-0.00970050182115387,0.011694799389565));
#804=CARTESIAN_POINT('',(8.34275324153051E-5,-0.00970050182115387,0.00744479938956502));
#805=CARTESIAN_POINT('',(0.00351651397265527,-0.0091710210052431,0.011694799389565));
#806=CARTESIAN_POINT('',(0.00351651397265527,-0.0091710210052431,0.00744479938956502));
#807=CARTESIAN_POINT('',(0.00655391306395519,-0.00770698047972435,0.011694799389565));
#808=CARTESIAN_POINT('',(0.00655391306395519,-0.00770698047972435,0.00744479938956502));
#809=CARTESIAN_POINT('',(0.00965461375793683,-0.0047837837461422,0.011694799389565));
#810=CARTESIAN_POINT('',(0.00965461375793683,-0.0047837837461422,0.00744479938956502));
#811=CARTESIAN_POINT('',(0.0112996828490287,3.91650920608111E-7,0.011694799389565));
#812=CARTESIAN_POINT('',(0.0112996828490287,3.91650920608111E-7,0.00744479938956502));
#813=CARTESIAN_POINT('',(0.00965506096998449,0.00478408168337333,0.011694799389565));
#814=CARTESIAN_POINT('',(0.00965506096998449,0.00478408168337333,0.00744479938956502));
#815=CARTESIAN_POINT('',(0.00655316554918928,0.00770742245770845,0.011694799389565));
#816=CARTESIAN_POINT('',(0.00655316554918928,0.00770742245770845,0.00744479938956502));
#817=CARTESIAN_POINT('',(0.0035158346045689,0.00917110641171387,0.011694799389565));
#818=CARTESIAN_POINT('',(0.0035158346045689,0.00917110641171387,0.00744479938956502));
#819=CARTESIAN_POINT('',(8.27381592131385E-5,0.00970054016497431,0.011694799389565));
#820=CARTESIAN_POINT('',(8.27381592131385E-5,0.00970054016497431,0.00744479938956502));
#821=CARTESIAN_POINT('',(-0.00451301025222118,0.00905930270411441,0.011694799389565));
#822=CARTESIAN_POINT('',(-0.00451301025222118,0.00905930270411441,0.00744479938956502));
#823=CARTESIAN_POINT('',(-0.00736563947965751,0.00715065499569555,0.011694799389565));
#824=CARTESIAN_POINT('',(-0.00736563947965751,0.00715065499569555,0.00744479938956502));
#825=CARTESIAN_POINT('',(-0.00864174470926732,0.00555240132244994,0.011694799389565));
#826=CARTESIAN_POINT('',(-0.00864174470926732,0.00555240132244994,0.00744479938956502));
#827=CARTESIAN_POINT('',(-0.00864174470926646,0.00555240132245101,0.013444799389565));
#828=CARTESIAN_POINT('',(-0.00864188673219562,0.00555251469923675,0.0116948611760439));
#829=CARTESIAN_POINT('',(-0.00864174473361404,0.00555240129195696,0.011694799389565));
#830=CARTESIAN_POINT('',(-0.00736563950910444,0.00715065497212004,0.011694799389565));
#831=CARTESIAN_POINT('',(-0.00451301028424323,0.00905930269281988,0.011694799389565));
#832=CARTESIAN_POINT('',(8.27381338271921E-5,0.00970054016577445,0.011694799389565));
#833=CARTESIAN_POINT('',(0.00351583458693176,0.00917110641780678,0.011694799389565));
#834=CARTESIAN_POINT('',(0.00655316553980612,0.00770742246489389,0.011694799389565));
#835=CARTESIAN_POINT('',(0.00965506096939032,0.00478408168715959,0.011694799389565));
#836=CARTESIAN_POINT('',(0.01129968285143,3.91645309094086E-7,0.011694799389565));
#837=CARTESIAN_POINT('',(0.00965461375133233,-0.00478378375989489,0.011694799389565));
#838=CARTESIAN_POINT('',(0.00655391304433587,-0.00770698049392538,0.011694799389565));
#839=CARTESIAN_POINT('',(0.00351651394266701,-0.00917102101514926,0.011694799389565));
#840=CARTESIAN_POINT('',(8.34274938943868E-5,-0.0097005018220596,0.011694799389565));
#841=CARTESIAN_POINT('',(-0.00451222953035716,-0.00905949049540021,0.011694799389565));
#842=CARTESIAN_POINT('',(-0.00736533494401745,-0.00715098049435836,0.011694799389565));
#843=CARTESIAN_POINT('',(-0.00864174470636966,-0.00555277530911196,0.011694799389565));
#844=CARTESIAN_POINT('',(-0.00864174470926646,-0.00555272278618695,0.0116947528399512));
#845=CARTESIAN_POINT('',(-0.00864174470926646,-0.00555277530548485,0.013444799389565));
#846=CARTESIAN_POINT('',(0.00694437118988351,-0.00590995677817731,0.013444799389565));
#847=CARTESIAN_POINT('',(0.,9.63549187631342E-21,0.013444799389565));
#848=CARTESIAN_POINT('',(-0.00215,0.00154919333848297,0.013444799389565));
#849=CARTESIAN_POINT('',(-0.00215,-0.00154919333848297,0.013444799389565));
#850=CARTESIAN_POINT('',(-0.00215,-0.00590995677817731,0.013444799389565));
#851=CARTESIAN_POINT('',(-0.00864174470926646,0.,0.013444799389565));
#852=CARTESIAN_POINT('',(-0.00864167403860179,-0.00180831945304345,0.013444799389565));
#853=CARTESIAN_POINT('',(-0.00864174470926646,0.0018082535585544,0.0134444820715248));
#854=CARTESIAN_POINT('',(-0.00864158420837674,-0.00180833025362648,0.013444799389565));
#855=CARTESIAN_POINT('',(-0.00850665387028694,-0.00229454703183595,0.013444799389565));
#856=CARTESIAN_POINT('',(-0.0081464011567213,-0.00322088821227217,0.013444799389565));
#857=CARTESIAN_POINT('',(-0.00727610077245234,-0.00453373777477882,0.013444799389565));
#858=CARTESIAN_POINT('',(-0.00625211467955002,-0.00558508036973651,0.013444799389565));
#859=CARTESIAN_POINT('',(-0.00495880037524668,-0.00650014000876945,0.013444799389565));
#860=CARTESIAN_POINT('',(-0.00361787588816395,-0.00714842940374066,0.013444799389565));
#861=CARTESIAN_POINT('',(-0.00163328739308789,-0.00774121794707124,0.013444799389565));
#862=CARTESIAN_POINT('',(0.000388677708920165,-0.00786550515117334,0.013444799389565));
#863=CARTESIAN_POINT('',(0.00243316746174102,-0.00752420020303683,0.013444799389565));
#864=CARTESIAN_POINT('',(0.00385255408035863,-0.00705324331893801,0.013444799389565));
#865=CARTESIAN_POINT('',(0.00524748638281337,-0.00632682692917414,0.013444799389565));
#866=CARTESIAN_POINT('',(0.00643047631787178,-0.00542529960704642,0.013444799389565));
#867=CARTESIAN_POINT('',(0.00749257678102109,-0.0042639727228746,0.013444799389565));
#868=CARTESIAN_POINT('',(0.0082579905566094,-0.00298246617525098,0.013444799389565));
#869=CARTESIAN_POINT('',(0.00878458153400026,-0.00149439476306823,0.013444799389565));
#870=CARTESIAN_POINT('',(0.00894574862206387,1.2295369832331E-6,0.013444799389565));
#871=CARTESIAN_POINT('',(0.00878345300765617,0.00150687703543277,0.013444799389565));
#872=CARTESIAN_POINT('',(0.00825495250612483,0.00299033923749021,0.013444799389565));
#873=CARTESIAN_POINT('',(0.00748778510917005,0.00426955215475627,0.013444799389565));
#874=CARTESIAN_POINT('',(0.00643534900282819,0.00542133332032661,0.013444799389565));
#875=CARTESIAN_POINT('',(0.00525188042775537,0.00632488054155675,0.013444799389565));
#876=CARTESIAN_POINT('',(0.00386954032826892,0.00704699369279027,0.013444799389565));
#877=CARTESIAN_POINT('',(0.00244781975791416,0.00752143185768633,0.013444799389565));
#878=CARTESIAN_POINT('',(0.000416609780666979,0.00786524812066023,0.013444799389565));
#879=CARTESIAN_POINT('',(-0.00161338508144517,0.00774565859699849,0.013444799389565));
#880=CARTESIAN_POINT('',(-0.00359438894511011,0.00715849865328677,0.013444799389565));
#881=CARTESIAN_POINT('',(-0.00494320574364038,0.00650954623404567,0.013444799389565));
#882=CARTESIAN_POINT('',(-0.00624164473847326,0.00559472029853304,0.013444799389565));
#883=CARTESIAN_POINT('',(-0.00727147739204892,0.0045404404356238,0.013444799389565));
#884=CARTESIAN_POINT('',(-0.00814429528206813,0.00322594716519723,0.013444799389565));
#885=CARTESIAN_POINT('',(-0.00850569887692884,0.00229645591199803,0.013444799389565));
#886=CARTESIAN_POINT('',(-0.00864093179885849,0.00180839358393944,0.013444799389565));
#887=CARTESIAN_POINT('',(-0.00149368436335997,0.,0.00744479938956502));
#888=CARTESIAN_POINT('',(-0.00864174470926646,0.,0.00744479938956502));
#889=CARTESIAN_POINT('',(-0.00864174470926646,0.,0.00744479938956502));
#890=CARTESIAN_POINT('',(-0.00864174470926646,0.00180819826724971,0.0134440679541265));
#891=CARTESIAN_POINT('',(-0.00864174470926646,0.00290511155261169,0.0131511569731307));
#892=CARTESIAN_POINT('',(-0.00864174470926646,0.0041533177984467,0.0125681352731825));
#893=CARTESIAN_POINT('',(-0.00864174470926646,0.00555281700475472,0.011695002854282));
#894=CARTESIAN_POINT('',(-0.00864174470926646,-0.00555263752967715,0.0116947319846718));
#895=CARTESIAN_POINT('',(-0.00864174470926646,-0.00415303997485325,0.0125681123624911));
#896=CARTESIAN_POINT('',(-0.00864174470926646,-0.00290492468447022,0.0131514200517897));
#897=CARTESIAN_POINT('',(-0.00864174470926646,-0.00180829165852806,0.0134446550525674));
#898=CARTESIAN_POINT('',(-0.00871364693077123,-0.0015261545899256,0.013444799389565));
#899=CARTESIAN_POINT('',(-0.00866034717163857,-0.00175454434906508,0.013444799389565));
#900=CARTESIAN_POINT('',(-0.00859564776279358,-0.00197974305372171,0.013444799389565));
#901=CARTESIAN_POINT('',(-0.00834535051758654,-0.00271522013139581,0.013444799389565));
#902=CARTESIAN_POINT('',(-0.0081053029212184,-0.00322098560857839,0.013444799389565));
#903=CARTESIAN_POINT('',(-0.0075357416054947,-0.00414663082582846,0.013444799389565));
#904=CARTESIAN_POINT('',(-0.00720438772138211,-0.00457564237388943,0.013444799389565));
#905=CARTESIAN_POINT('',(-0.00645585574743881,-0.005365498391922,0.013444799389565));
#906=CARTESIAN_POINT('',(-0.00603233180200154,-0.00572853804684075,0.013444799389565));
#907=CARTESIAN_POINT('',(-0.00514726575301077,-0.00635565256736054,0.013444799389565));
#908=CARTESIAN_POINT('',(-0.0046773440451745,-0.00662859462175971,0.013444799389565));
#909=CARTESIAN_POINT('',(-0.00369359289709051,-0.00709189917023622,0.013444799389565));
#910=CARTESIAN_POINT('',(-0.00317126506651466,-0.00728318163412975,0.013444799389565));
#911=CARTESIAN_POINT('',(-0.00212182536028638,-0.00757005628613231,0.013444799389565));
#912=CARTESIAN_POINT('',(-0.0015869052288195,-0.00767026231856303,0.013444799389565));
#913=CARTESIAN_POINT('',(-0.000505478002155339,-0.0077844983062094,0.013444799389565));
#914=CARTESIAN_POINT('',(4.95618184176169E-5,-0.00779740588278389,0.013444799389565));
#915=CARTESIAN_POINT('',(0.00113820525994446,-0.00773180652693909,0.013444799389565));
#916=CARTESIAN_POINT('',(0.00167739595503253,-0.0076555882291421,0.013444799389565));
#917=CARTESIAN_POINT('',(0.00274105567693669,-0.00741601294585735,0.013444799389565));
#918=CARTESIAN_POINT('',(0.00327060684422698,-0.00724965244540224,0.013444799389565));
#919=CARTESIAN_POINT('',(0.00478160219482589,-0.00662573906440642,0.013444799389565));
#920=CARTESIAN_POINT('',(0.00572726707731235,-0.00602942727657339,0.013444799389565));
#921=CARTESIAN_POINT('',(0.00691434225305459,-0.00490744221125277,0.013444799389565));
#922=CARTESIAN_POINT('',(0.00727647653452569,-0.00448873582714429,0.013444799389565));
#923=CARTESIAN_POINT('',(0.00790084620813292,-0.00358767460930425,0.013444799389565));
#924=CARTESIAN_POINT('',(0.00816253471798994,-0.00311011686222011,0.013444799389565));
#925=CARTESIAN_POINT('',(0.00878475308333711,-0.00158632185670792,0.013444799389565));
#926=CARTESIAN_POINT('',(0.00896786270035306,-0.000491318976693396,0.013444799389565));
#927=CARTESIAN_POINT('',(0.0087575861503554,0.00172099332782241,0.013444799389565));
#928=CARTESIAN_POINT('',(0.00839376817400845,0.00275312845591761,0.013444799389565));
#929=CARTESIAN_POINT('',(0.00723860762060941,0.00462857806483974,0.013444799389565));
#930=CARTESIAN_POINT('',(0.00648384957368996,0.00540927172627289,0.013444799389565));
#931=CARTESIAN_POINT('',(0.00468660640345357,0.00668139877888428,0.013444799389565));
#932=CARTESIAN_POINT('',(0.00370656977304103,0.00713697996373346,0.013444799389565));
#933=CARTESIAN_POINT('',(0.00158454146157983,0.00771679990834527,0.013444799389565));
#934=CARTESIAN_POINT('',(0.000505779003650345,0.00783059990763505,0.013444799389565));
#935=CARTESIAN_POINT('',(-0.00168971532427407,0.00769884115736511,0.013444799389565));
#936=CARTESIAN_POINT('',(-0.00275678753277859,0.0074615790354542,0.013444799389565));
#937=CARTESIAN_POINT('',(-0.00428029712599399,0.00683285466536112,0.013444799389565));
#938=CARTESIAN_POINT('',(-0.00476508128208775,0.00658078754823964,0.013444799389565));
#939=CARTESIAN_POINT('',(-0.00568290042240095,0.00599575867280691,0.013444799389565));
#940=CARTESIAN_POINT('',(-0.00612185303338044,0.00565600008746392,0.013444799389565));
#941=CARTESIAN_POINT('',(-0.00731320287192665,0.00453140591034081,0.013444799389565));
#942=CARTESIAN_POINT('',(-0.00795524687132755,0.00361830596926763,0.013444799389565));
#943=CARTESIAN_POINT('',(-0.00851213403957392,0.00225376255775422,0.013444799389565));
#944=CARTESIAN_POINT('',(-0.00862764840283109,0.00189242494706479,0.013444799389565));
#945=CARTESIAN_POINT('',(-0.00871328863968716,0.00152445886682098,0.013444799389565));
#946=CARTESIAN_POINT('',(-0.010417774791282,-0.0019242078703275,0.011694799389565));
#947=CARTESIAN_POINT('',(-0.0103510910889199,-0.00220988592776537,0.011694799389565));
#948=CARTESIAN_POINT('',(-0.0102703453275151,-0.00249063513862563,0.011694799389565));
#949=CARTESIAN_POINT('',(-0.00995892176242682,-0.00340572571799336,0.011694799389565));
#950=CARTESIAN_POINT('',(-0.0096617692425123,-0.00403078109960727,0.011694799389565));
#951=CARTESIAN_POINT('',(-0.00896127289466325,-0.00516923546883043,0.011694799389565));
#952=CARTESIAN_POINT('',(-0.00855578051300106,-0.00569377756960097,0.011694799389565));
#953=CARTESIAN_POINT('',(-0.00764359834586275,-0.0066562615898817,0.011694799389565));
#954=CARTESIAN_POINT('',(-0.0071316212026568,-0.00709443714377183,0.011694799389565));
#955=CARTESIAN_POINT('',(-0.00607289387802738,-0.0078445229907633,0.011694799389565));
#956=CARTESIAN_POINT('',(-0.00551400041016945,-0.00816888482320443,0.011694799389565));
#957=CARTESIAN_POINT('',(-0.00434642383593153,-0.00871885186628318,0.011694799389565));
#958=CARTESIAN_POINT('',(-0.00372636209508166,-0.00894570509199306,0.011694799389565));
#959=CARTESIAN_POINT('',(-0.00249126277461279,-0.00928321587972745,0.011694799389565));
#960=CARTESIAN_POINT('',(-0.00186354199910595,-0.00940072324741795,0.011694799389565));
#961=CARTESIAN_POINT('',(-0.000595035209732576,-0.00953482780060269,0.011694799389565));
#962=CARTESIAN_POINT('',(5.90974341710584E-5,-0.00955003984068498,0.011694799389565));
#963=CARTESIAN_POINT('',(0.00133754496230084,-0.00947293430983897,0.011694799389565));
#964=CARTESIAN_POINT('',(0.00196942686392584,-0.00938362825765563,0.011694799389565));
#965=CARTESIAN_POINT('',(0.00321910999578191,-0.00910220324671806,0.011694799389565));
#966=CARTESIAN_POINT('',(0.00384444524645082,-0.00890604002287998,0.011694799389565));
#967=CARTESIAN_POINT('',(0.00563859014441075,-0.00816516126981664,0.011694799389565));
#968=CARTESIAN_POINT('',(0.00676002238162212,-0.00746100440776854,0.011694799389565));
#969=CARTESIAN_POINT('',(0.0082018203421485,-0.00609867474274978,0.011694799389565));
#970=CARTESIAN_POINT('',(0.00864394023553437,-0.00558786511857904,0.011694799389565));
#971=CARTESIAN_POINT('',(0.00940968193339229,-0.00448276235983112,0.011694799389565));
#972=CARTESIAN_POINT('',(0.00973255151252617,-0.00389388821437327,0.011694799389565));
#973=CARTESIAN_POINT('',(0.0105040849433622,-0.00200600521707502,0.011694799389565));
#974=CARTESIAN_POINT('',(0.0107382374984007,-0.000620890696135973,0.011694799389565));
#975=CARTESIAN_POINT('',(0.0104718596288252,0.00217801945472304,0.011694799389565));
#976=CARTESIAN_POINT('',(0.0100158107005248,0.00345579884564801,0.011694799389565));
#977=CARTESIAN_POINT('',(0.00859656966215483,0.00576154728416425,0.011694799389565));
#978=CARTESIAN_POINT('',(0.00767064993493741,0.00671333406682485,0.011694799389565));
#979=CARTESIAN_POINT('',(0.00552292587557632,0.00823338022998262,0.011694799389565));
#980=CARTESIAN_POINT('',(0.00435716812819929,0.00877330309406122,0.011694799389565));
#981=CARTESIAN_POINT('',(0.00185812619508948,0.00945625603896162,0.011694799389565));
#982=CARTESIAN_POINT('',(0.000594519411234797,0.00958910031154417,0.011694799389565));
#983=CARTESIAN_POINT('',(-0.00198666322477825,0.00943414235627951,0.011694799389565));
#984=CARTESIAN_POINT('',(-0.00323490186654947,0.00915751943911137,0.011694799389565));
#985=CARTESIAN_POINT('',(-0.00504306724299938,0.00841119175925004,0.011694799389565));
#986=CARTESIAN_POINT('',(-0.00561779528466548,0.00811255105590338,0.011694799389565));
#987=CARTESIAN_POINT('',(-0.00671245369472664,0.00741476962379428,0.011694799389565));
#988=CARTESIAN_POINT('',(-0.0072392214365309,0.00700761321520153,0.011694799389565));
#989=CARTESIAN_POINT('',(-0.00868638274647876,0.00564202774098841,0.011694799389565));
#990=CARTESIAN_POINT('',(-0.00947553893383238,0.00452299152856004,0.011694799389565));
#991=CARTESIAN_POINT('',(-0.0101660384830097,0.00283310059562786,0.011694799389565));
#992=CARTESIAN_POINT('',(-0.0103100993478251,0.00238195008064158,0.011694799389565));
#993=CARTESIAN_POINT('',(-0.0104172658729096,0.00192028986351152,0.011694799389565));
#994=CARTESIAN_POINT('',(-0.00215,-2.16840434497101E-19,0.0633358672048897));
#995=CARTESIAN_POINT('',(-0.00215,-0.00154919333848297,0.0633358672048897));
#996=CARTESIAN_POINT('',(-0.00215,0.00154919333848297,0.0633358672048897));
#997=CARTESIAN_POINT('',(-0.00215,-2.16840434497101E-19,0.0633358672048897));
#998=CARTESIAN_POINT('',(-0.00215,-0.00154919333848297,0.0633358672048897));
#999=CARTESIAN_POINT('',(-0.00215,-0.00154919333848297,0.00225));
#1000=CARTESIAN_POINT('',(-0.00215,-2.16840434497101E-19,0.00225));
#1001=CARTESIAN_POINT('',(-0.00215,0.00154919333848297,0.00225));
#1002=CARTESIAN_POINT('',(-0.00215,0.00154919333848297,0.0633358672048897));
#1003=CARTESIAN_POINT('',(0.,9.63549187631342E-21,0.0633358672048897));
#1004=CARTESIAN_POINT('',(0.,9.63549187631342E-21,0.00225));
#1005=CARTESIAN_POINT('',(0.,9.63549187631342E-21,0.00125));
#1006=CARTESIAN_POINT('',(-0.00315,-0.00184390889145858,0.00125));
#1007=CARTESIAN_POINT('',(-0.00281555423673228,-0.00175321955078211,0.00158444576326772));
#1008=CARTESIAN_POINT('',(-0.00248201888478167,-0.00165635197276511,0.00191798111521833));
#1009=CARTESIAN_POINT('',(-0.00215,-0.00154919333848297,0.00225));
#1010=CARTESIAN_POINT('',(-0.00215,0.00154919333848297,0.00225));
#1011=CARTESIAN_POINT('',(-0.00248201888478167,0.00165635197276511,0.00191798111521833));
#1012=CARTESIAN_POINT('',(-0.00281555423673228,0.00175321955078211,0.00158444576326772));
#1013=CARTESIAN_POINT('',(-0.00315,0.00184390889145858,0.00125));
#1014=CARTESIAN_POINT('',(-0.00315,-0.00627788215293668,0.00125));
#1015=MECHANICAL_DESIGN_GEOMETRIC_PRESENTATION_REPRESENTATION('',(#249),
#1016);
#1016=(
GEOMETRIC_REPRESENTATION_CONTEXT(3)
GLOBAL_UNCERTAINTY_ASSIGNED_CONTEXT((#1017))
GLOBAL_UNIT_ASSIGNED_CONTEXT((#1020,#1019,#1018))
REPRESENTATION_CONTEXT('WG','TOP_LEVEL_ASSEMBLY_PART')
);
#1017=UNCERTAINTY_MEASURE_WITH_UNIT(LENGTH_MEASURE(2.E-5),#1020,
'DISTANCE_ACCURACY_VALUE','Maximum Tolerance applied to model');
#1018=(
NAMED_UNIT(*)
SI_UNIT($,.STERADIAN.)
SOLID_ANGLE_UNIT()
);
#1019=(
NAMED_UNIT(*)
PLANE_ANGLE_UNIT()
SI_UNIT($,.RADIAN.)
);
#1020=(
LENGTH_UNIT()
NAMED_UNIT(*)
SI_UNIT($,.METRE.)
);
#1021=PRODUCT_DEFINITION_SHAPE('','',#1022);
#1022=PRODUCT_DEFINITION('','',#1024,#1023);
#1023=PRODUCT_DEFINITION_CONTEXT('',#1030,'design');
#1024=PRODUCT_DEFINITION_FORMATION_WITH_SPECIFIED_SOURCE('','',#1026,
 .NOT_KNOWN.);
#1025=PRODUCT_RELATED_PRODUCT_CATEGORY('','',(#1026));
#1026=PRODUCT('WG','WG','WG',(#1028));
#1027=PRODUCT_CATEGORY('','');
#1028=PRODUCT_CONTEXT('',#1030,'mechanical');
#1029=APPLICATION_PROTOCOL_DEFINITION('international standard',
'ap242_managed_model_based_3d_engineering',2020,#1030);
#1030=APPLICATION_CONTEXT('managed model based 3d engineering');
ENDSEC;
END-ISO-10303-21;
